<svg width="12" height="13" viewBox="0 0 12 13" fill="none" xmlns="http://www.w3.org/2000/svg">
<path d="M7.16667 8.25049V9.41715C7.16667 9.57186 7.10521 9.72024 6.99581 9.82963C6.88642 9.93903 6.73804 10.0005 6.58333 10.0005H2.5L0.75 11.7505V5.91715C0.75 5.76245 0.811458 5.61407 0.920854 5.50468C1.03025 5.39528 1.17862 5.33382 1.33333 5.33382H2.5M11.25 7.66715L9.5 5.91715H5.41667C5.26196 5.91715 5.11358 5.8557 5.00419 5.7463C4.89479 5.6369 4.83333 5.48853 4.83333 5.33382V1.83382C4.83333 1.67911 4.89479 1.53074 5.00419 1.42134C5.11358 1.31195 5.26196 1.25049 5.41667 1.25049H10.6667C10.8214 1.25049 10.9697 1.31195 11.0791 1.42134C11.1885 1.53074 11.25 1.67911 11.25 1.83382V7.66715Z" stroke="white" stroke-linecap="round" stroke-linejoin="round"/>
</svg>
