<svg width="12" height="11" viewBox="0 0 12 11" fill="none" xmlns="http://www.w3.org/2000/svg">
<path d="M1 2.00049C1 1.73527 1.10536 1.48092 1.29289 1.29338C1.48043 1.10585 1.73478 1.00049 2 1.00049H5V10.0005H2C1.73478 10.0005 1.48043 9.89513 1.29289 9.70759C1.10536 9.52006 1 9.2657 1 9.00049V2.00049ZM7 1.00049H10C10.2652 1.00049 10.5196 1.10585 10.7071 1.29338C10.8946 1.48092 11 1.73527 11 2.00049V4.50049H7V1.00049ZM7 6.50049H11V9.00049C11 9.2657 10.8946 9.52006 10.7071 9.70759C10.5196 9.89513 10.2652 10.0005 10 10.0005H7V6.50049Z" stroke="white" stroke-linecap="round" stroke-linejoin="round"/>
</svg>