<svg width="12" height="12" viewBox="0 0 12 12" fill="none" xmlns="http://www.w3.org/2000/svg">
<path d="M9.93795 7.81298C9.55125 7.81278 9.17548 7.9413 8.86991 8.17829L7.60608 7.19392C7.70149 6.9752 7.75064 6.73911 7.75045 6.50048C7.75045 6.46001 7.75045 6.41954 7.74608 6.37962L8.46959 6.13845C8.69849 6.49148 9.04692 6.75023 9.45105 6.86729C9.85518 6.98435 10.288 6.9519 10.6701 6.77587C11.0523 6.59984 11.3582 6.29202 11.5319 5.9088C11.7056 5.52558 11.7354 5.09261 11.6158 4.6892C11.4963 4.28579 11.2354 3.93896 10.881 3.71223C10.5266 3.48549 10.1023 3.39404 9.68597 3.45463C9.26961 3.51521 8.88902 3.72377 8.6139 4.04211C8.33879 4.36044 8.18757 4.76724 8.18795 5.18798C8.18795 5.22845 8.18795 5.26892 8.19233 5.30884L7.46881 5.55001C7.31021 5.30481 7.09276 5.1032 6.83629 4.96355C6.57982 4.8239 6.29248 4.75065 6.00045 4.75048C5.90389 4.75068 5.80751 4.75873 5.71225 4.77454L5.33819 3.93017C5.66118 3.67209 5.88238 3.308 5.96257 2.90242C6.04275 2.49683 5.97676 2.07596 5.77628 1.71439C5.5758 1.35281 5.25378 1.07389 4.8673 0.927066C4.48081 0.780239 4.05483 0.774985 3.66484 0.912235C3.27485 1.04949 2.94605 1.32038 2.73671 1.67689C2.52738 2.03341 2.45102 2.45253 2.52118 2.85997C2.59134 3.26741 2.80349 3.63685 3.12002 3.90281C3.43655 4.16877 3.83702 4.31408 4.25045 4.31298C4.34701 4.31278 4.4434 4.30473 4.53866 4.28892L4.91272 5.13111C4.59551 5.38217 4.37535 5.73561 4.28986 6.13102C4.20437 6.52642 4.25888 6.93925 4.44405 7.29892L3.03803 8.54798C2.68419 8.30944 2.25551 8.20814 1.83232 8.26306C1.40914 8.31798 1.02051 8.52536 0.73928 8.84631C0.458054 9.16727 0.303538 9.57978 0.304694 10.0065C0.30585 10.4332 0.462599 10.8449 0.745561 11.1643C1.02852 11.4838 1.41827 11.689 1.84175 11.7417C2.26522 11.7943 2.69336 11.6907 3.0459 11.4502C3.39844 11.2098 3.65118 10.849 3.75675 10.4355C3.86232 10.022 3.81347 9.58426 3.61936 9.20423L5.02538 7.95517C5.3298 8.16014 5.69111 8.26392 6.05791 8.25175C6.42471 8.23957 6.77833 8.11207 7.0685 7.88736L8.33233 8.87173C8.23721 9.08978 8.18807 9.32509 8.18795 9.56298C8.18795 9.9091 8.29059 10.2474 8.48288 10.5352C8.67517 10.823 8.94849 11.0473 9.26826 11.1798C9.58803 11.3122 9.93989 11.3469 10.2794 11.2794C10.6188 11.2118 10.9306 11.0452 11.1754 10.8004C11.4201 10.5557 11.5868 10.2439 11.6543 9.90439C11.7219 9.56492 11.6872 9.21306 11.5547 8.89329C11.4223 8.57352 11.198 8.3002 10.9102 8.10791C10.6224 7.91562 10.2841 7.81298 9.93795 7.81298ZM9.93795 4.31298C10.111 4.31298 10.2802 4.3643 10.4241 4.46045C10.568 4.55659 10.6801 4.69325 10.7463 4.85313C10.8126 5.01302 10.8299 5.18895 10.7961 5.35869C10.7624 5.52842 10.679 5.68433 10.5567 5.8067C10.4343 5.92907 10.2784 6.01241 10.1087 6.04617C9.93892 6.07993 9.76299 6.0626 9.60311 5.99638C9.44322 5.93015 9.30656 5.818 9.21042 5.67411C9.11427 5.53021 9.06295 5.36104 9.06295 5.18798C9.06295 4.95592 9.15514 4.73336 9.31924 4.56926C9.48333 4.40517 9.70589 4.31298 9.93795 4.31298ZM3.37545 2.56298C3.37545 2.38992 3.42677 2.22075 3.52292 2.07686C3.61906 1.93297 3.75572 1.82081 3.91561 1.75459C4.07549 1.68836 4.25142 1.67103 4.42116 1.70479C4.59089 1.73856 4.7468 1.82189 4.86917 1.94426C4.99154 2.06663 5.07488 2.22254 5.10864 2.39228C5.1424 2.56201 5.12508 2.73794 5.05885 2.89783C4.99262 3.05772 4.88047 3.19437 4.73658 3.29052C4.59268 3.38666 4.42351 3.43798 4.25045 3.43798C4.01839 3.43798 3.79583 3.34579 3.63174 3.1817C3.46764 3.01761 3.37545 2.79505 3.37545 2.56298ZM2.06295 10.8755C1.8899 10.8755 1.72072 10.8242 1.57683 10.728C1.43294 10.6319 1.32079 10.4952 1.25456 10.3353C1.18833 10.1754 1.17101 9.99951 1.20477 9.82978C1.23853 9.66004 1.32186 9.50414 1.44424 9.38176C1.56661 9.25939 1.72252 9.17606 1.89225 9.14229C2.06198 9.10853 2.23792 9.12586 2.3978 9.19209C2.55769 9.25831 2.69434 9.37047 2.79049 9.51436C2.88664 9.65825 2.93795 9.82742 2.93795 10.0005C2.93795 10.2325 2.84577 10.4551 2.68167 10.6192C2.51758 10.7833 2.29502 10.8755 2.06295 10.8755ZM5.12545 6.50048C5.12545 6.32742 5.17677 6.15825 5.27292 6.01436C5.36906 5.87047 5.50572 5.75831 5.66561 5.69209C5.82549 5.62586 6.00142 5.60853 6.17116 5.64229C6.34089 5.67606 6.4968 5.75939 6.61917 5.88176C6.74154 6.00413 6.82488 6.16004 6.85864 6.32978C6.8924 6.49951 6.87507 6.67545 6.80885 6.83533C6.74262 6.99522 6.63047 7.13187 6.48658 7.22802C6.34268 7.32416 6.17351 7.37548 6.00045 7.37548C5.76839 7.37548 5.54583 7.28329 5.38174 7.1192C5.21764 6.95511 5.12545 6.73255 5.12545 6.50048ZM9.93795 10.438C9.7649 10.438 9.59572 10.3867 9.45183 10.2905C9.30794 10.1944 9.19579 10.0577 9.12956 9.89783C9.06333 9.73795 9.046 9.56201 9.07977 9.39228C9.11353 9.22254 9.19687 9.06664 9.31924 8.94426C9.44161 8.82189 9.59752 8.73856 9.76725 8.7048C9.93698 8.67103 10.1129 8.68836 10.2728 8.75459C10.4327 8.82081 10.5693 8.93297 10.6655 9.07686C10.7616 9.22075 10.813 9.38992 10.813 9.56298C10.813 9.79505 10.7208 10.0176 10.5567 10.1817C10.3926 10.3458 10.17 10.438 9.93795 10.438Z" fill="white"/>
</svg>
