<svg width="11" height="9" viewBox="0 0 11 9" fill="none" xmlns="http://www.w3.org/2000/svg">
<path d="M1 2.00049V8.00049H8.5V9.00049H1C0 9.00049 0 8.00049 0 8.00049V2.00049H1ZM9.65 0.000488281H2.85C2.38 0.000488281 2 0.350488 2 0.775488V6.22549C2 6.65549 2.38 7.00049 2.85 7.00049H9.65C10.12 7.00049 10.5 6.65549 10.5 6.22549V0.775488C10.5 0.350488 10.12 0.000488281 9.65 0.000488281ZM3 1.00049H5.5V4.00049H3V1.00049ZM9.5 6.00049H3V5.00049H9.5V6.00049ZM9.5 4.00049H6.5V3.00049H9.5V4.00049ZM9.5 2.00049H6.5V1.00049H9.5V2.00049Z" fill="white"/>
</svg>
