<svg width="14" height="15" viewBox="0 0 14 15" fill="none" xmlns="http://www.w3.org/2000/svg">
<path fill-rule="evenodd" clip-rule="evenodd" d="M7 9.25049C7.9665 9.25049 8.75 8.46699 8.75 7.50049C8.75 6.53399 7.9665 5.75049 7 5.75049C6.0335 5.75049 5.25 6.53399 5.25 7.50049C5.25 8.46699 6.0335 9.25049 7 9.25049ZM7 8.37549C7.48325 8.37549 7.875 7.98374 7.875 7.50049C7.875 7.01724 7.48325 6.62549 7 6.62549C6.51675 6.62549 6.125 7.01724 6.125 7.50049C6.125 7.98374 6.51675 8.37549 7 8.37549Z" fill="white"/>
<path fill-rule="evenodd" clip-rule="evenodd" d="M7 4.87549C5.55025 4.87549 4.375 6.05074 4.375 7.50049C4.375 7.74211 4.17912 7.93799 3.9375 7.93799C3.69588 7.93799 3.5 7.74211 3.5 7.50049C3.5 5.56749 5.067 4.00049 7 4.00049C7.24162 4.00049 7.4375 4.19636 7.4375 4.43799C7.4375 4.67961 7.24162 4.87549 7 4.87549ZM10.0625 7.06299C10.3041 7.06299 10.5 7.25886 10.5 7.50049C10.5 9.43349 8.933 11.0005 7 11.0005C6.75838 11.0005 6.5625 10.8046 6.5625 10.563C6.5625 10.3214 6.75838 10.1255 7 10.1255C8.44975 10.1255 9.625 8.95024 9.625 7.50049C9.625 7.25886 9.82088 7.06299 10.0625 7.06299Z" fill="white"/>
<path fill-rule="evenodd" clip-rule="evenodd" d="M7 3.12549C4.58375 3.12549 2.625 5.08424 2.625 7.50049C2.625 7.74211 2.42912 7.93799 2.1875 7.93799C1.94588 7.93799 1.75 7.74211 1.75 7.50049C1.75 4.60099 4.10051 2.25049 7 2.25049C7.24162 2.25049 7.4375 2.44636 7.4375 2.68799C7.4375 2.92961 7.24162 3.12549 7 3.12549ZM11.8125 7.06299C12.0541 7.06299 12.25 7.25886 12.25 7.50049C12.25 10.4 9.8995 12.7505 7 12.7505C6.75838 12.7505 6.5625 12.5546 6.5625 12.313C6.5625 12.0714 6.75838 11.8755 7 11.8755C9.41625 11.8755 11.375 9.91673 11.375 7.50049C11.375 7.25886 11.5709 7.06299 11.8125 7.06299Z" fill="white"/>
</svg>
