<svg width="13" height="13" viewBox="0 0 13 13" fill="none" xmlns="http://www.w3.org/2000/svg">
<path fill-rule="evenodd" clip-rule="evenodd" d="M4.45222 0.667236C4.05439 0.667236 3.67286 0.825272 3.39156 1.10658C3.11025 1.38788 2.95222 1.76941 2.95222 2.16724V3.23867H1.88079C1.42613 3.23867 0.990098 3.41928 0.668607 3.74077C0.347116 4.06226 0.166504 4.49829 0.166504 4.95295V10.953C0.166504 11.4076 0.347116 11.8436 0.668607 12.1651C0.990098 12.4866 1.42613 12.6672 1.88079 12.6672H10.4522C10.9069 12.6672 11.3429 12.4866 11.6644 12.1651C11.9859 11.8436 12.1665 11.4076 12.1665 10.953V4.95295C12.1665 4.49829 11.9859 4.06226 11.6644 3.74077C11.3429 3.41928 10.9069 3.23867 10.4522 3.23867H9.38079V2.16724C9.38079 1.76941 9.22276 1.38788 8.94145 1.10658C8.66015 0.825272 8.27861 0.667236 7.88079 0.667236H4.45222ZM8.09508 3.23867V2.16724C8.09508 2.1104 8.0725 2.0559 8.03231 2.01571C7.99213 1.97553 7.93762 1.95295 7.88079 1.95295H4.45222C4.39539 1.95295 4.34088 1.97553 4.3007 2.01571C4.26051 2.0559 4.23793 2.1104 4.23793 2.16724V3.23867H8.09508ZM1.88079 4.52438H10.4522C10.5659 4.52438 10.6749 4.56953 10.7553 4.64991C10.8356 4.73028 10.8808 4.83929 10.8808 4.95295V5.81009H1.45222V4.95295C1.45222 4.83929 1.49737 4.73028 1.57774 4.64991C1.65812 4.56953 1.76713 4.52438 1.88079 4.52438ZM1.45222 7.09581V10.953C1.45222 11.0666 1.49737 11.1756 1.57774 11.256C1.65812 11.3364 1.76713 11.3815 1.88079 11.3815H10.4522C10.5659 11.3815 10.6749 11.3364 10.7553 11.256C10.8356 11.1756 10.8808 11.0666 10.8808 10.953V7.09581H7.02365V8.38152H5.30936V7.09581H1.45222Z" fill="white"/>
</svg>
