<svg width="1440" height="541" viewBox="0 0 1440 541" fill="none" xmlns="http://www.w3.org/2000/svg">
<g filter="url(#filter0_f_2002_27760)">
<g clip-path="url(#clip0_2002_27760)">
<rect x="12" y="208.547" width="32.6062" height="125.093" fill="url(#paint0_linear_2002_27760)"/>
<rect x="98.9688" y="227.014" width="32.6062" height="89.3523" fill="url(#paint1_linear_2002_27760)"/>
<rect x="185.797" y="217.762" width="32.6062" height="107.223" fill="url(#paint2_linear_2002_27760)"/>
<rect x="272.781" y="236.252" width="32.6062" height="71.4818" fill="url(#paint3_linear_2002_27760)"/>
<rect width="32.6062" height="196.575" transform="matrix(1 0 0 -1 185.797 356.258)" fill="url(#paint4_linear_2002_27760)"/>
<rect width="32.6062" height="137.602" transform="matrix(1 0 0 -1 272.781 337.805)" fill="url(#paint5_linear_2002_27760)"/>
<rect width="32.6062" height="98.2875" transform="matrix(1 0 0 -1 359.766 319.354)" fill="url(#paint6_linear_2002_27760)"/>
<rect width="32.6062" height="117.945" transform="matrix(1 0 0 -1 446.641 328.568)" fill="url(#paint7_linear_2002_27760)"/>
<rect width="32.6062" height="78.63" transform="matrix(1 0 0 -1 533.609 310.111)" fill="url(#paint8_linear_2002_27760)"/>
<rect width="32.6062" height="58.9725" transform="matrix(1 0 0 -1 620.547 291.66)" fill="url(#paint9_linear_2002_27760)"/>
<rect width="32.6062" height="98.2875" transform="matrix(1 0 0 -1 707.562 319.354)" fill="url(#paint10_linear_2002_27760)"/>
<rect width="32.6062" height="393.15" transform="matrix(1 0 0 -1 794.391 467.076)" fill="url(#paint11_linear_2002_27760)"/>
<rect width="32.6062" height="393.15" transform="matrix(1 0 0 -1 881.422 467.076)" fill="url(#paint12_linear_2002_27760)"/>
<rect width="32.6062" height="294.862" transform="matrix(1 0 0 -1 968.359 411.693)" fill="url(#paint13_linear_2002_27760)"/>
<rect width="32.6062" height="235.89" transform="matrix(1 0 0 -1 1055.33 383.988)" fill="url(#paint14_linear_2002_27760)"/>
<rect width="32.6062" height="176.917" transform="matrix(1 0 0 -1 1142.3 347.02)" fill="url(#paint15_linear_2002_27760)"/>
<rect width="32.6062" height="137.602" transform="matrix(1 0 0 -1 1229.19 337.805)" fill="url(#paint16_linear_2002_27760)"/>
<rect width="32.6062" height="196.575" transform="matrix(1 0 0 -1 1316.16 356.258)" fill="url(#paint17_linear_2002_27760)"/>
<rect width="32.6062" height="137.602" transform="matrix(1 0 0 -1 1403.13 337.805)" fill="url(#paint18_linear_2002_27760)"/>
</g>
</g>
<defs>
<filter id="filter0_f_2002_27760" x="-74" y="0" width="1588" height="541" filterUnits="userSpaceOnUse" color-interpolation-filters="sRGB">
<feFlood flood-opacity="0" result="BackgroundImageFix"/>
<feBlend mode="normal" in="SourceGraphic" in2="BackgroundImageFix" result="shape"/>
<feGaussianBlur stdDeviation="37" result="effect1_foregroundBlur_2002_27760"/>
</filter>
<linearGradient id="paint0_linear_2002_27760" x1="28.3031" y1="208.547" x2="28.3031" y2="333.64" gradientUnits="userSpaceOnUse">
<stop stop-color="#14FF00" stop-opacity="0.55"/>
<stop offset="1" stop-color="#00F0FF" stop-opacity="0.62"/>
</linearGradient>
<linearGradient id="paint1_linear_2002_27760" x1="115.272" y1="227.014" x2="115.272" y2="316.366" gradientUnits="userSpaceOnUse">
<stop stop-color="#14FF00" stop-opacity="0.55"/>
<stop offset="1" stop-color="#00F0FF" stop-opacity="0.62"/>
</linearGradient>
<linearGradient id="paint2_linear_2002_27760" x1="202.1" y1="217.762" x2="202.1" y2="324.984" gradientUnits="userSpaceOnUse">
<stop stop-color="#14FF00" stop-opacity="0.55"/>
<stop offset="1" stop-color="#00F0FF" stop-opacity="0.62"/>
</linearGradient>
<linearGradient id="paint3_linear_2002_27760" x1="289.084" y1="236.252" x2="289.084" y2="307.734" gradientUnits="userSpaceOnUse">
<stop stop-color="#14FF00" stop-opacity="0.55"/>
<stop offset="1" stop-color="#00F0FF" stop-opacity="0.62"/>
</linearGradient>
<linearGradient id="paint4_linear_2002_27760" x1="16.3031" y1="0" x2="16.3031" y2="196.575" gradientUnits="userSpaceOnUse">
<stop stop-color="#14FF00" stop-opacity="0.55"/>
<stop offset="1" stop-color="#00F0FF" stop-opacity="0.62"/>
</linearGradient>
<linearGradient id="paint5_linear_2002_27760" x1="16.3031" y1="0" x2="16.3031" y2="137.602" gradientUnits="userSpaceOnUse">
<stop stop-color="#14FF00" stop-opacity="0.55"/>
<stop offset="1" stop-color="#00F0FF" stop-opacity="0.62"/>
</linearGradient>
<linearGradient id="paint6_linear_2002_27760" x1="16.3031" y1="0" x2="16.3031" y2="98.2875" gradientUnits="userSpaceOnUse">
<stop stop-color="#14FF00" stop-opacity="0.55"/>
<stop offset="1" stop-color="#00F0FF" stop-opacity="0.62"/>
</linearGradient>
<linearGradient id="paint7_linear_2002_27760" x1="16.3031" y1="0" x2="16.3031" y2="117.945" gradientUnits="userSpaceOnUse">
<stop stop-color="#14FF00" stop-opacity="0.55"/>
<stop offset="1" stop-color="#00F0FF" stop-opacity="0.62"/>
</linearGradient>
<linearGradient id="paint8_linear_2002_27760" x1="16.3031" y1="0" x2="16.3031" y2="78.63" gradientUnits="userSpaceOnUse">
<stop stop-color="#14FF00" stop-opacity="0.55"/>
<stop offset="1" stop-color="#00F0FF" stop-opacity="0.62"/>
</linearGradient>
<linearGradient id="paint9_linear_2002_27760" x1="16.3031" y1="0" x2="16.3031" y2="58.9725" gradientUnits="userSpaceOnUse">
<stop stop-color="#14FF00" stop-opacity="0.55"/>
<stop offset="1" stop-color="#00F0FF" stop-opacity="0.62"/>
</linearGradient>
<linearGradient id="paint10_linear_2002_27760" x1="16.3031" y1="0" x2="16.3031" y2="98.2875" gradientUnits="userSpaceOnUse">
<stop stop-color="#14FF00" stop-opacity="0.55"/>
<stop offset="1" stop-color="#00F0FF" stop-opacity="0.62"/>
</linearGradient>
<linearGradient id="paint11_linear_2002_27760" x1="16.3031" y1="0" x2="16.3031" y2="393.15" gradientUnits="userSpaceOnUse">
<stop stop-color="#14FF00" stop-opacity="0.55"/>
<stop offset="1" stop-color="#00F0FF" stop-opacity="0.62"/>
</linearGradient>
<linearGradient id="paint12_linear_2002_27760" x1="16.3031" y1="0" x2="16.3031" y2="393.15" gradientUnits="userSpaceOnUse">
<stop stop-color="#14FF00" stop-opacity="0.55"/>
<stop offset="1" stop-color="#00F0FF" stop-opacity="0.62"/>
</linearGradient>
<linearGradient id="paint13_linear_2002_27760" x1="16.3031" y1="0" x2="16.3031" y2="294.862" gradientUnits="userSpaceOnUse">
<stop stop-color="#14FF00" stop-opacity="0.55"/>
<stop offset="1" stop-color="#00F0FF" stop-opacity="0.62"/>
</linearGradient>
<linearGradient id="paint14_linear_2002_27760" x1="16.3031" y1="0" x2="16.3031" y2="235.89" gradientUnits="userSpaceOnUse">
<stop stop-color="#14FF00" stop-opacity="0.55"/>
<stop offset="1" stop-color="#00F0FF" stop-opacity="0.62"/>
</linearGradient>
<linearGradient id="paint15_linear_2002_27760" x1="16.3031" y1="0" x2="16.3031" y2="176.917" gradientUnits="userSpaceOnUse">
<stop stop-color="#14FF00" stop-opacity="0.55"/>
<stop offset="1" stop-color="#00F0FF" stop-opacity="0.62"/>
</linearGradient>
<linearGradient id="paint16_linear_2002_27760" x1="16.3031" y1="0" x2="16.3031" y2="137.602" gradientUnits="userSpaceOnUse">
<stop stop-color="#14FF00" stop-opacity="0.55"/>
<stop offset="1" stop-color="#00F0FF" stop-opacity="0.62"/>
</linearGradient>
<linearGradient id="paint17_linear_2002_27760" x1="16.3031" y1="0" x2="16.3031" y2="196.575" gradientUnits="userSpaceOnUse">
<stop stop-color="#14FF00" stop-opacity="0.55"/>
<stop offset="1" stop-color="#00F0FF" stop-opacity="0.62"/>
</linearGradient>
<linearGradient id="paint18_linear_2002_27760" x1="16.3031" y1="0" x2="16.3031" y2="137.602" gradientUnits="userSpaceOnUse">
<stop stop-color="#14FF00" stop-opacity="0.55"/>
<stop offset="1" stop-color="#00F0FF" stop-opacity="0.62"/>
</linearGradient>
<clipPath id="clip0_2002_27760">
<rect width="1440" height="393" fill="white" transform="translate(0 74)"/>
</clipPath>
</defs>
</svg>
