<svg xmlns="http://www.w3.org/2000/svg" width="165" height="47" viewBox="0 0 165 47" fill="none">
<path d="M5.26703 5.14741C6.10136 2.10731 8.86492 0 12.0174 0H152.983C156.135 0 158.899 2.10731 159.733 5.14742L164.473 22.4183C164.817 23.674 164.805 25.001 164.437 26.25L159.8 41.9792C158.923 44.9563 156.19 47 153.086 47H11.9141C8.81037 47 6.07725 44.9563 5.19971 41.9792L0.563234 26.25C0.195054 25.001 0.182576 23.674 0.527204 22.4183L5.26703 5.14741Z" fill="white" fill-opacity="0.04"/>
<path d="M12.0176 0.5H152.982C155.818 0.5 158.315 2.33638 159.173 5.01758L159.251 5.2793L163.99 22.5508C164.29 23.644 164.299 24.7953 164.018 25.8906L163.957 26.1084L159.32 41.8379C158.505 44.6022 155.968 46.5 153.086 46.5H11.9141C9.12222 46.5 6.65325 44.7191 5.76074 42.0947L5.67969 41.8379L1.04297 26.1084C0.722477 25.021 0.691886 23.87 0.953125 22.7695L1.00977 22.5508L5.74902 5.2793C6.52388 2.45654 9.09037 0.5 12.0176 0.5Z" stroke="white" stroke-opacity="0.25"/>
</svg>