<svg width="199" height="67" viewBox="0 0 199 67" fill="none" xmlns="http://www.w3.org/2000/svg">
<path d="M12.8102 50.9525H11.8981V52.8872H10.94V46.8527H12.8378C13.538 46.8527 14.0478 47.0155 14.3672 47.341C14.6927 47.6604 14.8555 48.164 14.8555 48.8519C14.8555 50.2523 14.1737 50.9525 12.8102 50.9525ZM12.6904 47.7003H11.8981V50.0773H12.6904C13.1019 50.0773 13.4029 49.9821 13.5933 49.7917C13.7837 49.5951 13.8789 49.2819 13.8789 48.8519C13.8789 48.422 13.7806 48.1241 13.5841 47.9583C13.3937 47.7863 13.0958 47.7003 12.6904 47.7003ZM17.1219 52.0949C17.2938 52.0949 17.4842 52.055 17.6931 51.9751C17.9019 51.8953 18.0677 51.8062 18.1906 51.7079V51.063C17.8221 51.0323 17.5211 51.017 17.2877 51.017C16.7779 51.017 16.523 51.2074 16.523 51.5882C16.523 51.926 16.7226 52.0949 17.1219 52.0949ZM16.9745 52.9885C15.9917 52.9885 15.5004 52.5218 15.5004 51.5882C15.5004 51.0907 15.657 50.7437 15.9703 50.5471C16.2896 50.3444 16.7288 50.2431 17.2877 50.2431C17.5518 50.2431 17.8528 50.2584 18.1906 50.2892C18.1906 49.9206 18.1384 49.6688 18.034 49.5337C17.9295 49.3986 17.7484 49.331 17.4904 49.331C17.2324 49.331 16.9315 49.3617 16.5875 49.4231C16.2436 49.4846 15.9795 49.546 15.7952 49.6074L15.6202 48.7322C16.2651 48.5356 16.8946 48.4373 17.5088 48.4373C18.123 48.4373 18.5468 48.5725 18.7802 48.8427C19.0197 49.113 19.1395 49.5705 19.1395 50.2154V52.0857L19.2409 52.8964L18.2919 52.9885L18.1998 52.5648C17.6839 52.8473 17.2754 52.9885 16.9745 52.9885ZM20.3003 52.8872V52.0396H21.194V49.3586H20.3003V48.511H22.1429L22.1614 48.9533C22.6282 48.6892 23.1625 48.5233 23.7644 48.4558H24.0132V49.3771H23.7644C23.0888 49.4385 22.5544 49.5798 22.1614 49.8009V52.058H23.5341V52.8872H20.3003ZM24.8884 49.3586V48.511H25.6347V47.4608L26.5836 47.3686V48.511H28.3064V49.3586H26.5836V51.2012C26.5836 51.539 26.6174 51.7786 26.6849 51.9198C26.7525 52.055 26.8907 52.1225 27.0995 52.1225C27.4619 52.1225 27.8857 52.0642 28.3709 51.9475L28.5275 52.7674C27.9932 52.9087 27.5172 52.9793 27.0995 52.9793C26.5099 52.9793 26.1168 52.8473 25.9203 52.5832C25.7299 52.3191 25.6347 51.8584 25.6347 51.2012V49.3586H24.8884ZM34.4146 48.9993C34.7278 48.6247 35.21 48.4373 35.861 48.4373C36.5121 48.4373 36.9942 48.6247 37.3075 48.9993C37.6207 49.3679 37.7773 49.9391 37.7773 50.7129C37.7773 51.4868 37.6207 52.0642 37.3075 52.445C36.9942 52.8196 36.5121 53.007 35.861 53.007C35.21 53.007 34.7278 52.8196 34.4146 52.445C34.1014 52.0642 33.9447 51.4868 33.9447 50.7129C33.9447 49.9391 34.1014 49.3679 34.4146 48.9993ZM35.1516 49.6535C35.0288 49.8684 34.9674 50.2216 34.9674 50.7129C34.9674 51.2043 35.0319 51.5605 35.1609 51.7817C35.2898 52.0028 35.5232 52.1133 35.861 52.1133C36.1988 52.1133 36.4322 52.0028 36.5612 51.7817C36.6902 51.5605 36.7547 51.2043 36.7547 50.7129C36.7547 50.2216 36.6902 49.8684 36.5612 49.6535C36.4384 49.4385 36.205 49.331 35.861 49.331C35.5171 49.331 35.2806 49.4385 35.1516 49.6535ZM38.6618 52.8872V52.0396H39.666V49.3586H38.6986V48.511H39.666C39.666 47.8477 39.7735 47.3809 39.9884 47.1107C40.2096 46.8343 40.5904 46.6961 41.1309 46.6961C41.4932 46.6961 41.8925 46.7483 42.3285 46.8527L42.1811 47.6911C41.8003 47.6051 41.4809 47.5621 41.223 47.5621C40.965 47.5621 40.7992 47.6266 40.7255 47.7556C40.6518 47.8846 40.6149 48.1364 40.6149 48.511H42.218V49.3586H40.6149V52.0396H42.2364V52.8872H38.6618Z" fill="white"/>
<path d="M164.351 52.8872V52.0857L162.076 48.3452H162.048V52.8872H161.182V46.8527H162.048L164.314 50.63H164.351V46.8527H165.217V52.8872H164.351ZM165.954 50.7037C165.954 49.9606 166.12 49.3986 166.452 49.0178C166.784 48.6308 167.244 48.4373 167.834 48.4373C168.423 48.4373 168.878 48.6124 169.197 48.9625C169.523 49.3064 169.692 49.8131 169.704 50.4826L169.667 51.1644H166.977C167.032 51.8277 167.364 52.1594 167.972 52.1594C168.396 52.1594 168.844 52.0826 169.317 51.9291L169.511 52.7306C169.314 52.7981 169.059 52.8565 168.746 52.9056C168.433 52.9609 168.175 52.9885 167.972 52.9885C166.627 52.9885 165.954 52.2269 165.954 50.7037ZM167.871 49.2942C167.582 49.2942 167.364 49.3801 167.217 49.5521C167.075 49.7179 166.995 49.9974 166.977 50.3905H168.681C168.681 49.6596 168.411 49.2942 167.871 49.2942ZM170.653 49.3586V48.511H171.399V47.4608L172.348 47.3686V48.511H174.071V49.3586H172.348V51.2012C172.348 51.539 172.382 51.7786 172.45 51.9198C172.517 52.055 172.655 52.1225 172.864 52.1225C173.227 52.1225 173.65 52.0642 174.136 51.9475L174.292 52.7674C173.758 52.9087 173.282 52.9793 172.864 52.9793C172.274 52.9793 171.881 52.8473 171.685 52.5832C171.494 52.3191 171.399 51.8584 171.399 51.2012V49.3586H170.653ZM178.41 48.511H179.332L178.853 52.8872H177.296L177.056 50.888H176.973L176.798 52.8872H175.204L174.698 48.511H175.656L176.015 52.0396H176.116L176.328 49.9483H177.71L177.959 52.0396H178.069L178.41 48.511ZM180.179 48.9993C180.492 48.6247 180.975 48.4373 181.626 48.4373C182.277 48.4373 182.759 48.6247 183.072 48.9993C183.385 49.3679 183.542 49.9391 183.542 50.7129C183.542 51.4868 183.385 52.0642 183.072 52.445C182.759 52.8196 182.277 53.007 181.626 53.007C180.975 53.007 180.492 52.8196 180.179 52.445C179.866 52.0642 179.709 51.4868 179.709 50.7129C179.709 49.9391 179.866 49.3679 180.179 48.9993ZM180.916 49.6535C180.793 49.8684 180.732 50.2216 180.732 50.7129C180.732 51.2043 180.796 51.5605 180.925 51.7817C181.054 52.0028 181.288 52.1133 181.626 52.1133C181.963 52.1133 182.197 52.0028 182.326 51.7817C182.455 51.5605 182.519 51.2043 182.519 50.7129C182.519 50.2216 182.455 49.8684 182.326 49.6535C182.203 49.4385 181.97 49.331 181.626 49.331C181.282 49.331 181.045 49.4385 180.916 49.6535ZM184.491 52.8872V52.0396H185.385V49.3586H184.491V48.511H186.333L186.352 48.9533C186.819 48.6892 187.353 48.5233 187.955 48.4558H188.204V49.3771H187.955C187.279 49.4385 186.745 49.5798 186.352 49.8009V52.058H187.725V52.8872H184.491ZM189.245 52.8872V46.7606H190.194V50.2707L190.802 50.2062C191.146 49.764 191.447 49.2849 191.705 48.769L191.834 48.511H192.865C192.479 49.3279 192.049 50.0097 191.576 50.5563C191.969 51.1152 192.365 51.7755 192.764 52.5371L192.948 52.8872H191.87C191.57 52.2362 191.226 51.6127 190.839 51.017L190.194 51.0815V52.8872H189.245Z" fill="white"/>
<path d="M71.907 64.2598C71.4168 64.6868 70.8562 64.9003 70.2251 64.9003C69.5523 64.9003 68.9788 64.6841 68.5044 64.2517C68.0301 63.8193 67.793 63.2964 67.793 62.6831C67.793 62.0716 68.0301 61.5487 68.5044 61.1145C68.9788 60.6803 69.5523 60.4632 70.2251 60.4632C70.8542 60.4632 71.4505 60.6975 72.0142 61.1661L71.5527 61.5487C71.128 61.205 70.6855 61.0331 70.2251 61.0331C69.7269 61.0331 69.3003 61.1941 68.945 61.5162C68.5918 61.8382 68.4151 62.2272 68.4151 62.6831C68.4151 63.1408 68.5918 63.5307 68.945 63.8528C69.3003 64.1748 69.7269 64.3358 70.2251 64.3358C70.6537 64.3358 71.009 64.2327 71.2908 64.0265V62.7157H71.907V64.2598Z" fill="white"/>
<path d="M83.9961 61.0765V62.9002H84.5588C84.8326 62.9002 85.0668 62.8116 85.2613 62.6343C85.4578 62.4552 85.556 62.239 85.556 61.9857C85.556 61.7342 85.4578 61.5198 85.2613 61.3425C85.0668 61.1652 84.8326 61.0765 84.5588 61.0765H83.9961ZM84.5588 63.4647H83.9961V64.8542H83.3799V60.5121H84.7314C85.1145 60.5591 85.4379 60.7029 85.7019 60.9436C86.0174 61.233 86.1752 61.5804 86.1752 61.9857C86.1752 62.3945 86.0174 62.7437 85.7019 63.0332C85.4836 63.2322 85.3169 63.3444 85.2018 63.3697L86.2586 64.8542H85.5114L84.5588 63.4647Z" fill="white"/>
<path d="M99.7796 60.4551C100.452 60.4551 101.027 60.6722 101.503 61.1064C101.979 61.5406 102.218 62.0644 102.218 62.6777C102.218 63.291 101.979 63.8148 101.503 64.249C101.027 64.6832 100.452 64.9003 99.7796 64.9003C99.1068 64.9003 98.5323 64.6832 98.056 64.249C97.5797 63.8148 97.3415 63.291 97.3415 62.6777C97.3415 62.0644 97.5797 61.5406 98.056 61.1064C98.5323 60.6722 99.1068 60.4551 99.7796 60.4551ZM99.7796 61.0223C99.2775 61.0223 98.8488 61.1842 98.4936 61.508C98.1403 61.8301 97.9637 62.22 97.9637 62.6777C97.9637 63.1354 98.1413 63.5262 98.4966 63.8501C98.8518 64.1739 99.2795 64.3358 99.7796 64.3358C100.282 64.3358 100.709 64.1739 101.063 63.8501C101.418 63.5262 101.595 63.1354 101.595 62.6777C101.595 62.22 101.418 61.8301 101.063 61.508C100.709 61.1842 100.282 61.0223 99.7796 61.0223Z" fill="white"/>
<path d="M116.209 60.5121H116.828V63.5705C116.775 63.9197 116.617 64.2146 116.355 64.4552C116.037 64.7447 115.655 64.8894 115.209 64.8894C114.762 64.8894 114.38 64.7456 114.063 64.4579C113.747 64.1685 113.589 63.8202 113.589 63.4131V60.5121H114.209V63.4131C114.209 63.6628 114.306 63.8772 114.5 64.0563C114.697 64.2336 114.933 64.3223 115.209 64.3223C115.487 64.3223 115.723 64.2336 115.917 64.0563C116.112 63.879 116.209 63.6646 116.209 63.4131V60.5121Z" fill="white"/>
<path d="M128.885 63.4647V64.8542H128.268V60.5121H129.62C130.003 60.5591 130.326 60.7029 130.59 60.9436C130.906 61.233 131.064 61.5804 131.064 61.9857C131.064 62.3945 130.906 62.7437 130.59 63.0332C130.275 63.3209 129.894 63.4647 129.447 63.4647H128.885ZM128.885 61.0765V62.9002H129.447C129.721 62.9002 129.955 62.8116 130.15 62.6343C130.346 62.4552 130.444 62.239 130.444 61.9857C130.444 61.7342 130.346 61.5198 130.15 61.3425C129.955 61.1652 129.721 61.0765 129.447 61.0765H128.885Z" fill="white"/>
<g clip-path="url(#clip0_2002_28036)">
<path d="M86.0039 2.46014C86.0039 1.10144 87.1079 0 88.4698 0H100.084C108.946 0 114.116 5.1171 114.116 12.5467V19.1399C114.116 26.668 108.946 31.9819 100.084 31.9819H99.8131V25.2165C99.8131 21.3442 96.6666 18.2051 92.7852 18.2051H86.0039V2.46014Z" fill="white"/>
<path d="M86.0039 20.4192V29.5217C86.0039 30.8804 87.1079 31.9819 88.4698 31.9819H97.5938V25.2165C97.5938 22.567 95.4409 20.4192 92.7852 20.4192H86.0039Z" fill="white"/>
</g>
<path d="M131.063 55.2651H127.572V45.8687H131.063V55.2651ZM73.1318 42.5024C76.4921 42.5024 78.453 44.7051 78.4531 47.519V50.0542C78.453 52.9055 76.4922 55.1265 73.1318 55.1265H67.793V42.5024H73.1318ZM90.0664 50.9526H90.1035L92.2695 42.5024H96.4512L91.9893 55.1265H88.1621L83.7188 42.5024H87.8818L90.0664 50.9526ZM101.183 55.1265H97.6914V45.8687H101.183V55.1265ZM110.945 48.2798H110.982V42.5024H114.287V55.1265H111.654L107.268 48.9185V55.1265H103.963L103.752 42.5024H106.726L110.945 48.2798ZM121.249 42.5024C123.583 42.5024 125.301 43.9379 125.786 45.5034L123.116 46.5464C122.911 45.8197 122.443 45.4282 121.622 45.4282C120.558 45.4284 120.129 46.0247 120.129 47.0493V50.7583C120.129 51.7087 120.54 52.2679 121.604 52.2681C122.388 52.2681 122.873 51.8582 123.135 51.1128L125.823 52.1001C125.263 53.9638 123.769 55.0454 121.23 55.0454C118.299 55.0454 116.339 53.4046 116.339 50.7769V47.0688C116.339 44.2175 118.318 42.5025 121.249 42.5024ZM71.5645 52.0483H73.1318C74.2333 52.0483 74.6816 51.5819 74.6816 49.9419V47.7241C74.6816 46.1775 74.2332 45.6929 73.1318 45.6929H71.5645V52.0483ZM80.625 42.5024C81.7126 42.5025 82.3672 43.2389 82.376 44.2749V44.9438H82.3672C82.3105 45.995 81.9065 46.9211 81.0508 47.5601L80.3135 46.9624C80.6148 46.6647 80.8784 46.2557 80.8994 45.7173L79.8594 45.5034L79.6162 45.4595V42.5024H80.625ZM99.3643 42.5024C100.377 42.5025 101.182 43.1785 101.183 44.2368V45.0269H97.667V42.5024H99.3643ZM129.365 42.5024C130.303 42.5025 131.063 43.0285 131.063 44.2368V45.0269H127.572V42.5024H129.365Z" fill="white"/>
<path d="M131.063 55.2651H127.572V45.8687H131.063V55.2651ZM73.1318 42.5024C76.4921 42.5024 78.453 44.7051 78.4531 47.519V50.0542C78.453 52.9055 76.4922 55.1265 73.1318 55.1265H67.793V42.5024H73.1318ZM90.0664 50.9526H90.1035L92.2695 42.5024H96.4512L91.9893 55.1265H88.1621L83.7188 42.5024H87.8818L90.0664 50.9526ZM101.183 55.1265H97.6914V45.8687H101.183V55.1265ZM110.945 48.2798H110.982V42.5024H114.287V55.1265H111.654L107.268 48.9185V55.1265H103.963L103.752 42.5024H106.726L110.945 48.2798ZM121.249 42.5024C123.583 42.5024 125.301 43.9379 125.786 45.5034L123.116 46.5464C122.911 45.8197 122.443 45.4282 121.622 45.4282C120.558 45.4284 120.129 46.0247 120.129 47.0493V50.7583C120.129 51.7087 120.54 52.2679 121.604 52.2681C122.388 52.2681 122.873 51.8582 123.135 51.1128L125.823 52.1001C125.263 53.9638 123.769 55.0454 121.23 55.0454C118.299 55.0454 116.339 53.4046 116.339 50.7769V47.0688C116.339 44.2175 118.318 42.5025 121.249 42.5024ZM71.5645 52.0483H73.1318C74.2333 52.0483 74.6816 51.5819 74.6816 49.9419V47.7241C74.6816 46.1775 74.2332 45.6929 73.1318 45.6929H71.5645V52.0483ZM80.625 42.5024C81.7126 42.5025 82.3672 43.2389 82.376 44.2749V44.9438H82.3672C82.3105 45.995 81.9065 46.9211 81.0508 47.5601L80.3135 46.9624C80.6148 46.6647 80.8784 46.2557 80.8994 45.7173L79.8594 45.5034L79.6162 45.4595V42.5024H80.625ZM99.3643 42.5024C100.377 42.5025 101.182 43.1785 101.183 44.2368V45.0269H97.667V42.5024H99.3643ZM129.365 42.5024C130.303 42.5025 131.063 43.0285 131.063 44.2368V45.0269H127.572V42.5024H129.365Z" stroke="white"/>
<path d="M50.1777 65.8345H10.5273" stroke="white" stroke-opacity="0.1" stroke-width="0.74812"/>
<path d="M192.319 65.8345L149.676 65.8345" stroke="white" stroke-opacity="0.1" stroke-width="0.74812"/>
<defs>
<clipPath id="clip0_2002_28036">
<rect width="32.0571" height="31.9819" fill="white" transform="translate(84.0332)"/>
</clipPath>
</defs>
</svg>
