<svg width="111" height="119" viewBox="0 0 111 119" fill="none" xmlns="http://www.w3.org/2000/svg">
<path d="M36.37 11.9431C35.8923 11.1197 35.8923 10.1036 36.37 9.28023L40.9879 1.32125C41.4626 0.503184 42.3368 -0.000324194 43.2826 -0.000324194L85.3939 -0.000324194C86.3397 -0.000324194 87.214 0.503186 87.6886 1.32125L92.3066 9.28023C92.7843 10.1036 92.7843 11.1197 92.3066 11.9431L87.6886 19.9021C87.214 20.7201 86.3397 21.2236 85.3939 21.2236L43.2826 21.2236C42.3368 21.2236 41.4626 20.7201 40.9879 19.9021L36.37 11.9431Z" fill="white"/>
<path d="M36.3681 35.8167C35.8929 34.9951 35.8929 33.9822 36.3681 33.1605L40.9706 25.2015C41.4447 24.3816 42.3201 23.8766 43.2672 23.8766L63.3062 23.8766C64.2533 23.8766 65.1287 24.3816 65.6028 25.2015L70.2053 33.1605C70.6805 33.9822 70.6805 34.9951 70.2053 35.8167L65.6028 43.7757C65.1287 44.5956 64.2533 45.1006 63.3062 45.1006H43.2672C42.3201 45.1006 41.4447 44.5956 40.9706 43.7757L36.3681 35.8167Z" fill="white"/>
<path d="M36.3731 59.7023C35.8913 58.8763 35.8913 57.8548 36.3731 57.0288L41.0159 49.0698C41.4913 48.2548 42.3639 47.7536 43.3075 47.7536H52.6405C53.5841 47.7536 54.4567 48.2548 54.9321 49.0698L59.5748 57.0288C60.0567 57.8548 60.0567 58.8763 59.5748 59.7023L54.9321 67.6613C54.4567 68.4764 53.5841 68.9775 52.6405 68.9775H43.3075C42.3639 68.9775 41.4913 68.4764 41.0159 67.6613L36.3731 59.7023Z" fill="white"/>
<path d="M9.76843 85.2691C8.85877 85.2691 8.25474 85.8286 8.25474 86.6679C8.25474 87.5073 8.85877 88.0668 9.76843 88.0668C10.6781 88.0668 11.2797 87.4831 11.2797 86.6679C11.2797 85.8527 10.6516 85.2691 9.76843 85.2691ZM13.7151 94.2025V101.245H16.112V94.4124C16.112 92.6855 17.1588 91.7762 18.9276 91.7762V89.7696C15.6234 89.7696 13.7151 91.4024 13.7151 94.2025ZM31.9443 95.5315C31.9202 92.056 29.3838 89.5597 25.8462 89.5597C22.3087 89.5597 19.7241 92.056 19.7241 95.5074C19.7241 98.9587 22.3087 101.455 25.8462 101.455C28.6618 101.455 31.1068 99.6364 31.7566 97.0943H29.3381C28.8953 98.4691 27.4995 99.4965 25.8703 99.4965C23.8922 99.4965 22.4025 98.1676 22.0993 96.255H31.8745C31.9202 96.0211 31.9443 95.7654 31.9443 95.5315ZM22.1691 94.4124C22.5878 92.7096 24.0077 91.5206 25.8703 91.5206C27.7329 91.5206 29.2442 92.7096 29.6389 94.4124H22.1691ZM38.6657 94.4124C37.3373 94.1543 36.2904 93.9686 36.2904 92.7796C36.2904 91.9161 37.176 91.3083 38.3865 91.3083C39.7125 91.3083 40.6197 92.0102 40.6655 93.0352H42.8987C42.8987 90.9827 41.0385 89.5597 38.4322 89.5597C35.826 89.5597 33.9393 90.9369 33.9393 93.0135C33.9393 95.7172 36.6634 96.2309 38.3865 96.489C39.6884 96.7205 40.8291 96.9086 40.8291 98.0977C40.8291 99.0528 39.8737 99.6823 38.5477 99.6823C37.1279 99.6823 36.1051 98.9587 36.0594 97.8637H33.7299C33.754 99.9861 35.7105 101.455 38.4779 101.455C41.2454 101.455 43.1802 100.032 43.1802 97.9578C43.1802 95.2059 40.2949 94.7163 38.6657 94.4124ZM46.7683 85.2691C45.8611 85.2691 45.2546 85.8286 45.2546 86.6679C45.2546 87.5073 45.8611 88.0668 46.7683 88.0668C47.6756 88.0668 48.282 87.4831 48.282 86.6679C48.282 85.8527 47.6515 85.2691 46.7683 85.2691ZM45.5819 89.7696V101.245H47.9547V89.7696H45.5819ZM56.2523 89.5597C52.7148 89.5597 50.1783 91.9619 50.1783 95.2758C50.1783 98.5897 52.5295 100.965 55.8336 100.965C57.5326 100.965 58.9982 100.266 59.9535 99.1709V100.64C59.9535 102.692 58.4639 104.207 56.416 104.207C54.7411 104.207 53.2972 103.064 53.018 101.525L50.8064 101.501C51.1554 104.183 53.5523 106.119 56.5074 106.119C59.8838 106.119 62.3263 103.763 62.3263 100.5V95.2758C62.3263 91.9619 59.7899 89.5597 56.2523 89.5597ZM56.2764 99.0986C54.1587 99.0986 52.6233 97.4899 52.6233 95.2517C52.6233 93.0135 54.1587 91.4265 56.2764 91.4265C58.3941 91.4265 59.9535 93.0352 59.9535 95.2517C59.9535 97.4682 58.4182 99.0986 56.2764 99.0986ZM71.1077 89.5597C69.5242 89.5597 68.2463 90.2592 67.5003 91.4965V85.1051H65.1251V101.245H67.5003V94.5281C67.5003 92.6855 68.641 91.4723 70.4098 91.4723C72.1786 91.4723 73.2494 92.6855 73.2494 94.5281V101.245H75.6463V94.2025C75.6463 91.4265 73.738 89.5597 71.1077 89.5597ZM81.9345 89.7696V86.8078H79.5376V89.7696H77.4199V91.7762H79.5376V101.245H81.9345V91.7762H84.5167V89.7696H81.9345ZM98.2963 89.5597C94.7587 89.5597 92.2247 92.056 92.2247 95.5074C92.2247 98.9587 94.5734 101.455 97.7837 101.455C99.5308 101.455 101.066 100.756 101.997 99.6605V101.245H104.37V95.5074C104.37 92.056 101.834 89.5597 98.2963 89.5597ZM98.3203 99.3808C96.2026 99.3808 94.6673 97.7697 94.6673 95.5074C94.6673 93.245 96.2026 91.6363 98.3203 91.6363C100.438 91.6363 101.997 93.2692 101.997 95.5074C101.997 97.7455 100.462 99.3808 98.3203 99.3808ZM108.062 85.2691C107.155 85.2691 106.551 85.8286 106.551 86.6679C106.551 87.5073 107.155 88.0668 108.062 88.0668C108.969 88.0668 109.576 87.4831 109.576 86.6679C109.576 85.8527 108.947 85.2691 108.062 85.2691ZM106.875 89.7696V101.245H109.248V89.7696H106.875Z" fill="white"/>
<path d="M10.9548 89.7696V101.245H8.57963V91.7763H8.57722V89.7696H10.9548Z" fill="white"/>
<path d="M88.1669 98.189C89.1439 98.189 89.8658 98.8427 89.8658 99.7977C89.8658 100.753 89.1439 101.406 88.1669 101.406C87.1898 101.406 86.4679 100.753 86.4679 99.7977C86.4679 98.8427 87.1658 98.189 88.1669 98.189Z" fill="#E93249"/>
<path d="M7.05781 85.1198C6.7185 84.9413 6.15297 84.8955 5.78237 84.8955C3.59486 84.8955 2.05711 86.2703 2.05711 88.2311V89.7698H0.40625V91.7765H2.05711V101.245H4.43232V91.7765H7.07225V89.7698H4.43232V88.2311C4.43232 87.4376 5.01229 86.9239 5.80403 86.9239C6.16981 86.9239 6.67518 87.0228 7.05781 87.2736V85.1198Z" fill="white"/>
<path d="M33.4058 114.339H34.3474V117.145C34.3474 118.215 33.6618 118.919 32.6104 118.919C31.8973 118.919 31.3396 118.599 31.0653 118.069C30.791 118.599 30.2334 118.919 29.5203 118.919C28.4689 118.919 27.7832 118.215 27.7832 117.145V114.339H28.7249V117.173C28.7249 117.767 29.0906 118.169 29.6574 118.169C30.2242 118.169 30.5991 117.767 30.5991 117.173V114.339H31.5316V117.173C31.5316 117.767 31.9064 118.169 32.4732 118.169C33.0401 118.169 33.4058 117.767 33.4058 117.173V114.339Z" fill="white"/>
<path d="M39.8695 114.256C41.2591 114.256 42.2648 115.235 42.2648 116.588C42.2648 117.941 41.2591 118.919 39.8695 118.919C38.4799 118.919 37.4651 117.941 37.4651 116.588C37.4651 115.235 38.4799 114.256 39.8695 114.256ZM39.8604 115.07C39.0284 115.07 38.425 115.71 38.425 116.588C38.425 117.475 39.0284 118.105 39.8604 118.105C40.7015 118.105 41.3049 117.475 41.3049 116.588C41.3049 115.71 40.7015 115.07 39.8604 115.07Z" fill="white"/>
<path d="M46.3219 118.837H45.3803V116.076C45.3803 114.979 46.13 114.339 47.4282 114.339V115.125C46.7334 115.125 46.3219 115.482 46.3219 116.158V118.837Z" fill="white"/>
<path d="M54.313 114.339L52.2376 116.487L54.313 118.837H53.2067L51.296 116.652V118.837H50.3634V112.51H51.296V116.35L53.2067 114.339H54.313Z" fill="white"/>
<path d="M62.1575 112.51H63.09V118.837H62.1575V112.51Z" fill="white"/>
<path d="M71.0579 116.597C71.0579 116.688 71.0488 116.789 71.0305 116.88H67.1907C67.3096 117.63 67.8947 118.151 68.6718 118.151C69.3117 118.151 69.8603 117.749 70.034 117.209H70.9848C70.7288 118.206 69.7689 118.919 68.6626 118.919C67.273 118.919 66.2582 117.941 66.2582 116.588C66.2582 115.235 67.273 114.256 68.6626 114.256C70.0523 114.256 71.0488 115.235 71.0579 116.597ZM68.6718 115.024C67.9404 115.024 67.3827 115.491 67.2181 116.158H70.1528C69.9974 115.491 69.4123 115.024 68.6718 115.024Z" fill="white"/>
<path d="M75.8924 114.256C76.9163 114.256 77.6477 114.814 77.6477 115.619H76.7701C76.7518 115.216 76.3952 114.942 75.8741 114.942C75.3987 114.942 75.0513 115.18 75.0513 115.518C75.0513 115.984 75.4627 116.057 75.9838 116.158C76.6238 116.277 77.7574 116.469 77.7574 117.548C77.7574 118.361 76.9895 118.919 75.9107 118.919C74.8227 118.919 74.0548 118.343 74.0456 117.511H74.9599C74.9782 117.941 75.3804 118.224 75.9381 118.224C76.4592 118.224 76.8341 117.977 76.8341 117.603C76.8341 117.136 76.3861 117.063 75.8741 116.972C75.1976 116.871 74.1279 116.67 74.1279 115.61C74.1279 114.796 74.841 114.256 75.8924 114.256Z" fill="white"/>
<path d="M82.526 114.256C83.5499 114.256 84.2813 114.814 84.2813 115.619H83.4037C83.3854 115.216 83.0288 114.942 82.5077 114.942C82.0323 114.942 81.6849 115.18 81.6849 115.518C81.6849 115.984 82.0963 116.057 82.6174 116.158C83.2574 116.277 84.391 116.469 84.391 117.548C84.391 118.361 83.6231 118.919 82.5443 118.919C81.4563 118.919 80.6884 118.343 80.6792 117.511H81.5935C81.6118 117.941 82.014 118.224 82.5717 118.224C83.0928 118.224 83.4677 117.977 83.4677 117.603C83.4677 117.136 83.0197 117.063 82.5077 116.972C81.8312 116.871 80.7615 116.67 80.7615 115.61C80.7615 114.796 81.4746 114.256 82.526 114.256Z" fill="white"/>
<path fill-rule="evenodd" clip-rule="evenodd" d="M0.40625 116.902V116.234H17.7649V116.902H0.40625Z" fill="white"/>
<path fill-rule="evenodd" clip-rule="evenodd" d="M110.527 116.301V116.968H93.164V116.301H110.527Z" fill="white"/>
</svg>
