<svg width="86" height="87" viewBox="0 0 86 87" fill="none" xmlns="http://www.w3.org/2000/svg">
<g opacity="0.5" clip-path="url(#clip0_2002_27905)">
<path fill-rule="evenodd" clip-rule="evenodd" d="M85.6444 87.9226L87.0232 85.175C87.3879 84.4481 87.3879 83.5525 87.0232 82.8256L85.6444 80.078C85.2796 79.3511 84.6055 78.9034 83.876 78.9034L81.1184 78.9034C80.3889 78.9034 79.7147 79.3511 79.35 80.078L77.9712 82.8256C77.6064 83.5525 77.6064 84.4481 77.9712 85.175L79.35 87.9226C79.7147 88.6494 80.3889 89.0972 81.1184 89.0972L83.876 89.0972C84.6055 89.0972 85.2796 88.6494 85.6444 87.9226ZM87.7811 85.6784C88.3021 84.64 88.3021 83.3606 87.7811 82.3222L86.4023 79.5746C85.8812 78.5362 84.9182 77.8965 83.876 77.8965L81.1184 77.8965C80.0762 77.8965 79.1132 78.5362 78.5921 79.5746L77.2133 82.3222C76.6922 83.3606 76.6922 84.64 77.2133 85.6784L78.5921 88.426C79.1132 89.4644 80.0762 90.1041 81.1184 90.1041L83.876 90.1041C84.9182 90.1041 85.8812 89.4644 86.4023 88.426L87.7811 85.6784Z" fill="url(#paint0_linear_2002_27905)"/>
<path fill-rule="evenodd" clip-rule="evenodd" d="M90.1914 96.3076L95.6091 85.5116C96.078 84.577 96.078 83.4255 95.6091 82.491L90.1914 71.6949C89.7224 70.7603 88.8557 70.1846 87.9177 70.1846L77.0825 70.1846C76.1445 70.1846 75.2778 70.7603 74.8088 71.6949L69.3911 82.491C68.9222 83.4255 68.9222 84.577 69.3911 85.5116L74.8088 96.3076C75.2778 97.2422 76.1445 97.8179 77.0825 97.8179L87.9177 97.8179C88.8557 97.8179 89.7224 97.2422 90.1914 96.3076ZM96.367 86.015C96.9923 84.7689 96.9923 83.2336 96.367 81.9875L90.9493 71.1915C90.324 69.9454 89.1684 69.1777 87.9177 69.1777L77.0825 69.1777C75.8318 69.1777 74.6762 69.9454 74.0509 71.1915L68.6332 81.9875C68.0079 83.2336 68.0079 84.7689 68.6332 86.015L74.0509 96.8111C74.6762 98.0572 75.8318 98.8248 77.0825 98.8248L87.9177 98.8248C89.1684 98.8248 90.324 98.0572 90.9493 96.8111L96.367 86.015Z" fill="url(#paint1_linear_2002_27905)"/>
<path opacity="0.9" fill-rule="evenodd" clip-rule="evenodd" d="M94.7385 104.691L104.195 85.8462C104.768 84.704 104.768 83.2966 104.195 82.1544L94.7385 63.3098C94.1653 62.1676 93.1059 61.4639 91.9595 61.4639L73.0465 61.4639C71.9001 61.4639 70.8408 62.1676 70.2676 63.3098L60.8111 82.1544C60.2379 83.2966 60.2379 84.7039 60.8111 85.8462L70.2676 104.691C70.8408 105.833 71.9001 106.537 73.0465 106.537L91.9595 106.537C93.1059 106.537 94.1653 105.833 94.7385 104.691ZM104.953 86.3496C105.682 84.8959 105.682 83.1047 104.953 81.6509L95.4964 62.8064C94.7668 61.3526 93.4186 60.457 91.9595 60.457L73.0465 60.457C71.5875 60.457 70.2392 61.3526 69.5097 62.8064L60.0532 81.6509C59.3236 83.1047 59.3236 84.8959 60.0532 86.3496L69.5097 105.194C70.2392 106.648 71.5875 107.544 73.0465 107.544L91.9595 107.544C93.4186 107.544 94.7668 106.648 95.4963 105.194L104.953 86.3496Z" fill="url(#paint2_linear_2002_27905)"/>
<path opacity="0.75" fill-rule="evenodd" clip-rule="evenodd" d="M99.2777 113.076L112.773 86.1828C113.45 84.8329 113.45 83.1697 112.773 81.8197L99.2777 54.9267C98.6003 53.5767 97.3483 52.7451 95.9935 52.7451L69.0028 52.7451C67.6479 52.7451 66.396 53.5767 65.7186 54.9267L52.2232 81.8197C51.5458 83.1697 51.5458 84.8329 52.2232 86.1828L65.7186 113.076C66.396 114.426 67.6479 115.257 69.0028 115.257L95.9935 115.257C97.3483 115.257 98.6003 114.426 99.2777 113.076ZM113.531 86.6862C114.365 85.0248 114.365 82.9778 113.531 81.3163L100.036 54.4233C99.2018 52.7618 97.661 51.7383 95.9935 51.7383L69.0028 51.7383C67.3353 51.7383 65.7944 52.7618 64.9607 54.4233L51.4653 81.3163C50.6316 82.9777 50.6316 85.0248 51.4653 86.6862L64.9607 113.579C65.7944 115.241 67.3353 116.264 69.0028 116.264L95.9935 116.264C97.661 116.264 99.2018 115.241 100.036 113.579L113.531 86.6862Z" fill="url(#paint3_linear_2002_27905)"/>
<path opacity="0.6" fill-rule="evenodd" clip-rule="evenodd" d="M103.99 121.123L121.187 86.8531C122.073 85.0878 122.073 82.9128 121.187 81.1475L103.99 46.8772C103.104 45.1119 101.467 44.0244 99.6949 44.0244L65.3002 44.0244C63.5285 44.0244 61.8913 45.1119 61.0054 46.8772L43.8081 81.1475C42.9222 82.9128 42.9222 85.0878 43.8081 86.8531L61.0054 121.123C61.8913 122.889 63.5284 123.976 65.3002 123.976L99.6949 123.976C101.467 123.976 103.104 122.889 103.99 121.123ZM121.945 87.3565C122.987 85.2797 122.987 82.7209 121.945 80.6441L104.748 46.3738C103.705 44.297 101.779 43.0176 99.6949 43.0176L65.3002 43.0176C63.2158 43.0176 61.2897 44.297 60.2476 46.3738L43.0502 80.6441C42.008 82.7209 42.008 85.2797 43.0502 87.3565L60.2476 121.627C61.2897 123.704 63.2158 124.983 65.3002 124.983L99.6949 124.983C101.779 124.983 103.705 123.704 104.748 121.627L121.945 87.3565Z" fill="url(#paint4_linear_2002_27905)"/>
<path opacity="0.5" fill-rule="evenodd" clip-rule="evenodd" d="M108.364 129.844L129.937 86.8541C130.823 85.0887 130.823 82.9138 129.937 81.1485L108.364 38.1585C107.478 36.3932 105.841 35.3057 104.069 35.3057L60.9231 35.3057C59.1514 35.3057 57.5142 36.3932 56.6283 38.1585L35.0553 81.1485C34.1694 82.9138 34.1694 85.0887 35.0553 86.854L56.6283 129.844C57.5142 131.609 59.1513 132.697 60.9231 132.697L104.069 132.697C105.841 132.697 107.478 131.609 108.364 129.844ZM130.695 87.3575C131.737 85.2806 131.737 82.7219 130.695 80.645L109.122 37.6551C108.08 35.5782 106.154 34.2988 104.069 34.2988L60.9231 34.2988C58.8387 34.2988 56.9127 35.5782 55.8705 37.655L34.2974 80.645C33.2552 82.7219 33.2552 85.2806 34.2974 87.3575L55.8704 130.347C56.9126 132.424 58.8387 133.704 60.9231 133.704L104.069 133.704C106.154 133.704 108.08 132.424 109.122 130.347L130.695 87.3575Z" fill="url(#paint5_linear_2002_27905)"/>
<path opacity="0.4" fill-rule="evenodd" clip-rule="evenodd" d="M113.751 136.549L137.679 88.8668C139.19 85.8554 139.19 82.1452 137.679 79.1337L113.751 31.4515C112.24 28.4401 109.447 26.585 106.425 26.585L58.5695 26.585C55.5472 26.585 52.7544 28.4401 51.2432 31.4515L27.3155 79.1337C25.8043 82.1452 25.8043 85.8554 27.3155 88.8668L51.2432 136.549C52.7544 139.56 55.5472 141.416 58.5695 141.416L106.425 141.416C109.447 141.416 112.24 139.56 113.751 136.549ZM138.437 89.3702C140.104 86.0473 140.104 81.9533 138.437 78.6303L114.509 30.9481C112.842 27.6251 109.76 25.5781 106.425 25.5781L58.5695 25.5781C55.2345 25.5781 52.1528 27.6251 50.4853 30.9481L26.5576 78.6303C24.8901 81.9532 24.8901 86.0473 26.5576 89.3702L50.4853 137.052C52.1528 140.375 55.2345 142.422 58.5695 142.422L106.425 142.422C109.76 142.422 112.842 140.375 114.509 137.052L138.437 89.3702Z" fill="url(#paint6_linear_2002_27905)"/>
<path opacity="0.3" fill-rule="evenodd" clip-rule="evenodd" d="M118.133 145.27L146.437 88.8678C147.948 85.8564 147.948 82.1461 146.437 79.1347L118.133 22.7328C116.622 19.7213 113.829 17.8662 110.807 17.8662L54.2002 17.8662C51.1779 17.8662 48.3851 19.7213 46.8739 22.7328L18.5705 79.1347C17.0593 82.1461 17.0593 85.8563 18.5705 88.8678L46.8739 145.27C48.3851 148.281 51.1779 150.136 54.2002 150.136L110.807 150.136C113.829 150.136 116.622 148.281 118.133 145.27ZM147.195 89.3712C148.862 86.0483 148.862 81.9542 147.195 78.6313L118.891 22.2293C117.224 18.9064 114.142 16.8594 110.807 16.8594L54.2002 16.8594C50.8652 16.8594 47.7835 18.9064 46.116 22.2293L17.8126 78.6313C16.1451 81.9542 16.1451 86.0482 17.8126 89.3712L46.116 145.773C47.7835 149.096 50.8652 151.143 54.2002 151.143L110.807 151.143C114.142 151.143 117.224 149.096 118.891 145.773L147.195 89.3712Z" fill="url(#paint7_linear_2002_27905)"/>
<path opacity="0.2" fill-rule="evenodd" clip-rule="evenodd" d="M123.175 152.646L154.507 90.2093C156.435 86.3671 156.435 81.6334 154.507 77.7913L123.175 15.3546C121.247 11.5124 117.684 9.14554 113.828 9.14554L51.1644 9.14553C47.3083 9.14553 43.7451 11.5124 41.817 15.3545L10.4853 77.7913C8.55722 81.6334 8.55722 86.3671 10.4853 90.2093L41.817 152.646C43.7451 156.488 47.3083 158.855 51.1644 158.855L113.828 158.855C117.684 158.855 121.247 156.488 123.175 152.646ZM155.265 90.7127C157.349 86.559 157.349 81.4415 155.265 77.2878L123.933 14.8511C121.849 10.6974 117.997 8.13867 113.828 8.13867L51.1644 8.13867C46.9956 8.13867 43.1435 10.6974 41.0591 14.8511L9.72738 77.2878C7.643 81.4415 7.643 86.559 9.72738 90.7127L41.0591 153.149C43.1435 157.303 46.9956 159.862 51.1644 159.862L113.828 159.862C117.997 159.862 121.849 157.303 123.933 153.149L155.265 90.7127Z" fill="url(#paint8_linear_2002_27905)"/>
<path opacity="0.1" fill-rule="evenodd" clip-rule="evenodd" d="M127.263 160.784L162.679 90.209C164.607 86.3669 164.607 81.6331 162.679 77.791L127.263 7.21588C125.335 3.37373 121.772 1.00686 117.916 1.00686L47.0843 1.00686C43.2282 1.00686 39.665 3.37372 37.7369 7.21587L2.32119 77.791C0.393124 81.6331 0.393124 86.3668 2.32119 90.209L37.7369 160.784C39.665 164.626 43.2282 166.993 47.0843 166.993L117.916 166.993C121.772 166.993 125.335 164.626 127.263 160.784ZM163.437 90.7124C165.521 86.5588 165.521 81.4412 163.437 77.2876L128.021 6.71244C125.937 2.55877 122.085 -2.15826e-06 117.916 -2.36791e-06L47.0843 -5.93009e-06C42.9155 -6.13974e-06 39.0634 2.55876 36.979 6.71244L1.56329 77.2875C-0.521091 81.4412 -0.521091 86.5588 1.56329 90.7124L36.979 161.288C39.0634 165.441 42.9155 168 47.0843 168L117.916 168C122.084 168 125.937 165.441 128.021 161.288L163.437 90.7124Z" fill="url(#paint9_linear_2002_27905)"/>
</g>
<defs>
<linearGradient id="paint0_linear_2002_27905" x1="88.1719" y1="84.0003" x2="76.8225" y2="84.0003" gradientUnits="userSpaceOnUse">
<stop stop-color="#14FF00" stop-opacity="0.55"/>
<stop offset="1" stop-color="#00F0FF" stop-opacity="0.62"/>
</linearGradient>
<linearGradient id="paint1_linear_2002_27905" x1="96.8359" y1="84.0013" x2="68.1643" y2="84.0013" gradientUnits="userSpaceOnUse">
<stop stop-color="#14FF00" stop-opacity="0.55"/>
<stop offset="1" stop-color="#00F0FF" stop-opacity="0.62"/>
</linearGradient>
<linearGradient id="paint2_linear_2002_27905" x1="105.5" y1="84.0003" x2="59.506" y2="84.0003" gradientUnits="userSpaceOnUse">
<stop stop-color="#14FF00" stop-opacity="0.55"/>
<stop offset="1" stop-color="#00F0FF" stop-opacity="0.62"/>
</linearGradient>
<linearGradient id="paint3_linear_2002_27905" x1="114.156" y1="84.0013" x2="50.84" y2="84.0013" gradientUnits="userSpaceOnUse">
<stop stop-color="#14FF00" stop-opacity="0.55"/>
<stop offset="1" stop-color="#00F0FF" stop-opacity="0.62"/>
</linearGradient>
<linearGradient id="paint4_linear_2002_27905" x1="122.727" y1="84.0003" x2="42.2685" y2="84.0003" gradientUnits="userSpaceOnUse">
<stop stop-color="#14FF00" stop-opacity="0.55"/>
<stop offset="1" stop-color="#00F0FF" stop-opacity="0.62"/>
</linearGradient>
<linearGradient id="paint5_linear_2002_27905" x1="131.477" y1="84.0013" x2="33.5157" y2="84.0013" gradientUnits="userSpaceOnUse">
<stop stop-color="#14FF00" stop-opacity="0.55"/>
<stop offset="1" stop-color="#00F0FF" stop-opacity="0.62"/>
</linearGradient>
<linearGradient id="paint6_linear_2002_27905" x1="139.687" y1="84.0003" x2="25.307" y2="84.0003" gradientUnits="userSpaceOnUse">
<stop stop-color="#14FF00" stop-opacity="0.55"/>
<stop offset="1" stop-color="#00F0FF" stop-opacity="0.62"/>
</linearGradient>
<linearGradient id="paint7_linear_2002_27905" x1="148.445" y1="84.0012" x2="16.562" y2="84.0012" gradientUnits="userSpaceOnUse">
<stop stop-color="#14FF00" stop-opacity="0.55"/>
<stop offset="1" stop-color="#00F0FF" stop-opacity="0.62"/>
</linearGradient>
<linearGradient id="paint8_linear_2002_27905" x1="156.828" y1="84.0003" x2="8.16409" y2="84.0003" gradientUnits="userSpaceOnUse">
<stop stop-color="#14FF00" stop-opacity="0.55"/>
<stop offset="1" stop-color="#00F0FF" stop-opacity="0.62"/>
</linearGradient>
<linearGradient id="paint9_linear_2002_27905" x1="165" y1="84" x2="-3.19138e-06" y2="84" gradientUnits="userSpaceOnUse">
<stop stop-color="#14FF00" stop-opacity="0.55"/>
<stop offset="1" stop-color="#00F0FF" stop-opacity="0.62"/>
</linearGradient>
<clipPath id="clip0_2002_27905">
<rect width="86" height="87" fill="white"/>
</clipPath>
</defs>
</svg>
