<svg width="214" height="54" viewBox="0 0 214 54" fill="none" xmlns="http://www.w3.org/2000/svg">
<path d="M0.276533 10.047C-0.0921782 9.41645 -0.0921776 8.63825 0.276534 8.00771L3.84077 1.9125C4.20712 1.28601 4.8819 0.900407 5.61189 0.900407L38.1146 0.900407C38.8446 0.900407 39.5194 1.28601 39.8858 1.91251L43.45 8.00771C43.8187 8.63825 43.8187 9.41646 43.45 10.047L39.8858 16.1422C39.5194 16.7687 38.8446 17.1543 38.1146 17.1543L5.61189 17.1543C4.8819 17.1543 4.20712 16.7687 3.84077 16.1422L0.276533 10.047Z" fill="white"/>
<path d="M0.276418 28.4175C-0.0921388 27.7882 -0.0921394 27.0125 0.276417 26.3833L3.84646 20.2881C4.21425 19.6602 4.89321 19.2735 5.6279 19.2735H21.1716C21.9063 19.2735 22.5852 19.6602 22.953 20.2881L26.5231 26.3833C26.8916 27.0125 26.8916 27.7882 26.5231 28.4175L22.953 34.5127C22.5852 35.1406 21.9063 35.5273 21.1716 35.5273H5.6279C4.89321 35.5273 4.21425 35.1406 3.84646 34.5127L0.276418 28.4175Z" fill="white"/>
<path d="M0.28231 46.7972C-0.0941036 46.1646 -0.094103 45.3823 0.28231 44.7497L3.90908 38.6545C4.28048 38.0303 4.96211 37.6465 5.69921 37.6465H12.9899C13.727 37.6465 14.4086 38.0303 14.78 38.6545L18.4068 44.7497C18.7832 45.3823 18.7832 46.1646 18.4068 46.7972L14.78 52.8924C14.4086 53.5166 13.727 53.9004 12.9899 53.9004H5.69921C4.96211 53.9004 4.28048 53.5166 3.90908 52.8924L0.28231 46.7972Z" fill="white"/>
<path d="M183.363 38.74C184.761 38.74 185.794 39.675 185.794 41.0414C185.794 42.4077 184.761 43.3428 183.363 43.3428C181.965 43.3428 180.932 42.4077 180.932 41.0414C180.932 39.675 181.93 38.74 183.363 38.74Z" fill="#E93249"/>
<path d="M71.1874 20.2568C69.8858 20.2568 69.0215 21.0573 69.0215 22.258C69.0215 23.4588 69.8858 24.2593 71.1874 24.2593C72.489 24.2593 73.3498 23.4243 73.3498 22.258C73.3498 21.0918 72.4511 20.2568 71.1874 20.2568ZM76.8346 33.037V43.112H80.2642V33.3371C80.2642 30.8667 81.7621 29.5659 84.293 29.5659V26.6952C79.5652 26.6952 76.8346 29.0311 76.8346 33.037ZM102.918 34.9381C102.884 29.9661 99.2546 26.395 94.1928 26.395C89.131 26.395 85.4327 29.9661 85.4327 34.9036C85.4327 39.8411 89.131 43.4122 94.1928 43.4122C98.2216 43.4122 101.72 40.8106 102.65 37.1739H99.1891C98.5556 39.1406 96.5584 40.6105 94.2272 40.6105C91.3967 40.6105 89.2653 38.7093 88.8314 35.9732H102.818C102.884 35.6385 102.918 35.2728 102.918 34.9381ZM88.9312 33.3371C89.5304 30.9012 91.562 29.2002 94.2272 29.2002C96.8924 29.2002 99.0549 30.9012 99.6196 33.3371H88.9312ZM112.536 33.3371C110.635 32.968 109.137 32.7023 109.137 31.0012C109.137 29.766 110.404 28.8965 112.136 28.8965C114.034 28.8965 115.332 29.9006 115.397 31.367H118.593C118.593 28.4307 115.931 26.395 112.202 26.395C108.473 26.395 105.773 28.3652 105.773 31.3359C105.773 35.2038 109.671 35.9387 112.136 36.3079C113.999 36.6391 115.631 36.9083 115.631 38.6093C115.631 39.9756 114.264 40.8762 112.367 40.8762C110.335 40.8762 108.872 39.8411 108.807 38.2746H105.473C105.508 41.3109 108.307 43.4122 112.267 43.4122C116.227 43.4122 118.996 41.3765 118.996 38.4092C118.996 34.4723 114.867 33.7719 112.536 33.3371ZM124.13 20.2568C122.832 20.2568 121.964 21.0573 121.964 22.258C121.964 23.4588 122.832 24.2593 124.13 24.2593C125.428 24.2593 126.296 23.4243 126.296 22.258C126.296 21.0918 125.393 20.2568 124.13 20.2568ZM122.432 26.6952V43.112H125.827V26.6952H122.432ZM137.7 26.395C132.638 26.395 129.009 29.8316 129.009 34.5724C129.009 39.3132 132.373 42.7118 137.101 42.7118C139.532 42.7118 141.629 41.7112 142.996 40.1447V42.246C142.996 45.1822 140.865 47.349 137.934 47.349C135.538 47.349 133.472 45.7136 133.072 43.5122L129.908 43.4777C130.407 47.3145 133.837 50.0852 138.065 50.0852C142.896 50.0852 146.391 46.7142 146.391 42.0458V34.5724C146.391 29.8316 142.762 26.395 137.7 26.395ZM137.735 40.0412C134.704 40.0412 132.508 37.7398 132.508 34.5379C132.508 31.3359 134.704 29.0656 137.735 29.0656C140.765 29.0656 142.996 31.367 142.996 34.5379C142.996 37.7087 140.799 40.0412 137.735 40.0412ZM158.956 26.395C156.691 26.395 154.862 27.3956 153.795 29.1657V20.0222H150.396V43.112H153.795V33.5028C153.795 30.8667 155.427 29.1312 157.958 29.1312C160.489 29.1312 162.021 30.8667 162.021 33.5028V43.112H165.451V33.037C165.451 29.0656 162.72 26.395 158.956 26.395ZM174.448 26.6952V22.4582H171.019V26.6952H167.988V29.5659H171.019V43.112H174.448V29.5659H178.143V26.6952H174.448ZM197.86 26.395C192.798 26.395 189.172 29.9661 189.172 34.9036C189.172 39.8411 192.533 43.4122 197.126 43.4122C199.626 43.4122 201.823 42.4116 203.156 40.8451V43.112H206.551V34.9036C206.551 29.9661 202.922 26.395 197.86 26.395ZM197.894 40.4449C194.864 40.4449 192.667 38.14 192.667 34.9036C192.667 31.6672 194.864 29.3658 197.894 29.3658C200.925 29.3658 203.156 31.7017 203.156 34.9036C203.156 38.1055 200.959 40.4449 197.894 40.4449ZM211.833 20.2568C210.535 20.2568 209.671 21.0573 209.671 22.258C209.671 23.4588 210.535 24.2593 211.833 24.2593C213.131 24.2593 213.999 23.4243 213.999 22.258C213.999 21.0918 213.1 20.2568 211.833 20.2568ZM210.136 26.6952V43.112H213.531V26.6952H210.136Z" fill="white"/>
<path d="M72.8865 26.6957V43.1125H69.4878V29.5664H69.4844V26.6957H72.8865Z" fill="white"/>
<path d="M67.3066 20.0435C66.8211 19.7882 66.0119 19.7227 65.4816 19.7227C62.3516 19.7227 60.1512 21.6894 60.1512 24.4945V26.6958H57.7891V29.5665H60.1512V43.1126H63.5499V29.5665H67.3273V26.6958H63.5499V24.4945C63.5499 23.3593 64.3797 22.6244 65.5126 22.6244C66.036 22.6244 66.7591 22.7659 67.3066 23.1247V20.0435Z" fill="white"/>
</svg>
