<svg width="1434" height="1233" viewBox="0 0 1434 1233" fill="none" xmlns="http://www.w3.org/2000/svg">
<g opacity="0.55">
<path fill-rule="evenodd" clip-rule="evenodd" d="M759.787 604.889C763.887 611.78 763.887 620.26 759.787 627.151L747.752 647.379C743.647 654.278 736.034 658.563 727.757 658.563H703.687C695.411 658.563 687.798 654.278 683.693 647.379L671.658 627.151C667.558 620.26 667.558 611.78 671.658 604.889L683.693 584.661C687.798 577.762 695.411 573.477 703.687 573.477H727.757C736.034 573.477 743.647 577.762 747.752 584.661L759.787 604.889ZM745.25 646.12L757.285 625.892C760.918 619.786 760.918 612.254 757.285 606.148L745.25 585.92C741.623 579.823 734.946 576.103 727.757 576.103H703.687C696.499 576.103 689.822 579.823 686.195 585.92L674.16 606.148C670.527 612.254 670.527 619.786 674.16 625.892L686.195 646.12C689.822 652.216 696.499 655.937 703.687 655.937H727.757C734.945 655.937 741.623 652.216 745.25 646.12Z" fill="black"/>
<path fill-rule="evenodd" clip-rule="evenodd" d="M834.706 602.428C839.716 610.848 839.716 621.211 834.706 629.631L787.417 709.113C782.402 717.542 773.108 722.768 763.012 722.768H668.435C658.339 722.768 649.045 717.542 644.03 709.113L596.741 629.631C591.731 621.211 591.731 610.848 596.741 602.428L644.03 522.947C649.045 514.518 658.339 509.291 668.435 509.291H763.012C773.108 509.291 782.402 514.518 787.417 522.947L834.706 602.428ZM784.915 707.854L832.204 628.372C836.747 620.738 836.747 611.322 832.204 603.687L784.915 524.206C780.378 516.58 772.02 511.917 763.012 511.917H668.435C659.427 511.917 651.068 516.58 646.531 524.206L599.243 603.687C594.7 611.322 594.7 620.738 599.243 628.372L646.531 707.854C651.068 715.48 659.427 720.143 668.435 720.143H763.012C772.02 720.143 780.378 715.48 784.915 707.854Z" fill="black"/>
<path fill-rule="evenodd" clip-rule="evenodd" d="M909.602 599.953C915.521 609.902 915.521 622.15 909.602 632.098L827.059 770.833C821.135 780.791 810.159 786.96 798.244 786.96H633.158C621.243 786.96 610.268 780.791 604.343 770.833L521.8 632.098C515.881 622.15 515.881 609.902 521.8 599.953L604.343 461.218C610.268 451.261 621.243 445.092 633.158 445.092H798.244C810.159 445.092 821.135 451.261 827.059 461.218L909.602 599.953ZM824.557 769.575L907.1 630.839C912.552 621.676 912.552 610.376 907.1 601.212L824.557 462.477C819.111 453.323 809.071 447.718 798.244 447.718H633.158C622.331 447.718 612.292 453.322 606.845 462.477L524.302 601.212C518.85 610.376 518.85 621.676 524.302 630.839L606.845 769.575C612.292 778.729 622.331 784.334 633.158 784.334H798.244C809.071 784.334 819.111 778.729 824.557 769.575Z" fill="black"/>
<path fill-rule="evenodd" clip-rule="evenodd" d="M984.553 597.481C991.381 608.958 991.381 623.089 984.553 634.567L866.756 832.556C859.921 844.043 847.265 851.153 833.53 851.153H597.937C584.202 851.153 571.546 844.043 564.711 832.556L446.914 634.567C440.086 623.089 440.086 608.958 446.914 597.481L564.711 399.492C571.546 388.005 584.202 380.895 597.937 380.895L833.53 380.895C847.265 380.895 859.921 388.005 866.756 399.492L984.553 597.481ZM864.254 831.297L982.051 633.308C988.413 622.616 988.413 609.432 982.051 598.74L864.254 400.751C857.898 390.067 846.177 383.52 833.53 383.52H597.937C585.29 383.52 573.569 390.067 567.213 400.751L449.416 598.739C443.054 609.432 443.054 622.616 449.416 633.308L567.213 831.297C573.569 841.981 585.29 848.527 597.937 848.527H833.53C846.177 848.527 857.898 841.981 864.254 831.297Z" fill="black"/>
<path fill-rule="evenodd" clip-rule="evenodd" d="M1058.01 592.543C1066.66 607.078 1066.66 624.977 1058.01 639.513L907.898 891.813C899.244 906.358 883.225 915.353 865.852 915.353H565.631C548.257 915.353 532.238 906.358 523.585 891.813L373.474 639.513C364.826 624.977 364.826 607.078 373.474 592.543L523.585 340.242C532.238 325.698 548.257 316.703 565.631 316.703L865.852 316.703C883.225 316.703 899.244 325.698 907.898 340.242L1058.01 592.543ZM905.396 890.555L1055.51 638.254C1063.69 624.504 1063.69 607.552 1055.51 593.802L905.396 341.501C897.22 327.76 882.137 319.329 865.852 319.329H565.631C549.345 319.329 534.262 327.759 526.086 341.501L375.976 593.802C367.795 607.552 367.795 624.504 375.976 638.254L526.086 890.555C534.262 904.296 549.345 912.727 565.631 912.727H865.852C882.137 912.727 897.22 904.296 905.396 890.555Z" fill="black"/>
<path fill-rule="evenodd" clip-rule="evenodd" d="M1134.36 592.549C1143.01 607.084 1143.01 624.983 1134.36 639.519L946.055 956.015C937.401 970.559 921.383 979.554 904.009 979.554H527.4C510.026 979.554 494.007 970.559 485.354 956.015L297.049 639.519C288.401 624.983 288.401 607.084 297.049 592.549L485.354 276.053C494.007 261.508 510.026 252.514 527.4 252.514L904.009 252.514C921.383 252.514 937.401 261.508 946.055 276.053L1134.36 592.549ZM943.553 954.756L1131.86 638.26C1140.04 624.509 1140.04 607.558 1131.86 593.808L943.553 277.312C935.378 263.57 920.294 255.14 904.009 255.14L527.4 255.139C511.115 255.139 496.031 263.57 487.855 277.312L299.551 593.807C291.369 607.558 291.369 624.509 299.551 638.26L487.855 954.756C496.031 968.497 511.114 976.928 527.4 976.928L904.009 976.928C920.294 976.928 935.378 968.497 943.553 954.756Z" fill="black"/>
<path fill-rule="evenodd" clip-rule="evenodd" d="M1201.95 577.72C1216.06 601.429 1216.06 630.631 1201.95 654.34L993.096 1005.38C978.984 1029.1 952.878 1043.74 924.588 1043.74H506.873C478.583 1043.74 452.477 1029.1 438.365 1005.38L229.508 654.34C215.401 630.63 215.401 601.429 229.508 577.719L438.365 226.679C452.477 202.96 478.583 188.314 506.873 188.314L924.588 188.314C952.878 188.314 978.984 202.96 993.096 226.679L1201.95 577.72ZM990.594 1004.12L1199.45 653.081C1213.09 630.157 1213.09 601.903 1199.45 578.978L990.594 227.938C976.96 205.022 951.79 190.94 924.588 190.94L506.873 190.94C479.671 190.94 454.501 205.022 440.867 227.938L232.009 578.978C218.37 601.903 218.37 630.157 232.009 653.081L440.867 1004.12C454.501 1027.04 479.671 1041.12 506.873 1041.12H924.588C951.79 1041.12 976.96 1027.04 990.594 1004.12Z" fill="black"/>
<path fill-rule="evenodd" clip-rule="evenodd" d="M1278.32 577.72C1292.43 601.429 1292.43 630.631 1278.32 654.34L1031.27 1069.58C1017.16 1093.29 991.051 1107.94 962.761 1107.94H468.658C440.368 1107.94 414.262 1093.29 400.15 1069.58L153.098 654.34C138.992 630.631 138.992 601.429 153.098 577.72L400.15 162.484C414.262 138.765 440.368 124.119 468.658 124.119L962.761 124.119C991.051 124.119 1017.16 138.765 1031.27 162.484L1278.32 577.72ZM1028.77 1068.32L1275.82 653.081C1289.46 630.157 1289.46 601.903 1275.82 578.978L1028.77 163.742C1015.13 140.827 989.963 126.745 962.761 126.745L468.658 126.745C441.456 126.745 416.286 140.827 402.652 163.742L155.6 578.978C141.961 601.903 141.961 630.157 155.6 653.081L402.652 1068.32C416.286 1091.23 441.456 1105.31 468.658 1105.31H962.761C989.963 1105.31 1015.13 1091.23 1028.77 1068.32Z" fill="black"/>
<path fill-rule="evenodd" clip-rule="evenodd" d="M1348.82 567.838C1366.56 597.664 1366.56 634.4 1348.82 664.226L1075.33 1123.89C1057.58 1153.72 1024.75 1172.14 989.184 1172.14H442.214C406.646 1172.14 373.816 1153.72 356.065 1123.89L82.5801 664.226C64.8348 634.4 64.8348 597.664 82.5801 567.838L356.065 108.174C373.816 78.3392 406.647 59.9258 442.214 59.9258L989.185 59.9258C1024.75 59.9258 1057.58 78.3392 1075.33 108.174L1348.82 567.838ZM1072.83 1122.63L1346.32 662.967C1363.59 633.927 1363.59 598.137 1346.32 569.097L1072.83 109.433C1055.56 80.4011 1023.66 62.5517 989.185 62.5517L442.214 62.5517C407.735 62.5517 375.84 80.4011 358.567 109.433L85.0818 569.097C67.8037 598.137 67.8037 633.926 85.0818 662.967L358.567 1122.63C375.84 1151.66 407.735 1169.51 442.214 1169.51L989.184 1169.51C1023.66 1169.51 1055.56 1151.66 1072.83 1122.63Z" fill="black"/>
<path fill-rule="evenodd" clip-rule="evenodd" d="M1420.14 567.828C1437.88 597.653 1437.88 634.39 1420.14 664.215L1111.01 1183.8C1093.25 1213.63 1060.42 1232.04 1024.86 1232.04L406.591 1232.04C371.023 1232.04 338.192 1213.63 320.442 1183.8L11.3089 664.215C-6.43632 634.39 -6.43632 597.653 11.309 567.828L320.442 48.2479C338.193 18.4134 371.023 0 406.591 0L1024.86 2.6226e-05C1060.42 2.77758e-05 1093.25 18.4134 1111.01 48.248L1420.14 567.828ZM1108.5 1182.54L1417.64 662.957C1434.92 633.916 1434.92 598.127 1417.64 569.087L1108.5 49.5068C1091.23 20.4753 1059.34 2.62589 1024.86 2.62588L406.591 2.62586C372.112 2.62586 340.216 20.4753 322.944 49.5067L13.8107 569.087C-3.46749 598.127 -3.46749 633.916 13.8107 662.957L322.944 1182.54C340.216 1211.57 372.111 1229.42 406.591 1229.42H1024.86C1059.34 1229.42 1091.23 1211.57 1108.5 1182.54Z" fill="black"/>
</g>
</svg>
