<svg width="1440" height="1060" viewBox="0 0 1440 1060" fill="none" xmlns="http://www.w3.org/2000/svg">
<g style="mix-blend-mode:color-burn" opacity="0.3">
<path d="M1115 299.442C1114.46 299.944 1113.84 300.329 1113.17 300.597C1112.49 300.866 1111.79 301 1111.07 301C1110.51 301 1109.97 300.921 1109.46 300.764C1108.94 300.612 1108.46 300.396 1108.01 300.116C1107.56 299.83 1107.15 299.488 1106.78 299.092C1106.41 298.695 1106.09 298.257 1105.83 297.778C1105.56 297.294 1105.36 296.778 1105.21 296.229C1105.07 295.675 1105 295.1 1105 294.504C1105 293.909 1105.07 293.334 1105.21 292.78C1105.36 292.225 1105.56 291.709 1105.83 291.23C1106.09 290.746 1106.41 290.305 1106.78 289.908C1107.15 289.512 1107.56 289.173 1108.01 288.893C1108.46 288.607 1108.94 288.388 1109.46 288.236C1109.97 288.079 1110.51 288 1111.07 288C1111.79 288 1112.49 288.134 1113.17 288.403C1113.84 288.665 1114.46 289.051 1115 289.558L1113.76 291.747C1113.41 291.35 1113.01 291.046 1112.54 290.836C1112.07 290.62 1111.58 290.512 1111.07 290.512C1110.55 290.512 1110.06 290.618 1109.61 290.828C1109.16 291.038 1108.76 291.324 1108.43 291.686C1108.09 292.042 1107.82 292.465 1107.62 292.955C1107.43 293.439 1107.33 293.956 1107.33 294.504C1107.33 295.053 1107.43 295.569 1107.62 296.054C1107.82 296.532 1108.09 296.953 1108.43 297.314C1108.76 297.676 1109.16 297.962 1109.61 298.172C1110.06 298.382 1110.55 298.488 1111.07 298.488C1111.58 298.488 1112.07 298.382 1112.54 298.172C1113.01 297.956 1113.41 297.65 1113.76 297.253L1115 299.442Z" fill="#131027"/>
<path fill-rule="evenodd" clip-rule="evenodd" d="M168.913 201.404L173.322 193.767C174.489 191.746 174.489 189.257 173.322 187.236L168.913 179.598C167.746 177.578 165.59 176.333 163.257 176.333L154.438 176.333C152.105 176.333 149.949 177.578 148.782 179.598L144.373 187.236C143.206 189.257 143.206 191.746 144.373 193.767L148.782 201.404C149.949 203.425 152.105 204.67 154.438 204.67L163.257 204.67C165.59 204.67 167.746 203.425 168.913 201.404ZM175.746 195.166C177.413 192.279 177.413 188.723 175.746 185.837L171.337 178.199C169.67 175.312 166.59 173.534 163.257 173.534L154.438 173.534C151.105 173.534 148.025 175.312 146.358 178.199L141.949 185.837C140.282 188.723 140.282 192.279 141.949 195.166L146.358 202.804C148.025 205.69 151.105 207.468 154.438 207.468L163.257 207.468C166.59 207.468 169.67 205.69 171.337 202.804L175.746 195.166Z" fill="#2B1616"/>
<path fill-rule="evenodd" clip-rule="evenodd" d="M183.445 224.71L200.772 194.699C202.271 192.101 202.271 188.9 200.772 186.303L183.445 156.292C181.945 153.694 179.173 152.094 176.173 152.094L141.52 152.094C138.52 152.094 135.749 153.694 134.249 156.292L116.922 186.303C115.422 188.9 115.422 192.101 116.922 194.699L134.249 224.71C135.749 227.307 138.52 228.908 141.52 228.908L176.173 228.908C179.173 228.908 181.945 227.307 183.445 224.71ZM203.195 196.098C205.195 192.635 205.195 188.367 203.195 184.903L185.869 154.893C183.869 151.429 180.173 149.295 176.173 149.295L141.52 149.295C137.521 149.295 133.825 151.429 131.825 154.893L114.498 184.903C112.498 188.367 112.498 192.635 114.498 196.098L131.825 226.109C133.825 229.573 137.521 231.707 141.52 231.707L176.173 231.707C180.173 231.707 183.869 229.573 185.869 226.109L203.195 196.098Z" fill="#2B1616"/>
<path opacity="0.9" fill-rule="evenodd" clip-rule="evenodd" d="M197.981 248.015L228.225 195.632C230.058 192.456 230.058 188.544 228.225 185.369L197.981 132.986C196.148 129.811 192.76 127.855 189.094 127.855L128.607 127.855C124.94 127.855 121.552 129.811 119.719 132.986L89.4755 185.369C87.6423 188.544 87.6423 192.456 89.4755 195.632L119.719 248.015C121.552 251.19 124.94 253.146 128.607 253.146L189.094 253.146C192.76 253.146 196.148 251.19 197.981 248.015ZM230.649 197.031C232.982 192.99 232.982 188.011 230.649 183.97L200.405 131.586C198.072 127.545 193.76 125.056 189.094 125.056L128.607 125.056C123.94 125.056 119.628 127.545 117.295 131.586L87.0516 183.97C84.7184 188.011 84.7184 192.99 87.0516 197.031L117.295 249.414C119.628 253.455 123.94 255.945 128.607 255.945L189.094 255.945C193.76 255.945 198.072 253.455 200.405 249.414L230.649 197.031Z" fill="#2B1616"/>
<path opacity="0.75" fill-rule="evenodd" clip-rule="evenodd" d="M212.513 271.32L255.674 196.564C257.84 192.811 257.84 188.188 255.674 184.436L212.513 109.679C210.347 105.927 206.343 103.615 202.01 103.615L115.689 103.615C111.356 103.615 107.352 105.927 105.186 109.679L62.025 184.436C59.8585 188.188 59.8585 192.811 62.025 196.564L105.186 271.32C107.352 275.073 111.356 277.384 115.689 277.384L202.01 277.384C206.343 277.384 210.347 275.073 212.513 271.32ZM258.098 197.963C260.764 193.345 260.764 187.655 258.098 183.036L214.937 108.28C212.271 103.662 207.343 100.816 202.01 100.816L115.689 100.816C110.356 100.816 105.428 103.662 102.762 108.28L59.6011 183.036C56.9346 187.655 56.9346 193.345 59.6011 197.963L102.762 272.72C105.428 277.338 110.356 280.183 115.689 280.183L202.01 280.183C207.343 280.183 212.271 277.338 214.937 272.72L258.098 197.963Z" fill="#2B1616"/>
<path opacity="0.6" fill-rule="evenodd" clip-rule="evenodd" d="M227.584 293.693L282.584 198.43C285.417 193.523 285.417 187.477 282.584 182.57L227.584 87.307C224.751 82.3999 219.515 79.377 213.849 79.377L103.848 79.377C98.1819 79.377 92.9461 82.3999 90.1129 87.307L35.1127 182.57C32.2796 187.477 32.2796 193.523 35.1127 198.43L90.1129 293.693C92.9461 298.601 98.1819 301.624 103.848 301.624L213.849 301.624C219.515 301.624 224.751 298.601 227.584 293.693ZM285.008 199.83C288.341 194.057 288.341 186.944 285.008 181.171L230.008 85.9076C226.675 80.1345 220.515 76.5781 213.849 76.5781L103.848 76.5781C97.182 76.5781 91.0222 80.1345 87.6891 85.9076L32.6889 181.171C29.3557 186.944 29.3557 194.057 32.6889 199.83L87.689 295.093C91.0221 300.866 97.182 304.422 103.848 304.422L213.849 304.422C220.515 304.422 226.675 300.866 230.008 295.093L285.008 199.83Z" fill="#2B1616"/>
<path opacity="0.5" fill-rule="evenodd" clip-rule="evenodd" d="M241.578 317.933L310.572 198.431C313.406 193.524 313.406 187.478 310.572 182.571L241.578 63.0688C238.745 58.1616 233.509 55.1387 227.843 55.1387L89.8538 55.1387C84.1875 55.1387 78.9516 58.1616 76.1185 63.0687L7.12402 182.571C4.29086 187.478 4.29089 193.524 7.12402 198.431L76.1185 317.933C78.9516 322.84 84.1875 325.863 89.8537 325.863L227.843 325.863C233.509 325.863 238.745 322.84 241.578 317.933ZM312.996 199.83C316.329 194.057 316.329 186.944 312.996 181.171L244.002 61.6693C240.669 55.8962 234.509 52.3398 227.843 52.3398L89.8538 52.3398C83.1875 52.3398 77.0277 55.8962 73.6946 61.6693L4.70013 181.171C1.367 186.944 1.367 194.057 4.70013 199.83L73.6946 319.332C77.0277 325.105 83.1875 328.662 89.8537 328.662L227.843 328.662C234.509 328.662 240.669 325.105 244.002 319.332L312.996 199.83Z" fill="#2B1616"/>
<path opacity="0.4" fill-rule="evenodd" clip-rule="evenodd" d="M258.805 336.573L335.33 204.028C340.163 195.657 340.163 185.343 335.33 176.972L258.805 44.4272C253.972 36.0562 245.041 30.8994 235.374 30.8994L82.3245 30.8994C72.6584 30.8994 63.7267 36.0562 58.8936 44.4272L-17.6314 176.972C-22.4644 185.343 -22.4644 195.657 -17.6314 204.028L58.8936 336.573C63.7267 344.944 72.6584 350.101 82.3244 350.101L235.374 350.101C245.04 350.101 253.972 344.944 258.805 336.573ZM337.754 205.427C343.087 196.19 343.087 184.81 337.754 175.573L261.229 43.0278C255.896 33.7908 246.04 28.1006 235.374 28.1006L82.3245 28.1006C71.6585 28.1006 61.8028 33.7908 56.4698 43.0278L-20.0552 175.573C-25.3882 184.81 -25.3882 196.19 -20.0552 205.427L56.4698 337.973C61.8028 347.21 71.6585 352.9 82.3244 352.9L235.374 352.9C246.04 352.9 255.896 347.21 261.229 337.973L337.754 205.427Z" fill="#2B1616"/>
<path opacity="0.3" fill-rule="evenodd" clip-rule="evenodd" d="M272.799 360.811L363.319 204.027C368.152 195.656 368.152 185.343 363.319 176.972L272.799 20.1879C267.966 11.8169 259.035 6.66017 249.369 6.66017L68.33 6.66016C58.664 6.66016 49.7322 11.8169 44.8992 20.1879L-45.6201 176.972C-50.4531 185.343 -50.4531 195.656 -45.6201 204.027L44.8992 360.811C49.7322 369.182 58.664 374.339 68.3299 374.339L249.368 374.339C259.035 374.339 267.966 369.182 272.799 360.811ZM365.742 205.427C371.075 196.19 371.075 184.81 365.742 175.573L275.223 18.7885C269.89 9.55154 260.034 3.86132 249.369 3.86132L68.33 3.86131C57.6641 3.86131 47.8083 9.55153 42.4753 18.7885L-48.044 175.573C-53.3769 184.809 -53.3769 196.19 -48.044 205.427L42.4753 362.211C47.8083 371.448 57.664 377.138 68.3299 377.138L249.368 377.138C260.034 377.138 269.89 371.448 275.223 362.211L365.742 205.427Z" fill="#2B1616"/>
<path opacity="0.2" fill-rule="evenodd" clip-rule="evenodd" d="M288.946 381.319L389.151 207.76C395.317 197.079 395.317 183.921 389.151 173.241L288.946 -0.318532C282.78 -10.9988 271.384 -17.5781 259.052 -17.5781L58.643 -17.5781C46.3105 -17.5781 34.9148 -10.9988 28.7485 -0.318543L-71.4559 173.241C-77.6222 183.921 -77.6222 197.079 -71.4559 207.76L28.7485 381.319C34.9147 391.999 46.3104 398.578 58.643 398.578L259.052 398.578C271.384 398.578 282.78 391.999 288.946 381.319ZM391.575 209.159C398.241 197.613 398.241 183.387 391.575 171.841L291.37 -1.71796C284.704 -13.2642 272.384 -20.377 259.052 -20.377L58.643 -20.377C45.3105 -20.377 32.9908 -13.2642 26.3246 -1.71797L-73.8798 171.841C-80.5461 183.387 -80.5461 197.613 -73.8798 209.159L26.3246 382.718C32.9908 394.265 45.3105 401.377 58.643 401.377L259.052 401.377C272.384 401.377 284.704 394.265 291.37 382.718L391.575 209.159Z" fill="#2B1616"/>
<path opacity="0.1" fill-rule="evenodd" clip-rule="evenodd" d="M302.01 403.942L415.276 207.76C421.442 197.079 421.442 183.921 415.276 173.24L302.01 -22.9416C295.844 -33.6218 284.448 -40.2012 272.116 -40.2012L45.5841 -40.2012C33.2516 -40.2012 21.8559 -33.6219 15.6896 -22.9416L-97.5761 173.24C-103.742 183.921 -103.742 197.079 -97.5761 207.76L15.6896 403.942C21.8558 414.622 33.2516 421.201 45.5841 421.201L272.115 421.201C284.448 421.201 295.844 414.622 302.01 403.942ZM417.7 209.159C424.366 197.613 424.366 183.387 417.7 171.841L304.434 -24.341C297.768 -35.8872 285.448 -43 272.116 -43L45.5841 -43C32.2516 -43 19.9319 -35.8873 13.2657 -24.341L-99.9999 171.841C-106.666 183.387 -106.666 197.613 -99.9999 209.159L13.2657 405.341C19.9319 416.887 32.2516 424 45.5841 424L272.115 424C285.448 424 297.768 416.887 304.434 405.341L417.7 209.159Z" fill="#2B1616"/>
<path fill-rule="evenodd" clip-rule="evenodd" d="M912.913 174.403L917.322 166.766C918.489 164.745 918.489 162.256 917.322 160.235L912.913 152.597C911.746 150.577 909.59 149.332 907.257 149.332L898.438 149.332C896.105 149.332 893.949 150.577 892.782 152.597L888.373 160.235C887.206 162.256 887.206 164.745 888.373 166.766L892.782 174.403C893.949 176.424 896.105 177.669 898.438 177.669L907.257 177.669C909.59 177.669 911.746 176.424 912.913 174.403ZM919.746 168.165C921.413 165.279 921.413 161.722 919.746 158.836L915.337 151.198C913.67 148.311 910.59 146.533 907.257 146.533L898.438 146.533C895.105 146.533 892.025 148.311 890.358 151.198L885.949 158.836C884.282 161.722 884.282 165.279 885.949 168.165L890.358 175.803C892.025 178.689 895.105 180.467 898.438 180.467L907.257 180.467C910.59 180.467 913.67 178.689 915.337 175.803L919.746 168.165Z" fill="#2B1616"/>
<path fill-rule="evenodd" clip-rule="evenodd" d="M927.445 197.71L944.772 167.699C946.271 165.101 946.271 161.9 944.772 159.303L927.445 129.292C925.945 126.694 923.173 125.094 920.173 125.094L885.52 125.094C882.52 125.094 879.749 126.694 878.249 129.292L860.922 159.303C859.422 161.9 859.422 165.101 860.922 167.699L878.249 197.71C879.749 200.307 882.52 201.908 885.52 201.908L920.173 201.908C923.173 201.908 925.945 200.307 927.445 197.71ZM947.195 169.098C949.195 165.635 949.195 161.367 947.195 157.903L929.869 127.893C927.869 124.429 924.173 122.295 920.173 122.295L885.52 122.295C881.521 122.295 877.825 124.429 875.825 127.893L858.498 157.903C856.498 161.367 856.498 165.635 858.498 169.098L875.825 199.109C877.825 202.573 881.521 204.707 885.52 204.707L920.173 204.707C924.173 204.707 927.869 202.573 929.869 199.109L947.195 169.098Z" fill="#2B1616"/>
<path opacity="0.9" fill-rule="evenodd" clip-rule="evenodd" d="M941.981 221.015L972.225 168.632C974.058 165.456 974.058 161.544 972.225 158.369L941.981 105.986C940.148 102.811 936.76 100.855 933.094 100.855L872.607 100.855C868.94 100.855 865.552 102.811 863.719 105.986L833.475 158.369C831.642 161.544 831.642 165.456 833.475 168.632L863.719 221.015C865.552 224.19 868.94 226.146 872.607 226.146L933.094 226.146C936.76 226.146 940.148 224.19 941.981 221.015ZM974.649 170.031C976.982 165.99 976.982 161.011 974.649 156.97L944.405 104.586C942.072 100.545 937.76 98.0557 933.094 98.0557L872.607 98.0557C867.94 98.0557 863.628 100.545 861.295 104.586L831.052 156.97C828.718 161.011 828.718 165.99 831.052 170.031L861.295 222.414C863.628 226.455 867.94 228.945 872.607 228.945L933.094 228.945C937.76 228.945 942.072 226.455 944.405 222.414L974.649 170.031Z" fill="#2B1616"/>
<path opacity="0.75" fill-rule="evenodd" clip-rule="evenodd" d="M956.513 244.32L999.674 169.564C1001.84 165.811 1001.84 161.188 999.674 157.436L956.513 82.6794C954.347 78.9269 950.343 76.6153 946.01 76.6153L859.689 76.6152C855.356 76.6152 851.352 78.9269 849.186 82.6794L806.025 157.436C803.858 161.188 803.858 165.811 806.025 169.564L849.186 244.32C851.352 248.073 855.356 250.384 859.689 250.384L946.01 250.384C950.343 250.384 954.347 248.073 956.513 244.32ZM1002.1 170.963C1004.76 166.345 1004.76 160.655 1002.1 156.036L958.937 81.28C956.271 76.6615 951.343 73.8164 946.01 73.8164L859.689 73.8164C854.356 73.8164 849.428 76.6615 846.762 81.28L803.601 156.036C800.935 160.655 800.935 166.345 803.601 170.963L846.762 245.72C849.428 250.338 854.356 253.183 859.689 253.183L946.01 253.183C951.343 253.183 956.271 250.338 958.937 245.72L1002.1 170.963Z" fill="#2B1616"/>
<path opacity="0.6" fill-rule="evenodd" clip-rule="evenodd" d="M971.584 266.693L1026.58 171.43C1029.42 166.523 1029.42 160.477 1026.58 155.57L971.584 60.307C968.751 55.3999 963.515 52.377 957.849 52.377L847.848 52.377C842.182 52.377 836.946 55.3999 834.113 60.307L779.113 155.57C776.28 160.477 776.28 166.523 779.113 171.43L834.113 266.693C836.946 271.601 842.182 274.624 847.848 274.624L957.849 274.624C963.515 274.624 968.751 271.601 971.584 266.693ZM1029.01 172.83C1032.34 167.057 1032.34 159.944 1029.01 154.171L974.008 58.9076C970.675 53.1345 964.515 49.5781 957.849 49.5781L847.848 49.5781C841.182 49.5781 835.022 53.1345 831.689 58.9076L776.689 154.171C773.356 159.944 773.356 167.057 776.689 172.83L831.689 268.093C835.022 273.866 841.182 277.422 847.848 277.422L957.849 277.422C964.515 277.422 970.675 273.866 974.008 268.093L1029.01 172.83Z" fill="#2B1616"/>
<path opacity="0.5" fill-rule="evenodd" clip-rule="evenodd" d="M985.578 290.933L1054.57 171.431C1057.41 166.524 1057.41 160.478 1054.57 155.571L985.578 36.0688C982.745 31.1616 977.509 28.1387 971.843 28.1387L833.854 28.1387C828.187 28.1387 822.952 31.1616 820.118 36.0687L751.124 155.571C748.291 160.478 748.291 166.524 751.124 171.431L820.118 290.933C822.952 295.84 828.187 298.863 833.854 298.863L971.843 298.863C977.509 298.863 982.745 295.84 985.578 290.933ZM1057 172.83C1060.33 167.057 1060.33 159.944 1057 154.171L988.002 34.6693C984.669 28.8962 978.509 25.3398 971.843 25.3398L833.854 25.3398C827.188 25.3398 821.028 28.8962 817.695 34.6693L748.7 154.171C745.367 159.944 745.367 167.057 748.7 172.83L817.695 292.332C821.028 298.105 827.188 301.662 833.854 301.662L971.843 301.662C978.509 301.662 984.669 298.105 988.002 292.332L1057 172.83Z" fill="#2B1616"/>
<path opacity="0.4" fill-rule="evenodd" clip-rule="evenodd" d="M1002.81 309.573L1079.33 177.028C1084.16 168.657 1084.16 158.343 1079.33 149.972L1002.81 17.4272C997.972 9.05619 989.041 3.89943 979.374 3.89943L826.324 3.89942C816.658 3.89942 807.727 9.05618 802.894 17.4272L726.369 149.972C721.536 158.343 721.536 168.657 726.369 177.028L802.894 309.573C807.727 317.944 816.658 323.101 826.324 323.101L979.374 323.101C989.04 323.101 997.972 317.944 1002.81 309.573ZM1081.75 178.427C1087.09 169.19 1087.09 157.81 1081.75 148.573L1005.23 16.0278C999.896 6.7908 990.04 1.10058 979.374 1.10058L826.324 1.10057C815.659 1.10057 805.803 6.79079 800.47 16.0278L723.945 148.573C718.612 157.81 718.612 169.19 723.945 178.427L800.47 310.973C805.803 320.21 815.658 325.9 826.324 325.9L979.374 325.9C990.04 325.9 999.896 320.21 1005.23 310.973L1081.75 178.427Z" fill="#2B1616"/>
<path opacity="0.3" fill-rule="evenodd" clip-rule="evenodd" d="M1016.8 333.811L1107.32 177.027C1112.15 168.656 1112.15 158.343 1107.32 149.972L1016.8 -6.81205C1011.97 -15.1831 1003.03 -20.3398 993.369 -20.3398L812.33 -20.3398C802.664 -20.3398 793.732 -15.1831 788.899 -6.81207L698.38 149.972C693.547 158.343 693.547 168.656 698.38 177.027L788.899 333.811C793.732 342.182 802.664 347.339 812.33 347.339L993.368 347.339C1003.03 347.339 1011.97 342.182 1016.8 333.811ZM1109.74 178.427C1115.08 169.19 1115.08 157.81 1109.74 148.573L1019.22 -8.21147C1013.89 -17.4485 1004.03 -23.1387 993.369 -23.1387L812.33 -23.1387C801.664 -23.1387 791.808 -17.4485 786.475 -8.21149L695.956 148.573C690.623 157.809 690.623 169.19 695.956 178.427L786.475 335.211C791.808 344.448 801.664 350.138 812.33 350.138L993.368 350.138C1004.03 350.138 1013.89 344.448 1019.22 335.211L1109.74 178.427Z" fill="#2B1616"/>
<path opacity="0.2" fill-rule="evenodd" clip-rule="evenodd" d="M1032.95 354.319L1133.15 180.76C1139.32 170.079 1139.32 156.921 1133.15 146.241L1032.95 -27.3185C1026.78 -37.9988 1015.38 -44.5781 1003.05 -44.5781L802.643 -44.5781C790.31 -44.5781 778.915 -37.9988 772.748 -27.3185L672.544 146.241C666.378 156.921 666.378 170.079 672.544 180.76L772.748 354.319C778.915 364.999 790.31 371.578 802.643 371.578L1003.05 371.578C1015.38 371.578 1026.78 364.999 1032.95 354.319ZM1135.57 182.159C1142.24 170.613 1142.24 156.387 1135.57 144.841L1035.37 -28.718C1028.7 -40.2642 1016.38 -47.377 1003.05 -47.377L802.643 -47.377C789.311 -47.377 776.991 -40.2642 770.325 -28.718L670.12 144.841C663.454 156.387 663.454 170.613 670.12 182.159L770.325 355.718C776.991 367.265 789.31 374.377 802.643 374.377L1003.05 374.377C1016.38 374.377 1028.7 367.265 1035.37 355.718L1135.57 182.159Z" fill="#2B1616"/>
<path opacity="0.1" fill-rule="evenodd" clip-rule="evenodd" d="M1046.01 376.942L1159.28 180.76C1165.44 170.079 1165.44 156.921 1159.28 146.24L1046.01 -49.9416C1039.84 -60.6218 1028.45 -67.2012 1016.12 -67.2012L789.584 -67.2012C777.252 -67.2012 765.856 -60.6219 759.69 -49.9416L646.424 146.24C640.258 156.921 640.258 170.079 646.424 180.76L759.69 376.942C765.856 387.622 777.252 394.201 789.584 394.201L1016.12 394.201C1028.45 394.201 1039.84 387.622 1046.01 376.942ZM1161.7 182.159C1168.37 170.613 1168.37 156.387 1161.7 144.841L1048.43 -51.341C1041.77 -62.8872 1029.45 -70 1016.12 -70L789.584 -70C776.252 -70 763.932 -62.8873 757.266 -51.341L644 144.841C637.334 156.387 637.334 170.613 644 182.159L757.266 378.341C763.932 389.887 776.252 397 789.584 397L1016.12 397C1029.45 397 1041.77 389.887 1048.43 378.341L1161.7 182.159Z" fill="#2B1616"/>
<path fill-rule="evenodd" clip-rule="evenodd" d="M533.913 412.403L538.322 404.766C539.489 402.745 539.489 400.256 538.322 398.235L533.913 390.597C532.746 388.577 530.59 387.332 528.257 387.332L519.438 387.332C517.105 387.332 514.949 388.577 513.782 390.597L509.373 398.235C508.206 400.256 508.206 402.745 509.373 404.766L513.782 412.403C514.949 414.424 517.105 415.669 519.438 415.669L528.257 415.669C530.59 415.669 532.746 414.424 533.913 412.403ZM540.746 406.165C542.413 403.279 542.413 399.722 540.746 396.836L536.337 389.198C534.67 386.311 531.59 384.533 528.257 384.533L519.438 384.533C516.105 384.533 513.025 386.311 511.358 389.198L506.949 396.836C505.282 399.722 505.282 403.279 506.949 406.165L511.358 413.803C513.025 416.689 516.105 418.467 519.438 418.467L528.257 418.467C531.59 418.467 534.67 416.689 536.337 413.803L540.746 406.165Z" fill="#2B1616"/>
<path fill-rule="evenodd" clip-rule="evenodd" d="M548.445 435.71L565.772 405.699C567.271 403.101 567.271 399.9 565.772 397.303L548.445 367.292C546.945 364.694 544.173 363.094 541.173 363.094L506.52 363.094C503.52 363.094 500.749 364.694 499.249 367.292L481.922 397.303C480.422 399.9 480.422 403.101 481.922 405.699L499.249 435.71C500.749 438.307 503.52 439.908 506.52 439.908L541.173 439.908C544.173 439.908 546.945 438.307 548.445 435.71ZM568.195 407.098C570.195 403.635 570.195 399.367 568.195 395.903L550.869 365.893C548.869 362.429 545.173 360.295 541.173 360.295L506.52 360.295C502.521 360.295 498.825 362.429 496.825 365.893L479.498 395.903C477.498 399.367 477.498 403.635 479.498 407.098L496.825 437.109C498.825 440.573 502.521 442.707 506.52 442.707L541.173 442.707C545.173 442.707 548.869 440.573 550.869 437.109L568.195 407.098Z" fill="#2B1616"/>
<path opacity="0.9" fill-rule="evenodd" clip-rule="evenodd" d="M562.981 459.015L593.225 406.632C595.058 403.456 595.058 399.544 593.225 396.369L562.981 343.986C561.148 340.811 557.76 338.855 554.094 338.855L493.607 338.855C489.94 338.855 486.552 340.811 484.719 343.986L454.475 396.369C452.642 399.544 452.642 403.456 454.475 406.632L484.719 459.015C486.552 462.19 489.94 464.146 493.607 464.146L554.094 464.146C557.76 464.146 561.148 462.19 562.981 459.015ZM595.649 408.031C597.982 403.99 597.982 399.011 595.649 394.97L565.405 342.586C563.072 338.545 558.76 336.056 554.094 336.056L493.607 336.056C488.94 336.056 484.628 338.545 482.295 342.586L452.052 394.97C449.718 399.011 449.718 403.99 452.052 408.031L482.295 460.414C484.628 464.455 488.94 466.945 493.607 466.945L554.094 466.945C558.76 466.945 563.072 464.455 565.405 460.414L595.649 408.031Z" fill="#2B1616"/>
<path opacity="0.75" fill-rule="evenodd" clip-rule="evenodd" d="M577.513 482.321L620.674 407.565C622.84 403.812 622.84 399.189 620.674 395.437L577.513 320.68C575.347 316.928 571.343 314.616 567.01 314.616L480.689 314.616C476.356 314.616 472.352 316.928 470.186 320.68L427.025 395.437C424.858 399.189 424.858 403.812 427.025 407.565L470.186 482.321C472.352 486.074 476.356 488.385 480.689 488.385L567.01 488.385C571.343 488.385 575.347 486.074 577.513 482.321ZM623.098 408.964C625.764 404.346 625.764 398.656 623.098 394.037L579.937 319.281C577.271 314.662 572.343 311.817 567.01 311.817L480.689 311.817C475.356 311.817 470.428 314.662 467.762 319.281L424.601 394.037C421.935 398.656 421.935 404.346 424.601 408.964L467.762 483.721C470.428 488.339 475.356 491.184 480.689 491.184L567.01 491.184C572.343 491.184 577.271 488.339 579.937 483.721L623.098 408.964Z" fill="#2B1616"/>
<path opacity="0.6" fill-rule="evenodd" clip-rule="evenodd" d="M592.584 504.693L647.584 409.43C650.417 404.523 650.417 398.477 647.584 393.57L592.584 298.307C589.751 293.4 584.515 290.377 578.849 290.377L468.848 290.377C463.182 290.377 457.946 293.4 455.113 298.307L400.113 393.57C397.28 398.477 397.28 404.523 400.113 409.43L455.113 504.693C457.946 509.601 463.182 512.624 468.848 512.624L578.849 512.624C584.515 512.624 589.751 509.601 592.584 504.693ZM650.008 410.83C653.341 405.057 653.341 397.944 650.008 392.171L595.008 296.908C591.675 291.135 585.515 287.578 578.849 287.578L468.848 287.578C462.182 287.578 456.022 291.134 452.689 296.908L397.689 392.171C394.356 397.944 394.356 405.057 397.689 410.83L452.689 506.093C456.022 511.866 462.182 515.422 468.848 515.422L578.849 515.422C585.515 515.422 591.675 511.866 595.008 506.093L650.008 410.83Z" fill="#2B1616"/>
<path opacity="0.5" fill-rule="evenodd" clip-rule="evenodd" d="M606.578 528.933L675.572 409.431C678.406 404.524 678.406 398.478 675.572 393.571L606.578 274.069C603.745 269.162 598.509 266.139 592.843 266.139L454.854 266.139C449.187 266.139 443.952 269.162 441.118 274.069L372.124 393.571C369.291 398.478 369.291 404.524 372.124 409.431L441.118 528.933C443.952 533.84 449.187 536.863 454.854 536.863L592.843 536.863C598.509 536.863 603.745 533.84 606.578 528.933ZM677.996 410.83C681.329 405.057 681.329 397.944 677.996 392.171L609.002 272.669C605.669 266.896 599.509 263.34 592.843 263.34L454.854 263.34C448.188 263.34 442.028 266.896 438.695 272.669L369.7 392.171C366.367 397.944 366.367 405.057 369.7 410.83L438.695 530.332C442.028 536.105 448.188 539.662 454.854 539.662L592.843 539.662C599.509 539.662 605.669 536.105 609.002 530.332L677.996 410.83Z" fill="#2B1616"/>
<path opacity="0.4" fill-rule="evenodd" clip-rule="evenodd" d="M623.805 547.573L700.33 415.028C705.163 406.657 705.163 396.343 700.33 387.972L623.805 255.427C618.972 247.056 610.041 241.899 600.374 241.899L447.324 241.899C437.658 241.899 428.727 247.056 423.894 255.427L347.369 387.972C342.536 396.343 342.536 406.657 347.369 415.028L423.894 547.573C428.727 555.944 437.658 561.101 447.324 561.101L600.374 561.101C610.04 561.101 618.972 555.944 623.805 547.573ZM702.754 416.427C708.087 407.19 708.087 395.81 702.754 386.573L626.229 254.028C620.896 244.791 611.04 239.101 600.374 239.101L447.324 239.101C436.659 239.101 426.803 244.791 421.47 254.028L344.945 386.573C339.612 395.81 339.612 407.19 344.945 416.427L421.47 548.973C426.803 558.21 436.658 563.9 447.324 563.9L600.374 563.9C611.04 563.9 620.896 558.21 626.229 548.973L702.754 416.427Z" fill="#2B1616"/>
<path opacity="0.3" fill-rule="evenodd" clip-rule="evenodd" d="M637.799 571.812L728.319 415.028C733.152 406.657 733.152 396.344 728.319 387.973L637.799 231.189C632.966 222.818 624.035 217.661 614.369 217.661L433.33 217.661C423.664 217.661 414.732 222.818 409.899 231.189L319.38 387.973C314.547 396.344 314.547 406.657 319.38 415.028L409.899 571.812C414.732 580.183 423.664 585.34 433.33 585.34L614.368 585.34C624.035 585.34 632.966 580.183 637.799 571.812ZM730.742 416.428C736.075 407.191 736.075 395.81 730.742 386.574L640.223 229.79C634.89 220.553 625.034 214.862 614.369 214.862L433.33 214.862C422.664 214.862 412.808 220.553 407.475 229.789L316.956 386.573C311.623 395.81 311.623 407.191 316.956 416.428L407.475 573.212C412.808 582.449 422.664 588.139 433.33 588.139L614.368 588.139C625.034 588.139 634.89 582.449 640.223 573.212L730.742 416.428Z" fill="#2B1616"/>
<path opacity="0.2" fill-rule="evenodd" clip-rule="evenodd" d="M653.946 592.319L754.151 418.76C760.317 408.079 760.317 394.921 754.151 384.241L653.946 210.681C647.78 200.001 636.384 193.422 624.052 193.422L423.643 193.422C411.31 193.422 399.915 200.001 393.748 210.681L293.544 384.241C287.378 394.921 287.378 408.079 293.544 418.76L393.748 592.319C399.915 602.999 411.31 609.578 423.643 609.578L624.052 609.578C636.384 609.578 647.78 602.999 653.946 592.319ZM756.575 420.159C763.241 408.613 763.241 394.387 756.575 382.841L656.37 209.282C649.704 197.736 637.384 190.623 624.052 190.623L423.643 190.623C410.311 190.623 397.991 197.736 391.325 209.282L291.12 382.841C284.454 394.387 284.454 408.613 291.12 420.159L391.325 593.718C397.991 605.265 410.31 612.377 423.643 612.377L624.052 612.377C637.384 612.377 649.704 605.265 656.37 593.718L756.575 420.159Z" fill="#2B1616"/>
<path opacity="0.1" fill-rule="evenodd" clip-rule="evenodd" d="M667.01 614.942L780.276 418.76C786.442 408.079 786.442 394.921 780.276 384.24L667.01 188.058C660.844 177.378 649.448 170.799 637.116 170.799L410.584 170.799C398.252 170.799 386.856 177.378 380.69 188.058L267.424 384.24C261.258 394.921 261.258 408.079 267.424 418.76L380.69 614.942C386.856 625.622 398.252 632.201 410.584 632.201L637.115 632.201C649.448 632.201 660.844 625.622 667.01 614.942ZM782.7 420.159C789.366 408.613 789.366 394.387 782.7 382.841L669.434 186.659C662.768 175.113 650.448 168 637.116 168L410.584 168C397.252 168 384.932 175.113 378.266 186.659L265 382.841C258.334 394.387 258.334 408.613 265 420.159L378.266 616.341C384.932 627.887 397.252 635 410.584 635L637.115 635C650.448 635 662.768 627.887 669.434 616.341L782.7 420.159Z" fill="#2B1616"/>
<path fill-rule="evenodd" clip-rule="evenodd" d="M1291.91 417.403L1296.32 409.766C1297.49 407.745 1297.49 405.256 1296.32 403.235L1291.91 395.597C1290.75 393.577 1288.59 392.332 1286.26 392.332L1277.44 392.332C1275.1 392.332 1272.95 393.577 1271.78 395.597L1267.37 403.235C1266.21 405.256 1266.21 407.745 1267.37 409.766L1271.78 417.403C1272.95 419.424 1275.1 420.669 1277.44 420.669L1286.26 420.669C1288.59 420.669 1290.75 419.424 1291.91 417.403ZM1298.75 411.165C1300.41 408.279 1300.41 404.722 1298.75 401.836L1294.34 394.198C1292.67 391.311 1289.59 389.533 1286.26 389.533L1277.44 389.533C1274.1 389.533 1271.02 391.311 1269.36 394.198L1264.95 401.836C1263.28 404.722 1263.28 408.279 1264.95 411.165L1269.36 418.803C1271.02 421.689 1274.1 423.467 1277.44 423.467L1286.26 423.467C1289.59 423.467 1292.67 421.689 1294.34 418.803L1298.75 411.165Z" fill="#2B1616"/>
<path fill-rule="evenodd" clip-rule="evenodd" d="M1306.44 440.71L1323.77 410.699C1325.27 408.101 1325.27 404.9 1323.77 402.303L1306.44 372.292C1304.95 369.694 1302.17 368.094 1299.17 368.094L1264.52 368.094C1261.52 368.094 1258.75 369.694 1257.25 372.292L1239.92 402.303C1238.42 404.9 1238.42 408.101 1239.92 410.699L1257.25 440.71C1258.75 443.307 1261.52 444.908 1264.52 444.908L1299.17 444.908C1302.17 444.908 1304.95 443.307 1306.44 440.71ZM1326.2 412.098C1328.2 408.635 1328.2 404.367 1326.2 400.903L1308.87 370.893C1306.87 367.429 1303.17 365.295 1299.17 365.295L1264.52 365.295C1260.52 365.295 1256.82 367.429 1254.82 370.893L1237.5 400.903C1235.5 404.367 1235.5 408.635 1237.5 412.098L1254.82 442.109C1256.82 445.573 1260.52 447.707 1264.52 447.707L1299.17 447.707C1303.17 447.707 1306.87 445.573 1308.87 442.109L1326.2 412.098Z" fill="#2B1616"/>
<path opacity="0.9" fill-rule="evenodd" clip-rule="evenodd" d="M1320.98 464.015L1351.22 411.632C1353.06 408.456 1353.06 404.544 1351.22 401.369L1320.98 348.986C1319.15 345.811 1315.76 343.855 1312.09 343.855L1251.61 343.855C1247.94 343.855 1244.55 345.811 1242.72 348.986L1212.48 401.369C1210.64 404.544 1210.64 408.456 1212.48 411.632L1242.72 464.015C1244.55 467.19 1247.94 469.146 1251.61 469.146L1312.09 469.146C1315.76 469.146 1319.15 467.19 1320.98 464.015ZM1353.65 413.031C1355.98 408.99 1355.98 404.011 1353.65 399.97L1323.41 347.586C1321.07 343.545 1316.76 341.056 1312.09 341.056L1251.61 341.056C1246.94 341.056 1242.63 343.545 1240.3 347.586L1210.05 399.97C1207.72 404.011 1207.72 408.99 1210.05 413.031L1240.3 465.414C1242.63 469.455 1246.94 471.945 1251.61 471.945L1312.09 471.945C1316.76 471.945 1321.07 469.455 1323.41 465.414L1353.65 413.031Z" fill="#2B1616"/>
<path opacity="0.75" fill-rule="evenodd" clip-rule="evenodd" d="M1335.51 487.321L1378.67 412.565C1380.84 408.812 1380.84 404.189 1378.67 400.437L1335.51 325.68C1333.35 321.928 1329.34 319.616 1325.01 319.616L1238.69 319.616C1234.36 319.616 1230.35 321.928 1228.19 325.68L1185.03 400.437C1182.86 404.189 1182.86 408.812 1185.03 412.565L1228.19 487.321C1230.35 491.074 1234.36 493.385 1238.69 493.385L1325.01 493.385C1329.34 493.385 1333.35 491.074 1335.51 487.321ZM1381.1 413.964C1383.76 409.346 1383.76 403.656 1381.1 399.037L1337.94 324.281C1335.27 319.662 1330.34 316.817 1325.01 316.817L1238.69 316.817C1233.36 316.817 1228.43 319.662 1225.76 324.281L1182.6 399.037C1179.93 403.656 1179.93 409.346 1182.6 413.964L1225.76 488.721C1228.43 493.339 1233.36 496.184 1238.69 496.184L1325.01 496.184C1330.34 496.184 1335.27 493.339 1337.94 488.721L1381.1 413.964Z" fill="#2B1616"/>
<path opacity="0.6" fill-rule="evenodd" clip-rule="evenodd" d="M1350.58 509.693L1405.58 414.43C1408.42 409.523 1408.42 403.477 1405.58 398.57L1350.58 303.307C1347.75 298.4 1342.51 295.377 1336.85 295.377L1226.85 295.377C1221.18 295.377 1215.95 298.4 1213.11 303.307L1158.11 398.57C1155.28 403.477 1155.28 409.523 1158.11 414.43L1213.11 509.693C1215.95 514.601 1221.18 517.624 1226.85 517.624L1336.85 517.624C1342.51 517.624 1347.75 514.601 1350.58 509.693ZM1408.01 415.83C1411.34 410.057 1411.34 402.944 1408.01 397.171L1353.01 301.908C1349.67 296.135 1343.51 292.578 1336.85 292.578L1226.85 292.578C1220.18 292.578 1214.02 296.134 1210.69 301.908L1155.69 397.171C1152.36 402.944 1152.36 410.057 1155.69 415.83L1210.69 511.093C1214.02 516.866 1220.18 520.422 1226.85 520.422L1336.85 520.422C1343.51 520.422 1349.67 516.866 1353.01 511.093L1408.01 415.83Z" fill="#2B1616"/>
<path opacity="0.5" fill-rule="evenodd" clip-rule="evenodd" d="M1364.58 533.933L1433.57 414.431C1436.41 409.524 1436.41 403.478 1433.57 398.571L1364.58 279.069C1361.74 274.162 1356.51 271.139 1350.84 271.139L1212.85 271.139C1207.19 271.139 1201.95 274.162 1199.12 279.069L1130.12 398.571C1127.29 403.478 1127.29 409.524 1130.12 414.431L1199.12 533.933C1201.95 538.84 1207.19 541.863 1212.85 541.863L1350.84 541.863C1356.51 541.863 1361.74 538.84 1364.58 533.933ZM1436 415.83C1439.33 410.057 1439.33 402.944 1436 397.171L1367 277.669C1363.67 271.896 1357.51 268.34 1350.84 268.34L1212.85 268.34C1206.19 268.34 1200.03 271.896 1196.69 277.669L1127.7 397.171C1124.37 402.944 1124.37 410.057 1127.7 415.83L1196.69 535.332C1200.03 541.105 1206.19 544.662 1212.85 544.662L1350.84 544.662C1357.51 544.662 1363.67 541.105 1367 535.332L1436 415.83Z" fill="#2B1616"/>
<path opacity="0.4" fill-rule="evenodd" clip-rule="evenodd" d="M1381.81 552.573L1458.33 420.028C1463.16 411.657 1463.16 401.343 1458.33 392.972L1381.81 260.427C1376.97 252.056 1368.04 246.899 1358.37 246.899L1205.32 246.899C1195.66 246.899 1186.73 252.056 1181.89 260.427L1105.37 392.972C1100.54 401.343 1100.54 411.657 1105.37 420.028L1181.89 552.573C1186.73 560.944 1195.66 566.101 1205.32 566.101L1358.37 566.101C1368.04 566.101 1376.97 560.944 1381.81 552.573ZM1460.75 421.427C1466.09 412.19 1466.09 400.81 1460.75 391.573L1384.23 259.028C1378.9 249.791 1369.04 244.101 1358.37 244.101L1205.32 244.101C1194.66 244.101 1184.8 249.791 1179.47 259.028L1102.94 391.573C1097.61 400.81 1097.61 412.19 1102.94 421.427L1179.47 553.973C1184.8 563.21 1194.66 568.9 1205.32 568.9L1358.37 568.9C1369.04 568.9 1378.9 563.21 1384.23 553.973L1460.75 421.427Z" fill="#2B1616"/>
<path opacity="0.3" fill-rule="evenodd" clip-rule="evenodd" d="M1395.8 576.812L1486.32 420.028C1491.15 411.657 1491.15 401.344 1486.32 392.973L1395.8 236.189C1390.97 227.818 1382.03 222.661 1372.37 222.661L1191.33 222.661C1181.66 222.661 1172.73 227.818 1167.9 236.189L1077.38 392.973C1072.55 401.344 1072.55 411.657 1077.38 420.028L1167.9 576.812C1172.73 585.183 1181.66 590.34 1191.33 590.34L1372.37 590.34C1382.03 590.34 1390.97 585.183 1395.8 576.812ZM1488.74 421.428C1494.08 412.191 1494.08 400.81 1488.74 391.574L1398.22 234.79C1392.89 225.553 1383.03 219.862 1372.37 219.862L1191.33 219.862C1180.66 219.862 1170.81 225.553 1165.48 234.789L1074.96 391.573C1069.62 400.81 1069.62 412.191 1074.96 421.428L1165.48 578.212C1170.81 587.449 1180.66 593.139 1191.33 593.139L1372.37 593.139C1383.03 593.139 1392.89 587.449 1398.22 578.212L1488.74 421.428Z" fill="#2B1616"/>
<path opacity="0.2" fill-rule="evenodd" clip-rule="evenodd" d="M1411.95 597.319L1512.15 423.76C1518.32 413.079 1518.32 399.921 1512.15 389.241L1411.95 215.681C1405.78 205.001 1394.38 198.422 1382.05 198.422L1181.64 198.422C1169.31 198.422 1157.91 205.001 1151.75 215.681L1051.54 389.241C1045.38 399.921 1045.38 413.079 1051.54 423.76L1151.75 597.319C1157.91 607.999 1169.31 614.578 1181.64 614.578L1382.05 614.578C1394.38 614.578 1405.78 607.999 1411.95 597.319ZM1514.57 425.159C1521.24 413.613 1521.24 399.387 1514.57 387.841L1414.37 214.282C1407.7 202.736 1395.38 195.623 1382.05 195.623L1181.64 195.623C1168.31 195.623 1155.99 202.736 1149.32 214.282L1049.12 387.841C1042.45 399.387 1042.45 413.613 1049.12 425.159L1149.32 598.718C1155.99 610.265 1168.31 617.377 1181.64 617.377L1382.05 617.377C1395.38 617.377 1407.7 610.265 1414.37 598.718L1514.57 425.159Z" fill="#2B1616"/>
<path opacity="0.1" fill-rule="evenodd" clip-rule="evenodd" d="M1425.01 619.942L1538.28 423.76C1544.44 413.079 1544.44 399.921 1538.28 389.24L1425.01 193.058C1418.84 182.378 1407.45 175.799 1395.12 175.799L1168.58 175.799C1156.25 175.799 1144.86 182.378 1138.69 193.058L1025.42 389.24C1019.26 399.921 1019.26 413.079 1025.42 423.76L1138.69 619.942C1144.86 630.622 1156.25 637.201 1168.58 637.201L1395.12 637.201C1407.45 637.201 1418.84 630.622 1425.01 619.942ZM1540.7 425.159C1547.37 413.613 1547.37 399.387 1540.7 387.841L1427.43 191.659C1420.77 180.113 1408.45 173 1395.12 173L1168.58 173C1155.25 173 1142.93 180.113 1136.27 191.659L1023 387.841C1016.33 399.387 1016.33 413.613 1023 425.159L1136.27 621.341C1142.93 632.887 1155.25 640 1168.58 640L1395.12 640C1408.45 640 1420.77 632.887 1427.43 621.341L1540.7 425.159Z" fill="#2B1616"/>
<path fill-rule="evenodd" clip-rule="evenodd" d="M180.913 645.403L185.322 637.766C186.489 635.745 186.489 633.256 185.322 631.235L180.913 623.597C179.746 621.577 177.59 620.332 175.257 620.332L166.438 620.332C164.105 620.332 161.949 621.577 160.782 623.597L156.373 631.235C155.206 633.256 155.206 635.745 156.373 637.766L160.782 645.403C161.949 647.424 164.105 648.669 166.438 648.669L175.257 648.669C177.59 648.669 179.746 647.424 180.913 645.403ZM187.746 639.165C189.413 636.279 189.413 632.722 187.746 629.836L183.337 622.198C181.67 619.311 178.59 617.533 175.257 617.533L166.438 617.533C163.105 617.533 160.025 619.311 158.358 622.198L153.949 629.836C152.282 632.722 152.282 636.279 153.949 639.165L158.358 646.803C160.025 649.689 163.105 651.467 166.438 651.467L175.257 651.467C178.59 651.467 181.67 649.689 183.337 646.803L187.746 639.165Z" fill="#2B1616"/>
<path fill-rule="evenodd" clip-rule="evenodd" d="M195.445 668.71L212.772 638.699C214.271 636.101 214.271 632.9 212.772 630.303L195.445 600.292C193.945 597.694 191.173 596.094 188.173 596.094L153.52 596.094C150.52 596.094 147.749 597.694 146.249 600.292L128.922 630.303C127.422 632.9 127.422 636.101 128.922 638.699L146.249 668.71C147.749 671.307 150.52 672.908 153.52 672.908L188.173 672.908C191.173 672.908 193.945 671.307 195.445 668.71ZM215.195 640.098C217.195 636.635 217.195 632.367 215.195 628.903L197.869 598.893C195.869 595.429 192.173 593.295 188.173 593.295L153.52 593.295C149.521 593.295 145.825 595.429 143.825 598.893L126.498 628.903C124.498 632.367 124.498 636.635 126.498 640.098L143.825 670.109C145.825 673.573 149.521 675.707 153.52 675.707L188.173 675.707C192.173 675.707 195.869 673.573 197.869 670.109L215.195 640.098Z" fill="#2B1616"/>
<path opacity="0.9" fill-rule="evenodd" clip-rule="evenodd" d="M209.981 692.015L240.225 639.632C242.058 636.456 242.058 632.544 240.225 629.369L209.981 576.986C208.148 573.811 204.76 571.855 201.094 571.855L140.607 571.855C136.94 571.855 133.552 573.811 131.719 576.986L101.475 629.369C99.6423 632.544 99.6423 636.456 101.475 639.632L131.719 692.015C133.552 695.19 136.94 697.146 140.607 697.146L201.094 697.146C204.76 697.146 208.148 695.19 209.981 692.015ZM242.649 641.031C244.982 636.99 244.982 632.011 242.649 627.97L212.405 575.586C210.072 571.545 205.76 569.056 201.094 569.056L140.607 569.056C135.94 569.056 131.628 571.545 129.295 575.586L99.0516 627.97C96.7184 632.011 96.7184 636.99 99.0516 641.031L129.295 693.414C131.628 697.455 135.94 699.945 140.607 699.945L201.094 699.945C205.76 699.945 210.072 697.455 212.405 693.414L242.649 641.031Z" fill="#2B1616"/>
<path opacity="0.75" fill-rule="evenodd" clip-rule="evenodd" d="M224.513 715.321L267.674 640.565C269.84 636.812 269.84 632.189 267.674 628.437L224.513 553.68C222.347 549.928 218.343 547.616 214.01 547.616L127.689 547.616C123.356 547.616 119.352 549.928 117.186 553.68L74.025 628.437C71.8585 632.189 71.8585 636.812 74.025 640.565L117.186 715.321C119.352 719.074 123.356 721.385 127.689 721.385L214.01 721.385C218.343 721.385 222.347 719.074 224.513 715.321ZM270.098 641.964C272.764 637.346 272.764 631.656 270.098 627.037L226.937 552.281C224.271 547.662 219.343 544.817 214.01 544.817L127.689 544.817C122.356 544.817 117.428 547.662 114.762 552.281L71.6011 627.037C68.9346 631.656 68.9346 637.346 71.6011 641.964L114.762 716.721C117.428 721.339 122.356 724.184 127.689 724.184L214.01 724.184C219.343 724.184 224.271 721.339 226.937 716.721L270.098 641.964Z" fill="#2B1616"/>
<path opacity="0.6" fill-rule="evenodd" clip-rule="evenodd" d="M239.584 737.693L294.584 642.43C297.417 637.523 297.417 631.477 294.584 626.57L239.584 531.307C236.751 526.4 231.515 523.377 225.849 523.377L115.848 523.377C110.182 523.377 104.946 526.4 102.113 531.307L47.1127 626.57C44.2796 631.477 44.2796 637.523 47.1127 642.43L102.113 737.693C104.946 742.601 110.182 745.624 115.848 745.624L225.849 745.624C231.515 745.624 236.751 742.601 239.584 737.693ZM297.008 643.83C300.341 638.057 300.341 630.944 297.008 625.171L242.008 529.908C238.675 524.135 232.515 520.578 225.849 520.578L115.848 520.578C109.182 520.578 103.022 524.134 99.6891 529.908L44.6889 625.171C41.3557 630.944 41.3557 638.057 44.6889 643.83L99.689 739.093C103.022 744.866 109.182 748.422 115.848 748.422L225.849 748.422C232.515 748.422 238.675 744.866 242.008 739.093L297.008 643.83Z" fill="#2B1616"/>
<path opacity="0.5" fill-rule="evenodd" clip-rule="evenodd" d="M253.578 761.933L322.572 642.431C325.406 637.524 325.406 631.478 322.572 626.571L253.578 507.069C250.745 502.162 245.509 499.139 239.843 499.139L101.854 499.139C96.1875 499.139 90.9516 502.162 88.1185 507.069L19.124 626.571C16.2909 631.478 16.2909 637.524 19.124 642.431L88.1185 761.933C90.9516 766.84 96.1875 769.863 101.854 769.863L239.843 769.863C245.509 769.863 250.745 766.84 253.578 761.933ZM324.996 643.83C328.329 638.057 328.329 630.944 324.996 625.171L256.002 505.669C252.669 499.896 246.509 496.34 239.843 496.34L101.854 496.34C95.1875 496.34 89.0277 499.896 85.6946 505.669L16.7001 625.171C13.367 630.944 13.367 638.057 16.7001 643.83L85.6946 763.332C89.0277 769.105 95.1875 772.662 101.854 772.662L239.843 772.662C246.509 772.662 252.669 769.105 256.002 763.332L324.996 643.83Z" fill="#2B1616"/>
<path opacity="0.4" fill-rule="evenodd" clip-rule="evenodd" d="M270.805 780.573L347.33 648.028C352.163 639.657 352.163 629.343 347.33 620.972L270.805 488.427C265.972 480.056 257.041 474.899 247.374 474.899L94.3245 474.899C84.6584 474.899 75.7267 480.056 70.8936 488.427L-5.63135 620.972C-10.4644 629.343 -10.4644 639.657 -5.63136 648.028L70.8936 780.573C75.7267 788.944 84.6584 794.101 94.3244 794.101L247.374 794.101C257.04 794.101 265.972 788.944 270.805 780.573ZM349.754 649.427C355.087 640.19 355.087 628.81 349.754 619.573L273.229 487.028C267.896 477.791 258.04 472.101 247.374 472.101L94.3245 472.101C83.6585 472.101 73.8028 477.791 68.4698 487.028L-8.05524 619.573C-13.3882 628.81 -13.3882 640.19 -8.05524 649.427L68.4698 781.973C73.8028 791.21 83.6585 796.9 94.3244 796.9L247.374 796.9C258.04 796.9 267.896 791.21 273.229 781.973L349.754 649.427Z" fill="#2B1616"/>
<path opacity="0.3" fill-rule="evenodd" clip-rule="evenodd" d="M284.799 804.812L375.319 648.028C380.152 639.657 380.152 629.344 375.319 620.973L284.799 464.189C279.966 455.818 271.035 450.661 261.369 450.661L80.33 450.661C70.664 450.661 61.7322 455.818 56.8992 464.189L-33.6201 620.973C-38.4531 629.344 -38.4531 639.657 -33.6201 648.028L56.8992 804.812C61.7322 813.183 70.664 818.34 80.3299 818.34L261.368 818.34C271.035 818.34 279.966 813.183 284.799 804.812ZM377.742 649.428C383.075 640.191 383.075 628.81 377.742 619.574L287.223 462.79C281.89 453.553 272.034 447.862 261.369 447.862L80.33 447.862C69.6641 447.862 59.8083 453.553 54.4753 462.789L-36.044 619.573C-41.3769 628.81 -41.3769 640.191 -36.044 649.428L54.4753 806.212C59.8083 815.449 69.664 821.139 80.3299 821.139L261.368 821.139C272.034 821.139 281.89 815.449 287.223 806.212L377.742 649.428Z" fill="#2B1616"/>
<path opacity="0.2" fill-rule="evenodd" clip-rule="evenodd" d="M300.946 825.319L401.151 651.76C407.317 641.079 407.317 627.921 401.151 617.241L300.946 443.681C294.78 433.001 283.384 426.422 271.052 426.422L70.643 426.422C58.3105 426.422 46.9148 433.001 40.7485 443.681L-59.4559 617.241C-65.6222 627.921 -65.6222 641.079 -59.4559 651.76L40.7485 825.319C46.9147 835.999 58.3104 842.578 70.643 842.578L271.052 842.578C283.384 842.578 294.78 835.999 300.946 825.319ZM403.575 653.159C410.241 641.613 410.241 627.387 403.575 615.841L303.37 442.282C296.704 430.736 284.384 423.623 271.052 423.623L70.643 423.623C57.3105 423.623 44.9908 430.736 38.3246 442.282L-61.8798 615.841C-68.5461 627.387 -68.5461 641.613 -61.8798 653.159L38.3246 826.718C44.9908 838.265 57.3105 845.377 70.643 845.377L271.052 845.377C284.384 845.377 296.704 838.265 303.37 826.718L403.575 653.159Z" fill="#2B1616"/>
<path opacity="0.1" fill-rule="evenodd" clip-rule="evenodd" d="M314.01 847.942L427.276 651.76C433.442 641.079 433.442 627.921 427.276 617.24L314.01 421.058C307.844 410.378 296.448 403.799 284.116 403.799L57.5841 403.799C45.2516 403.799 33.8559 410.378 27.6896 421.058L-85.5761 617.24C-91.7423 627.921 -91.7423 641.079 -85.5761 651.76L27.6896 847.942C33.8558 858.622 45.2516 865.201 57.5841 865.201L284.115 865.201C296.448 865.201 307.844 858.622 314.01 847.942ZM429.7 653.159C436.366 641.613 436.366 627.387 429.7 615.841L316.434 419.659C309.768 408.113 297.448 401 284.116 401L57.5841 401C44.2516 401 31.9319 408.113 25.2657 419.659L-87.9999 615.841C-94.6662 627.387 -94.6662 641.613 -87.9999 653.159L25.2657 849.341C31.9319 860.887 44.2516 868 57.5841 868L284.115 868C297.448 868 309.768 860.887 316.434 849.341L429.7 653.159Z" fill="#2B1616"/>
<path fill-rule="evenodd" clip-rule="evenodd" d="M924.913 618.403L929.322 610.766C930.489 608.745 930.489 606.256 929.322 604.235L924.913 596.597C923.746 594.577 921.59 593.332 919.257 593.332L910.438 593.332C908.105 593.332 905.949 594.577 904.782 596.597L900.373 604.235C899.206 606.256 899.206 608.745 900.373 610.766L904.782 618.403C905.949 620.424 908.105 621.669 910.438 621.669L919.257 621.669C921.59 621.669 923.746 620.424 924.913 618.403ZM931.746 612.165C933.413 609.279 933.413 605.722 931.746 602.836L927.337 595.198C925.67 592.311 922.59 590.533 919.257 590.533L910.438 590.533C907.105 590.533 904.025 592.311 902.358 595.198L897.949 602.836C896.282 605.722 896.282 609.279 897.949 612.165L902.358 619.803C904.025 622.689 907.105 624.467 910.438 624.467L919.257 624.467C922.59 624.467 925.67 622.689 927.337 619.803L931.746 612.165Z" fill="#2B1616"/>
<path fill-rule="evenodd" clip-rule="evenodd" d="M939.445 641.71L956.772 611.699C958.271 609.101 958.271 605.9 956.772 603.303L939.445 573.292C937.945 570.694 935.173 569.094 932.173 569.094L897.52 569.094C894.52 569.094 891.749 570.694 890.249 573.292L872.922 603.303C871.422 605.9 871.422 609.101 872.922 611.699L890.249 641.71C891.749 644.307 894.52 645.908 897.52 645.908L932.173 645.908C935.173 645.908 937.945 644.307 939.445 641.71ZM959.195 613.098C961.195 609.635 961.195 605.367 959.195 601.903L941.869 571.893C939.869 568.429 936.173 566.295 932.173 566.295L897.52 566.295C893.521 566.295 889.825 568.429 887.825 571.893L870.498 601.903C868.498 605.367 868.498 609.635 870.498 613.098L887.825 643.109C889.825 646.573 893.521 648.707 897.52 648.707L932.173 648.707C936.173 648.707 939.869 646.573 941.869 643.109L959.195 613.098Z" fill="#2B1616"/>
<path opacity="0.9" fill-rule="evenodd" clip-rule="evenodd" d="M953.981 665.015L984.225 612.632C986.058 609.456 986.058 605.544 984.225 602.369L953.981 549.986C952.148 546.811 948.76 544.855 945.094 544.855L884.607 544.855C880.94 544.855 877.552 546.811 875.719 549.986L845.475 602.369C843.642 605.544 843.642 609.456 845.475 612.632L875.719 665.015C877.552 668.19 880.94 670.146 884.607 670.146L945.094 670.146C948.76 670.146 952.148 668.19 953.981 665.015ZM986.649 614.031C988.982 609.99 988.982 605.011 986.649 600.97L956.405 548.586C954.072 544.545 949.76 542.056 945.094 542.056L884.607 542.056C879.94 542.056 875.628 544.545 873.295 548.586L843.052 600.97C840.718 605.011 840.718 609.99 843.052 614.031L873.295 666.414C875.628 670.455 879.94 672.945 884.607 672.945L945.094 672.945C949.76 672.945 954.072 670.455 956.405 666.414L986.649 614.031Z" fill="#2B1616"/>
<path opacity="0.75" fill-rule="evenodd" clip-rule="evenodd" d="M968.513 688.321L1011.67 613.565C1013.84 609.812 1013.84 605.189 1011.67 601.437L968.513 526.68C966.347 522.928 962.343 520.616 958.01 520.616L871.689 520.616C867.356 520.616 863.352 522.928 861.186 526.68L818.025 601.437C815.858 605.189 815.858 609.812 818.025 613.565L861.186 688.321C863.352 692.074 867.356 694.385 871.689 694.385L958.01 694.385C962.343 694.385 966.347 692.074 968.513 688.321ZM1014.1 614.964C1016.76 610.346 1016.76 604.656 1014.1 600.037L970.937 525.281C968.271 520.662 963.343 517.817 958.01 517.817L871.689 517.817C866.356 517.817 861.428 520.662 858.762 525.281L815.601 600.037C812.935 604.656 812.935 610.346 815.601 614.964L858.762 689.721C861.428 694.339 866.356 697.184 871.689 697.184L958.01 697.184C963.343 697.184 968.271 694.339 970.937 689.721L1014.1 614.964Z" fill="#2B1616"/>
<path opacity="0.6" fill-rule="evenodd" clip-rule="evenodd" d="M983.584 710.693L1038.58 615.43C1041.42 610.523 1041.42 604.477 1038.58 599.57L983.584 504.307C980.751 499.4 975.515 496.377 969.849 496.377L859.848 496.377C854.182 496.377 848.946 499.4 846.113 504.307L791.113 599.57C788.28 604.477 788.28 610.523 791.113 615.43L846.113 710.693C848.946 715.601 854.182 718.624 859.848 718.624L969.849 718.624C975.515 718.624 980.751 715.601 983.584 710.693ZM1041.01 616.83C1044.34 611.057 1044.34 603.944 1041.01 598.171L986.008 502.908C982.675 497.135 976.515 493.578 969.849 493.578L859.848 493.578C853.182 493.578 847.022 497.134 843.689 502.908L788.689 598.171C785.356 603.944 785.356 611.057 788.689 616.83L843.689 712.093C847.022 717.866 853.182 721.422 859.848 721.422L969.849 721.422C976.515 721.422 982.675 717.866 986.008 712.093L1041.01 616.83Z" fill="#2B1616"/>
<path opacity="0.5" fill-rule="evenodd" clip-rule="evenodd" d="M997.578 734.933L1066.57 615.431C1069.41 610.524 1069.41 604.478 1066.57 599.571L997.578 480.069C994.745 475.162 989.509 472.139 983.843 472.139L845.854 472.139C840.187 472.139 834.952 475.162 832.118 480.069L763.124 599.571C760.291 604.478 760.291 610.524 763.124 615.431L832.118 734.933C834.952 739.84 840.187 742.863 845.854 742.863L983.843 742.863C989.509 742.863 994.745 739.84 997.578 734.933ZM1069 616.83C1072.33 611.057 1072.33 603.944 1069 598.171L1000 478.669C996.669 472.896 990.509 469.34 983.843 469.34L845.854 469.34C839.188 469.34 833.028 472.896 829.695 478.669L760.7 598.171C757.367 603.944 757.367 611.057 760.7 616.83L829.695 736.332C833.028 742.105 839.188 745.662 845.854 745.662L983.843 745.662C990.509 745.662 996.669 742.105 1000 736.332L1069 616.83Z" fill="#2B1616"/>
<path opacity="0.4" fill-rule="evenodd" clip-rule="evenodd" d="M1014.81 753.573L1091.33 621.028C1096.16 612.657 1096.16 602.343 1091.33 593.972L1014.81 461.427C1009.97 453.056 1001.04 447.899 991.374 447.899L838.324 447.899C828.658 447.899 819.727 453.056 814.894 461.427L738.369 593.972C733.536 602.343 733.536 612.657 738.369 621.028L814.894 753.573C819.727 761.944 828.658 767.101 838.324 767.101L991.374 767.101C1001.04 767.101 1009.97 761.944 1014.81 753.573ZM1093.75 622.427C1099.09 613.19 1099.09 601.81 1093.75 592.573L1017.23 460.028C1011.9 450.791 1002.04 445.101 991.374 445.101L838.324 445.101C827.659 445.101 817.803 450.791 812.47 460.028L735.945 592.573C730.612 601.81 730.612 613.19 735.945 622.427L812.47 754.973C817.803 764.21 827.658 769.9 838.324 769.9L991.374 769.9C1002.04 769.9 1011.9 764.21 1017.23 754.973L1093.75 622.427Z" fill="#2B1616"/>
<path opacity="0.3" fill-rule="evenodd" clip-rule="evenodd" d="M1028.8 777.812L1119.32 621.028C1124.15 612.657 1124.15 602.344 1119.32 593.973L1028.8 437.189C1023.97 428.818 1015.03 423.661 1005.37 423.661L824.33 423.661C814.664 423.661 805.732 428.818 800.899 437.189L710.38 593.973C705.547 602.344 705.547 612.657 710.38 621.028L800.899 777.812C805.732 786.183 814.664 791.34 824.33 791.34L1005.37 791.34C1015.03 791.34 1023.97 786.183 1028.8 777.812ZM1121.74 622.428C1127.08 613.191 1127.08 601.81 1121.74 592.574L1031.22 435.79C1025.89 426.553 1016.03 420.862 1005.37 420.862L824.33 420.862C813.664 420.862 803.808 426.553 798.475 435.789L707.956 592.573C702.623 601.81 702.623 613.191 707.956 622.428L798.475 779.212C803.808 788.449 813.664 794.139 824.33 794.139L1005.37 794.139C1016.03 794.139 1025.89 788.449 1031.22 779.212L1121.74 622.428Z" fill="#2B1616"/>
<path opacity="0.2" fill-rule="evenodd" clip-rule="evenodd" d="M1044.95 798.319L1145.15 624.76C1151.32 614.079 1151.32 600.921 1145.15 590.241L1044.95 416.681C1038.78 406.001 1027.38 399.422 1015.05 399.422L814.643 399.422C802.31 399.422 790.915 406.001 784.748 416.681L684.544 590.241C678.378 600.921 678.378 614.079 684.544 624.76L784.748 798.319C790.915 808.999 802.31 815.578 814.643 815.578L1015.05 815.578C1027.38 815.578 1038.78 808.999 1044.95 798.319ZM1147.57 626.159C1154.24 614.613 1154.24 600.387 1147.57 588.841L1047.37 415.282C1040.7 403.736 1028.38 396.623 1015.05 396.623L814.643 396.623C801.311 396.623 788.991 403.736 782.325 415.282L682.12 588.841C675.454 600.387 675.454 614.613 682.12 626.159L782.325 799.718C788.991 811.265 801.31 818.377 814.643 818.377L1015.05 818.377C1028.38 818.377 1040.7 811.265 1047.37 799.718L1147.57 626.159Z" fill="#2B1616"/>
<path opacity="0.1" fill-rule="evenodd" clip-rule="evenodd" d="M1058.01 820.942L1171.28 624.76C1177.44 614.079 1177.44 600.921 1171.28 590.24L1058.01 394.058C1051.84 383.378 1040.45 376.799 1028.12 376.799L801.584 376.799C789.252 376.799 777.856 383.378 771.69 394.058L658.424 590.24C652.258 600.921 652.258 614.079 658.424 624.76L771.69 820.942C777.856 831.622 789.252 838.201 801.584 838.201L1028.12 838.201C1040.45 838.201 1051.84 831.622 1058.01 820.942ZM1173.7 626.159C1180.37 614.613 1180.37 600.387 1173.7 588.841L1060.43 392.659C1053.77 381.113 1041.45 374 1028.12 374L801.584 374C788.252 374 775.932 381.113 769.266 392.659L656 588.841C649.334 600.387 649.334 614.613 656 626.159L769.266 822.341C775.932 833.887 788.252 841 801.584 841L1028.12 841C1041.45 841 1053.77 833.887 1060.43 822.341L1173.7 626.159Z" fill="#2B1616"/>
<path fill-rule="evenodd" clip-rule="evenodd" d="M548.445 16.7096L565.772 -13.3009C567.271 -15.8988 567.271 -19.0996 565.772 -21.6975L548.445 -51.708C546.945 -54.3059 544.173 -55.9062 541.173 -55.9062L506.52 -55.9062C503.52 -55.9062 500.749 -54.3059 499.249 -51.708L481.922 -21.6975C480.422 -19.0996 480.422 -15.8988 481.922 -13.3009L499.249 16.7096C500.749 19.3074 503.52 20.9078 506.52 20.9078L541.173 20.9078C544.173 20.9078 546.945 19.3074 548.445 16.7096ZM568.195 -11.9015C570.195 -15.3654 570.195 -19.633 568.195 -23.0969L550.869 -53.1074C548.869 -56.5712 545.173 -58.7051 541.173 -58.7051L506.52 -58.7051C502.521 -58.7051 498.825 -56.5712 496.825 -53.1074L479.498 -23.0969C477.498 -19.633 477.498 -15.3654 479.498 -11.9015L496.825 18.109C498.825 21.5728 502.521 23.7067 506.52 23.7067L541.173 23.7067C545.173 23.7067 548.869 21.5728 550.869 18.109L568.195 -11.9015Z" fill="#2B1616"/>
<path opacity="0.9" fill-rule="evenodd" clip-rule="evenodd" d="M562.981 40.0148L593.225 -12.3685C595.058 -15.5437 595.058 -19.4557 593.225 -22.6309L562.981 -75.0143C561.148 -78.1895 557.76 -80.1455 554.094 -80.1455L493.607 -80.1455C489.94 -80.1455 486.552 -78.1895 484.719 -75.0143L454.475 -22.6309C452.642 -19.4557 452.642 -15.5437 454.475 -12.3685L484.719 40.0148C486.552 43.1901 489.94 45.1461 493.607 45.1461L554.094 45.1461C557.76 45.1461 561.148 43.1901 562.981 40.0148ZM595.649 -10.9691C597.982 -15.0102 597.982 -19.9892 595.649 -24.0304L565.405 -76.4137C563.072 -80.4549 558.76 -82.9443 554.094 -82.9443L493.607 -82.9443C488.94 -82.9443 484.628 -80.4549 482.295 -76.4137L452.052 -24.0304C449.718 -19.9892 449.718 -15.0103 452.052 -10.9691L482.295 41.4143C484.628 45.4554 488.94 47.9449 493.607 47.9449L554.094 47.9449C558.76 47.9449 563.072 45.4554 565.405 41.4143L595.649 -10.9691Z" fill="#2B1616"/>
<path opacity="0.75" fill-rule="evenodd" clip-rule="evenodd" d="M577.513 63.3202L620.674 -11.436C622.84 -15.1886 622.84 -19.8119 620.674 -23.5644L577.513 -98.3206C575.347 -102.073 571.343 -104.385 567.01 -104.385L480.689 -104.385C476.356 -104.385 472.352 -102.073 470.186 -98.3206L427.025 -23.5644C424.858 -19.8119 424.858 -15.1886 427.025 -11.436L470.186 63.3202C472.352 67.0727 476.356 69.3843 480.689 69.3843L567.01 69.3843C571.343 69.3843 575.347 67.0727 577.513 63.3202ZM623.098 -10.0366C625.764 -14.6551 625.764 -20.3453 623.098 -24.9638L579.937 -99.72C577.271 -104.338 572.343 -107.184 567.01 -107.184L480.689 -107.184C475.356 -107.184 470.428 -104.338 467.762 -99.72L424.601 -24.9638C421.935 -20.3453 421.935 -14.6551 424.601 -10.0366L467.762 64.7196C470.428 69.3381 475.356 72.1832 480.689 72.1832L567.01 72.1832C572.343 72.1832 577.271 69.3381 579.937 64.7196L623.098 -10.0366Z" fill="#2B1616"/>
<path opacity="0.6" fill-rule="evenodd" clip-rule="evenodd" d="M592.584 85.6935L647.584 -9.56966C650.417 -14.4768 650.417 -20.5227 647.584 -25.4298L592.584 -120.693C589.751 -125.6 584.515 -128.623 578.849 -128.623L468.848 -128.623C463.182 -128.623 457.946 -125.6 455.113 -120.693L400.113 -25.4298C397.28 -20.5227 397.28 -14.4768 400.113 -9.56968L455.113 85.6935C457.946 90.6006 463.182 93.6235 468.848 93.6235L578.849 93.6235C584.515 93.6235 589.751 90.6006 592.584 85.6935ZM650.008 -8.17024C653.341 -13.9434 653.341 -21.0561 650.008 -26.8292L595.008 -122.092C591.675 -127.865 585.515 -131.422 578.849 -131.422L468.848 -131.422C462.182 -131.422 456.022 -127.866 452.689 -122.092L397.689 -26.8293C394.356 -21.0561 394.356 -13.9434 397.689 -8.17025L452.689 87.0929C456.022 92.866 462.182 96.4224 468.848 96.4224L578.849 96.4224C585.515 96.4224 591.675 92.866 595.008 87.0929L650.008 -8.17024Z" fill="#2B1616"/>
<path opacity="0.5" fill-rule="evenodd" clip-rule="evenodd" d="M606.578 109.933L675.572 -9.5692C678.406 -14.4763 678.406 -20.5222 675.572 -25.4293L606.578 -144.931C603.745 -149.838 598.509 -152.861 592.843 -152.861L454.854 -152.861C449.187 -152.861 443.952 -149.838 441.118 -144.931L372.124 -25.4294C369.291 -20.5222 369.291 -14.4763 372.124 -9.56921L441.118 109.933C443.952 114.84 449.187 117.863 454.854 117.863L592.843 117.863C598.509 117.863 603.745 114.84 606.578 109.933ZM677.996 -8.16977C681.329 -13.9429 681.329 -21.0556 677.996 -26.8288L609.002 -146.331C605.669 -152.104 599.509 -155.66 592.843 -155.66L454.854 -155.66C448.188 -155.66 442.028 -152.104 438.695 -146.331L369.7 -26.8288C366.367 -21.0557 366.367 -13.9429 369.7 -8.16978L438.695 111.332C442.028 117.105 448.188 120.662 454.854 120.662L592.843 120.662C599.509 120.662 605.669 117.105 609.002 111.332L677.996 -8.16977Z" fill="#2B1616"/>
<path opacity="0.4" fill-rule="evenodd" clip-rule="evenodd" d="M623.805 128.573L700.33 -3.972C705.163 -12.343 705.163 -22.6565 700.33 -31.0275L623.805 -163.573C618.972 -171.944 610.041 -177.101 600.374 -177.101L447.324 -177.101C437.658 -177.101 428.727 -171.944 423.894 -163.573L347.369 -31.0276C342.536 -22.6565 342.536 -12.343 347.369 -3.97202L423.894 128.573C428.727 136.944 437.658 142.101 447.324 142.101L600.374 142.101C610.04 142.101 618.972 136.944 623.805 128.573ZM702.754 -2.57257C708.087 -11.8096 708.087 -23.19 702.754 -32.427L626.229 -164.972C620.896 -174.209 611.04 -179.899 600.374 -179.899L447.324 -179.899C436.659 -179.899 426.803 -174.209 421.47 -164.972L344.945 -32.427C339.612 -23.19 339.612 -11.8096 344.945 -2.57259L421.47 129.973C426.803 139.21 436.658 144.9 447.324 144.9L600.374 144.9C611.04 144.9 620.896 139.21 626.229 129.973L702.754 -2.57257Z" fill="#2B1616"/>
<path opacity="0.3" fill-rule="evenodd" clip-rule="evenodd" d="M637.799 152.811L728.319 -3.9725C733.152 -12.3435 733.152 -22.657 728.319 -31.028L637.799 -187.812C632.966 -196.183 624.035 -201.34 614.369 -201.34L433.33 -201.34C423.664 -201.34 414.732 -196.183 409.899 -187.812L319.38 -31.0281C314.547 -22.6571 314.547 -12.3436 319.38 -3.97252L409.899 152.811C414.732 161.182 423.664 166.339 433.33 166.339L614.368 166.339C624.035 166.339 632.966 161.182 637.799 152.811ZM730.742 -2.57307C736.075 -11.8101 736.075 -23.1905 730.742 -32.4275L640.223 -189.211C634.89 -198.448 625.034 -204.139 614.369 -204.139L433.33 -204.139C422.664 -204.139 412.808 -198.448 407.475 -189.211L316.956 -32.4275C311.623 -23.1905 311.623 -11.8101 316.956 -2.57309L407.475 154.211C412.808 163.448 422.664 169.138 433.33 169.138L614.368 169.138C625.034 169.138 634.89 163.448 640.223 154.211L730.742 -2.57307Z" fill="#2B1616"/>
<path opacity="0.2" fill-rule="evenodd" clip-rule="evenodd" d="M653.946 173.319L754.151 -0.240235C760.317 -10.9205 760.317 -24.0791 754.151 -34.7594L653.946 -208.319C647.78 -218.999 636.384 -225.578 624.052 -225.578L423.643 -225.578C411.31 -225.578 399.915 -218.999 393.748 -208.319L293.544 -34.7594C287.378 -24.0791 287.378 -10.9205 293.544 -0.240255L393.748 173.319C399.915 183.999 411.31 190.578 423.643 190.578L624.052 190.578C636.384 190.578 647.78 183.999 653.946 173.319ZM756.575 1.15919C763.241 -10.387 763.241 -24.6126 756.575 -36.1588L656.37 -209.718C649.704 -221.264 637.384 -228.377 624.052 -228.377L423.643 -228.377C410.311 -228.377 397.991 -221.264 391.325 -209.718L291.12 -36.1588C284.454 -24.6126 284.454 -10.3871 291.12 1.15917L391.325 174.718C397.991 186.265 410.31 193.377 423.643 193.377L624.052 193.377C637.384 193.377 649.704 186.265 656.37 174.718L756.575 1.15919Z" fill="#2B1616"/>
<path opacity="0.1" fill-rule="evenodd" clip-rule="evenodd" d="M667.01 195.942L780.276 -0.240464C786.442 -10.9207 786.442 -24.0793 780.276 -34.7596L667.01 -230.942C660.844 -241.622 649.448 -248.201 637.116 -248.201L410.584 -248.201C398.252 -248.201 386.856 -241.622 380.69 -230.942L267.424 -34.7596C261.258 -24.0794 261.258 -10.9208 267.424 -0.240486L380.69 195.942C386.856 206.622 398.252 213.201 410.584 213.201L637.115 213.201C649.448 213.201 660.844 206.622 667.01 195.942ZM782.7 1.15897C789.366 -10.3873 789.366 -24.6128 782.7 -36.159L669.434 -232.341C662.768 -243.887 650.448 -251 637.116 -251L410.584 -251C397.252 -251 384.932 -243.887 378.266 -232.341L265 -36.159C258.334 -24.6128 258.334 -10.3873 265 1.15894L378.266 197.341C384.932 208.887 397.252 216 410.584 216L637.115 216C650.448 216 662.768 208.887 669.434 197.341L782.7 1.15897Z" fill="#2B1616"/>
<path fill-rule="evenodd" clip-rule="evenodd" d="M1291.91 -1.59672L1296.32 -9.23435C1297.49 -11.2549 1297.49 -13.7444 1296.32 -15.765L1291.91 -23.4026C1290.75 -25.4232 1288.59 -26.6679 1286.26 -26.6679L1277.44 -26.6679C1275.1 -26.6679 1272.95 -25.4232 1271.78 -23.4026L1267.37 -15.765C1266.21 -13.7444 1266.21 -11.2549 1267.37 -9.23435L1271.78 -1.59672C1272.95 0.423865 1275.1 1.6686 1277.44 1.6686L1286.26 1.6686C1288.59 1.6686 1290.75 0.423866 1291.91 -1.59672ZM1298.75 -7.83492C1300.41 -10.7215 1300.41 -14.2779 1298.75 -17.1644L1294.34 -24.802C1292.67 -27.6886 1289.59 -29.4668 1286.26 -29.4668L1277.44 -29.4668C1274.1 -29.4668 1271.02 -27.6886 1269.36 -24.802L1264.95 -17.1644C1263.28 -14.2779 1263.28 -10.7215 1264.95 -7.83492L1269.36 -0.197299C1271.02 2.68926 1274.1 4.46745 1277.44 4.46745L1286.26 4.46745C1289.59 4.46745 1292.67 2.68926 1294.34 -0.197298L1298.75 -7.83492Z" fill="#2B1616"/>
<path fill-rule="evenodd" clip-rule="evenodd" d="M1306.44 21.7096L1323.77 -8.30093C1325.27 -10.8988 1325.27 -14.0996 1323.77 -16.6975L1306.44 -46.708C1304.95 -49.3059 1302.17 -50.9062 1299.17 -50.9062L1264.52 -50.9062C1261.52 -50.9062 1258.75 -49.3059 1257.25 -46.708L1239.92 -16.6975C1238.42 -14.0996 1238.42 -10.8988 1239.92 -8.30093L1257.25 21.7096C1258.75 24.3074 1261.52 25.9078 1264.52 25.9078L1299.17 25.9078C1302.17 25.9078 1304.95 24.3074 1306.44 21.7096ZM1326.2 -6.9015C1328.2 -10.3654 1328.2 -14.633 1326.2 -18.0969L1308.87 -48.1074C1306.87 -51.5712 1303.17 -53.7051 1299.17 -53.7051L1264.52 -53.7051C1260.52 -53.7051 1256.82 -51.5712 1254.82 -48.1074L1237.5 -18.0969C1235.5 -14.633 1235.5 -10.3654 1237.5 -6.9015L1254.82 23.109C1256.82 26.5728 1260.52 28.7067 1264.52 28.7067L1299.17 28.7067C1303.17 28.7067 1306.87 26.5728 1308.87 23.109L1326.2 -6.9015Z" fill="#2B1616"/>
<path opacity="0.9" fill-rule="evenodd" clip-rule="evenodd" d="M1320.98 45.0148L1351.22 -7.36848C1353.06 -10.5437 1353.06 -14.4557 1351.22 -17.6309L1320.98 -70.0143C1319.15 -73.1895 1315.76 -75.1455 1312.09 -75.1455L1251.61 -75.1455C1247.94 -75.1455 1244.55 -73.1895 1242.72 -70.0143L1212.48 -17.6309C1210.64 -14.4557 1210.64 -10.5437 1212.48 -7.36849L1242.72 45.0148C1244.55 48.1901 1247.94 50.1461 1251.61 50.1461L1312.09 50.1461C1315.76 50.1461 1319.15 48.1901 1320.98 45.0148ZM1353.65 -5.96906C1355.98 -10.0102 1355.98 -14.9892 1353.65 -19.0304L1323.41 -71.4137C1321.07 -75.4549 1316.76 -77.9443 1312.09 -77.9443L1251.61 -77.9443C1246.94 -77.9443 1242.63 -75.4549 1240.3 -71.4137L1210.05 -19.0304C1207.72 -14.9892 1207.72 -10.0103 1210.05 -5.96907L1240.3 46.4143C1242.63 50.4554 1246.94 52.9449 1251.61 52.9449L1312.09 52.9449C1316.76 52.9449 1321.07 50.4554 1323.41 46.4143L1353.65 -5.96906Z" fill="#2B1616"/>
<path opacity="0.75" fill-rule="evenodd" clip-rule="evenodd" d="M1335.51 68.3202L1378.67 -6.43603C1380.84 -10.1886 1380.84 -14.8119 1378.67 -18.5644L1335.51 -93.3206C1333.35 -97.0731 1329.34 -99.3847 1325.01 -99.3847L1238.69 -99.3848C1234.36 -99.3848 1230.35 -97.0731 1228.19 -93.3206L1185.03 -18.5644C1182.86 -14.8119 1182.86 -10.1886 1185.03 -6.43604L1228.19 68.3202C1230.35 72.0727 1234.36 74.3843 1238.69 74.3843L1325.01 74.3843C1329.34 74.3843 1333.35 72.0727 1335.51 68.3202ZM1381.1 -5.03661C1383.76 -9.6551 1383.76 -15.3453 1381.1 -19.9638L1337.94 -94.72C1335.27 -99.3385 1330.34 -102.184 1325.01 -102.184L1238.69 -102.184C1233.36 -102.184 1228.43 -99.3385 1225.76 -94.72L1182.6 -19.9638C1179.93 -15.3453 1179.93 -9.65511 1182.6 -5.03661L1225.76 69.7196C1228.43 74.3381 1233.36 77.1832 1238.69 77.1832L1325.01 77.1832C1330.34 77.1832 1335.27 74.3381 1337.94 69.7196L1381.1 -5.03661Z" fill="#2B1616"/>
<path opacity="0.6" fill-rule="evenodd" clip-rule="evenodd" d="M1350.58 90.6935L1405.58 -4.56966C1408.42 -9.47681 1408.42 -15.5227 1405.58 -20.4298L1350.58 -115.693C1347.75 -120.6 1342.51 -123.623 1336.85 -123.623L1226.85 -123.623C1221.18 -123.623 1215.95 -120.6 1213.11 -115.693L1158.11 -20.4298C1155.28 -15.5227 1155.28 -9.47683 1158.11 -4.56968L1213.11 90.6935C1215.95 95.6006 1221.18 98.6235 1226.85 98.6235L1336.85 98.6235C1342.51 98.6235 1347.75 95.6006 1350.58 90.6935ZM1408.01 -3.17024C1411.34 -8.94335 1411.34 -16.0561 1408.01 -21.8292L1353.01 -117.092C1349.67 -122.865 1343.51 -126.422 1336.85 -126.422L1226.85 -126.422C1220.18 -126.422 1214.02 -122.866 1210.69 -117.092L1155.69 -21.8293C1152.36 -16.0561 1152.36 -8.94336 1155.69 -3.17025L1210.69 92.0929C1214.02 97.866 1220.18 101.422 1226.85 101.422L1336.85 101.422C1343.51 101.422 1349.67 97.866 1353.01 92.0929L1408.01 -3.17024Z" fill="#2B1616"/>
<path opacity="0.5" fill-rule="evenodd" clip-rule="evenodd" d="M1364.58 114.933L1433.57 -4.5692C1436.41 -9.47635 1436.41 -15.5222 1433.57 -20.4293L1364.58 -139.931C1361.74 -144.838 1356.51 -147.861 1350.84 -147.861L1212.85 -147.861C1207.19 -147.861 1201.95 -144.838 1199.12 -139.931L1130.12 -20.4294C1127.29 -15.5222 1127.29 -9.47635 1130.12 -4.56921L1199.12 114.933C1201.95 119.84 1207.19 122.863 1212.85 122.863L1350.84 122.863C1356.51 122.863 1361.74 119.84 1364.58 114.933ZM1436 -3.16977C1439.33 -8.94289 1439.33 -16.0556 1436 -21.8288L1367 -141.331C1363.67 -147.104 1357.51 -150.66 1350.84 -150.66L1212.85 -150.66C1206.19 -150.66 1200.03 -147.104 1196.69 -141.331L1127.7 -21.8288C1124.37 -16.0557 1124.37 -8.9429 1127.7 -3.16978L1196.69 116.332C1200.03 122.105 1206.19 125.662 1212.85 125.662L1350.84 125.662C1357.51 125.662 1363.67 122.105 1367 116.332L1436 -3.16977Z" fill="#2B1616"/>
<path opacity="0.4" fill-rule="evenodd" clip-rule="evenodd" d="M1381.81 133.573L1458.33 1.028C1463.16 -7.343 1463.16 -17.6565 1458.33 -26.0275L1381.81 -158.573C1376.97 -166.944 1368.04 -172.101 1358.37 -172.101L1205.32 -172.101C1195.66 -172.101 1186.73 -166.944 1181.89 -158.573L1105.37 -26.0276C1100.54 -17.6565 1100.54 -7.34302 1105.37 1.02798L1181.89 133.573C1186.73 141.944 1195.66 147.101 1205.32 147.101L1358.37 147.101C1368.04 147.101 1376.97 141.944 1381.81 133.573ZM1460.75 2.42743C1466.09 -6.80955 1466.09 -18.19 1460.75 -27.427L1384.23 -159.972C1378.9 -169.209 1369.04 -174.899 1358.37 -174.899L1205.32 -174.899C1194.66 -174.899 1184.8 -169.209 1179.47 -159.972L1102.94 -27.427C1097.61 -18.19 1097.61 -6.80957 1102.94 2.42741L1179.47 134.973C1184.8 144.21 1194.66 149.9 1205.32 149.9L1358.37 149.9C1369.04 149.9 1378.9 144.21 1384.23 134.973L1460.75 2.42743Z" fill="#2B1616"/>
<path opacity="0.3" fill-rule="evenodd" clip-rule="evenodd" d="M1395.8 157.811L1486.32 1.0275C1491.15 -7.34352 1491.15 -17.657 1486.32 -26.028L1395.8 -182.812C1390.97 -191.183 1382.03 -196.34 1372.37 -196.34L1191.33 -196.34C1181.66 -196.34 1172.73 -191.183 1167.9 -182.812L1077.38 -26.0281C1072.55 -17.6571 1072.55 -7.34355 1077.38 1.02748L1167.9 157.811C1172.73 166.182 1181.66 171.339 1191.33 171.339L1372.37 171.339C1382.03 171.339 1390.97 166.182 1395.8 157.811ZM1488.74 2.42693C1494.08 -6.81006 1494.08 -18.1905 1488.74 -27.4275L1398.22 -184.211C1392.89 -193.448 1383.03 -199.139 1372.37 -199.139L1191.33 -199.139C1180.66 -199.139 1170.81 -193.448 1165.48 -184.211L1074.96 -27.4275C1069.62 -18.1905 1069.62 -6.81008 1074.96 2.42691L1165.48 159.211C1170.81 168.448 1180.66 174.138 1191.33 174.138L1372.37 174.138C1383.03 174.138 1392.89 168.448 1398.22 159.211L1488.74 2.42693Z" fill="#2B1616"/>
<path opacity="0.2" fill-rule="evenodd" clip-rule="evenodd" d="M1411.95 178.319L1512.15 4.75977C1518.32 -5.9205 1518.32 -19.0791 1512.15 -29.7594L1411.95 -203.319C1405.78 -213.999 1394.38 -220.578 1382.05 -220.578L1181.64 -220.578C1169.31 -220.578 1157.91 -213.999 1151.75 -203.319L1051.54 -29.7594C1045.38 -19.0791 1045.38 -5.92052 1051.54 4.75975L1151.75 178.319C1157.91 188.999 1169.31 195.578 1181.64 195.578L1382.05 195.578C1394.38 195.578 1405.78 188.999 1411.95 178.319ZM1514.57 6.15919C1521.24 -5.38704 1521.24 -19.6126 1514.57 -31.1588L1414.37 -204.718C1407.7 -216.264 1395.38 -223.377 1382.05 -223.377L1181.64 -223.377C1168.31 -223.377 1155.99 -216.264 1149.32 -204.718L1049.12 -31.1588C1042.45 -19.6126 1042.45 -5.38706 1049.12 6.15917L1149.32 179.718C1155.99 191.265 1168.31 198.377 1181.64 198.377L1382.05 198.377C1395.38 198.377 1407.7 191.265 1414.37 179.718L1514.57 6.15919Z" fill="#2B1616"/>
<path opacity="0.1" fill-rule="evenodd" clip-rule="evenodd" d="M1425.01 200.942L1538.28 4.75954C1544.44 -5.92073 1544.44 -19.0793 1538.28 -29.7596L1425.01 -225.942C1418.84 -236.622 1407.45 -243.201 1395.12 -243.201L1168.58 -243.201C1156.25 -243.201 1144.86 -236.622 1138.69 -225.942L1025.42 -29.7596C1019.26 -19.0794 1019.26 -5.92075 1025.42 4.75951L1138.69 200.942C1144.86 211.622 1156.25 218.201 1168.58 218.201L1395.12 218.201C1407.45 218.201 1418.84 211.622 1425.01 200.942ZM1540.7 6.15897C1547.37 -5.38725 1547.37 -19.6128 1540.7 -31.159L1427.43 -227.341C1420.77 -238.887 1408.45 -246 1395.12 -246L1168.58 -246C1155.25 -246 1142.93 -238.887 1136.27 -227.341L1023 -31.159C1016.33 -19.6128 1016.33 -5.38728 1023 6.15894L1136.27 202.341C1142.93 213.887 1155.25 221 1168.58 221L1395.12 221C1408.45 221 1420.77 213.887 1427.43 202.341L1540.7 6.15897Z" fill="#2B1616"/>
<path fill-rule="evenodd" clip-rule="evenodd" d="M533.913 832.403L538.322 824.766C539.489 822.745 539.489 820.256 538.322 818.235L533.913 810.597C532.746 808.577 530.59 807.332 528.257 807.332L519.438 807.332C517.105 807.332 514.949 808.577 513.782 810.597L509.373 818.235C508.206 820.256 508.206 822.745 509.373 824.766L513.782 832.403C514.949 834.424 517.105 835.669 519.438 835.669L528.257 835.669C530.59 835.669 532.746 834.424 533.913 832.403ZM540.746 826.165C542.413 823.279 542.413 819.722 540.746 816.836L536.337 809.198C534.67 806.311 531.59 804.533 528.257 804.533L519.438 804.533C516.105 804.533 513.025 806.311 511.358 809.198L506.949 816.836C505.282 819.722 505.282 823.279 506.949 826.165L511.358 833.803C513.025 836.689 516.105 838.467 519.438 838.467L528.257 838.467C531.59 838.467 534.67 836.689 536.337 833.803L540.746 826.165Z" fill="#2B1616"/>
<path fill-rule="evenodd" clip-rule="evenodd" d="M548.445 855.71L565.772 825.699C567.271 823.101 567.271 819.9 565.772 817.303L548.445 787.292C546.945 784.694 544.173 783.094 541.173 783.094L506.52 783.094C503.52 783.094 500.749 784.694 499.249 787.292L481.922 817.303C480.422 819.9 480.422 823.101 481.922 825.699L499.249 855.71C500.749 858.307 503.52 859.908 506.52 859.908L541.173 859.908C544.173 859.908 546.945 858.307 548.445 855.71ZM568.195 827.098C570.195 823.635 570.195 819.367 568.195 815.903L550.869 785.893C548.869 782.429 545.173 780.295 541.173 780.295L506.52 780.295C502.521 780.295 498.825 782.429 496.825 785.893L479.498 815.903C477.498 819.367 477.498 823.635 479.498 827.098L496.825 857.109C498.825 860.573 502.521 862.707 506.52 862.707L541.173 862.707C545.173 862.707 548.869 860.573 550.869 857.109L568.195 827.098Z" fill="#2B1616"/>
<path opacity="0.9" fill-rule="evenodd" clip-rule="evenodd" d="M562.981 879.015L593.225 826.632C595.058 823.456 595.058 819.544 593.225 816.369L562.981 763.986C561.148 760.811 557.76 758.855 554.094 758.855L493.607 758.855C489.94 758.855 486.552 760.811 484.719 763.986L454.475 816.369C452.642 819.544 452.642 823.456 454.475 826.632L484.719 879.015C486.552 882.19 489.94 884.146 493.607 884.146L554.094 884.146C557.76 884.146 561.148 882.19 562.981 879.015ZM595.649 828.031C597.982 823.99 597.982 819.011 595.649 814.97L565.405 762.586C563.072 758.545 558.76 756.056 554.094 756.056L493.607 756.056C488.94 756.056 484.628 758.545 482.295 762.586L452.052 814.97C449.718 819.011 449.718 823.99 452.052 828.031L482.295 880.414C484.628 884.455 488.94 886.945 493.607 886.945L554.094 886.945C558.76 886.945 563.072 884.455 565.405 880.414L595.649 828.031Z" fill="#2B1616"/>
<path opacity="0.75" fill-rule="evenodd" clip-rule="evenodd" d="M577.513 902.321L620.674 827.565C622.84 823.812 622.84 819.189 620.674 815.437L577.513 740.68C575.347 736.928 571.343 734.616 567.01 734.616L480.689 734.616C476.356 734.616 472.352 736.928 470.186 740.68L427.025 815.437C424.858 819.189 424.858 823.812 427.025 827.565L470.186 902.321C472.352 906.074 476.356 908.385 480.689 908.385L567.01 908.385C571.343 908.385 575.347 906.074 577.513 902.321ZM623.098 828.964C625.764 824.346 625.764 818.656 623.098 814.037L579.937 739.281C577.271 734.662 572.343 731.817 567.01 731.817L480.689 731.817C475.356 731.817 470.428 734.662 467.762 739.281L424.601 814.037C421.935 818.656 421.935 824.346 424.601 828.964L467.762 903.721C470.428 908.339 475.356 911.184 480.689 911.184L567.01 911.184C572.343 911.184 577.271 908.339 579.937 903.721L623.098 828.964Z" fill="#2B1616"/>
<path opacity="0.6" fill-rule="evenodd" clip-rule="evenodd" d="M592.584 924.693L647.584 829.43C650.417 824.523 650.417 818.477 647.584 813.57L592.584 718.307C589.751 713.4 584.515 710.377 578.849 710.377L468.848 710.377C463.182 710.377 457.946 713.4 455.113 718.307L400.113 813.57C397.28 818.477 397.28 824.523 400.113 829.43L455.113 924.693C457.946 929.601 463.182 932.624 468.848 932.624L578.849 932.624C584.515 932.624 589.751 929.601 592.584 924.693ZM650.008 830.83C653.341 825.057 653.341 817.944 650.008 812.171L595.008 716.908C591.675 711.135 585.515 707.578 578.849 707.578L468.848 707.578C462.182 707.578 456.022 711.134 452.689 716.908L397.689 812.171C394.356 817.944 394.356 825.057 397.689 830.83L452.689 926.093C456.022 931.866 462.182 935.422 468.848 935.422L578.849 935.422C585.515 935.422 591.675 931.866 595.008 926.093L650.008 830.83Z" fill="#2B1616"/>
<path opacity="0.5" fill-rule="evenodd" clip-rule="evenodd" d="M606.578 948.933L675.572 829.431C678.406 824.524 678.406 818.478 675.572 813.571L606.578 694.069C603.745 689.162 598.509 686.139 592.843 686.139L454.854 686.139C449.187 686.139 443.952 689.162 441.118 694.069L372.124 813.571C369.291 818.478 369.291 824.524 372.124 829.431L441.118 948.933C443.952 953.84 449.187 956.863 454.854 956.863L592.843 956.863C598.509 956.863 603.745 953.84 606.578 948.933ZM677.996 830.83C681.329 825.057 681.329 817.944 677.996 812.171L609.002 692.669C605.669 686.896 599.509 683.34 592.843 683.34L454.854 683.34C448.188 683.34 442.028 686.896 438.695 692.669L369.7 812.171C366.367 817.944 366.367 825.057 369.7 830.83L438.695 950.332C442.028 956.105 448.188 959.662 454.854 959.662L592.843 959.662C599.509 959.662 605.669 956.105 609.002 950.332L677.996 830.83Z" fill="#2B1616"/>
<path opacity="0.4" fill-rule="evenodd" clip-rule="evenodd" d="M623.805 967.573L700.33 835.028C705.163 826.657 705.163 816.343 700.33 807.972L623.805 675.427C618.972 667.056 610.041 661.899 600.374 661.899L447.324 661.899C437.658 661.899 428.727 667.056 423.894 675.427L347.369 807.972C342.536 816.343 342.536 826.657 347.369 835.028L423.894 967.573C428.727 975.944 437.658 981.101 447.324 981.101L600.374 981.101C610.04 981.101 618.972 975.944 623.805 967.573ZM702.754 836.427C708.087 827.19 708.087 815.81 702.754 806.573L626.229 674.028C620.896 664.791 611.04 659.101 600.374 659.101L447.324 659.101C436.659 659.101 426.803 664.791 421.47 674.028L344.945 806.573C339.612 815.81 339.612 827.19 344.945 836.427L421.47 968.973C426.803 978.21 436.658 983.9 447.324 983.9L600.374 983.9C611.04 983.9 620.896 978.21 626.229 968.973L702.754 836.427Z" fill="#2B1616"/>
<path opacity="0.3" fill-rule="evenodd" clip-rule="evenodd" d="M637.799 991.812L728.319 835.028C733.152 826.657 733.152 816.344 728.319 807.973L637.799 651.189C632.966 642.818 624.035 637.661 614.369 637.661L433.33 637.661C423.664 637.661 414.732 642.818 409.899 651.189L319.38 807.973C314.547 816.344 314.547 826.657 319.38 835.028L409.899 991.812C414.732 1000.18 423.664 1005.34 433.33 1005.34L614.368 1005.34C624.035 1005.34 632.966 1000.18 637.799 991.812ZM730.742 836.428C736.075 827.191 736.075 815.81 730.742 806.574L640.223 649.79C634.89 640.553 625.034 634.862 614.369 634.862L433.33 634.862C422.664 634.862 412.808 640.553 407.475 649.789L316.956 806.573C311.623 815.81 311.623 827.191 316.956 836.428L407.475 993.212C412.808 1002.45 422.664 1008.14 433.33 1008.14L614.368 1008.14C625.034 1008.14 634.89 1002.45 640.223 993.212L730.742 836.428Z" fill="#2B1616"/>
<path opacity="0.2" fill-rule="evenodd" clip-rule="evenodd" d="M653.946 1012.32L754.151 838.76C760.317 828.079 760.317 814.921 754.151 804.241L653.946 630.681C647.78 620.001 636.384 613.422 624.052 613.422L423.643 613.422C411.31 613.422 399.915 620.001 393.748 630.681L293.544 804.241C287.378 814.921 287.378 828.079 293.544 838.76L393.748 1012.32C399.915 1023 411.31 1029.58 423.643 1029.58L624.052 1029.58C636.384 1029.58 647.78 1023 653.946 1012.32ZM756.575 840.159C763.241 828.613 763.241 814.387 756.575 802.841L656.37 629.282C649.704 617.736 637.384 610.623 624.052 610.623L423.643 610.623C410.311 610.623 397.991 617.736 391.325 629.282L291.12 802.841C284.454 814.387 284.454 828.613 291.12 840.159L391.325 1013.72C397.991 1025.26 410.31 1032.38 423.643 1032.38L624.052 1032.38C637.384 1032.38 649.704 1025.26 656.37 1013.72L756.575 840.159Z" fill="#2B1616"/>
<path opacity="0.1" fill-rule="evenodd" clip-rule="evenodd" d="M667.01 1034.94L780.276 838.76C786.442 828.079 786.442 814.921 780.276 804.24L667.01 608.058C660.844 597.378 649.448 590.799 637.116 590.799L410.584 590.799C398.252 590.799 386.856 597.378 380.69 608.058L267.424 804.24C261.258 814.921 261.258 828.079 267.424 838.76L380.69 1034.94C386.856 1045.62 398.252 1052.2 410.584 1052.2L637.115 1052.2C649.448 1052.2 660.844 1045.62 667.01 1034.94ZM782.7 840.159C789.366 828.613 789.366 814.387 782.7 802.841L669.434 606.659C662.768 595.113 650.448 588 637.116 588L410.584 588C397.252 588 384.932 595.113 378.266 606.659L265 802.841C258.334 814.387 258.334 828.613 265 840.159L378.266 1036.34C384.932 1047.89 397.252 1055 410.584 1055L637.115 1055C650.448 1055 662.768 1047.89 669.434 1036.34L782.7 840.159Z" fill="#2B1616"/>
<path fill-rule="evenodd" clip-rule="evenodd" d="M1291.91 837.403L1296.32 829.766C1297.49 827.745 1297.49 825.256 1296.32 823.235L1291.91 815.597C1290.75 813.577 1288.59 812.332 1286.26 812.332L1277.44 812.332C1275.1 812.332 1272.95 813.577 1271.78 815.597L1267.37 823.235C1266.21 825.256 1266.21 827.745 1267.37 829.766L1271.78 837.403C1272.95 839.424 1275.1 840.669 1277.44 840.669L1286.26 840.669C1288.59 840.669 1290.75 839.424 1291.91 837.403ZM1298.75 831.165C1300.41 828.279 1300.41 824.722 1298.75 821.836L1294.34 814.198C1292.67 811.311 1289.59 809.533 1286.26 809.533L1277.44 809.533C1274.1 809.533 1271.02 811.311 1269.36 814.198L1264.95 821.836C1263.28 824.722 1263.28 828.279 1264.95 831.165L1269.36 838.803C1271.02 841.689 1274.1 843.467 1277.44 843.467L1286.26 843.467C1289.59 843.467 1292.67 841.689 1294.34 838.803L1298.75 831.165Z" fill="#2B1616"/>
<path fill-rule="evenodd" clip-rule="evenodd" d="M1306.44 860.71L1323.77 830.699C1325.27 828.101 1325.27 824.9 1323.77 822.303L1306.44 792.292C1304.95 789.694 1302.17 788.094 1299.17 788.094L1264.52 788.094C1261.52 788.094 1258.75 789.694 1257.25 792.292L1239.92 822.303C1238.42 824.9 1238.42 828.101 1239.92 830.699L1257.25 860.71C1258.75 863.307 1261.52 864.908 1264.52 864.908L1299.17 864.908C1302.17 864.908 1304.95 863.307 1306.44 860.71ZM1326.2 832.098C1328.2 828.635 1328.2 824.367 1326.2 820.903L1308.87 790.893C1306.87 787.429 1303.17 785.295 1299.17 785.295L1264.52 785.295C1260.52 785.295 1256.82 787.429 1254.82 790.893L1237.5 820.903C1235.5 824.367 1235.5 828.635 1237.5 832.098L1254.82 862.109C1256.82 865.573 1260.52 867.707 1264.52 867.707L1299.17 867.707C1303.17 867.707 1306.87 865.573 1308.87 862.109L1326.2 832.098Z" fill="#2B1616"/>
<path opacity="0.9" fill-rule="evenodd" clip-rule="evenodd" d="M1320.98 884.015L1351.22 831.632C1353.06 828.456 1353.06 824.544 1351.22 821.369L1320.98 768.986C1319.15 765.811 1315.76 763.855 1312.09 763.855L1251.61 763.855C1247.94 763.855 1244.55 765.811 1242.72 768.986L1212.48 821.369C1210.64 824.544 1210.64 828.456 1212.48 831.632L1242.72 884.015C1244.55 887.19 1247.94 889.146 1251.61 889.146L1312.09 889.146C1315.76 889.146 1319.15 887.19 1320.98 884.015ZM1353.65 833.031C1355.98 828.99 1355.98 824.011 1353.65 819.97L1323.41 767.586C1321.07 763.545 1316.76 761.056 1312.09 761.056L1251.61 761.056C1246.94 761.056 1242.63 763.545 1240.3 767.586L1210.05 819.97C1207.72 824.011 1207.72 828.99 1210.05 833.031L1240.3 885.414C1242.63 889.455 1246.94 891.945 1251.61 891.945L1312.09 891.945C1316.76 891.945 1321.07 889.455 1323.41 885.414L1353.65 833.031Z" fill="#2B1616"/>
<path opacity="0.75" fill-rule="evenodd" clip-rule="evenodd" d="M1335.51 907.321L1378.67 832.565C1380.84 828.812 1380.84 824.189 1378.67 820.437L1335.51 745.68C1333.35 741.928 1329.34 739.616 1325.01 739.616L1238.69 739.616C1234.36 739.616 1230.35 741.928 1228.19 745.68L1185.03 820.437C1182.86 824.189 1182.86 828.812 1185.03 832.565L1228.19 907.321C1230.35 911.074 1234.36 913.385 1238.69 913.385L1325.01 913.385C1329.34 913.385 1333.35 911.074 1335.51 907.321ZM1381.1 833.964C1383.76 829.346 1383.76 823.656 1381.1 819.037L1337.94 744.281C1335.27 739.662 1330.34 736.817 1325.01 736.817L1238.69 736.817C1233.36 736.817 1228.43 739.662 1225.76 744.281L1182.6 819.037C1179.93 823.656 1179.93 829.346 1182.6 833.964L1225.76 908.721C1228.43 913.339 1233.36 916.184 1238.69 916.184L1325.01 916.184C1330.34 916.184 1335.27 913.339 1337.94 908.721L1381.1 833.964Z" fill="#2B1616"/>
<path opacity="0.6" fill-rule="evenodd" clip-rule="evenodd" d="M1350.58 929.693L1405.58 834.43C1408.42 829.523 1408.42 823.477 1405.58 818.57L1350.58 723.307C1347.75 718.4 1342.51 715.377 1336.85 715.377L1226.85 715.377C1221.18 715.377 1215.95 718.4 1213.11 723.307L1158.11 818.57C1155.28 823.477 1155.28 829.523 1158.11 834.43L1213.11 929.693C1215.95 934.601 1221.18 937.624 1226.85 937.624L1336.85 937.624C1342.51 937.624 1347.75 934.601 1350.58 929.693ZM1408.01 835.83C1411.34 830.057 1411.34 822.944 1408.01 817.171L1353.01 721.908C1349.67 716.135 1343.51 712.578 1336.85 712.578L1226.85 712.578C1220.18 712.578 1214.02 716.134 1210.69 721.908L1155.69 817.171C1152.36 822.944 1152.36 830.057 1155.69 835.83L1210.69 931.093C1214.02 936.866 1220.18 940.422 1226.85 940.422L1336.85 940.422C1343.51 940.422 1349.67 936.866 1353.01 931.093L1408.01 835.83Z" fill="#2B1616"/>
<path opacity="0.5" fill-rule="evenodd" clip-rule="evenodd" d="M1364.58 953.933L1433.57 834.431C1436.41 829.524 1436.41 823.478 1433.57 818.571L1364.58 699.069C1361.74 694.162 1356.51 691.139 1350.84 691.139L1212.85 691.139C1207.19 691.139 1201.95 694.162 1199.12 699.069L1130.12 818.571C1127.29 823.478 1127.29 829.524 1130.12 834.431L1199.12 953.933C1201.95 958.84 1207.19 961.863 1212.85 961.863L1350.84 961.863C1356.51 961.863 1361.74 958.84 1364.58 953.933ZM1436 835.83C1439.33 830.057 1439.33 822.944 1436 817.171L1367 697.669C1363.67 691.896 1357.51 688.34 1350.84 688.34L1212.85 688.34C1206.19 688.34 1200.03 691.896 1196.69 697.669L1127.7 817.171C1124.37 822.944 1124.37 830.057 1127.7 835.83L1196.69 955.332C1200.03 961.105 1206.19 964.662 1212.85 964.662L1350.84 964.662C1357.51 964.662 1363.67 961.105 1367 955.332L1436 835.83Z" fill="#2B1616"/>
<path opacity="0.4" fill-rule="evenodd" clip-rule="evenodd" d="M1381.81 972.573L1458.33 840.028C1463.16 831.657 1463.16 821.343 1458.33 812.972L1381.81 680.427C1376.97 672.056 1368.04 666.899 1358.37 666.899L1205.32 666.899C1195.66 666.899 1186.73 672.056 1181.89 680.427L1105.37 812.972C1100.54 821.343 1100.54 831.657 1105.37 840.028L1181.89 972.573C1186.73 980.944 1195.66 986.101 1205.32 986.101L1358.37 986.101C1368.04 986.101 1376.97 980.944 1381.81 972.573ZM1460.75 841.427C1466.09 832.19 1466.09 820.81 1460.75 811.573L1384.23 679.028C1378.9 669.791 1369.04 664.101 1358.37 664.101L1205.32 664.101C1194.66 664.101 1184.8 669.791 1179.47 679.028L1102.94 811.573C1097.61 820.81 1097.61 832.19 1102.94 841.427L1179.47 973.973C1184.8 983.21 1194.66 988.9 1205.32 988.9L1358.37 988.9C1369.04 988.9 1378.9 983.21 1384.23 973.973L1460.75 841.427Z" fill="#2B1616"/>
<path opacity="0.3" fill-rule="evenodd" clip-rule="evenodd" d="M1395.8 996.812L1486.32 840.028C1491.15 831.657 1491.15 821.344 1486.32 812.973L1395.8 656.189C1390.97 647.818 1382.03 642.661 1372.37 642.661L1191.33 642.661C1181.66 642.661 1172.73 647.818 1167.9 656.189L1077.38 812.973C1072.55 821.344 1072.55 831.657 1077.38 840.028L1167.9 996.812C1172.73 1005.18 1181.66 1010.34 1191.33 1010.34L1372.37 1010.34C1382.03 1010.34 1390.97 1005.18 1395.8 996.812ZM1488.74 841.428C1494.08 832.191 1494.08 820.81 1488.74 811.574L1398.22 654.79C1392.89 645.553 1383.03 639.862 1372.37 639.862L1191.33 639.862C1180.66 639.862 1170.81 645.553 1165.48 654.789L1074.96 811.573C1069.62 820.81 1069.62 832.191 1074.96 841.428L1165.48 998.212C1170.81 1007.45 1180.66 1013.14 1191.33 1013.14L1372.37 1013.14C1383.03 1013.14 1392.89 1007.45 1398.22 998.212L1488.74 841.428Z" fill="#2B1616"/>
<path opacity="0.2" fill-rule="evenodd" clip-rule="evenodd" d="M1411.95 1017.32L1512.15 843.76C1518.32 833.079 1518.32 819.921 1512.15 809.241L1411.95 635.681C1405.78 625.001 1394.38 618.422 1382.05 618.422L1181.64 618.422C1169.31 618.422 1157.91 625.001 1151.75 635.681L1051.54 809.241C1045.38 819.921 1045.38 833.079 1051.54 843.76L1151.75 1017.32C1157.91 1028 1169.31 1034.58 1181.64 1034.58L1382.05 1034.58C1394.38 1034.58 1405.78 1028 1411.95 1017.32ZM1514.57 845.159C1521.24 833.613 1521.24 819.387 1514.57 807.841L1414.37 634.282C1407.7 622.736 1395.38 615.623 1382.05 615.623L1181.64 615.623C1168.31 615.623 1155.99 622.736 1149.32 634.282L1049.12 807.841C1042.45 819.387 1042.45 833.613 1049.12 845.159L1149.32 1018.72C1155.99 1030.26 1168.31 1037.38 1181.64 1037.38L1382.05 1037.38C1395.38 1037.38 1407.7 1030.26 1414.37 1018.72L1514.57 845.159Z" fill="#2B1616"/>
<path opacity="0.1" fill-rule="evenodd" clip-rule="evenodd" d="M1425.01 1039.94L1538.28 843.76C1544.44 833.079 1544.44 819.921 1538.28 809.24L1425.01 613.058C1418.84 602.378 1407.45 595.799 1395.12 595.799L1168.58 595.799C1156.25 595.799 1144.86 602.378 1138.69 613.058L1025.42 809.24C1019.26 819.921 1019.26 833.079 1025.42 843.76L1138.69 1039.94C1144.86 1050.62 1156.25 1057.2 1168.58 1057.2L1395.12 1057.2C1407.45 1057.2 1418.84 1050.62 1425.01 1039.94ZM1540.7 845.159C1547.37 833.613 1547.37 819.387 1540.7 807.841L1427.43 611.659C1420.77 600.113 1408.45 593 1395.12 593L1168.58 593C1155.25 593 1142.93 600.113 1136.27 611.659L1023 807.841C1016.33 819.387 1016.33 833.613 1023 845.159L1136.27 1041.34C1142.93 1052.89 1155.25 1060 1168.58 1060L1395.12 1060C1408.45 1060 1420.77 1052.89 1427.43 1041.34L1540.7 845.159Z" fill="#2B1616"/>
</g>
</svg>
