<svg width="744" height="830" viewBox="0 0 744 830" fill="none" xmlns="http://www.w3.org/2000/svg">
<g style="mix-blend-mode:color-burn" opacity="0.3">
<path d="M696.988 278.29C696.593 278.654 696.15 278.934 695.66 279.128C695.169 279.323 694.661 279.42 694.135 279.42C693.732 279.42 693.343 279.363 692.967 279.249C692.595 279.139 692.245 278.982 691.917 278.779C691.593 278.572 691.296 278.324 691.027 278.036C690.759 277.748 690.527 277.431 690.333 277.084C690.144 276.732 689.995 276.357 689.889 275.96C689.786 275.557 689.734 275.14 689.734 274.709C689.734 274.277 689.786 273.86 689.889 273.458C689.995 273.055 690.144 272.681 690.333 272.333C690.527 271.982 690.759 271.662 691.027 271.375C691.296 271.087 691.593 270.841 691.917 270.638C692.245 270.431 692.595 270.272 692.967 270.162C693.343 270.047 693.732 269.99 694.135 269.99C694.661 269.99 695.169 270.088 695.66 270.282C696.15 270.473 696.593 270.752 696.988 271.121L696.087 272.708C695.838 272.42 695.543 272.2 695.203 272.048C694.863 271.891 694.507 271.813 694.135 271.813C693.76 271.813 693.408 271.889 693.08 272.041C692.751 272.194 692.465 272.401 692.22 272.664C691.974 272.922 691.781 273.229 691.638 273.585C691.496 273.936 691.425 274.311 691.425 274.709C691.425 275.106 691.496 275.481 691.638 275.833C691.781 276.18 691.974 276.484 692.22 276.747C692.465 277.009 692.751 277.217 693.08 277.369C693.408 277.522 693.76 277.598 694.135 277.598C694.507 277.598 694.863 277.522 695.203 277.369C695.543 277.213 695.838 276.99 696.087 276.703L696.988 278.29Z" fill="#131027"/>
<path fill-rule="evenodd" clip-rule="evenodd" d="M10.6969 207.173L13.8956 201.633C14.7418 200.167 14.7418 198.361 13.8956 196.895L10.6969 191.355C9.85062 189.889 8.2867 188.986 6.59421 188.986L0.196775 188.986C-1.49571 188.986 -3.05964 189.889 -3.90588 191.355L-7.10459 196.895C-7.95084 198.361 -7.95084 200.167 -7.10459 201.633L-3.90588 207.173C-3.05964 208.639 -1.49571 209.542 0.196774 209.542L6.59421 209.542C8.28669 209.542 9.85062 208.639 10.6969 207.173ZM15.6539 202.648C16.8628 200.554 16.8628 197.974 15.6539 195.88L12.4551 190.34C11.2462 188.246 9.01205 186.956 6.59421 186.956L0.196775 186.956C-2.22106 186.956 -4.45524 188.246 -5.66416 190.34L-8.86287 195.88C-10.0718 197.974 -10.0718 200.554 -8.86287 202.648L-5.66416 208.188C-4.45524 210.282 -2.22106 211.572 0.196774 211.572L6.59421 211.572C9.01205 211.572 11.2462 210.282 12.4551 208.188L15.6539 202.648Z" fill="#2B1616"/>
<path fill-rule="evenodd" clip-rule="evenodd" d="M21.2393 224.079L33.808 202.309C34.896 200.425 34.896 198.103 33.808 196.218L21.2393 174.449C20.1513 172.564 18.1405 171.403 15.9645 171.403L-9.17293 171.403C-11.349 171.403 -13.3597 172.564 -14.4478 174.449L-27.0165 196.218C-28.1045 198.103 -28.1045 200.425 -27.0165 202.309L-14.4478 224.079C-13.3597 225.963 -11.349 227.124 -9.17292 227.124L15.9645 227.124C18.1405 227.124 20.1513 225.963 21.2393 224.079ZM35.5663 203.324C37.017 200.812 37.017 197.716 35.5663 195.203L22.9976 173.434C21.5469 170.921 18.8659 169.373 15.9645 169.373L-9.17293 169.373C-12.0743 169.373 -14.7553 170.921 -16.206 173.434L-28.7747 195.203C-30.2254 197.716 -30.2254 200.812 -28.7747 203.324L-16.206 225.094C-14.7553 227.607 -12.0743 229.155 -9.17292 229.155L15.9645 229.155C18.8659 229.155 21.5469 227.607 22.9976 225.094L35.5663 203.324Z" fill="#2B1616"/>
<path opacity="0.9" fill-rule="evenodd" clip-rule="evenodd" d="M31.7817 240.985L53.7204 202.986C55.0502 200.682 55.0502 197.845 53.7204 195.541L31.7817 157.543C30.4519 155.239 27.9943 153.82 25.3347 153.82L-18.5426 153.82C-21.2022 153.82 -23.6598 155.239 -24.9897 157.543L-46.9283 195.541C-48.2581 197.845 -48.2581 200.682 -46.9283 202.986L-24.9897 240.985C-23.6598 243.288 -21.2023 244.707 -18.5426 244.707L25.3347 244.707C27.9943 244.707 30.4519 243.288 31.7817 240.985ZM55.4787 204.001C57.1712 201.069 57.1712 197.458 55.4787 194.526L33.54 156.527C31.8475 153.596 28.7197 151.79 25.3347 151.79L-18.5426 151.79C-21.9276 151.79 -25.0554 153.596 -26.7479 156.527L-48.6866 194.526C-50.3791 197.458 -50.3791 201.069 -48.6866 204.001L-26.7479 242C-25.0555 244.931 -21.9276 246.737 -18.5426 246.737L25.3347 246.737C28.7197 246.737 31.8475 244.931 33.54 242L55.4787 204.001Z" fill="#2B1616"/>
<path opacity="0.75" fill-rule="evenodd" clip-rule="evenodd" d="M42.3242 257.891L73.6328 203.662C75.2044 200.94 75.2044 197.587 73.6328 194.864L42.3242 140.636C40.7526 137.914 37.8481 136.237 34.705 136.237L-27.9123 136.237C-31.0555 136.237 -33.96 137.914 -35.5316 140.636L-66.8402 194.864C-68.4118 197.587 -68.4118 200.94 -66.8402 203.662L-35.5316 257.891C-33.96 260.613 -31.0555 262.289 -27.9124 262.289L34.7049 262.289C37.8481 262.289 40.7526 260.613 42.3242 257.891ZM75.3911 204.678C77.3254 201.327 77.3254 197.2 75.3911 193.849L44.0824 139.621C42.1482 136.271 38.5735 134.207 34.705 134.207L-27.9123 134.207C-31.7809 134.207 -35.3556 136.271 -37.2898 139.621L-68.5985 193.849C-70.5328 197.2 -70.5328 201.327 -68.5985 204.677L-37.2898 258.906C-35.3556 262.256 -31.7809 264.32 -27.9124 264.32L34.7049 264.32C38.5735 264.32 42.1482 262.256 44.0824 258.906L75.3911 204.678Z" fill="#2B1616"/>
<path opacity="0.6" fill-rule="evenodd" clip-rule="evenodd" d="M53.2577 274.121L93.1549 205.017C95.2101 201.457 95.2101 197.071 93.1549 193.512L53.2577 124.408C51.2026 120.848 47.4045 118.655 43.2942 118.655L-36.5002 118.655C-40.6105 118.655 -44.4086 120.848 -46.4638 124.408L-86.3609 193.512C-88.4161 197.071 -88.4161 201.457 -86.3609 205.017L-46.4638 274.121C-44.4086 277.68 -40.6105 279.873 -36.5002 279.873L43.2941 279.873C47.4045 279.873 51.2026 277.68 53.2577 274.121ZM94.9132 206.032C97.331 201.844 97.331 196.684 94.9132 192.497L55.016 123.393C52.5982 119.205 48.1298 116.625 43.2942 116.625L-36.5002 116.625C-41.3359 116.625 -45.8042 119.205 -48.222 123.393L-88.1192 192.497C-90.5371 196.684 -90.5371 201.844 -88.1192 206.032L-48.2221 275.136C-45.8042 279.324 -41.3359 281.903 -36.5002 281.903L43.2941 281.903C48.1298 281.903 52.5982 279.324 55.016 275.136L94.9132 206.032Z" fill="#2B1616"/>
<path opacity="0.5" fill-rule="evenodd" clip-rule="evenodd" d="M63.409 291.703L113.458 205.016C115.513 201.457 115.513 197.071 113.458 193.511L63.409 106.825C61.3539 103.265 57.5558 101.072 53.4455 101.072L-46.6517 101.072C-50.7621 101.072 -54.5602 103.265 -56.6153 106.825L-106.664 193.511C-108.719 197.071 -108.719 201.457 -106.664 205.016L-56.6153 291.703C-54.5602 295.263 -50.7621 297.456 -46.6518 297.456L53.4454 297.456C57.5558 297.456 61.3539 295.263 63.409 291.703ZM115.216 206.032C117.634 201.844 117.634 196.684 115.216 192.496L65.1673 105.81C62.7495 101.622 58.2811 99.042 53.4455 99.042L-46.6517 99.042C-51.4874 99.042 -55.9558 101.622 -58.3736 105.81L-108.422 192.496C-110.84 196.684 -110.84 201.844 -108.422 206.032L-58.3736 292.718C-55.9558 296.906 -51.4874 299.486 -46.6518 299.486L53.4454 299.486C58.2811 299.486 62.7495 296.906 65.1673 292.718L115.216 206.032Z" fill="#2B1616"/>
<path opacity="0.4" fill-rule="evenodd" clip-rule="evenodd" d="M75.9052 305.225L131.416 209.077C134.922 203.004 134.922 195.523 131.416 189.451L75.9052 93.3023C72.3993 87.23 65.9202 83.4893 58.9085 83.4893L-52.1141 83.4893C-59.1258 83.4893 -65.6049 87.23 -69.1108 93.3023L-124.622 189.451C-128.128 195.523 -128.128 203.004 -124.622 209.077L-69.1108 305.225C-65.6049 311.298 -59.1258 315.038 -52.1141 315.038L58.9085 315.038C65.9202 315.038 72.3993 311.298 75.9052 305.225ZM133.175 210.092C137.043 203.391 137.043 195.136 133.175 188.436L77.6635 92.2872C73.7949 85.5867 66.6456 81.459 58.9085 81.459L-52.1141 81.459C-59.8512 81.459 -67.0005 85.5867 -70.8691 92.2872L-126.38 188.436C-130.249 195.136 -130.249 203.391 -126.38 210.092L-70.8691 306.24C-67.0005 312.941 -59.8512 317.069 -52.1141 317.069L58.9085 317.069C66.6456 317.069 73.7949 312.941 77.6635 306.24L133.175 210.092Z" fill="#2B1616"/>
<path opacity="0.3" fill-rule="evenodd" clip-rule="evenodd" d="M86.0565 322.808L151.719 209.077C155.225 203.004 155.225 195.523 151.719 189.451L86.0565 75.7193C82.5506 69.647 76.0715 65.9063 69.0598 65.9063L-62.2656 65.9063C-69.2774 65.9063 -75.7565 69.647 -79.2624 75.7193L-144.925 189.45C-148.431 195.523 -148.431 203.004 -144.925 209.077L-79.2624 322.808C-75.7565 328.88 -69.2774 332.621 -62.2657 332.621L69.0598 332.621C76.0715 332.621 82.5506 328.88 86.0565 322.808ZM153.477 210.092C157.346 203.391 157.346 195.136 153.477 188.435L87.8148 74.7042C83.9462 68.0037 76.7969 63.876 69.0598 63.876L-62.2656 63.876C-70.0027 63.876 -77.1521 68.0036 -81.0206 74.7042L-146.683 188.435C-150.552 195.136 -150.552 203.391 -146.683 210.092L-81.0207 323.823C-77.1521 330.523 -70.0028 334.651 -62.2657 334.651L69.0598 334.651C76.7969 334.651 83.9462 330.523 87.8148 323.823L153.477 210.092Z" fill="#2B1616"/>
<path opacity="0.2" fill-rule="evenodd" clip-rule="evenodd" d="M97.7704 337.684L170.459 211.784C174.932 204.037 174.932 194.492 170.459 186.744L97.7704 60.8443C93.2974 53.0969 85.0309 48.3242 76.0849 48.3242L-69.2917 48.3242C-78.2377 48.3242 -86.5042 53.0969 -90.9772 60.8443L-163.666 186.744C-168.139 194.492 -168.139 204.037 -163.666 211.784L-90.9772 337.684C-86.5042 345.432 -78.2377 350.204 -69.2917 350.204L76.0849 350.204C85.0309 350.204 93.2974 345.432 97.7704 337.684ZM172.217 212.8C177.053 204.424 177.053 194.105 172.217 185.729L99.5287 59.8292C94.693 51.4535 85.7563 46.2939 76.0849 46.2939L-69.2917 46.2939C-78.9631 46.2939 -87.8998 51.4535 -92.7355 59.8292L-165.424 185.729C-170.259 194.105 -170.259 204.424 -165.424 212.8L-92.7355 338.699C-87.8998 347.075 -78.9631 352.235 -69.2917 352.235L76.0849 352.235C85.7563 352.235 94.693 347.075 99.5287 338.699L172.217 212.8Z" fill="#2B1616"/>
<path opacity="0.1" fill-rule="evenodd" clip-rule="evenodd" d="M107.245 354.094L189.408 211.784C193.881 204.036 193.881 194.491 189.408 186.744L107.245 44.4332C102.772 36.6857 94.5055 31.9131 85.5595 31.9131L-78.7665 31.9131C-87.7125 31.9131 -95.979 36.6857 -100.452 44.4332L-182.615 186.744C-187.088 194.491 -187.088 204.036 -182.615 211.784L-100.452 354.094C-95.979 361.842 -87.7125 366.615 -78.7665 366.615L85.5595 366.615C94.5055 366.615 102.772 361.842 107.245 354.094ZM191.166 212.799C196.002 204.423 196.002 194.104 191.166 185.729L109.003 43.4181C104.168 35.0424 95.2308 29.8828 85.5595 29.8828L-78.7665 29.8828C-88.4379 29.8828 -97.3746 35.0424 -102.21 43.418L-184.373 185.729C-189.209 194.104 -189.209 204.423 -184.373 212.799L-102.21 355.11C-97.3746 363.485 -88.4379 368.645 -78.7665 368.645L85.5595 368.645C95.2308 368.645 104.168 363.485 109.003 355.11L191.166 212.799Z" fill="#2B1616"/>
<path fill-rule="evenodd" clip-rule="evenodd" d="M550.394 187.587L553.593 182.047C554.439 180.581 554.439 178.775 553.593 177.309L550.394 171.769C549.548 170.303 547.984 169.4 546.291 169.4L539.894 169.4C538.202 169.4 536.638 170.303 535.791 171.769L532.593 177.309C531.746 178.775 531.746 180.581 532.593 182.047L535.791 187.587C536.638 189.053 538.202 189.956 539.894 189.956L546.291 189.956C547.984 189.956 549.548 189.053 550.394 187.587ZM555.351 183.062C556.56 180.968 556.56 178.388 555.351 176.294L552.152 170.754C550.943 168.66 548.709 167.37 546.291 167.37L539.894 167.37C537.476 167.37 535.242 168.66 534.033 170.754L530.834 176.294C529.625 178.388 529.625 180.968 530.834 183.062L534.033 188.602C535.242 190.696 537.476 191.986 539.894 191.986L546.291 191.986C548.709 191.986 550.943 190.696 552.152 188.602L555.351 183.062Z" fill="#2B1616"/>
<path fill-rule="evenodd" clip-rule="evenodd" d="M560.937 204.493L573.505 182.723C574.593 180.839 574.593 178.517 573.505 176.632L560.937 154.863C559.849 152.978 557.838 151.817 555.662 151.817L530.524 151.817C528.348 151.817 526.338 152.978 525.25 154.863L512.681 176.632C511.593 178.517 511.593 180.839 512.681 182.723L525.249 204.493C526.338 206.377 528.348 207.538 530.524 207.538L555.662 207.538C557.838 207.538 559.849 206.377 560.937 204.493ZM575.264 183.738C576.714 181.226 576.714 178.13 575.264 175.617L562.695 153.848C561.244 151.335 558.563 149.787 555.662 149.787L530.524 149.787C527.623 149.787 524.942 151.335 523.491 153.848L510.923 175.617C509.472 178.13 509.472 181.226 510.923 183.738L523.491 205.508C524.942 208.021 527.623 209.569 530.524 209.569L555.662 209.569C558.563 209.569 561.244 208.021 562.695 205.508L575.264 183.738Z" fill="#2B1616"/>
<path opacity="0.9" fill-rule="evenodd" clip-rule="evenodd" d="M571.479 221.399L593.418 183.4C594.747 181.097 594.747 178.259 593.418 175.955L571.479 137.957C570.149 135.653 567.692 134.234 565.032 134.234L521.155 134.234C518.495 134.234 516.037 135.653 514.708 137.957L492.769 175.955C491.439 178.259 491.439 181.097 492.769 183.4L514.708 221.399C516.037 223.702 518.495 225.121 521.155 225.121L565.032 225.121C567.692 225.121 570.149 223.702 571.479 221.399ZM595.176 184.415C596.868 181.484 596.868 177.872 595.176 174.94L573.237 136.941C571.545 134.01 568.417 132.204 565.032 132.204L521.155 132.204C517.77 132.204 514.642 134.01 512.949 136.941L491.011 174.94C489.318 177.872 489.318 181.484 491.011 184.415L512.949 222.414C514.642 225.345 517.77 227.151 521.155 227.151L565.032 227.151C568.417 227.151 571.545 225.345 573.237 222.414L595.176 184.415Z" fill="#2B1616"/>
<path opacity="0.75" fill-rule="evenodd" clip-rule="evenodd" d="M582.021 238.305L613.33 184.076C614.902 181.354 614.902 178.001 613.33 175.279L582.021 121.05C580.45 118.328 577.545 116.651 574.402 116.651L511.785 116.651C508.642 116.651 505.737 118.328 504.166 121.05L472.857 175.279C471.285 178.001 471.285 181.354 472.857 184.076L504.166 238.305C505.737 241.027 508.642 242.704 511.785 242.704L574.402 242.704C577.545 242.704 580.45 241.027 582.021 238.305ZM615.088 185.092C617.023 181.741 617.023 177.614 615.088 174.263L583.78 120.035C581.845 116.685 578.271 114.621 574.402 114.621L511.785 114.621C507.916 114.621 504.342 116.685 502.407 120.035L471.099 174.263C469.165 177.614 469.165 181.741 471.099 185.092L502.407 239.32C504.342 242.67 507.916 244.734 511.785 244.734L574.402 244.734C578.271 244.734 581.845 242.67 583.78 239.32L615.088 185.092Z" fill="#2B1616"/>
<path opacity="0.6" fill-rule="evenodd" clip-rule="evenodd" d="M592.955 254.535L632.852 185.431C634.907 181.871 634.907 177.485 632.852 173.926L592.955 104.822C590.9 101.262 587.102 99.0693 582.991 99.0693L503.197 99.0693C499.087 99.0693 495.289 101.262 493.233 104.822L453.336 173.926C451.281 177.485 451.281 181.871 453.336 185.431L493.233 254.535C495.289 258.094 499.087 260.287 503.197 260.287L582.991 260.287C587.102 260.287 590.9 258.094 592.955 254.535ZM634.61 186.446C637.028 182.258 637.028 177.098 634.61 172.911L594.713 103.807C592.295 99.6189 587.827 97.0391 582.991 97.0391L503.197 97.0391C498.361 97.0391 493.893 99.6189 491.475 103.807L451.578 172.911C449.16 177.098 449.16 182.258 451.578 186.446L491.475 255.55C493.893 259.738 498.361 262.317 503.197 262.317L582.991 262.317C587.827 262.317 592.295 259.738 594.713 255.55L634.61 186.446Z" fill="#2B1616"/>
<path opacity="0.5" fill-rule="evenodd" clip-rule="evenodd" d="M603.106 272.117L653.155 185.431C655.21 181.871 655.21 177.485 653.155 173.926L603.106 87.2388C601.051 83.6792 597.253 81.4863 593.143 81.4863L493.046 81.4863C488.935 81.4863 485.137 83.6792 483.082 87.2388L433.033 173.926C430.978 177.485 430.978 181.871 433.033 185.43L483.082 272.117C485.137 275.677 488.935 277.87 493.046 277.87L593.143 277.87C597.253 277.87 601.051 275.677 603.106 272.117ZM654.913 186.446C657.331 182.258 657.331 177.098 654.913 172.91L604.865 86.2237C602.447 82.0359 597.978 79.4561 593.143 79.4561L493.046 79.456C488.21 79.456 483.742 82.0358 481.324 86.2237L431.275 172.91C428.857 177.098 428.857 182.258 431.275 186.446L481.324 273.132C483.741 277.32 488.21 279.9 493.046 279.9L593.143 279.9C597.978 279.9 602.447 277.32 604.865 273.132L654.913 186.446Z" fill="#2B1616"/>
<path opacity="0.4" fill-rule="evenodd" clip-rule="evenodd" d="M615.602 285.639L671.114 189.491C674.62 183.419 674.62 175.937 671.114 169.865L615.602 73.7164C612.097 67.644 605.617 63.9033 598.606 63.9033L487.583 63.9033C480.571 63.9033 474.092 67.644 470.586 73.7164L415.075 169.865C411.569 175.937 411.569 183.419 415.075 189.491L470.586 285.639C474.092 291.712 480.571 295.452 487.583 295.452L598.606 295.452C605.617 295.452 612.097 291.712 615.602 285.639ZM672.872 190.506C676.741 183.806 676.741 175.55 672.872 168.85L617.361 72.7012C613.492 66.0007 606.343 61.873 598.606 61.873L487.583 61.873C479.846 61.873 472.697 66.0007 468.828 72.7012L413.317 168.85C409.448 175.55 409.448 183.805 413.317 190.506L468.828 286.654C472.697 293.355 479.846 297.483 487.583 297.483L598.606 297.483C606.343 297.483 613.492 293.355 617.361 286.654L672.872 190.506Z" fill="#2B1616"/>
<path opacity="0.3" fill-rule="evenodd" clip-rule="evenodd" d="M625.754 303.222L691.416 189.491C694.922 183.418 694.922 175.937 691.416 169.865L625.754 56.1334C622.248 50.061 615.769 46.3203 608.757 46.3203L477.432 46.3203C470.42 46.3203 463.941 50.061 460.435 56.1334L394.772 169.865C391.266 175.937 391.266 183.418 394.772 189.491L460.435 303.222C463.941 309.294 470.42 313.035 477.432 313.035L608.757 313.035C615.769 313.035 622.248 309.294 625.754 303.222ZM693.175 190.506C697.043 183.805 697.043 175.55 693.175 168.849L627.512 55.1182C623.644 48.4177 616.494 44.29 608.757 44.29L477.432 44.29C469.695 44.29 462.545 48.4177 458.677 55.1182L393.014 168.849C389.145 175.55 389.145 183.805 393.014 190.506L458.677 304.237C462.545 310.938 469.695 315.065 477.432 315.065L608.757 315.065C616.494 315.065 623.643 310.938 627.512 304.237L693.175 190.506Z" fill="#2B1616"/>
<path opacity="0.2" fill-rule="evenodd" clip-rule="evenodd" d="M637.468 318.098L710.156 192.198C714.629 184.451 714.629 174.906 710.156 167.158L637.468 41.2584C632.995 33.5109 624.728 28.7383 615.782 28.7383L470.406 28.7383C461.46 28.7383 453.193 33.5109 448.72 41.2584L376.032 167.158C371.559 174.906 371.559 184.451 376.032 192.198L448.72 318.098C453.193 325.846 461.46 330.618 470.406 330.618L615.782 330.618C624.728 330.618 632.995 325.846 637.468 318.098ZM711.914 193.214C716.75 184.838 716.75 174.519 711.914 166.143L639.226 40.2433C634.39 31.8676 625.454 26.708 615.782 26.708L470.406 26.708C460.734 26.708 451.797 31.8676 446.962 40.2432L374.273 166.143C369.438 174.519 369.438 184.838 374.273 193.214L446.962 319.113C451.797 327.489 460.734 332.649 470.406 332.649L615.782 332.649C625.454 332.649 634.39 327.489 639.226 319.113L711.914 193.214Z" fill="#2B1616"/>
<path opacity="0.1" fill-rule="evenodd" clip-rule="evenodd" d="M646.942 334.508L729.105 192.198C733.578 184.451 733.578 174.905 729.105 167.158L646.942 24.8473C642.469 17.0998 634.203 12.3272 625.257 12.3272L460.931 12.3272C451.985 12.3271 443.718 17.0998 439.245 24.8472L357.082 167.158C352.609 174.905 352.609 184.45 357.082 192.198L439.245 334.508C443.718 342.256 451.985 347.029 460.931 347.029L625.257 347.029C634.203 347.029 642.469 342.256 646.942 334.508ZM730.863 193.213C735.699 184.837 735.699 174.518 730.863 166.143L648.7 23.8321C643.865 15.4565 634.928 10.2969 625.257 10.2969L460.931 10.2969C451.259 10.2969 442.323 15.4565 437.487 23.8321L355.324 166.143C350.488 174.518 350.488 184.837 355.324 193.213L437.487 335.524C442.323 343.899 451.259 349.059 460.931 349.059L625.257 349.059C634.928 349.059 643.865 343.899 648.7 335.524L730.863 193.213Z" fill="#2B1616"/>
<path fill-rule="evenodd" clip-rule="evenodd" d="M275.468 360.234L278.667 354.693C279.513 353.227 279.513 351.422 278.667 349.956L275.468 344.416C274.622 342.95 273.058 342.047 271.366 342.047L264.968 342.047C263.276 342.047 261.712 342.95 260.866 344.416L257.667 349.956C256.821 351.422 256.821 353.227 257.667 354.693L260.866 360.234C261.712 361.699 263.276 362.602 264.968 362.602L271.366 362.602C273.058 362.602 274.622 361.699 275.468 360.234ZM280.425 355.708C281.634 353.614 281.634 351.035 280.425 348.941L277.227 343.4C276.018 341.307 273.784 340.017 271.366 340.017L264.968 340.017C262.55 340.017 260.316 341.307 259.107 343.4L255.909 348.941C254.7 351.035 254.7 353.614 255.909 355.708L259.107 361.249C260.316 363.343 262.55 364.633 264.968 364.633L271.366 364.633C273.784 364.633 276.018 363.343 277.227 361.249L280.425 355.708Z" fill="#2B1616"/>
<path fill-rule="evenodd" clip-rule="evenodd" d="M286.011 377.139L298.579 355.37C299.667 353.485 299.667 351.163 298.579 349.279L286.011 327.509C284.923 325.625 282.912 324.464 280.736 324.464L255.599 324.464C253.423 324.464 251.412 325.625 250.324 327.509L237.755 349.279C236.667 351.163 236.667 353.485 237.755 355.37L250.324 377.139C251.412 379.024 253.423 380.185 255.599 380.185L280.736 380.185C282.912 380.185 284.923 379.024 286.011 377.139ZM300.338 356.385C301.788 353.872 301.788 350.776 300.338 348.264L287.769 326.494C286.318 323.981 283.637 322.434 280.736 322.434L255.599 322.434C252.697 322.434 250.016 323.981 248.565 326.494L235.997 348.264C234.546 350.776 234.546 353.872 235.997 356.385L248.565 378.155C250.016 380.667 252.697 382.215 255.599 382.215L280.736 382.215C283.637 382.215 286.318 380.667 287.769 378.155L300.338 356.385Z" fill="#2B1616"/>
<path opacity="0.9" fill-rule="evenodd" clip-rule="evenodd" d="M296.553 394.045L318.492 356.046C319.822 353.743 319.822 350.905 318.492 348.602L296.553 310.603C295.223 308.3 292.766 306.881 290.106 306.881L246.229 306.881C243.569 306.881 241.112 308.3 239.782 310.603L217.843 348.602C216.513 350.905 216.513 353.743 217.843 356.046L239.782 394.045C241.112 396.349 243.569 397.767 246.229 397.767L290.106 397.767C292.766 397.767 295.223 396.349 296.553 394.045ZM320.25 357.061C321.943 354.13 321.943 350.518 320.25 347.587L298.311 309.588C296.619 306.656 293.491 304.851 290.106 304.851L246.229 304.851C242.844 304.851 239.716 306.656 238.024 309.588L216.085 347.587C214.392 350.518 214.392 354.13 216.085 357.061L238.024 395.06C239.716 397.992 242.844 399.798 246.229 399.798L290.106 399.798C293.491 399.798 296.619 397.992 298.311 395.06L320.25 357.061Z" fill="#2B1616"/>
<path opacity="0.75" fill-rule="evenodd" clip-rule="evenodd" d="M307.096 410.951L338.404 356.723C339.976 354.001 339.976 350.647 338.404 347.925L307.096 293.697C305.524 290.975 302.62 289.298 299.476 289.298L236.859 289.298C233.716 289.298 230.812 290.975 229.24 293.697L197.931 347.925C196.36 350.647 196.36 354.001 197.931 356.723L229.24 410.951C230.812 413.673 233.716 415.35 236.859 415.35L299.476 415.35C302.62 415.35 305.524 413.673 307.096 410.951ZM340.163 357.738C342.097 354.388 342.097 350.26 340.163 346.91L308.854 292.682C306.92 289.331 303.345 287.268 299.476 287.268L236.859 287.268C232.991 287.268 229.416 289.331 227.482 292.682L196.173 346.91C194.239 350.26 194.239 354.388 196.173 357.738L227.482 411.966C229.416 415.316 232.991 417.38 236.859 417.38L299.476 417.38C303.345 417.38 306.92 415.316 308.854 411.966L340.163 357.738Z" fill="#2B1616"/>
<path opacity="0.6" fill-rule="evenodd" clip-rule="evenodd" d="M318.029 427.181L357.926 358.077C359.982 354.518 359.982 350.132 357.926 346.572L318.029 277.468C315.974 273.909 312.176 271.716 308.066 271.716L228.271 271.716C224.161 271.716 220.363 273.909 218.308 277.468L178.411 346.572C176.355 350.132 176.355 354.518 178.411 358.077L218.308 427.181C220.363 430.741 224.161 432.934 228.271 432.934L308.066 432.934C312.176 432.934 315.974 430.741 318.029 427.181ZM359.685 359.092C362.103 354.905 362.103 349.745 359.685 345.557L319.788 276.453C317.37 272.265 312.901 269.686 308.066 269.686L228.271 269.686C223.436 269.686 218.967 272.265 216.549 276.453L176.652 345.557C174.234 349.745 174.234 354.905 176.652 359.092L216.549 428.196C218.967 432.384 223.436 434.964 228.271 434.964L308.066 434.964C312.901 434.964 317.37 432.384 319.787 428.196L359.685 359.092Z" fill="#2B1616"/>
<path opacity="0.5" fill-rule="evenodd" clip-rule="evenodd" d="M328.181 444.764L378.229 358.077C380.284 354.517 380.284 350.132 378.229 346.572L328.181 259.885C326.125 256.326 322.327 254.133 318.217 254.133L218.12 254.133C214.009 254.133 210.211 256.326 208.156 259.885L158.108 346.572C156.052 350.132 156.052 354.517 158.108 358.077L208.156 444.764C210.211 448.323 214.009 450.516 218.12 450.516L318.217 450.516C322.327 450.516 326.125 448.323 328.181 444.764ZM379.987 359.092C382.405 354.904 382.405 349.745 379.987 345.557L329.939 258.87C327.521 254.682 323.053 252.103 318.217 252.103L218.12 252.103C213.284 252.103 208.816 254.682 206.398 258.87L156.349 345.557C153.931 349.745 153.931 354.904 156.349 359.092L206.398 445.779C208.816 449.967 213.284 452.546 218.12 452.546L318.217 452.546C323.053 452.546 327.521 449.967 329.939 445.779L379.987 359.092Z" fill="#2B1616"/>
<path opacity="0.4" fill-rule="evenodd" clip-rule="evenodd" d="M340.675 458.286L396.186 362.137C399.692 356.065 399.692 348.584 396.186 342.511L340.675 246.363C337.169 240.291 330.69 236.55 323.678 236.55L212.655 236.55C205.644 236.55 199.165 240.291 195.659 246.363L140.147 342.511C136.642 348.584 136.642 356.065 140.147 362.137L195.659 458.286C199.165 464.358 205.644 468.099 212.655 468.099L323.678 468.099C330.69 468.099 337.169 464.358 340.675 458.286ZM397.944 363.153C401.813 356.452 401.813 348.197 397.944 341.496L342.433 245.348C338.564 238.647 331.415 234.52 323.678 234.52L212.655 234.52C204.918 234.52 197.769 238.647 193.9 245.348L138.389 341.496C134.521 348.197 134.521 356.452 138.389 363.153L193.9 459.301C197.769 466.001 204.918 470.129 212.655 470.129L323.678 470.129C331.415 470.129 338.564 466.001 342.433 459.301L397.944 363.153Z" fill="#2B1616"/>
<path opacity="0.3" fill-rule="evenodd" clip-rule="evenodd" d="M350.826 475.868L416.489 362.137C419.995 356.065 419.995 348.583 416.489 342.511L350.826 228.78C347.32 222.708 340.841 218.967 333.829 218.967L202.504 218.967C195.492 218.967 189.013 222.708 185.507 228.78L119.844 342.511C116.339 348.583 116.339 356.065 119.844 362.137L185.507 475.868C189.013 481.941 195.492 485.681 202.504 485.681L333.829 485.681C340.841 485.681 347.32 481.941 350.826 475.868ZM418.247 363.152C422.116 356.452 422.116 348.196 418.247 341.496L352.584 227.765C348.716 221.064 341.566 216.937 333.829 216.937L202.504 216.937C194.767 216.937 187.617 221.064 183.749 227.765L118.086 341.496C114.218 348.196 114.218 356.452 118.086 363.152L183.749 476.883C187.617 483.584 194.767 487.712 202.504 487.712L333.829 487.712C341.566 487.712 348.716 483.584 352.584 476.883L418.247 363.152Z" fill="#2B1616"/>
<path opacity="0.2" fill-rule="evenodd" clip-rule="evenodd" d="M362.542 490.745L435.23 364.845C439.703 357.097 439.703 347.552 435.23 339.805L362.542 213.905C358.069 206.157 349.802 201.385 340.856 201.385L195.48 201.385C186.534 201.385 178.267 206.157 173.794 213.905L101.106 339.805C96.633 347.552 96.633 357.097 101.106 364.845L173.794 490.745C178.267 498.492 186.534 503.265 195.48 503.265L340.856 503.265C349.802 503.265 358.069 498.492 362.542 490.745ZM436.988 365.86C441.824 357.484 441.824 347.165 436.988 338.79L364.3 212.89C359.464 204.514 350.528 199.354 340.856 199.354L195.48 199.354C185.808 199.354 176.872 204.514 172.036 212.89L99.3477 338.79C94.512 347.165 94.512 357.484 99.3477 365.86L172.036 491.76C176.872 500.136 185.808 505.295 195.48 505.295L340.856 505.295C350.528 505.295 359.464 500.136 364.3 491.76L436.988 365.86Z" fill="#2B1616"/>
<path opacity="0.1" fill-rule="evenodd" clip-rule="evenodd" d="M372.016 507.155L454.179 364.845C458.652 357.097 458.652 347.552 454.179 339.804L372.016 197.494C367.543 189.746 359.277 184.974 350.331 184.974L186.005 184.974C177.059 184.974 168.793 189.746 164.32 197.494L82.1565 339.804C77.6835 347.552 77.6835 357.097 82.1565 364.844L164.32 507.155C168.792 514.902 177.059 519.675 186.005 519.675L350.331 519.675C359.277 519.675 367.543 514.902 372.016 507.155ZM455.938 365.86C460.773 357.484 460.773 347.165 455.938 338.789L373.775 196.479C368.939 188.103 360.002 182.943 350.331 182.943L186.005 182.943C176.334 182.943 167.397 188.103 162.561 196.479L80.3982 338.789C75.5625 347.165 75.5625 357.484 80.3982 365.86L162.561 508.17C167.397 516.546 176.334 521.705 186.005 521.705L350.331 521.705C360.002 521.705 368.939 516.546 373.775 508.17L455.938 365.86Z" fill="#2B1616"/>
<path opacity="0.6" fill-rule="evenodd" clip-rule="evenodd" d="M867.883 430.808L907.78 361.704C909.835 358.145 909.835 353.759 907.78 350.199L867.883 281.095C865.828 277.536 862.029 275.343 857.919 275.343L778.125 275.343C774.014 275.343 770.216 277.536 768.161 281.095L728.264 350.199C726.209 353.759 726.209 358.144 728.264 361.704L768.161 430.808C770.216 434.368 774.014 436.561 778.125 436.561L857.919 436.561C862.029 436.561 865.828 434.368 867.883 430.808ZM909.538 362.719C911.956 358.531 911.956 353.372 909.538 349.184L869.641 280.08C867.223 275.892 862.755 273.312 857.919 273.312L778.125 273.312C773.289 273.312 768.821 275.892 766.403 280.08L726.506 349.184C724.088 353.372 724.088 358.531 726.506 362.719L766.403 431.823C768.821 436.011 773.289 438.591 778.125 438.591L857.919 438.591C862.755 438.591 867.223 436.011 869.641 431.823L909.538 362.719Z" fill="#2B1616"/>
<path opacity="0.5" fill-rule="evenodd" clip-rule="evenodd" d="M878.034 448.391L928.083 361.704C930.138 358.144 930.138 353.759 928.083 350.199L878.034 263.512C875.979 259.953 872.181 257.76 868.07 257.76L767.973 257.76C763.863 257.76 760.065 259.953 758.01 263.512L707.961 350.199C705.906 353.759 705.906 358.144 707.961 361.704L758.01 448.391C760.065 451.95 763.863 454.143 767.973 454.143L868.07 454.143C872.181 454.143 875.979 451.95 878.034 448.391ZM929.841 362.719C932.259 358.531 932.259 353.372 929.841 349.184L879.792 262.497C877.374 258.309 872.906 255.729 868.07 255.729L767.973 255.729C763.138 255.729 758.669 258.309 756.251 262.497L706.203 349.184C703.785 353.372 703.785 358.531 706.203 362.719L756.251 449.406C758.669 453.594 763.138 456.173 767.973 456.173L868.07 456.173C872.906 456.173 877.374 453.594 879.792 449.406L929.841 362.719Z" fill="#2B1616"/>
<path opacity="0.4" fill-rule="evenodd" clip-rule="evenodd" d="M890.53 461.913L946.041 365.764C949.547 359.692 949.547 352.211 946.041 346.138L890.53 249.99C887.024 243.917 880.545 240.177 873.533 240.177L762.511 240.177C755.499 240.177 749.02 243.917 745.514 249.99L690.003 346.138C686.497 352.211 686.497 359.692 690.003 365.764L745.514 461.913C749.02 467.985 755.499 471.726 762.511 471.726L873.533 471.726C880.545 471.726 887.024 467.985 890.53 461.913ZM947.8 366.779C951.668 360.079 951.668 351.824 947.8 345.123L892.288 248.975C888.42 242.274 881.271 238.146 873.533 238.146L762.511 238.146C754.774 238.146 747.624 242.274 743.756 248.975L688.245 345.123C684.376 351.824 684.376 360.079 688.245 366.779L743.756 462.928C747.624 469.628 754.774 473.756 762.511 473.756L873.533 473.756C881.271 473.756 888.42 469.628 892.288 462.928L947.8 366.779Z" fill="#2B1616"/>
<path opacity="0.3" fill-rule="evenodd" clip-rule="evenodd" d="M900.681 479.495L966.344 365.764C969.85 359.692 969.85 352.21 966.344 346.138L900.681 232.407C897.176 226.334 890.697 222.594 883.685 222.594L752.359 222.594C745.348 222.594 738.869 226.334 735.363 232.407L669.7 346.138C666.194 352.21 666.194 359.692 669.7 365.764L735.363 479.495C738.869 485.568 745.348 489.308 752.359 489.308L883.685 489.308C890.697 489.308 897.176 485.568 900.681 479.495ZM968.102 366.779C971.971 360.079 971.971 351.823 968.102 345.123L902.44 231.392C898.571 224.691 891.422 220.563 883.685 220.563L752.359 220.563C744.622 220.563 737.473 224.691 733.604 231.392L667.942 345.123C664.073 351.823 664.073 360.079 667.942 366.779L733.604 480.51C737.473 487.211 744.622 491.339 752.359 491.339L883.685 491.339C891.422 491.339 898.571 487.211 902.44 480.51L968.102 366.779Z" fill="#2B1616"/>
<path opacity="0.2" fill-rule="evenodd" clip-rule="evenodd" d="M912.395 494.372L985.084 368.472C989.557 360.724 989.557 351.179 985.084 343.432L912.395 217.532C907.922 209.784 899.656 205.012 890.71 205.012L745.333 205.012C736.387 205.012 728.121 209.784 723.648 217.532L650.959 343.432C646.486 351.179 646.486 360.724 650.959 368.472L723.648 494.372C728.121 502.119 736.387 506.892 745.333 506.892L890.71 506.892C899.656 506.892 907.922 502.119 912.395 494.372ZM986.842 369.487C991.678 361.111 991.678 350.792 986.842 342.417L914.154 216.517C909.318 208.141 900.381 202.981 890.71 202.981L745.333 202.981C735.662 202.981 726.725 208.141 721.89 216.517L649.201 342.417C644.366 350.792 644.366 361.111 649.201 369.487L721.89 495.387C726.725 503.763 735.662 508.922 745.333 508.922L890.71 508.922C900.381 508.922 909.318 503.763 914.154 495.387L986.842 369.487Z" fill="#2B1616"/>
<path opacity="0.1" fill-rule="evenodd" clip-rule="evenodd" d="M921.87 510.782L1004.03 368.471C1008.51 360.724 1008.51 351.179 1004.03 343.431L921.87 201.121C917.397 193.373 909.13 188.601 900.184 188.601L735.858 188.601C726.912 188.601 718.646 193.373 714.173 201.121L632.01 343.431C627.537 351.179 627.537 360.724 632.01 368.471L714.173 510.782C718.646 518.529 726.912 523.302 735.858 523.302L900.184 523.302C909.13 523.302 917.397 518.529 921.87 510.782ZM1005.79 369.487C1010.63 361.111 1010.63 350.792 1005.79 342.416L923.628 200.106C918.793 191.73 909.856 186.57 900.184 186.57L735.858 186.57C726.187 186.57 717.25 191.73 712.415 200.106L630.252 342.416C625.416 350.792 625.416 361.111 630.252 369.487L712.415 511.797C717.25 520.173 726.187 525.332 735.858 525.332L900.184 525.332C909.856 525.332 918.793 520.173 923.628 511.797L1005.79 369.487Z" fill="#2B1616"/>
<path fill-rule="evenodd" clip-rule="evenodd" d="M19.4019 529.251L22.6007 523.711C23.4469 522.245 23.4469 520.439 22.6007 518.973L19.4019 513.433C18.5557 511.967 16.9918 511.064 15.2993 511.064L8.90185 511.064C7.20937 511.064 5.64544 511.967 4.7992 513.433L1.60048 518.973C0.75424 520.439 0.754239 522.245 1.60048 523.711L4.7992 529.251C5.64544 530.717 7.20936 531.62 8.90185 531.62L15.2993 531.62C16.9918 531.62 18.5557 530.717 19.4019 529.251ZM24.3589 524.726C25.5679 522.632 25.5679 520.052 24.3589 517.958L21.1602 512.418C19.9513 510.324 17.7171 509.034 15.2993 509.034L8.90185 509.034C6.48401 509.034 4.24984 510.324 3.04092 512.418L-0.157795 517.958C-1.36672 520.052 -1.36672 522.632 -0.157796 524.726L3.04092 530.266C4.24984 532.36 6.48401 533.65 8.90185 533.65L15.2993 533.65C17.7171 533.65 19.9513 532.36 21.1602 530.266L24.3589 524.726Z" fill="#2B1616"/>
<path fill-rule="evenodd" clip-rule="evenodd" d="M29.9444 546.157L42.5131 524.387C43.6011 522.503 43.6011 520.181 42.5131 518.297L29.9444 496.527C28.8563 494.642 26.8456 493.481 24.6695 493.481L-0.46785 493.481C-2.6439 493.481 -4.65466 494.642 -5.74269 496.527L-18.3114 518.297C-19.3994 520.181 -19.3994 522.503 -18.3114 524.387L-5.74269 546.157C-4.65466 548.041 -2.6439 549.202 -0.467845 549.202L24.6695 549.202C26.8456 549.202 28.8563 548.041 29.9444 546.157ZM44.2713 525.403C45.722 522.89 45.722 519.794 44.2713 517.281L31.7027 495.512C30.252 492.999 27.5709 491.451 24.6695 491.451L-0.46785 491.451C-3.36926 491.451 -6.05027 492.999 -7.50097 495.512L-20.0697 517.281C-21.5204 519.794 -21.5204 522.89 -20.0697 525.403L-7.50097 547.172C-6.05027 549.685 -3.36926 551.233 -0.467845 551.233L24.6695 551.233C27.5709 551.233 30.252 549.685 31.7027 547.172L44.2713 525.403Z" fill="#2B1616"/>
<path opacity="0.9" fill-rule="evenodd" clip-rule="evenodd" d="M40.4868 563.063L62.4255 525.064C63.7553 522.761 63.7553 519.923 62.4255 517.62L40.4868 479.621C39.157 477.317 36.6994 475.898 34.0398 475.898L-9.83756 475.898C-12.4972 475.898 -14.9548 477.317 -16.2846 479.621L-38.2233 517.62C-39.5531 519.923 -39.5531 522.761 -38.2233 525.064L-16.2846 563.063C-14.9548 565.366 -12.4972 566.785 -9.83756 566.785L34.0398 566.785C36.6994 566.785 39.157 565.366 40.4868 563.063ZM64.1838 526.079C65.8762 523.148 65.8762 519.536 64.1838 516.604L42.2451 478.605C40.5526 475.674 37.4248 473.868 34.0398 473.868L-9.83755 473.868C-13.2225 473.868 -16.3504 475.674 -18.0429 478.605L-39.9815 516.604C-41.674 519.536 -41.674 523.148 -39.9815 526.079L-18.0429 564.078C-16.3504 567.009 -13.2225 568.815 -9.83756 568.815L34.0398 568.815C37.4248 568.815 40.5526 567.009 42.2451 564.078L64.1838 526.079Z" fill="#2B1616"/>
<path opacity="0.75" fill-rule="evenodd" clip-rule="evenodd" d="M51.0292 579.969L82.3379 525.74C83.9095 523.018 83.9095 519.665 82.3379 516.943L51.0292 462.714C49.4576 459.992 46.5532 458.315 43.41 458.315L-19.2073 458.315C-22.3505 458.315 -25.2549 459.992 -26.8265 462.714L-58.1351 516.943C-59.7067 519.665 -59.7067 523.018 -58.1351 525.74L-26.8265 579.969C-25.2549 582.691 -22.3505 584.368 -19.2073 584.368L43.41 584.368C46.5532 584.368 49.4576 582.691 51.0292 579.969ZM84.0962 526.756C86.0304 523.405 86.0304 519.278 84.0962 515.927L52.7875 461.699C50.8533 458.349 47.2786 456.285 43.41 456.285L-19.2073 456.285C-23.0758 456.285 -26.6505 458.349 -28.5848 461.699L-59.8934 515.927C-61.8277 519.278 -61.8277 523.405 -59.8934 526.756L-28.5848 580.984C-26.6505 584.334 -23.0758 586.398 -19.2073 586.398L43.41 586.398C47.2786 586.398 50.8532 584.334 52.7875 580.984L84.0962 526.756Z" fill="#2B1616"/>
<path opacity="0.6" fill-rule="evenodd" clip-rule="evenodd" d="M61.9628 596.199L101.86 527.095C103.915 523.535 103.915 519.149 101.86 515.59L61.9628 446.486C59.9077 442.926 56.1096 440.733 51.9992 440.733L-27.7951 440.733C-31.9054 440.733 -35.7035 442.926 -37.7587 446.486L-77.6559 515.59C-79.711 519.149 -79.711 523.535 -77.6559 527.095L-37.7587 596.199C-35.7035 599.758 -31.9054 601.951 -27.7951 601.951L51.9992 601.951C56.1095 601.951 59.9076 599.758 61.9628 596.199ZM103.618 528.11C106.036 523.922 106.036 518.762 103.618 514.575L63.7211 445.471C61.3033 441.283 56.8349 438.703 51.9992 438.703L-27.7951 438.703C-32.6308 438.703 -37.0991 441.283 -39.517 445.471L-79.4141 514.575C-81.832 518.762 -81.832 523.922 -79.4141 528.11L-39.517 597.214C-37.0991 601.402 -32.6308 603.981 -27.7951 603.981L51.9992 603.981C56.8349 603.981 61.3032 601.402 63.7211 597.214L103.618 528.11Z" fill="#2B1616"/>
<path opacity="0.5" fill-rule="evenodd" clip-rule="evenodd" d="M72.1141 613.781L122.163 527.095C124.218 523.535 124.218 519.149 122.163 515.59L72.1141 428.903C70.059 425.343 66.2609 423.15 62.1505 423.15L-37.9467 423.15C-42.057 423.15 -45.8551 425.343 -47.9102 428.903L-97.9589 515.59C-100.014 519.149 -100.014 523.535 -97.9589 527.095L-47.9103 613.781C-45.8551 617.341 -42.057 619.534 -37.9467 619.534L62.1505 619.534C66.2609 619.534 70.0589 617.341 72.1141 613.781ZM123.921 528.11C126.339 523.922 126.339 518.762 123.921 514.574L73.8724 427.888C71.4546 423.7 66.9862 421.12 62.1505 421.12L-37.9467 421.12C-42.7823 421.12 -47.2507 423.7 -49.6685 427.888L-99.7172 514.574C-102.135 518.762 -102.135 523.922 -99.7172 528.11L-49.6685 614.796C-47.2507 618.984 -42.7824 621.564 -37.9467 621.564L62.1505 621.564C66.9862 621.564 71.4546 618.984 73.8724 614.796L123.921 528.11Z" fill="#2B1616"/>
<path opacity="0.4" fill-rule="evenodd" clip-rule="evenodd" d="M84.6103 627.303L140.122 531.155C143.627 525.083 143.627 517.601 140.122 511.529L84.6103 415.38C81.1044 409.308 74.6253 405.567 67.6136 405.567L-43.409 405.567C-50.4207 405.567 -56.8998 409.308 -60.4057 415.38L-115.917 511.529C-119.423 517.601 -119.423 525.083 -115.917 531.155L-60.4057 627.303C-56.8999 633.376 -50.4207 637.116 -43.409 637.116L67.6136 637.116C74.6253 637.116 81.1044 633.376 84.6103 627.303ZM141.88 532.17C145.748 525.47 145.748 517.214 141.88 510.514L86.3686 414.365C82.5 407.665 75.3507 403.537 67.6136 403.537L-43.409 403.537C-51.1461 403.537 -58.2955 407.665 -62.164 414.365L-117.675 510.514C-121.544 517.214 -121.544 525.47 -117.675 532.17L-62.164 628.318C-58.2955 635.019 -51.1461 639.147 -43.409 639.147L67.6136 639.147C75.3506 639.147 82.5 635.019 86.3685 628.318L141.88 532.17Z" fill="#2B1616"/>
<path opacity="0.3" fill-rule="evenodd" clip-rule="evenodd" d="M94.7596 644.886L160.422 531.155C163.928 525.082 163.928 517.601 160.422 511.529L94.7596 397.797C91.2538 391.725 84.7747 387.984 77.7629 387.984L-53.5625 387.984C-60.5743 387.984 -67.0534 391.725 -70.5592 397.797L-136.222 511.529C-139.728 517.601 -139.728 525.082 -136.222 531.155L-70.5592 644.886C-67.0534 650.958 -60.5743 654.699 -53.5625 654.699L77.7629 654.699C84.7746 654.699 91.2537 650.958 94.7596 644.886ZM162.181 532.17C166.049 525.469 166.049 517.214 162.181 510.513L96.5179 396.782C92.6494 390.082 85.5 385.954 77.7629 385.954L-53.5625 385.954C-61.2996 385.954 -68.449 390.082 -72.3175 396.782L-137.98 510.513C-141.849 517.214 -141.849 525.469 -137.98 532.17L-72.3175 645.901C-68.449 652.602 -61.2996 656.729 -53.5625 656.729L77.7629 656.729C85.5 656.729 92.6493 652.602 96.5179 645.901L162.181 532.17Z" fill="#2B1616"/>
<path opacity="0.2" fill-rule="evenodd" clip-rule="evenodd" d="M106.475 659.762L179.164 533.863C183.637 526.115 183.637 516.57 179.164 508.822L106.475 382.922C102.002 375.175 93.736 370.402 84.79 370.402L-60.5866 370.402C-69.5327 370.402 -77.7991 375.175 -82.2721 382.922L-154.96 508.822C-159.433 516.57 -159.433 526.115 -154.96 533.863L-82.2721 659.762C-77.7991 667.51 -69.5327 672.283 -60.5867 672.283L84.79 672.283C93.736 672.283 102.002 667.51 106.475 659.762ZM180.922 534.878C185.758 526.502 185.758 516.183 180.922 507.807L108.234 381.907C103.398 373.532 94.4614 368.372 84.79 368.372L-60.5866 368.372C-70.258 368.372 -79.1947 373.532 -84.0304 381.907L-156.719 507.807C-161.554 516.183 -161.554 526.502 -156.719 534.878L-84.0304 660.778C-79.1947 669.153 -70.258 674.313 -60.5867 674.313L84.79 674.313C94.4613 674.313 103.398 669.153 108.234 660.778L180.922 534.878Z" fill="#2B1616"/>
<path opacity="0.1" fill-rule="evenodd" clip-rule="evenodd" d="M115.95 676.173L198.113 533.862C202.586 526.115 202.586 516.569 198.113 508.822L115.95 366.511C111.477 358.764 103.211 353.991 94.2646 353.991L-70.0614 353.991C-79.0074 353.991 -87.2739 358.764 -91.7469 366.511L-173.91 508.822C-178.383 516.569 -178.383 526.115 -173.91 533.862L-91.7469 676.173C-87.2739 683.92 -79.0075 688.693 -70.0614 688.693L94.2645 688.693C103.211 688.693 111.477 683.92 115.95 676.173ZM199.871 534.877C204.707 526.502 204.707 516.182 199.871 507.807L117.708 365.496C112.873 357.121 103.936 351.961 94.2646 351.961L-70.0614 351.961C-79.7328 351.961 -88.6695 357.121 -93.5052 365.496L-175.668 507.807C-180.504 516.182 -180.504 526.502 -175.668 534.877L-93.5052 677.188C-88.6695 685.563 -79.7328 690.723 -70.0614 690.723L94.2645 690.723C103.936 690.723 112.873 685.563 117.708 677.188L199.871 534.877Z" fill="#2B1616"/>
<path fill-rule="evenodd" clip-rule="evenodd" d="M559.099 509.665L562.298 504.125C563.144 502.659 563.144 500.853 562.298 499.388L559.099 493.847C558.253 492.381 556.689 491.479 554.997 491.479L548.599 491.479C546.907 491.479 545.343 492.381 544.496 493.847L541.298 499.388C540.452 500.853 540.452 502.659 541.298 504.125L544.496 509.665C545.343 511.131 546.907 512.034 548.599 512.034L554.997 512.034C556.689 512.034 558.253 511.131 559.099 509.665ZM564.056 505.14C565.265 503.046 565.265 500.466 564.056 498.372L560.857 492.832C559.649 490.738 557.414 489.448 554.997 489.448L548.599 489.448C546.181 489.448 543.947 490.738 542.738 492.832L539.539 498.372C538.331 500.466 538.331 503.046 539.539 505.14L542.738 510.68C543.947 512.774 546.181 514.064 548.599 514.064L554.997 514.064C557.414 514.064 559.649 512.774 560.857 510.68L564.056 505.14Z" fill="#2B1616"/>
<path fill-rule="evenodd" clip-rule="evenodd" d="M569.642 526.571L582.21 504.801C583.298 502.917 583.298 500.595 582.21 498.711L569.642 476.941C568.554 475.056 566.543 473.896 564.367 473.896L539.229 473.896C537.053 473.896 535.043 475.056 533.955 476.941L521.386 498.711C520.298 500.595 520.298 502.917 521.386 504.801L533.955 526.571C535.043 528.456 537.053 529.616 539.229 529.616L564.367 529.616C566.543 529.616 568.554 528.456 569.642 526.571ZM583.969 505.817C585.419 503.304 585.419 500.208 583.969 497.695L571.4 475.926C569.949 473.413 567.268 471.865 564.367 471.865L539.229 471.865C536.328 471.865 533.647 473.413 532.196 475.926L519.628 497.695C518.177 500.208 518.177 503.304 519.628 505.817L532.196 527.586C533.647 530.099 536.328 531.647 539.229 531.647L564.367 531.647C567.268 531.647 569.949 530.099 571.4 527.586L583.969 505.817Z" fill="#2B1616"/>
<path opacity="0.9" fill-rule="evenodd" clip-rule="evenodd" d="M580.184 543.477L602.123 505.478C603.453 503.175 603.453 500.337 602.123 498.034L580.184 460.035C578.854 457.731 576.397 456.313 573.737 456.313L529.86 456.313C527.2 456.313 524.743 457.731 523.413 460.035L501.474 498.034C500.144 500.337 500.144 503.175 501.474 505.478L523.413 543.477C524.742 545.78 527.2 547.199 529.86 547.199L573.737 547.199C576.397 547.199 578.854 545.78 580.184 543.477ZM603.881 506.493C605.574 503.562 605.574 499.95 603.881 497.018L581.942 459.02C580.25 456.088 577.122 454.282 573.737 454.282L529.86 454.282C526.475 454.282 523.347 456.088 521.654 459.02L499.716 497.018C498.023 499.95 498.023 503.562 499.716 506.493L521.654 544.492C523.347 547.423 526.475 549.229 529.86 549.229L573.737 549.229C577.122 549.229 580.25 547.423 581.942 544.492L603.881 506.493Z" fill="#2B1616"/>
<path opacity="0.75" fill-rule="evenodd" clip-rule="evenodd" d="M590.726 560.383L622.035 506.155C623.607 503.432 623.607 500.079 622.035 497.357L590.727 443.128C589.155 440.406 586.25 438.73 583.107 438.73L520.49 438.73C517.347 438.73 514.442 440.406 512.871 443.128L481.562 497.357C479.991 500.079 479.991 503.432 481.562 506.155L512.871 560.383C514.442 563.105 517.347 564.782 520.49 564.782L583.107 564.782C586.25 564.782 589.155 563.105 590.726 560.383ZM623.793 507.17C625.728 503.819 625.728 499.692 623.793 496.341L592.485 442.113C590.551 438.763 586.976 436.699 583.107 436.699L520.49 436.699C516.621 436.699 513.047 438.763 511.113 442.113L479.804 496.341C477.87 499.692 477.87 503.819 479.804 507.17L511.112 561.398C513.047 564.748 516.621 566.812 520.49 566.812L583.107 566.812C586.976 566.812 590.551 564.748 592.485 561.398L623.793 507.17Z" fill="#2B1616"/>
<path opacity="0.6" fill-rule="evenodd" clip-rule="evenodd" d="M601.66 576.613L641.557 507.509C643.612 503.949 643.612 499.564 641.557 496.004L601.66 426.9C599.605 423.34 595.807 421.147 591.696 421.147L511.902 421.147C507.792 421.147 503.994 423.34 501.939 426.9L462.041 496.004C459.986 499.564 459.986 503.949 462.041 507.509L501.939 576.613C503.994 580.172 507.792 582.365 511.902 582.365L591.696 582.365C595.807 582.365 599.605 580.172 601.66 576.613ZM643.316 508.524C645.733 504.336 645.733 499.177 643.316 494.989L603.418 425.885C601.001 421.697 596.532 419.117 591.696 419.117L511.902 419.117C507.066 419.117 502.598 421.697 500.18 425.885L460.283 494.989C457.865 499.177 457.865 504.336 460.283 508.524L500.18 577.628C502.598 581.816 507.066 584.396 511.902 584.396L591.696 584.396C596.532 584.396 601.001 581.816 603.418 577.628L643.316 508.524Z" fill="#2B1616"/>
<path opacity="0.5" fill-rule="evenodd" clip-rule="evenodd" d="M611.811 594.195L661.86 507.509C663.915 503.949 663.915 499.563 661.86 496.004L611.811 409.317C609.756 405.757 605.958 403.564 601.848 403.564L501.751 403.564C497.64 403.564 493.842 405.757 491.787 409.317L441.738 496.004C439.683 499.563 439.683 503.949 441.738 507.509L491.787 594.195C493.842 597.755 497.64 599.948 501.751 599.948L601.848 599.948C605.958 599.948 609.756 597.755 611.811 594.195ZM663.618 508.524C666.036 504.336 666.036 499.176 663.618 494.989L613.57 408.302C611.152 404.114 606.683 401.534 601.848 401.534L501.751 401.534C496.915 401.534 492.447 404.114 490.029 408.302L439.98 494.989C437.562 499.176 437.562 504.336 439.98 508.524L490.029 595.21C492.447 599.398 496.915 601.978 501.751 601.978L601.848 601.978C606.683 601.978 611.152 599.398 613.57 595.21L663.618 508.524Z" fill="#2B1616"/>
<path opacity="0.4" fill-rule="evenodd" clip-rule="evenodd" d="M624.308 607.717L679.819 511.569C683.325 505.497 683.325 498.015 679.819 491.943L624.308 395.795C620.802 389.722 614.323 385.981 607.311 385.981L496.288 385.981C489.277 385.981 482.797 389.722 479.292 395.795L423.78 491.943C420.274 498.015 420.274 505.497 423.78 511.569L479.292 607.717C482.797 613.79 489.277 617.53 496.288 617.53L607.311 617.53C614.323 617.53 620.802 613.79 624.308 607.717ZM681.577 512.584C685.446 505.884 685.446 497.628 681.577 490.928L626.066 394.779C622.197 388.079 615.048 383.951 607.311 383.951L496.288 383.951C488.551 383.951 481.402 388.079 477.533 394.779L422.022 490.928C418.153 497.628 418.153 505.884 422.022 512.584L477.533 608.733C481.402 615.433 488.551 619.561 496.288 619.561L607.311 619.561C615.048 619.561 622.197 615.433 626.066 608.733L681.577 512.584Z" fill="#2B1616"/>
<path opacity="0.3" fill-rule="evenodd" clip-rule="evenodd" d="M634.459 625.3L700.122 511.569C703.627 505.496 703.627 498.015 700.122 491.943L634.459 378.212C630.953 372.139 624.474 368.398 617.462 368.398L486.137 368.398C479.125 368.398 472.646 372.139 469.14 378.211L403.477 491.943C399.971 498.015 399.971 505.496 403.477 511.569L469.14 625.3C472.646 631.372 479.125 635.113 486.137 635.113L617.462 635.113C624.474 635.113 630.953 631.372 634.459 625.3ZM701.88 512.584C705.748 505.883 705.748 497.628 701.88 490.928L636.217 377.196C632.349 370.496 625.199 366.368 617.462 366.368L486.137 366.368C478.4 366.368 471.25 370.496 467.382 377.196L401.719 490.928C397.85 497.628 397.85 505.883 401.719 512.584L467.382 626.315C471.25 633.016 478.4 637.143 486.137 637.143L617.462 637.143C625.199 637.143 632.349 633.016 636.217 626.315L701.88 512.584Z" fill="#2B1616"/>
<path opacity="0.2" fill-rule="evenodd" clip-rule="evenodd" d="M646.173 640.176L718.861 514.277C723.334 506.529 723.334 496.984 718.861 489.236L646.173 363.337C641.7 355.589 633.433 350.816 624.487 350.816L479.111 350.816C470.165 350.816 461.898 355.589 457.425 363.337L384.737 489.236C380.264 496.984 380.264 506.529 384.737 514.277L457.425 640.176C461.898 647.924 470.165 652.697 479.111 652.697L624.487 652.697C633.433 652.697 641.7 647.924 646.173 640.176ZM720.619 515.292C725.455 506.916 725.455 496.597 720.619 488.221L647.931 362.321C643.095 353.946 634.159 348.786 624.487 348.786L479.111 348.786C469.439 348.786 460.503 353.946 455.667 362.321L382.979 488.221C378.143 496.597 378.143 506.916 382.979 515.292L455.667 641.192C460.503 649.567 469.439 654.727 479.111 654.727L624.487 654.727C634.159 654.727 643.095 649.567 647.931 641.192L720.619 515.292Z" fill="#2B1616"/>
<path opacity="0.1" fill-rule="evenodd" clip-rule="evenodd" d="M655.647 656.587L737.81 514.276C742.283 506.529 742.283 496.983 737.81 489.236L655.647 346.925C651.174 339.178 642.908 334.405 633.962 334.405L469.636 334.405C460.69 334.405 452.423 339.178 447.95 346.925L365.787 489.236C361.314 496.983 361.314 506.529 365.787 514.276L447.95 656.587C452.423 664.334 460.69 669.107 469.636 669.107L633.962 669.107C642.908 669.107 651.174 664.334 655.647 656.587ZM739.569 515.291C744.404 506.916 744.404 496.596 739.569 488.221L657.406 345.91C652.57 337.535 643.633 332.375 633.962 332.375L469.636 332.375C459.964 332.375 451.028 337.535 446.192 345.91L364.029 488.221C359.193 496.596 359.193 506.916 364.029 515.291L446.192 657.602C451.028 665.977 459.964 671.137 469.636 671.137L633.962 671.137C643.633 671.137 652.57 665.977 657.406 657.602L739.569 515.291Z" fill="#2B1616"/>
<path fill-rule="evenodd" clip-rule="evenodd" d="M275.468 56.2902L278.667 50.7499C279.513 49.2841 279.513 47.4783 278.667 46.0125L275.468 40.4722C274.622 39.0065 273.058 38.1035 271.366 38.1035L264.968 38.1035C263.276 38.1035 261.712 39.0065 260.866 40.4722L257.667 46.0125C256.821 47.4783 256.821 49.2841 257.667 50.7499L260.866 56.2902C261.712 57.7559 263.276 58.6589 264.968 58.6589L271.366 58.6589C273.058 58.6589 274.622 57.7559 275.468 56.2902ZM280.425 51.765C281.634 49.6711 281.634 47.0913 280.425 44.9974L277.227 39.4571C276.018 37.3631 273.784 36.0732 271.366 36.0732L264.968 36.0732C262.55 36.0732 260.316 37.3631 259.107 39.4571L255.909 44.9974C254.7 47.0913 254.7 49.6711 255.909 51.765L259.107 57.3053C260.316 59.3993 262.55 60.6892 264.968 60.6892L271.366 60.6892C273.784 60.6892 276.018 59.3993 277.227 57.3053L280.425 51.765Z" fill="#2B1616"/>
<path fill-rule="evenodd" clip-rule="evenodd" d="M286.011 73.196L298.579 51.4264C299.667 49.5419 299.667 47.2201 298.579 45.3356L286.011 23.566C284.923 21.6814 282.912 20.5205 280.736 20.5205L255.599 20.5205C253.423 20.5205 251.412 21.6814 250.324 23.566L237.755 45.3356C236.667 47.2201 236.667 49.5419 237.755 51.4264L250.324 73.196C251.412 75.0806 253.423 76.2415 255.599 76.2415L280.736 76.2415C282.912 76.2415 284.923 75.0806 286.011 73.196ZM300.338 52.4416C301.788 49.9289 301.788 46.8331 300.338 44.3204L287.769 22.5508C286.318 20.0381 283.637 18.4902 280.736 18.4902L255.599 18.4902C252.697 18.4902 250.016 20.0381 248.565 22.5508L235.997 44.3204C234.546 46.8331 234.546 49.9289 235.997 52.4416L248.565 74.2112C250.016 76.7239 252.697 78.2718 255.599 78.2718L280.736 78.2718C283.637 78.2718 286.318 76.7239 287.769 74.2112L300.338 52.4416Z" fill="#2B1616"/>
<path opacity="0.9" fill-rule="evenodd" clip-rule="evenodd" d="M296.553 90.1019L318.492 52.103C319.822 49.7997 319.822 46.9619 318.492 44.6586L296.553 6.65971C295.223 4.3564 292.766 2.93751 290.106 2.93751L246.229 2.93751C243.569 2.93751 241.112 4.3564 239.782 6.6597L217.843 44.6586C216.513 46.9619 216.513 49.7997 217.843 52.103L239.782 90.1019C241.112 92.4052 243.569 93.8241 246.229 93.8241L290.106 93.8241C292.766 93.8241 295.223 92.4052 296.553 90.1019ZM320.25 53.1181C321.943 50.1866 321.943 46.5749 320.25 43.6434L298.311 5.64456C296.619 2.71309 293.491 0.907225 290.106 0.907225L246.229 0.907223C242.844 0.907223 239.716 2.71308 238.024 5.64456L216.085 43.6434C214.392 46.5749 214.392 50.1866 216.085 53.1181L238.024 91.117C239.716 94.0485 242.844 95.8543 246.229 95.8543L290.106 95.8543C293.491 95.8543 296.619 94.0485 298.311 91.117L320.25 53.1181Z" fill="#2B1616"/>
<path opacity="0.75" fill-rule="evenodd" clip-rule="evenodd" d="M307.096 107.008L338.404 52.7795C339.976 50.0575 339.976 46.7037 338.404 43.9816L307.096 -10.2465C305.524 -12.9686 302.62 -14.6455 299.476 -14.6455L236.859 -14.6455C233.716 -14.6455 230.812 -12.9686 229.24 -10.2465L197.931 43.9816C196.36 46.7037 196.36 50.0575 197.931 52.7795L229.24 107.008C230.812 109.73 233.716 111.407 236.859 111.407L299.476 111.407C302.62 111.407 305.524 109.73 307.096 107.008ZM340.163 53.7947C342.097 50.4444 342.097 46.3167 340.163 42.9665L308.854 -11.2617C306.92 -14.6119 303.345 -16.6758 299.476 -16.6758L236.859 -16.6758C232.991 -16.6758 229.416 -14.6119 227.482 -11.2617L196.173 42.9665C194.239 46.3167 194.239 50.4444 196.173 53.7947L227.482 108.023C229.416 111.373 232.991 113.437 236.859 113.437L299.476 113.437C303.345 113.437 306.92 111.373 308.854 108.023L340.163 53.7947Z" fill="#2B1616"/>
<path opacity="0.6" fill-rule="evenodd" clip-rule="evenodd" d="M318.029 123.238L357.926 54.1338C359.982 50.5742 359.982 46.1885 357.926 42.6289L318.029 -26.475C315.974 -30.0347 312.176 -32.2275 308.066 -32.2275L228.271 -32.2275C224.161 -32.2275 220.363 -30.0347 218.308 -26.4751L178.411 42.6289C176.355 46.1885 176.355 50.5742 178.411 54.1338L218.308 123.238C220.363 126.797 224.161 128.99 228.271 128.99L308.066 128.99C312.176 128.99 315.974 126.797 318.029 123.238ZM359.685 55.149C362.103 50.9612 362.103 45.8016 359.685 41.6137L319.788 -27.4902C317.37 -31.678 312.901 -34.2578 308.066 -34.2578L228.271 -34.2578C223.436 -34.2578 218.967 -31.678 216.549 -27.4902L176.652 41.6137C174.234 45.8015 174.234 50.9612 176.652 55.149L216.549 124.253C218.967 128.441 223.436 131.021 228.271 131.021L308.066 131.021C312.901 131.021 317.37 128.441 319.787 124.253L359.685 55.149Z" fill="#2B1616"/>
<path opacity="0.5" fill-rule="evenodd" clip-rule="evenodd" d="M328.181 140.82L378.229 54.1336C380.284 50.574 380.284 46.1883 378.229 42.6287L328.181 -44.0581C326.125 -47.6177 322.327 -49.8105 318.217 -49.8105L218.12 -49.8105C214.009 -49.8105 210.211 -47.6177 208.156 -44.0581L158.108 42.6287C156.052 46.1883 156.052 50.574 158.108 54.1336L208.156 140.82C210.211 144.38 214.009 146.573 218.12 146.573L318.217 146.573C322.327 146.573 326.125 144.38 328.181 140.82ZM379.987 55.1488C382.405 50.961 382.405 45.8014 379.987 41.6135L329.939 -45.0732C327.521 -49.261 323.053 -51.8408 318.217 -51.8408L218.12 -51.8408C213.284 -51.8408 208.816 -49.261 206.398 -45.0732L156.349 41.6135C153.931 45.8013 153.931 50.9609 156.349 55.1488L206.398 141.835C208.816 146.023 213.284 148.603 218.12 148.603L318.217 148.603C323.053 148.603 327.521 146.023 329.939 141.835L379.987 55.1488Z" fill="#2B1616"/>
<path opacity="0.4" fill-rule="evenodd" clip-rule="evenodd" d="M340.675 154.342L396.186 58.194C399.692 52.1217 399.692 44.6402 396.186 38.5679L340.675 -57.5805C337.169 -63.6528 330.69 -67.3935 323.678 -67.3935L212.655 -67.3935C205.644 -67.3935 199.165 -63.6528 195.659 -57.5805L140.147 38.5679C136.642 44.6402 136.642 52.1217 140.147 58.194L195.659 154.342C199.165 160.415 205.644 164.155 212.655 164.155L323.678 164.155C330.69 164.155 337.169 160.415 340.675 154.342ZM397.944 59.2092C401.813 52.5086 401.813 44.2533 397.944 37.5528L342.433 -58.5956C338.564 -65.2961 331.415 -69.4238 323.678 -69.4238L212.655 -69.4238C204.918 -69.4238 197.769 -65.2962 193.9 -58.5956L138.389 37.5527C134.521 44.2533 134.521 52.5086 138.389 59.2091L193.9 155.358C197.769 162.058 204.918 166.186 212.655 166.186L323.678 166.186C331.415 166.186 338.564 162.058 342.433 155.358L397.944 59.2092Z" fill="#2B1616"/>
<path opacity="0.3" fill-rule="evenodd" clip-rule="evenodd" d="M350.826 171.925L416.489 58.1938C419.995 52.1215 419.995 44.64 416.489 38.5677L350.826 -75.1635C347.32 -81.2358 340.841 -84.9766 333.829 -84.9766L202.504 -84.9766C195.492 -84.9766 189.013 -81.2358 185.507 -75.1635L119.844 38.5677C116.339 44.64 116.339 52.1214 119.844 58.1938L185.507 171.925C189.013 177.997 195.492 181.738 202.504 181.738L333.829 181.738C340.841 181.738 347.32 177.997 350.826 171.925ZM418.247 59.2089C422.116 52.5084 422.116 44.2531 418.247 37.5525L352.584 -76.1786C348.716 -82.8792 341.566 -87.0068 333.829 -87.0068L202.504 -87.0068C194.767 -87.0068 187.617 -82.8792 183.749 -76.1787L118.086 37.5525C114.218 44.253 114.218 52.5084 118.086 59.2089L183.749 172.94C187.617 179.641 194.767 183.768 202.504 183.768L333.829 183.768C341.566 183.768 348.716 179.641 352.584 172.94L418.247 59.2089Z" fill="#2B1616"/>
<path opacity="0.2" fill-rule="evenodd" clip-rule="evenodd" d="M362.542 186.801L435.23 60.9016C439.703 53.1541 439.703 43.6089 435.23 35.8614L362.542 -90.0385C358.069 -97.7859 349.802 -102.559 340.856 -102.559L195.48 -102.559C186.534 -102.559 178.267 -97.786 173.794 -90.0385L101.106 35.8614C96.633 43.6089 96.633 53.1541 101.106 60.9016L173.794 186.801C178.267 194.549 186.534 199.322 195.48 199.322L340.856 199.322C349.802 199.322 358.069 194.549 362.542 186.801ZM436.988 61.9167C441.824 53.5411 441.824 43.2219 436.988 34.8463L364.3 -91.0536C359.464 -99.4293 350.528 -104.589 340.856 -104.589L195.48 -104.589C185.808 -104.589 176.872 -99.4293 172.036 -91.0536L99.3477 34.8462C94.512 43.2219 94.512 53.5411 99.3477 61.9167L172.036 187.817C176.872 196.192 185.808 201.352 195.48 201.352L340.856 201.352C350.528 201.352 359.464 196.192 364.3 187.817L436.988 61.9167Z" fill="#2B1616"/>
<path opacity="0.1" fill-rule="evenodd" clip-rule="evenodd" d="M372.016 203.212L454.179 60.9011C458.652 53.1536 458.652 43.6084 454.179 35.8609L372.016 -106.45C367.543 -114.197 359.277 -118.97 350.331 -118.97L186.005 -118.97C177.059 -118.97 168.793 -114.197 164.32 -106.45L82.1565 35.8609C77.6835 43.6083 77.6835 53.1536 82.1565 60.9011L164.32 203.212C168.792 210.959 177.059 215.732 186.005 215.732L350.331 215.732C359.277 215.732 367.543 210.959 372.016 203.212ZM455.938 61.9162C460.773 53.5406 460.773 43.2214 455.938 34.8457L373.775 -107.465C368.939 -115.84 360.002 -121 350.331 -121L186.005 -121C176.334 -121 167.397 -115.84 162.561 -107.465L80.3982 34.8457C75.5625 43.2214 75.5625 53.5406 80.3982 61.9162L162.561 204.227C167.397 212.602 176.334 217.762 186.005 217.762L350.331 217.762C360.002 217.762 368.939 212.602 373.775 204.227L455.938 61.9162Z" fill="#2B1616"/>
<path opacity="0.6" fill-rule="evenodd" clip-rule="evenodd" d="M867.883 126.865L907.78 57.7608C909.835 54.2011 909.835 49.8155 907.78 46.2558L867.883 -22.8481C865.828 -26.4077 862.029 -28.6006 857.919 -28.6006L778.125 -28.6006C774.014 -28.6006 770.216 -26.4077 768.161 -22.8481L728.264 46.2558C726.209 49.8155 726.209 54.2011 728.264 57.7608L768.161 126.865C770.216 130.424 774.014 132.617 778.125 132.617L857.919 132.617C862.029 132.617 865.828 130.424 867.883 126.865ZM909.538 58.7759C911.956 54.5881 911.956 49.4285 909.538 45.2407L869.641 -23.8632C867.223 -28.0511 862.755 -30.6309 857.919 -30.6309L778.125 -30.6309C773.289 -30.6309 768.821 -28.0511 766.403 -23.8632L726.506 45.2407C724.088 49.4285 724.088 54.5881 726.506 58.7759L766.403 127.88C768.821 132.068 773.289 134.647 778.125 134.647L857.919 134.647C862.755 134.647 867.223 132.068 869.641 127.88L909.538 58.7759Z" fill="#2B1616"/>
<path opacity="0.5" fill-rule="evenodd" clip-rule="evenodd" d="M878.034 144.447L928.083 57.7606C930.138 54.2009 930.138 49.8153 928.083 46.2556L878.034 -40.4311C875.979 -43.9908 872.181 -46.1836 868.07 -46.1836L767.973 -46.1836C763.863 -46.1836 760.065 -43.9908 758.01 -40.4311L707.961 46.2556C705.906 49.8153 705.906 54.2009 707.961 57.7606L758.01 144.447C760.065 148.007 763.863 150.2 767.973 150.2L868.07 150.2C872.181 150.2 875.979 148.007 878.034 144.447ZM929.841 58.7757C932.259 54.5879 932.259 49.4283 929.841 45.2405L879.792 -41.4462C877.374 -45.6341 872.906 -48.2139 868.07 -48.2139L767.973 -48.2139C763.138 -48.2139 758.669 -45.6341 756.251 -41.4463L706.203 45.2405C703.785 49.4283 703.785 54.5879 706.203 58.7757L756.251 145.462C758.669 149.65 763.138 152.23 767.973 152.23L868.07 152.23C872.906 152.23 877.374 149.65 879.792 145.462L929.841 58.7757Z" fill="#2B1616"/>
<path opacity="0.4" fill-rule="evenodd" clip-rule="evenodd" d="M890.53 157.969L946.041 61.821C949.547 55.7486 949.547 48.2672 946.041 42.1948L890.53 -53.9535C887.024 -60.0259 880.545 -63.7666 873.533 -63.7666L762.511 -63.7666C755.499 -63.7666 749.02 -60.0259 745.514 -53.9535L690.003 42.1948C686.497 48.2672 686.497 55.7486 690.003 61.8209L745.514 157.969C749.02 164.042 755.499 167.782 762.511 167.782L873.533 167.782C880.545 167.782 887.024 164.042 890.53 157.969ZM947.8 62.8361C951.668 56.1356 951.668 47.8802 947.8 41.1797L892.288 -54.9687C888.42 -61.6692 881.271 -65.7969 873.533 -65.7969L762.511 -65.7969C754.774 -65.7969 747.624 -61.6692 743.756 -54.9687L688.245 41.1797C684.376 47.8802 684.376 56.1356 688.245 62.8361L743.756 158.984C747.624 165.685 754.774 169.813 762.511 169.813L873.533 169.813C881.271 169.813 888.42 165.685 892.288 158.984L947.8 62.8361Z" fill="#2B1616"/>
<path opacity="0.3" fill-rule="evenodd" clip-rule="evenodd" d="M900.681 175.552L966.344 61.8208C969.85 55.7484 969.85 48.267 966.344 42.1946L900.681 -71.5365C897.176 -77.6089 890.697 -81.3496 883.685 -81.3496L752.359 -81.3496C745.348 -81.3496 738.869 -77.6089 735.363 -71.5366L669.7 42.1946C666.194 48.267 666.194 55.7484 669.7 61.8207L735.363 175.552C738.869 181.624 745.348 185.365 752.359 185.365L883.685 185.365C890.697 185.365 897.176 181.624 900.681 175.552ZM968.102 62.8359C971.971 56.1354 971.971 47.88 968.102 41.1795L902.44 -72.5517C898.571 -79.2522 891.422 -83.3799 883.685 -83.3799L752.359 -83.3799C744.622 -83.3799 737.473 -79.2522 733.604 -72.5517L667.942 41.1795C664.073 47.88 664.073 56.1354 667.942 62.8359L733.604 176.567C737.473 183.268 744.622 187.395 752.359 187.395L883.685 187.395C891.422 187.395 898.571 183.268 902.44 176.567L968.102 62.8359Z" fill="#2B1616"/>
<path opacity="0.2" fill-rule="evenodd" clip-rule="evenodd" d="M912.395 190.428L985.084 64.5286C989.557 56.7811 989.557 47.2358 985.084 39.4884L912.395 -86.4115C907.922 -94.159 899.656 -98.9316 890.71 -98.9316L745.333 -98.9316C736.387 -98.9316 728.121 -94.159 723.648 -86.4115L650.959 39.4883C646.486 47.2358 646.486 56.7811 650.959 64.5285L723.648 190.428C728.121 198.176 736.387 202.949 745.333 202.949L890.71 202.949C899.656 202.949 907.922 198.176 912.395 190.428ZM986.842 65.5437C991.678 57.1681 991.678 46.8488 986.842 38.4732L914.154 -87.4267C909.318 -95.8023 900.381 -100.962 890.71 -100.962L745.333 -100.962C735.662 -100.962 726.725 -95.8023 721.89 -87.4267L649.201 38.4732C644.366 46.8488 644.366 57.168 649.201 65.5437L721.89 191.444C726.725 199.819 735.662 204.979 745.333 204.979L890.71 204.979C900.381 204.979 909.318 199.819 914.154 191.444L986.842 65.5437Z" fill="#2B1616"/>
<path opacity="0.1" fill-rule="evenodd" clip-rule="evenodd" d="M921.87 206.839L1004.03 64.5281C1008.51 56.7806 1008.51 47.2354 1004.03 39.4879L921.87 -102.823C917.397 -110.57 909.13 -115.343 900.184 -115.343L735.858 -115.343C726.912 -115.343 718.646 -110.57 714.173 -102.823L632.01 39.4879C627.537 47.2354 627.537 56.7806 632.01 64.5281L714.173 206.839C718.646 214.586 726.912 219.359 735.858 219.359L900.184 219.359C909.13 219.359 917.397 214.586 921.87 206.839ZM1005.79 65.5432C1010.63 57.1676 1010.63 46.8484 1005.79 38.4727L923.628 -103.838C918.793 -112.213 909.856 -117.373 900.184 -117.373L735.858 -117.373C726.187 -117.373 717.25 -112.213 712.415 -103.838L630.252 38.4727C625.416 46.8484 625.416 57.1676 630.252 65.5432L712.415 207.854C717.25 216.229 726.187 221.389 735.858 221.389L900.184 221.389C909.856 221.389 918.793 216.229 923.628 207.854L1005.79 65.5432Z" fill="#2B1616"/>
<path fill-rule="evenodd" clip-rule="evenodd" d="M275.468 664.902L278.667 659.361C279.513 657.895 279.513 656.09 278.667 654.624L275.468 649.084C274.622 647.618 273.058 646.715 271.366 646.715L264.968 646.715C263.276 646.715 261.712 647.618 260.866 649.084L257.667 654.624C256.821 656.09 256.821 657.895 257.667 659.361L260.866 664.902C261.712 666.367 263.276 667.27 264.968 667.27L271.366 667.27C273.058 667.27 274.622 666.367 275.468 664.902ZM280.425 660.376C281.634 658.282 281.634 655.703 280.425 653.609L277.227 648.068C276.018 645.974 273.784 644.685 271.366 644.685L264.968 644.685C262.55 644.685 260.316 645.974 259.107 648.068L255.909 653.609C254.7 655.703 254.7 658.282 255.909 660.376L259.107 665.917C260.316 668.011 262.55 669.3 264.968 669.3L271.366 669.3C273.784 669.3 276.018 668.011 277.227 665.917L280.425 660.376Z" fill="#2B1616"/>
<path fill-rule="evenodd" clip-rule="evenodd" d="M286.011 681.807L298.579 660.038C299.667 658.153 299.667 655.831 298.579 653.947L286.011 632.177C284.923 630.293 282.912 629.132 280.736 629.132L255.599 629.132C253.423 629.132 251.412 630.293 250.324 632.177L237.755 653.947C236.667 655.831 236.667 658.153 237.755 660.038L250.324 681.807C251.412 683.692 253.423 684.853 255.599 684.853L280.736 684.853C282.912 684.853 284.923 683.692 286.011 681.807ZM300.338 661.053C301.788 658.54 301.788 655.444 300.338 652.932L287.769 631.162C286.318 628.649 283.637 627.102 280.736 627.102L255.599 627.102C252.697 627.102 250.016 628.649 248.565 631.162L235.997 652.932C234.546 655.444 234.546 658.54 235.997 661.053L248.565 682.823C250.016 685.335 252.697 686.883 255.599 686.883L280.736 686.883C283.637 686.883 286.318 685.335 287.769 682.823L300.338 661.053Z" fill="#2B1616"/>
<path opacity="0.9" fill-rule="evenodd" clip-rule="evenodd" d="M296.553 698.713L318.492 660.714C319.822 658.411 319.822 655.573 318.492 653.27L296.553 615.271C295.223 612.968 292.766 611.549 290.106 611.549L246.229 611.549C243.569 611.549 241.112 612.968 239.782 615.271L217.843 653.27C216.513 655.573 216.513 658.411 217.843 660.714L239.782 698.713C241.112 701.016 243.569 702.435 246.229 702.435L290.106 702.435C292.766 702.435 295.223 701.016 296.553 698.713ZM320.25 661.729C321.943 658.798 321.943 655.186 320.25 652.255L298.311 614.256C296.619 611.324 293.491 609.519 290.106 609.519L246.229 609.519C242.844 609.519 239.716 611.324 238.024 614.256L216.085 652.255C214.392 655.186 214.392 658.798 216.085 661.729L238.024 699.728C239.716 702.66 242.844 704.466 246.229 704.466L290.106 704.466C293.491 704.466 296.619 702.66 298.311 699.728L320.25 661.729Z" fill="#2B1616"/>
<path opacity="0.75" fill-rule="evenodd" clip-rule="evenodd" d="M307.096 715.619L338.404 661.391C339.976 658.669 339.976 655.315 338.404 652.593L307.096 598.365C305.524 595.643 302.62 593.966 299.476 593.966L236.859 593.966C233.716 593.966 230.812 595.643 229.24 598.365L197.931 652.593C196.36 655.315 196.36 658.669 197.931 661.391L229.24 715.619C230.812 718.341 233.716 720.018 236.859 720.018L299.476 720.018C302.62 720.018 305.524 718.341 307.096 715.619ZM340.163 662.406C342.097 659.056 342.097 654.928 340.163 651.578L308.854 597.35C306.92 593.999 303.345 591.936 299.476 591.936L236.859 591.936C232.991 591.936 229.416 593.999 227.482 597.35L196.173 651.578C194.239 654.928 194.239 659.056 196.173 662.406L227.482 716.634C229.416 719.984 232.991 722.048 236.859 722.048L299.476 722.048C303.345 722.048 306.92 719.984 308.854 716.634L340.163 662.406Z" fill="#2B1616"/>
<path opacity="0.6" fill-rule="evenodd" clip-rule="evenodd" d="M318.029 731.849L357.926 662.745C359.982 659.186 359.982 654.8 357.926 651.24L318.029 582.136C315.974 578.577 312.176 576.384 308.066 576.384L228.271 576.384C224.161 576.384 220.363 578.577 218.308 582.136L178.411 651.24C176.355 654.8 176.355 659.186 178.411 662.745L218.308 731.849C220.363 735.409 224.161 737.602 228.271 737.602L308.066 737.602C312.176 737.602 315.974 735.409 318.029 731.849ZM359.685 663.76C362.103 659.572 362.103 654.413 359.685 650.225L319.788 581.121C317.37 576.933 312.901 574.354 308.066 574.354L228.271 574.354C223.436 574.354 218.967 576.933 216.549 581.121L176.652 650.225C174.234 654.413 174.234 659.572 176.652 663.76L216.549 732.864C218.967 737.052 223.436 739.632 228.271 739.632L308.066 739.632C312.901 739.632 317.37 737.052 319.787 732.864L359.685 663.76Z" fill="#2B1616"/>
<path opacity="0.5" fill-rule="evenodd" clip-rule="evenodd" d="M328.181 749.432L378.229 662.745C380.284 659.185 380.284 654.8 378.229 651.24L328.181 564.553C326.125 560.994 322.327 558.801 318.217 558.801L218.12 558.801C214.009 558.801 210.211 560.994 208.156 564.553L158.108 651.24C156.052 654.8 156.052 659.185 158.108 662.745L208.156 749.432C210.211 752.991 214.009 755.184 218.12 755.184L318.217 755.184C322.327 755.184 326.125 752.991 328.181 749.432ZM379.987 663.76C382.405 659.572 382.405 654.413 379.987 650.225L329.939 563.538C327.521 559.35 323.053 556.771 318.217 556.771L218.12 556.771C213.284 556.771 208.816 559.35 206.398 563.538L156.349 650.225C153.931 654.413 153.931 659.572 156.349 663.76L206.398 750.447C208.816 754.635 213.284 757.214 218.12 757.214L318.217 757.214C323.053 757.214 327.521 754.635 329.939 750.447L379.987 663.76Z" fill="#2B1616"/>
<path opacity="0.4" fill-rule="evenodd" clip-rule="evenodd" d="M340.675 762.954L396.186 666.805C399.692 660.733 399.692 653.252 396.186 647.179L340.675 551.031C337.169 544.958 330.69 541.218 323.678 541.218L212.655 541.218C205.644 541.218 199.165 544.958 195.659 551.031L140.147 647.179C136.642 653.252 136.642 660.733 140.147 666.805L195.659 762.954C199.165 769.026 205.644 772.767 212.655 772.767L323.678 772.767C330.69 772.767 337.169 769.026 340.675 762.954ZM397.944 667.82C401.813 661.12 401.813 652.865 397.944 646.164L342.433 550.016C338.564 543.315 331.415 539.187 323.678 539.187L212.655 539.187C204.918 539.187 197.769 543.315 193.9 550.016L138.389 646.164C134.521 652.865 134.521 661.12 138.389 667.82L193.9 763.969C197.769 770.669 204.918 774.797 212.655 774.797L323.678 774.797C331.415 774.797 338.564 770.669 342.433 763.969L397.944 667.82Z" fill="#2B1616"/>
<path opacity="0.3" fill-rule="evenodd" clip-rule="evenodd" d="M350.826 780.536L416.489 666.805C419.995 660.733 419.995 653.251 416.489 647.179L350.826 533.448C347.32 527.375 340.841 523.635 333.829 523.635L202.504 523.635C195.492 523.635 189.013 527.375 185.507 533.448L119.844 647.179C116.339 653.251 116.339 660.733 119.844 666.805L185.507 780.536C189.013 786.609 195.492 790.349 202.504 790.349L333.829 790.349C340.841 790.349 347.32 786.609 350.826 780.536ZM418.247 667.82C422.116 661.12 422.116 652.864 418.247 646.164L352.584 532.433C348.716 525.732 341.566 521.604 333.829 521.604L202.504 521.604C194.767 521.604 187.617 525.732 183.749 532.433L118.086 646.164C114.218 652.864 114.218 661.12 118.086 667.82L183.749 781.551C187.617 788.252 194.767 792.38 202.504 792.38L333.829 792.38C341.566 792.38 348.716 788.252 352.584 781.551L418.247 667.82Z" fill="#2B1616"/>
<path opacity="0.2" fill-rule="evenodd" clip-rule="evenodd" d="M362.542 795.413L435.23 669.513C439.703 661.765 439.703 652.22 435.23 644.473L362.542 518.573C358.069 510.825 349.802 506.053 340.856 506.053L195.48 506.053C186.534 506.053 178.267 510.825 173.794 518.573L101.106 644.473C96.633 652.22 96.633 661.765 101.106 669.513L173.794 795.413C178.267 803.16 186.534 807.933 195.48 807.933L340.856 807.933C349.802 807.933 358.069 803.16 362.542 795.413ZM436.988 670.528C441.824 662.152 441.824 651.833 436.988 643.458L364.3 517.558C359.464 509.182 350.528 504.022 340.856 504.022L195.48 504.022C185.808 504.022 176.872 509.182 172.036 517.558L99.3477 643.458C94.512 651.833 94.512 662.152 99.3477 670.528L172.036 796.428C176.872 804.804 185.808 809.963 195.48 809.963L340.856 809.963C350.528 809.963 359.464 804.804 364.3 796.428L436.988 670.528Z" fill="#2B1616"/>
<path opacity="0.1" fill-rule="evenodd" clip-rule="evenodd" d="M372.016 811.823L454.179 669.512C458.652 661.765 458.652 652.22 454.179 644.472L372.016 502.162C367.543 494.414 359.277 489.642 350.331 489.642L186.005 489.642C177.059 489.642 168.793 494.414 164.32 502.162L82.1565 644.472C77.6835 652.22 77.6835 661.765 82.1565 669.512L164.32 811.823C168.792 819.57 177.059 824.343 186.005 824.343L350.331 824.343C359.277 824.343 367.543 819.57 372.016 811.823ZM455.938 670.528C460.773 662.152 460.773 651.833 455.938 643.457L373.775 501.147C368.939 492.771 360.002 487.611 350.331 487.611L186.005 487.611C176.334 487.611 167.397 492.771 162.561 501.147L80.3982 643.457C75.5625 651.833 75.5625 662.152 80.3982 670.528L162.561 812.838C167.397 821.214 176.334 826.373 186.005 826.373L350.331 826.373C360.002 826.373 368.939 821.214 373.775 812.838L455.938 670.528Z" fill="#2B1616"/>
<path opacity="0.6" fill-rule="evenodd" clip-rule="evenodd" d="M867.883 735.476L907.78 666.372C909.835 662.812 909.835 658.427 907.78 654.867L867.883 585.763C865.828 582.204 862.029 580.011 857.919 580.011L778.125 580.011C774.014 580.011 770.216 582.204 768.161 585.763L728.264 654.867C726.209 658.427 726.209 662.812 728.264 666.372L768.161 735.476C770.216 739.036 774.014 741.229 778.125 741.229L857.919 741.229C862.029 741.229 865.828 739.036 867.883 735.476ZM909.538 667.387C911.956 663.199 911.956 658.04 909.538 653.852L869.641 584.748C867.223 580.56 862.755 577.98 857.919 577.98L778.125 577.98C773.289 577.98 768.821 580.56 766.403 584.748L726.506 653.852C724.088 658.04 724.088 663.199 726.506 667.387L766.403 736.491C768.821 740.679 773.289 743.259 778.125 743.259L857.919 743.259C862.755 743.259 867.223 740.679 869.641 736.491L909.538 667.387Z" fill="#2B1616"/>
<path opacity="0.5" fill-rule="evenodd" clip-rule="evenodd" d="M878.034 753.059L928.083 666.372C930.138 662.812 930.138 658.427 928.083 654.867L878.034 568.18C875.979 564.621 872.181 562.428 868.07 562.428L767.973 562.428C763.863 562.428 760.065 564.621 758.01 568.18L707.961 654.867C705.906 658.427 705.906 662.812 707.961 666.372L758.01 753.059C760.065 756.618 763.863 758.811 767.973 758.811L868.07 758.811C872.181 758.811 875.979 756.618 878.034 753.059ZM929.841 667.387C932.259 663.199 932.259 658.04 929.841 653.852L879.792 567.165C877.374 562.977 872.906 560.397 868.07 560.397L767.973 560.397C763.138 560.397 758.669 562.977 756.251 567.165L706.203 653.852C703.785 658.04 703.785 663.199 706.203 667.387L756.251 754.074C758.669 758.262 763.138 760.841 767.973 760.841L868.07 760.841C872.906 760.841 877.374 758.262 879.792 754.074L929.841 667.387Z" fill="#2B1616"/>
<path opacity="0.4" fill-rule="evenodd" clip-rule="evenodd" d="M890.53 766.581L946.041 670.432C949.547 664.36 949.547 656.879 946.041 650.806L890.53 554.658C887.024 548.585 880.545 544.845 873.533 544.845L762.511 544.845C755.499 544.845 749.02 548.585 745.514 554.658L690.003 650.806C686.497 656.879 686.497 664.36 690.003 670.432L745.514 766.581C749.02 772.653 755.499 776.394 762.511 776.394L873.533 776.394C880.545 776.394 887.024 772.653 890.53 766.581ZM947.8 671.447C951.668 664.747 951.668 656.492 947.8 649.791L892.288 553.643C888.42 546.942 881.271 542.814 873.533 542.814L762.511 542.814C754.774 542.814 747.624 546.942 743.756 553.643L688.245 649.791C684.376 656.492 684.376 664.747 688.245 671.447L743.756 767.596C747.624 774.296 754.774 778.424 762.511 778.424L873.533 778.424C881.271 778.424 888.42 774.296 892.288 767.596L947.8 671.447Z" fill="#2B1616"/>
<path opacity="0.3" fill-rule="evenodd" clip-rule="evenodd" d="M900.681 784.163L966.344 670.432C969.85 664.36 969.85 656.878 966.344 650.806L900.681 537.075C897.176 531.002 890.697 527.262 883.685 527.262L752.359 527.262C745.348 527.262 738.869 531.002 735.363 537.075L669.7 650.806C666.194 656.878 666.194 664.36 669.7 670.432L735.363 784.163C738.869 790.236 745.348 793.976 752.359 793.976L883.685 793.976C890.697 793.976 897.176 790.236 900.681 784.163ZM968.102 671.447C971.971 664.747 971.971 656.491 968.102 649.791L902.44 536.06C898.571 529.359 891.422 525.231 883.685 525.231L752.359 525.231C744.622 525.231 737.473 529.359 733.604 536.06L667.942 649.791C664.073 656.491 664.073 664.747 667.942 671.447L733.604 785.178C737.473 791.879 744.622 796.007 752.359 796.007L883.685 796.007C891.422 796.007 898.571 791.879 902.44 785.178L968.102 671.447Z" fill="#2B1616"/>
<path opacity="0.2" fill-rule="evenodd" clip-rule="evenodd" d="M912.395 799.04L985.084 673.14C989.557 665.392 989.557 655.847 985.084 648.1L912.395 522.2C907.922 514.452 899.656 509.68 890.71 509.68L745.333 509.68C736.387 509.68 728.121 514.452 723.648 522.2L650.959 648.1C646.486 655.847 646.486 665.392 650.959 673.14L723.648 799.04C728.121 806.787 736.387 811.56 745.333 811.56L890.71 811.56C899.656 811.56 907.922 806.787 912.395 799.04ZM986.842 674.155C991.678 665.779 991.678 655.46 986.842 647.085L914.154 521.185C909.318 512.809 900.381 507.649 890.71 507.649L745.333 507.649C735.662 507.649 726.725 512.809 721.89 521.185L649.201 647.085C644.366 655.46 644.366 665.779 649.201 674.155L721.89 800.055C726.725 808.431 735.662 813.59 745.333 813.59L890.71 813.59C900.381 813.59 909.318 808.431 914.154 800.055L986.842 674.155Z" fill="#2B1616"/>
<path opacity="0.1" fill-rule="evenodd" clip-rule="evenodd" d="M921.87 815.45L1004.03 673.139C1008.51 665.392 1008.51 655.847 1004.03 648.099L921.87 505.789C917.397 498.041 909.13 493.269 900.184 493.269L735.858 493.269C726.912 493.269 718.646 498.041 714.173 505.789L632.01 648.099C627.537 655.847 627.537 665.392 632.01 673.139L714.173 815.45C718.646 823.197 726.912 827.97 735.858 827.97L900.184 827.97C909.13 827.97 917.397 823.197 921.87 815.45ZM1005.79 674.155C1010.63 665.779 1010.63 655.46 1005.79 647.084L923.628 504.774C918.793 496.398 909.856 491.238 900.184 491.238L735.858 491.238C726.187 491.238 717.25 496.398 712.415 504.774L630.252 647.084C625.416 655.46 625.416 665.779 630.252 674.154L712.415 816.465C717.25 824.841 726.187 830 735.858 830L900.184 830C909.856 830 918.793 824.841 923.628 816.465L1005.79 674.155Z" fill="#2B1616"/>
</g>
</svg>
