<svg width="22" height="24" viewBox="0 0 22 24" fill="none" xmlns="http://www.w3.org/2000/svg">
<path d="M9.25 1.58789C10.2651 1.0018 11.5012 0.964801 12.5439 1.47754L12.75 1.58789L19.1426 5.27832C20.2254 5.90356 20.8926 7.05922 20.8926 8.30957V15.6904C20.8926 16.8626 20.3063 17.9519 19.3408 18.5986L19.1426 18.7217L12.75 22.4121C11.7349 22.9982 10.4988 23.0352 9.45605 22.5225L9.25 22.4121L2.85742 18.7217C1.77464 18.0964 1.10742 16.9408 1.10742 15.6904V8.30957C1.10742 7.13735 1.69369 6.04806 2.65918 5.40137L2.85742 5.27832L9.25 1.58789Z" fill="url(#paint0_linear_2002_28104)" fill-opacity="0.4" stroke="url(#paint1_linear_2002_28104)"/>
<defs>
<linearGradient id="paint0_linear_2002_28104" x1="0.253731" y1="20.5714" x2="23.345" y2="19.9635" gradientUnits="userSpaceOnUse">
<stop stop-color="#7A0398" stop-opacity="0.63"/>
<stop offset="0.703125" stop-color="#690FFB" stop-opacity="0.59"/>
</linearGradient>
<linearGradient id="paint1_linear_2002_28104" x1="11" y1="0" x2="11" y2="24" gradientUnits="userSpaceOnUse">
<stop stop-color="#BD00FF" stop-opacity="0.55"/>
<stop offset="1" stop-color="#0038FF" stop-opacity="0.62"/>
</linearGradient>
</defs>
</svg>
