<svg width="19" height="18" viewBox="0 0 19 18" fill="none" xmlns="http://www.w3.org/2000/svg">
<g clip-path="url(#clip0_2002_5443)">
<path fill-rule="evenodd" clip-rule="evenodd" d="M9.22607 4.5C6.74079 4.5 4.72607 6.51472 4.72607 9C4.72607 11.4853 6.74079 13.5 9.22607 13.5C11.7114 13.5 13.7261 11.4853 13.7261 9C13.7261 6.51472 11.7114 4.5 9.22607 4.5ZM9.22607 2.69415e-06C4.25551 3.12869e-06 0.226075 4.02944 0.226075 9C0.226076 13.9706 4.25551 18 9.22608 18C14.1966 18 18.2261 13.9706 18.2261 9C18.2261 4.02944 14.1966 2.25961e-06 9.22607 2.69415e-06Z" fill="#E93249"/>
</g>
<defs>
<clipPath id="clip0_2002_5443">
<rect width="18" height="18" fill="white" transform="translate(0.226074)"/>
</clipPath>
</defs>
</svg>
