<svg width="87" height="88" viewBox="0 0 87 88" fill="none" xmlns="http://www.w3.org/2000/svg">
<g opacity="0.3" clip-path="url(#clip0_2002_27716)">
<path fill-rule="evenodd" clip-rule="evenodd" d="M86.2538 88.8288L87.6325 86.0812C87.9973 85.3543 87.9973 84.4588 87.6325 83.7319L86.2538 80.9843C85.889 80.2574 85.2149 79.8096 84.4853 79.8096L81.7278 79.8096C80.9982 79.8096 80.3241 80.2574 79.9594 80.9843L78.5806 83.7319C78.2158 84.4588 78.2158 85.3543 78.5806 86.0812L79.9594 88.8288C80.3241 89.5557 80.9982 90.0035 81.7278 90.0035L84.4853 90.0035C85.2149 90.0035 85.889 89.5557 86.2538 88.8288ZM88.3904 86.5847C88.9115 85.5462 88.9115 84.2668 88.3904 83.2284L87.0116 80.4808C86.4906 79.4424 85.5275 78.8027 84.4853 78.8027L81.7278 78.8027C80.6856 78.8027 79.7226 79.4424 79.2015 80.4808L77.8227 83.2284C77.3016 84.2668 77.3016 85.5462 77.8227 86.5847L79.2015 89.3322C79.7226 90.3707 80.6856 91.0103 81.7278 91.0103L84.4853 91.0103C85.5275 91.0103 86.4906 90.3707 87.0116 89.3322L88.3904 86.5847Z" fill="#E93249"/>
<path fill-rule="evenodd" clip-rule="evenodd" d="M90.8008 97.2139L96.2184 86.4178C96.6874 85.4832 96.6874 84.3318 96.2184 83.3972L90.8008 72.6012C90.3318 71.6666 89.4651 71.0909 88.5271 71.0909L77.6918 71.0909C76.7539 71.0909 75.8871 71.6666 75.4182 72.6012L70.0005 83.3972C69.5315 84.3318 69.5315 85.4832 70.0005 86.4178L75.4182 97.2139C75.8871 98.1485 76.7539 98.7242 77.6918 98.7242L88.5271 98.7242C89.4651 98.7242 90.3318 98.1485 90.8008 97.2139ZM96.9763 86.9212C97.6016 85.6751 97.6016 84.1399 96.9763 82.8938L91.5587 72.0977C90.9334 70.8516 89.7777 70.084 88.5271 70.084L77.6918 70.084C76.4412 70.084 75.2856 70.8516 74.6603 72.0977L69.2426 82.8938C68.6173 84.1399 68.6173 85.6751 69.2426 86.9212L74.6603 97.7173C75.2856 98.9634 76.4412 99.731 77.6918 99.731L88.5271 99.731C89.7777 99.731 90.9334 98.9634 91.5587 97.7173L96.9763 86.9212Z" fill="#E93249"/>
<path opacity="0.9" fill-rule="evenodd" clip-rule="evenodd" d="M95.3478 105.597L104.804 86.7525C105.378 85.6102 105.378 84.2029 104.804 83.0606L95.3478 64.2161C94.7746 63.0738 93.7153 62.3701 92.5689 62.3701L73.6559 62.3701C72.5095 62.3701 71.4502 63.0738 70.877 64.2161L61.4205 83.0606C60.8472 84.2029 60.8472 85.6102 61.4205 86.7525L70.877 105.597C71.4502 106.739 72.5095 107.443 73.6559 107.443L92.5689 107.443C93.7153 107.443 94.7746 106.739 95.3478 105.597ZM105.562 87.2559C106.292 85.8021 106.292 84.011 105.562 82.5572L96.1057 63.7126C95.3762 62.2589 94.028 61.3633 92.5689 61.3633L73.6559 61.3633C72.1968 61.3633 70.8486 62.2588 70.1191 63.7126L60.6626 82.5572C59.933 84.011 59.933 85.8021 60.6626 87.2559L70.1191 106.1C70.8486 107.554 72.1968 108.45 73.6559 108.45L92.5689 108.45C94.028 108.45 95.3762 107.554 96.1057 106.1L105.562 87.2559Z" fill="#E93249"/>
<path opacity="0.75" fill-rule="evenodd" clip-rule="evenodd" d="M99.8871 113.982L113.382 87.0891C114.06 85.7391 114.06 84.0759 113.382 82.726L99.8871 55.8329C99.2096 54.483 97.9577 53.6514 96.6029 53.6514L69.6122 53.6514C68.2573 53.6514 67.0054 54.483 66.328 55.8329L52.8326 82.726C52.1552 84.0759 52.1552 85.7391 52.8326 87.0891L66.328 113.982C67.0054 115.332 68.2573 116.164 69.6121 116.164L96.6029 116.164C97.9577 116.164 99.2096 115.332 99.8871 113.982ZM114.14 87.5925C114.974 85.931 114.974 83.884 114.14 82.2225L100.645 55.3295C99.8112 53.668 98.2704 52.6445 96.6029 52.6445L69.6122 52.6445C67.9447 52.6445 66.4038 53.668 65.5701 55.3295L52.0747 82.2225C51.241 83.884 51.241 85.931 52.0747 87.5925L65.5701 114.486C66.4038 116.147 67.9446 117.17 69.6121 117.17L96.6029 117.17C98.2704 117.17 99.8112 116.147 100.645 114.486L114.14 87.5925Z" fill="#E93249"/>
<path opacity="0.6" fill-rule="evenodd" clip-rule="evenodd" d="M104.599 122.03L121.796 87.7593C122.682 85.994 122.682 83.8191 121.796 82.0537L104.599 47.7835C103.713 46.0182 102.076 44.9307 100.304 44.9307L65.9096 44.9307C64.1378 44.9307 62.5007 46.0182 61.6148 47.7835L44.4175 82.0537C43.5316 83.819 43.5316 85.994 44.4175 87.7593L61.6148 122.03C62.5007 123.795 64.1378 124.882 65.9095 124.882L100.304 124.882C102.076 124.882 103.713 123.795 104.599 122.03ZM122.554 88.2628C123.596 86.1859 123.596 83.6271 122.554 81.5503L105.357 47.2801C104.315 45.2032 102.389 43.9238 100.304 43.9238L65.9096 43.9238C63.8252 43.9238 61.8991 45.2032 60.8569 47.28L43.6596 81.5503C42.6174 83.6271 42.6174 86.1859 43.6596 88.2628L60.8569 122.533C61.8991 124.61 63.8252 125.889 65.9095 125.889L100.304 125.889C102.389 125.889 104.315 124.61 105.357 122.533L122.554 88.2628Z" fill="#E93249"/>
<path opacity="0.5" fill-rule="evenodd" clip-rule="evenodd" d="M108.973 130.75L130.546 87.7603C131.432 85.995 131.432 83.82 130.546 82.0547L108.973 39.0647C108.087 37.2994 106.45 36.2119 104.679 36.2119L61.5325 36.2119C59.7607 36.2119 58.1236 37.2994 57.2377 39.0647L35.6646 82.0547C34.7788 83.82 34.7788 85.995 35.6646 87.7603L57.2377 130.75C58.1236 132.516 59.7607 133.603 61.5325 133.603L104.679 133.603C106.45 133.603 108.087 132.516 108.973 130.75ZM131.304 88.2637C132.346 86.1869 132.346 83.6281 131.304 81.5513L109.731 38.5613C108.689 36.4845 106.763 35.2051 104.679 35.2051L61.5325 35.2051C59.4481 35.2051 57.522 36.4845 56.4798 38.5613L34.9068 81.5513C33.8646 83.6281 33.8646 86.1869 34.9068 88.2637L56.4798 131.254C57.522 133.331 59.4481 134.61 61.5325 134.61L104.679 134.61C106.763 134.61 108.689 133.331 109.731 131.254L131.304 88.2637Z" fill="#E93249"/>
<path opacity="0.4" fill-rule="evenodd" clip-rule="evenodd" d="M114.361 137.455L138.288 89.773C139.8 86.7616 139.8 83.0514 138.288 80.04L114.361 32.3578C112.849 29.3463 110.057 27.4912 107.034 27.4912L59.1789 27.4912C56.1565 27.4912 53.3638 29.3463 51.8526 32.3578L27.9249 80.04C26.4137 83.0514 26.4137 86.7616 27.9249 89.773L51.8526 137.455C53.3638 140.467 56.1565 142.322 59.1789 142.322L107.034 142.322C110.057 142.322 112.849 140.467 114.361 137.455ZM139.046 90.2765C140.714 86.9535 140.714 82.8595 139.046 79.5366L115.119 31.8543C113.451 28.5314 110.369 26.4844 107.034 26.4844L59.1789 26.4844C55.8439 26.4844 52.7622 28.5314 51.0947 31.8543L27.167 79.5366C25.4995 82.8595 25.4995 86.9535 27.167 90.2765L51.0947 137.959C52.7622 141.282 55.8439 143.329 59.1789 143.329L107.034 143.329C110.369 143.329 113.451 141.282 115.119 137.959L139.046 90.2765Z" fill="#E93249"/>
<path opacity="0.3" fill-rule="evenodd" clip-rule="evenodd" d="M118.743 146.176L147.046 89.774C148.557 86.7626 148.557 83.0524 147.046 80.041L118.743 23.639C117.232 20.6276 114.439 18.7725 111.416 18.7725L54.8096 18.7725C51.7873 18.7725 48.9945 20.6276 47.4833 23.639L19.1799 80.041C17.6687 83.0524 17.6687 86.7626 19.1799 89.774L47.4833 146.176C48.9945 149.187 51.7872 151.042 54.8096 151.042L111.416 151.042C114.439 151.042 117.232 149.187 118.743 146.176ZM147.804 90.2775C149.472 86.9545 149.472 82.8605 147.804 79.5375L119.501 23.1356C117.833 19.8126 114.751 17.7656 111.416 17.7656L54.8096 17.7656C51.4746 17.7656 48.3929 19.8126 46.7254 23.1356L18.422 79.5375C16.7545 82.8605 16.7545 86.9545 18.422 90.2774L46.7254 146.679C48.3929 150.002 51.4746 152.049 54.8096 152.049L111.416 152.049C114.751 152.049 117.833 150.002 119.501 146.679L147.804 90.2775Z" fill="#E93249"/>
<path opacity="0.2" fill-rule="evenodd" clip-rule="evenodd" d="M123.785 153.552L155.116 91.1155C157.044 87.2734 157.044 82.5397 155.116 78.6975L123.785 16.2608C121.857 12.4186 118.293 10.0518 114.437 10.0518L51.7738 10.0518C47.9176 10.0518 44.3545 12.4186 42.4264 16.2608L11.0946 78.6975C9.16659 82.5397 9.16659 87.2734 11.0946 91.1155L42.4264 153.552C44.3544 157.394 47.9176 159.761 51.7737 159.761L114.437 159.761C118.293 159.761 121.857 157.394 123.785 153.552ZM155.874 91.619C157.959 87.4653 157.959 82.3477 155.874 78.1941L124.542 15.7574C122.458 11.6037 118.606 9.04492 114.437 9.04492L51.7738 9.04492C47.605 9.04492 43.7529 11.6037 41.6685 15.7574L10.3368 78.1941C8.25238 82.3477 8.25238 87.4653 10.3368 91.619L41.6685 154.056C43.7529 158.209 47.605 160.768 51.7737 160.768L114.437 160.768C118.606 160.768 122.458 158.209 124.542 154.056L155.874 91.619Z" fill="#E93249"/>
<path opacity="0.1" fill-rule="evenodd" clip-rule="evenodd" d="M127.872 161.69L163.288 91.1153C165.216 87.2731 165.216 82.5394 163.288 78.6972L127.872 8.12213C125.944 4.27998 122.381 1.91311 118.525 1.91311L47.6936 1.91311C43.8375 1.91311 40.2743 4.27997 38.3463 8.12212L2.93057 78.6972C1.0025 82.5394 1.0025 87.2731 2.93057 91.1152L38.3463 161.69C40.2743 165.533 43.8375 167.899 47.6936 167.899L118.525 167.899C122.381 167.899 125.944 165.533 127.872 161.69ZM164.046 91.6187C166.13 87.465 166.13 82.3475 164.046 78.1938L128.63 7.61869C126.546 3.46502 122.694 0.906248 118.525 0.906248L47.6936 0.906244C43.5249 0.906244 39.6728 3.46501 37.5884 7.61869L2.17267 78.1938C0.0882843 82.3475 0.0882841 87.465 2.17267 91.6187L37.5884 162.194C39.6728 166.347 43.5249 168.906 47.6936 168.906L118.525 168.906C122.694 168.906 126.546 166.347 128.63 162.194L164.046 91.6187Z" fill="#E93249"/>
</g>
<defs>
<clipPath id="clip0_2002_27716">
<rect width="86" height="87" fill="white" transform="translate(0.609375 0.90625)"/>
</clipPath>
</defs>
</svg>
