<svg width="15" height="16" viewBox="0 0 15 16" fill="none" xmlns="http://www.w3.org/2000/svg">
<g clip-path="url(#clip0_2002_6665)">
<path fill-rule="evenodd" clip-rule="evenodd" d="M7.27994 4.25358C5.26962 4.25358 3.63994 5.88327 3.63994 7.89359C3.63994 9.9039 5.26962 11.5336 7.27994 11.5336C9.29025 11.5336 10.9199 9.9039 10.9199 7.89358C10.9199 5.88327 9.29025 4.25358 7.27994 4.25358ZM7.27994 0.613585C3.2593 0.613586 -6.39304e-05 3.87295 -6.35789e-05 7.89359C-6.32274e-05 11.9142 3.2593 15.1736 7.27994 15.1736C11.3006 15.1736 14.5599 11.9142 14.5599 7.89358C14.5599 3.87295 11.3006 0.613585 7.27994 0.613585Z" fill="white"/>
</g>
<defs>
<clipPath id="clip0_2002_6665">
<rect width="14.56" height="14.56" fill="white" transform="translate(0 0.613281)"/>
</clipPath>
</defs>
</svg>
