<svg width="596" height="372" viewBox="0 0 596 372" fill="none" xmlns="http://www.w3.org/2000/svg">
<g clip-path="url(#clip0_2002_6113)">
<g filter="url(#filter0_d_2002_6113)">
<path d="M462.219 184.429L296 237.388L300.299 249.456L462.219 184.429Z" fill="#E93249"/>
</g>
<path d="M262.647 57.8992L255.047 59.2422L258.646 79.5853L266.246 78.2424L262.647 57.8992Z" fill="#86878D"/>
<path d="M199.947 79.3198L193.265 83.1797L203.609 101.066L210.292 97.2065L199.947 79.3198Z" fill="#86878D"/>
<path d="M148.348 120.926L143.388 126.836L159.225 140.114L164.185 134.204L148.348 120.926Z" fill="#86878D"/>
<path d="M114.097 177.639L111.456 184.887L130.879 191.956L133.521 184.709L114.097 177.639Z" fill="#86878D"/>
<path d="M122.019 242.679H101.347V250.392H122.019V242.679Z" fill="#86878D"/>
<path d="M131.021 301.019L111.596 308.082L114.235 315.331L133.66 308.267L131.021 301.019Z" fill="#86878D"/>
<path d="M450.758 307.876L453.376 300.632L472.84 307.742L470.222 314.919L450.758 307.876Z" fill="#86878D"/>
<path d="M462.235 249.923V242.276H482.975V249.923H462.235Z" fill="#86878D"/>
<path d="M435.668 120.639L419.835 133.923L424.798 139.831L440.631 126.547L435.668 120.639Z" fill="#86878D"/>
<path d="M380.353 100.882L373.708 97.0585L384.044 79.1494L390.689 82.9727L380.353 100.882Z" fill="#86878D"/>
<path d="M325.316 79.4847L317.665 78.2102L321.289 57.8193L328.874 59.1608L325.316 79.4847Z" fill="#86878D"/>
<path d="M293.839 55.6729H290.013V72.5088H293.839V55.6729Z" fill="#86878D"/>
<path d="M234.373 82.3015L230.749 83.643L224.977 67.8132L228.601 66.4717L234.373 82.3015Z" fill="#86878D"/>
<path d="M171.014 98.9963L168.083 101.453L178.909 114.353L181.84 111.896L171.014 98.9963Z" fill="#86878D"/>
<path d="M127.939 149.214L126.026 152.525L140.615 160.943L142.528 157.632L127.939 149.214Z" fill="#86878D"/>
<path d="M104.699 211.107L104.036 214.872L120.628 217.788L121.291 214.022L104.699 211.107Z" fill="#86878D"/>
<path d="M120.61 274.26L104.018 277.176L104.681 280.941L121.273 278.025L120.61 274.26Z" fill="#86878D"/>
<path d="M462.571 278.028L463.242 274.271L479.82 277.156L479.149 280.979L462.571 278.028Z" fill="#86878D"/>
<path d="M479.15 211.062L462.563 214.005L463.232 217.769L479.819 214.826L479.15 211.062Z" fill="#86878D"/>
<path d="M455.939 149.193L441.345 157.604L443.256 160.917L457.85 152.505L455.939 149.193Z" fill="#86878D"/>
<path d="M412.907 98.9449L402.073 111.838L405.003 114.297L415.837 101.404L412.907 98.9449Z" fill="#86878D"/>
<path d="M293.906 72.5088H290.013V55.6729H293.839L293.906 72.5088Z" fill="#86878D"/>
<path d="M234.306 82.3692L230.681 83.7107L224.909 67.8809L228.533 66.6064L234.306 82.3692Z" fill="#86878D"/>
<path d="M181.686 112.083L178.733 114.565L167.927 101.619L170.88 99.1377L181.686 112.083Z" fill="#86878D"/>
<path d="M127.806 149.524L125.892 152.834L140.478 161.257L142.392 157.947L127.806 149.524Z" fill="#86878D"/>
<path d="M104.606 211.56L103.943 215.325L120.535 218.245L121.198 214.479L104.606 211.56Z" fill="#86878D"/>
<path d="M120.609 274.809L121.28 278.565L104.702 281.516L104.031 277.693L120.609 274.809Z" fill="#86878D"/>
<path d="M463.108 278.162L463.779 274.405L480.357 277.29L479.686 281.113L463.108 278.162Z" fill="#86878D"/>
<path d="M479.61 211.13L463.02 214.05L463.683 217.815L480.274 214.896L479.61 211.13Z" fill="#86878D"/>
<path d="M456.31 149.113L441.712 157.518L443.622 160.83L458.22 152.426L456.31 149.113Z" fill="#86878D"/>
<path d="M405.253 114.297L402.3 111.815L413.106 98.9365L416.059 101.351L405.253 114.297Z" fill="#86878D"/>
<path d="M355.431 66.4187L349.654 82.2344L353.248 83.5454L359.025 67.7297L355.431 66.4187Z" fill="#86878D"/>
<path d="M234.373 82.3015L230.749 83.643L224.977 67.8132L228.601 66.4717L234.373 82.3015Z" fill="#86878D"/>
<path d="M171.013 98.9973L168.082 101.454L178.907 114.354L181.839 111.897L171.013 98.9973Z" fill="#86878D"/>
<path d="M127.939 149.214L126.026 152.525L140.615 160.943L142.528 157.632L127.939 149.214Z" fill="#86878D"/>
<path d="M121.28 213.971L120.609 217.794L104.031 214.843L104.702 211.087L121.28 213.971Z" fill="#86878D"/>
<path d="M120.61 274.261L104.018 277.177L104.681 280.942L121.273 278.026L120.61 274.261Z" fill="#86878D"/>
<path d="M453.242 191.567L450.624 184.323L470.088 177.28L472.706 184.524L453.242 191.567Z" fill="#86878D"/>
<path d="M286.422 244.693C286.422 249.336 290.046 253.135 294.476 253.135C298.906 253.135 302.53 249.336 302.53 244.693C302.53 240.05 298.906 236.251 294.476 236.251C290.046 236.251 286.422 239.98 286.422 244.693Z" fill="#E93249"/>
<path d="M409.042 243.568C409.042 245.679 410.653 247.367 412.666 247.367C414.68 247.367 416.291 245.679 416.291 243.568C416.291 241.458 414.68 239.77 412.666 239.77C410.72 239.77 409.042 241.458 409.042 243.568Z" fill="#E93249"/>
<path d="M406.492 268.542C406.089 270.582 407.297 272.623 409.311 273.045C411.257 273.467 413.203 272.201 413.606 270.09C414.009 268.05 412.801 266.01 410.787 265.588C408.841 265.166 406.894 266.502 406.492 268.542Z" fill="#E93249"/>
<path d="M399.042 292.391C398.237 294.29 399.042 296.541 400.854 297.386C402.666 298.23 404.814 297.386 405.619 295.486C406.425 293.587 405.619 291.335 403.807 290.491C401.995 289.647 399.847 290.491 399.042 292.391Z" fill="#E93249"/>
<path d="M387.028 314.129C385.887 315.818 386.223 318.21 387.834 319.406C389.444 320.672 391.726 320.25 392.867 318.561C394.075 316.873 393.673 314.481 392.062 313.285C390.451 312.019 388.169 312.441 387.028 314.129Z" fill="#E93249"/>
<path d="M201.587 313.566C200.379 311.877 198.164 311.525 196.553 312.721C194.943 313.917 194.607 316.309 195.748 317.998C196.956 319.686 199.171 320.038 200.782 318.842C202.393 317.646 202.795 315.254 201.587 313.566Z" fill="#32E939"/>
<path d="M189.708 291.828C188.902 289.929 186.755 289.085 184.943 289.929C183.131 290.773 182.325 293.024 183.131 294.924C183.936 296.823 186.084 297.667 187.896 296.823C189.641 295.979 190.513 293.728 189.708 291.828Z" fill="#32E939"/>
<path d="M182.325 267.91C181.922 265.869 179.976 264.533 178.029 265.025C176.083 265.447 174.808 267.487 175.21 269.528C175.613 271.568 177.559 272.904 179.506 272.482C181.519 271.99 182.727 269.95 182.325 267.91Z" fill="#32E939"/>
<path d="M179.909 242.935C179.909 240.824 178.298 239.136 176.285 239.136C174.271 239.136 172.661 240.824 172.661 242.935C172.661 245.045 174.271 246.734 176.285 246.734C178.298 246.734 179.909 245.045 179.909 242.935Z" fill="#32E939"/>
<path d="M182.459 217.96C182.862 215.92 181.654 213.88 179.641 213.458C177.694 213.036 175.748 214.302 175.345 216.413C174.942 218.453 176.151 220.493 178.164 220.915C180.11 221.337 182.057 220 182.459 217.96Z" fill="#8FFB93"/>
<path d="M189.909 194.112C190.715 192.213 189.909 189.961 188.097 189.117C186.285 188.273 184.138 189.117 183.332 191.017C182.527 192.916 183.332 195.167 185.144 196.012C186.956 196.856 189.104 196.012 189.909 194.112Z" fill="#8FFB93"/>
<path d="M201.989 172.374C203.198 170.685 202.795 168.294 201.184 167.098C199.573 165.831 197.291 166.253 196.15 167.942C194.942 169.63 195.345 172.022 196.956 173.218C198.499 174.484 200.781 174.062 201.989 172.374Z" fill="#8FFB93"/>
<path d="M218.031 153.801C219.507 152.394 219.641 150.002 218.299 148.455C216.957 146.907 214.675 146.766 213.198 148.173C211.722 149.58 211.587 151.972 212.93 153.52C214.272 155.067 216.554 155.208 218.031 153.801Z" fill="#8FFB93"/>
<path d="M237.427 139.098C239.172 138.043 239.776 135.722 238.77 133.892C237.763 132.063 235.548 131.43 233.803 132.485C232.058 133.541 231.454 135.862 232.461 137.691C233.535 139.52 235.75 140.154 237.427 139.098Z" fill="#E9C132"/>
<path d="M259.374 128.898C261.253 128.265 262.327 126.084 261.723 124.115C261.119 122.145 259.038 121.019 257.159 121.652C255.28 122.285 254.206 124.466 254.81 126.436C255.414 128.476 257.495 129.602 259.374 128.898Z" fill="#E9C132"/>
<path d="M282.797 123.762C284.811 123.551 286.22 121.652 286.019 119.612C285.818 117.501 284.005 116.024 282.059 116.235C280.046 116.446 278.636 118.345 278.838 120.386C279.039 122.496 280.851 123.973 282.797 123.762Z" fill="#E9C132"/>
<path d="M306.757 123.832C308.771 124.043 310.516 122.565 310.717 120.455C310.919 118.344 309.509 116.515 307.496 116.304C305.482 116.093 303.737 117.571 303.536 119.681C303.334 121.721 304.811 123.621 306.757 123.832Z" fill="#E9C132"/>
<path d="M330.181 129.108C332.061 129.741 334.141 128.686 334.745 126.645C335.349 124.676 334.343 122.495 332.396 121.862C330.517 121.229 328.436 122.284 327.832 124.324C327.228 126.364 328.302 128.475 330.181 129.108Z" fill="#E9C132"/>
<path d="M352.061 139.381C353.806 140.436 356.021 139.803 357.027 137.974C358.034 136.144 357.43 133.823 355.685 132.768C353.94 131.712 351.725 132.346 350.718 134.175C349.712 136.004 350.316 138.325 352.061 139.381Z" fill="#FA8897"/>
<path d="M371.39 154.224C372.867 155.631 375.149 155.49 376.491 153.943C377.833 152.395 377.699 150.003 376.222 148.596C374.746 147.189 372.464 147.33 371.122 148.877C369.779 150.425 369.914 152.817 371.39 154.224Z" fill="#FA8897"/>
<path d="M387.364 172.936C388.505 174.625 390.786 174.976 392.397 173.78C394.008 172.514 394.344 170.192 393.203 168.504C392.062 166.816 389.78 166.464 388.169 167.66C386.558 168.856 386.223 171.248 387.364 172.936Z" fill="#FA8897"/>
<path d="M399.31 194.675C400.116 196.574 402.263 197.418 404.075 196.574C405.888 195.73 406.693 193.479 405.888 191.579C405.082 189.68 402.934 188.836 401.122 189.68C399.31 190.524 398.505 192.775 399.31 194.675Z" fill="#FA8897"/>
<path d="M406.626 218.593C407.028 220.633 408.975 221.97 410.921 221.548C412.867 221.126 414.143 219.085 413.673 217.045C413.27 215.005 411.324 213.669 409.377 214.091C407.498 214.513 406.223 216.553 406.626 218.593Z" fill="#FA8897"/>
<path d="M287.16 241.88C285.818 246.101 287.965 250.744 292.059 252.151C296.086 253.558 300.516 251.307 301.858 247.015C303.201 242.794 301.053 238.151 296.959 236.744C292.865 235.337 288.502 237.589 287.16 241.88Z" fill="#E93249"/>
<g filter="url(#filter1_d_2002_6113)">
<path d="M278.9 239.092C276.068 247.464 280.626 256.528 288.983 259.296C297.339 262.133 306.386 257.566 309.218 249.194C312.049 240.822 307.491 231.758 299.135 228.921C290.778 226.223 281.731 230.72 278.9 239.092Z" fill="#E93249"/>
</g>
</g>
<path d="M249.055 28V14.9H251.035L253.555 21.74H253.715L256.235 14.9H258.215V28H256.335L256.395 19.14H256.315L254.615 23.56H252.655L250.955 19.14H250.875L250.935 28H249.055ZM263.655 28.2C262.029 28.2 260.869 27.64 260.175 26.52C259.482 25.4 259.135 23.6867 259.135 21.38C259.135 19.06 259.489 17.3667 260.195 16.3C260.915 15.2333 262.075 14.7 263.675 14.7C265.289 14.7 266.435 15.2267 267.115 16.28C267.795 17.3333 268.135 19.0467 268.135 21.42C268.135 23.78 267.795 25.5 267.115 26.58C266.435 27.66 265.282 28.2 263.655 28.2ZM263.615 26.32C264.549 26.32 265.182 25.98 265.515 25.3C265.849 24.6067 266.015 23.3 266.015 21.38C266.015 19.46 265.849 18.18 265.515 17.54C265.195 16.9 264.582 16.58 263.675 16.58C262.782 16.58 262.155 16.9267 261.795 17.62C261.435 18.3133 261.255 19.5533 261.255 21.34C261.255 23.1133 261.415 24.3867 261.735 25.16C262.055 25.9333 262.682 26.32 263.615 26.32ZM269.395 28V14.9H272.515C273.569 14.9 274.415 14.9867 275.055 15.16C275.709 15.3333 276.262 15.66 276.715 16.14C277.169 16.62 277.489 17.2867 277.675 18.14C277.862 18.98 277.955 20.18 277.955 21.74C277.955 23.2867 277.762 24.5333 277.375 25.48C277.002 26.4267 276.435 27.0867 275.675 27.46C274.915 27.82 273.849 28 272.475 28H269.395ZM275.035 25.34C275.342 24.9933 275.549 24.52 275.655 23.92C275.775 23.3067 275.835 22.48 275.835 21.44C275.835 20.3867 275.789 19.56 275.695 18.96C275.602 18.36 275.402 17.8867 275.095 17.54C274.802 17.18 274.435 16.9533 273.995 16.86C273.555 16.7533 272.929 16.7 272.115 16.7H271.475V26.2H272.075C272.849 26.2 273.455 26.1467 273.895 26.04C274.349 25.92 274.729 25.6867 275.035 25.34ZM279.835 28V14.9H287.495V16.78H281.915V20.42H286.955V22.22H281.915V26.12H287.555V28H279.835ZM293.595 23.22C292.875 23.26 292.475 23.28 292.395 23.28H291.455V28H289.375V14.9H293.495C294.949 14.9 296.049 15.2267 296.795 15.88C297.542 16.52 297.915 17.5933 297.915 19.1C297.915 20.8333 297.169 22.0533 295.675 22.76C296.595 24.5067 297.369 26.2533 297.995 28H295.755C295.155 26.3867 294.435 24.7933 293.595 23.22ZM293.095 16.74H291.455V21.36H293.115C294.902 21.36 295.795 20.6067 295.795 19.1C295.795 18.26 295.582 17.66 295.155 17.3C294.729 16.9267 294.042 16.74 293.095 16.74ZM298.635 28L301.815 14.9H305.555L308.635 28H306.435L305.815 25.5H301.375L300.795 28H298.635ZM305.375 23.64L303.895 16.76H303.455L301.795 23.64H305.375ZM309.195 16.78V14.9H318.035V16.78H314.655V28H312.575V16.78H309.195ZM319.835 28V14.9H327.495V16.78H321.915V20.42H326.955V22.22H321.915V26.12H327.555V28H319.835Z" fill="white"/>
<path d="M483.883 164.834V151.734H485.983V157.374H490.523V151.734H492.623V164.834H490.523V159.254H485.983V164.834H483.883ZM494.683 164.834V162.974H497.263V153.594H494.683V151.734H501.743V153.594H499.343V162.974H501.743V164.834H494.683ZM508.563 165.014C506.87 165.014 505.63 164.487 504.843 163.434C504.07 162.381 503.683 160.674 503.683 158.314C503.683 155.954 504.083 154.234 504.883 153.154C505.696 152.074 506.963 151.534 508.683 151.534C510.043 151.534 511.27 151.721 512.363 152.094L512.003 153.874C511.07 153.554 509.963 153.394 508.683 153.394C507.63 153.394 506.883 153.774 506.443 154.534C506.016 155.294 505.803 156.521 505.803 158.214C505.803 159.907 506.03 161.147 506.483 161.934C506.95 162.707 507.643 163.094 508.563 163.094C509.216 163.094 509.903 163.007 510.623 162.834V159.734H508.763V157.894H512.623V164.334C511.356 164.787 510.003 165.014 508.563 165.014ZM513.883 164.834V151.734H515.983V157.374H520.523V151.734H522.623V164.834H520.523V159.254H515.983V164.834H513.883Z" fill="#E93249"/>
<path d="M500.551 318.437V305.337H508.211V307.217H502.631V310.857H507.671V312.657H502.631V316.557H508.271V318.437H500.551ZM514.111 313.437L511.991 318.437H509.531L512.751 311.717L509.691 305.337H512.191L514.211 310.137H514.291L516.291 305.337H518.731L515.651 311.717L519.051 318.437H516.511L514.171 313.437H514.111ZM519.911 307.217V305.337H528.751V307.217H525.371V318.437H523.291V307.217H519.911ZM534.311 313.657C533.591 313.697 533.191 313.717 533.111 313.717H532.171V318.437H530.091V305.337H534.211C535.665 305.337 536.765 305.663 537.511 306.317C538.258 306.957 538.631 308.03 538.631 309.537C538.631 311.27 537.885 312.49 536.391 313.197C537.311 314.943 538.085 316.69 538.711 318.437H536.471C535.871 316.823 535.151 315.23 534.311 313.657ZM533.811 307.177H532.171V311.797H533.831C535.618 311.797 536.511 311.043 536.511 309.537C536.511 308.697 536.298 308.097 535.871 307.737C535.445 307.363 534.758 307.177 533.811 307.177ZM540.551 318.437V305.337H548.211V307.217H542.631V310.857H547.671V312.657H542.631V316.557H548.271V318.437H540.551ZM549.771 318.437V305.337H551.751L554.271 312.177H554.431L556.951 305.337H558.931V318.437H557.051L557.111 309.577H557.031L555.331 313.997H553.371L551.671 309.577H551.591L551.651 318.437H549.771ZM560.551 318.437V305.337H568.211V307.217H562.631V310.857H567.671V312.657H562.631V316.557H568.271V318.437H560.551Z" fill="white"/>
<path d="M61.8025 162.954V164.834H54.3825V151.734H56.4625V162.954H61.8025ZM68.0425 165.034C66.4158 165.034 65.2558 164.474 64.5625 163.354C63.8691 162.234 63.5225 160.521 63.5225 158.214C63.5225 155.894 63.8758 154.201 64.5825 153.134C65.3025 152.067 66.4625 151.534 68.0625 151.534C69.6758 151.534 70.8225 152.061 71.5025 153.114C72.1825 154.167 72.5225 155.881 72.5225 158.254C72.5225 160.614 72.1825 162.334 71.5025 163.414C70.8225 164.494 69.6691 165.034 68.0425 165.034ZM68.0025 163.154C68.9358 163.154 69.5691 162.814 69.9025 162.134C70.2358 161.441 70.4025 160.134 70.4025 158.214C70.4025 156.294 70.2358 155.014 69.9025 154.374C69.5825 153.734 68.9691 153.414 68.0625 153.414C67.1691 153.414 66.5425 153.761 66.1825 154.454C65.8225 155.147 65.6425 156.387 65.6425 158.174C65.6425 159.947 65.8025 161.221 66.1225 161.994C66.4425 162.767 67.0691 163.154 68.0025 163.154ZM74.1625 164.834L73.0225 151.734H75.0225L75.9025 162.994H76.0225L77.2625 157.174H79.0425L80.2225 162.994H80.3625L81.0625 151.734H83.0025L82.1025 164.834H79.0625L78.1425 159.674H78.0825L77.1225 164.834H74.1625Z" fill="white"/>
<path d="M3.1 318.437L0.2 305.337H2.4L4.86 316.577H5.28L7.64 305.337H9.78L6.98 318.437H3.1ZM11.2 318.437V305.337H18.86V307.217H13.28V310.857H18.32V312.657H13.28V316.557H18.92V318.437H11.2ZM24.96 313.657C24.24 313.697 23.84 313.717 23.76 313.717H22.82V318.437H20.74V305.337H24.86C26.3133 305.337 27.4133 305.663 28.16 306.317C28.9067 306.957 29.28 308.03 29.28 309.537C29.28 311.27 28.5333 312.49 27.04 313.197C27.96 314.943 28.7333 316.69 29.36 318.437H27.12C26.52 316.823 25.8 315.23 24.96 313.657ZM24.46 307.177H22.82V311.797H24.48C26.2667 311.797 27.16 311.043 27.16 309.537C27.16 308.697 26.9467 308.097 26.52 307.737C26.0933 307.363 25.4067 307.177 24.46 307.177ZM36.04 312.777V318.437H33.96V312.777L30 305.337H32.32L34.92 310.837H35.08L37.68 305.337H40L36.04 312.777ZM58.78 316.557V318.437H51.36V305.337H53.44V316.557H58.78ZM65.02 318.637C63.3933 318.637 62.2333 318.077 61.54 316.957C60.8467 315.837 60.5 314.123 60.5 311.817C60.5 309.497 60.8533 307.803 61.56 306.737C62.28 305.67 63.44 305.137 65.04 305.137C66.6533 305.137 67.8 305.663 68.48 306.717C69.16 307.77 69.5 309.483 69.5 311.857C69.5 314.217 69.16 315.937 68.48 317.017C67.8 318.097 66.6467 318.637 65.02 318.637ZM64.98 316.757C65.9133 316.757 66.5467 316.417 66.88 315.737C67.2133 315.043 67.38 313.737 67.38 311.817C67.38 309.897 67.2133 308.617 66.88 307.977C66.56 307.337 65.9467 307.017 65.04 307.017C64.1467 307.017 63.52 307.363 63.16 308.057C62.8 308.75 62.62 309.99 62.62 311.777C62.62 313.55 62.78 314.823 63.1 315.597C63.42 316.37 64.0467 316.757 64.98 316.757ZM71.14 318.437L70 305.337H72L72.88 316.597H73L74.24 310.777H76.02L77.2 316.597H77.34L78.04 305.337H79.98L79.08 318.437H76.04L75.12 313.277H75.06L74.1 318.437H71.14Z" fill="white"/>
<defs>
<filter id="filter0_d_2002_6113" x="292" y="184.429" width="174.219" height="73.0273" filterUnits="userSpaceOnUse" color-interpolation-filters="sRGB">
<feFlood flood-opacity="0" result="BackgroundImageFix"/>
<feColorMatrix in="SourceAlpha" type="matrix" values="0 0 0 0 0 0 0 0 0 0 0 0 0 0 0 0 0 0 127 0" result="hardAlpha"/>
<feOffset dy="4"/>
<feGaussianBlur stdDeviation="2"/>
<feComposite in2="hardAlpha" operator="out"/>
<feColorMatrix type="matrix" values="0 0 0 0 0.913725 0 0 0 0 0.196078 0 0 0 0 0.286275 0 0 0 0.15 0"/>
<feBlend mode="normal" in2="BackgroundImageFix" result="effect1_dropShadow_2002_6113"/>
<feBlend mode="normal" in="SourceGraphic" in2="effect1_dropShadow_2002_6113" result="shape"/>
</filter>
<filter id="filter1_d_2002_6113" x="267.059" y="221.139" width="54" height="54" filterUnits="userSpaceOnUse" color-interpolation-filters="sRGB">
<feFlood flood-opacity="0" result="BackgroundImageFix"/>
<feColorMatrix in="SourceAlpha" type="matrix" values="0 0 0 0 0 0 0 0 0 0 0 0 0 0 0 0 0 0 127 0" result="hardAlpha"/>
<feOffset dy="4"/>
<feGaussianBlur stdDeviation="5.5"/>
<feComposite in2="hardAlpha" operator="out"/>
<feColorMatrix type="matrix" values="0 0 0 0 0.913725 0 0 0 0 0.196078 0 0 0 0 0.286275 0 0 0 0.15 0"/>
<feBlend mode="normal" in2="BackgroundImageFix" result="effect1_dropShadow_2002_6113"/>
<feBlend mode="normal" in="SourceGraphic" in2="effect1_dropShadow_2002_6113" result="shape"/>
</filter>
<clipPath id="clip0_2002_6113">
<rect width="381.628" height="316.327" fill="white" transform="translate(101.347 55.6729)"/>
</clipPath>
</defs>
</svg>
