<svg width="333" height="139" viewBox="0 0 333 139" fill="none" xmlns="http://www.w3.org/2000/svg">
<g filter="url(#filter0_d_133_51551)">
<path d="M47.5006 63.3036C47.5003 48.2243 59.7243 36 74.8036 36H258.196C273.276 36 285.5 48.2242 285.5 63.3036V63.3036V63.3036C285.5 76.943 274.443 88 260.804 88H72.1964C58.5571 88 47.5003 76.9429 47.5006 63.3036V63.3036V63.3036Z" fill="url(#paint0_linear_133_51551)" fill-opacity="0.1" shape-rendering="crispEdges"/>
<path d="M74.8037 36.5H258.196C272.999 36.5 285 48.5005 285 63.3037C285 76.6669 274.167 87.4999 260.804 87.5H72.1963C58.8332 87.4999 48.0007 76.6668 48.001 63.3037C48.0006 48.5006 60.0006 36.5 74.8037 36.5Z" stroke="url(#paint1_linear_133_51551)" shape-rendering="crispEdges"/>
</g>
<defs>
<filter id="filter0_d_133_51551" x="0.528767" y="-7.84027" width="331.943" height="145.943" filterUnits="userSpaceOnUse" color-interpolation-filters="sRGB">
<feFlood flood-opacity="0" result="BackgroundImageFix"/>
<feColorMatrix in="SourceAlpha" type="matrix" values="0 0 0 0 0 0 0 0 0 0 0 0 0 0 0 0 0 0 127 0" result="hardAlpha"/>
<feOffset dy="3.13145"/>
<feGaussianBlur stdDeviation="23.4859"/>
<feComposite in2="hardAlpha" operator="out"/>
<feColorMatrix type="matrix" values="0 0 0 0 0.0509804 0 0 0 0 0.247059 0 0 0 0 0.180392 0 0 0 0.5 0"/>
<feBlend mode="normal" in2="BackgroundImageFix" result="effect1_dropShadow_133_51551"/>
<feBlend mode="normal" in="SourceGraphic" in2="effect1_dropShadow_133_51551" result="shape"/>
</filter>
<linearGradient id="paint0_linear_133_51551" x1="59.9328" y1="80.5714" x2="285.801" y2="53.357" gradientUnits="userSpaceOnUse">
<stop stop-color="#038B98" stop-opacity="0.63"/>
<stop offset="0.703125" stop-color="#0FFB49" stop-opacity="0.59"/>
</linearGradient>
<linearGradient id="paint1_linear_133_51551" x1="166.5" y1="36" x2="166.5" y2="88" gradientUnits="userSpaceOnUse">
<stop stop-color="#14FF00" stop-opacity="0.55"/>
<stop offset="1" stop-color="#00F0FF" stop-opacity="0.62"/>
</linearGradient>
</defs>
</svg>
