<svg width="239" height="39" viewBox="0 0 239 39" fill="none" xmlns="http://www.w3.org/2000/svg">
<path d="M207.386 6.75278C207.118 6.28726 207.118 5.71272 207.386 5.24721L209.979 0.747215C210.246 0.284683 210.737 0 211.268 0H234.917C235.448 0 235.939 0.284684 236.205 0.747216L238.799 5.24721C239.067 5.71273 239.067 6.28726 238.799 6.75278L236.205 11.2528C235.939 11.7153 235.448 12 234.917 12H211.268C210.737 12 210.246 11.7153 209.979 11.2528L207.386 6.75278Z" fill="white"/>
<path d="M207.385 20.2513C207.118 19.7867 207.118 19.214 207.385 18.7495L209.969 14.2495C210.236 13.7859 210.727 13.5004 211.259 13.5004H222.513C223.045 13.5004 223.536 13.7859 223.802 14.2495L226.387 18.7495C226.654 19.214 226.654 19.7867 226.387 20.2513L223.802 24.7513C223.536 25.2149 223.045 25.5004 222.513 25.5004H211.259C210.727 25.5004 210.236 25.2149 209.969 24.7513L207.385 20.2513Z" fill="white"/>
<path d="M207.388 33.7558C207.117 33.2888 207.117 32.7113 207.388 32.2442L209.995 27.7442C210.262 27.2834 210.752 27 211.282 27H216.523C217.053 27 217.543 27.2834 217.81 27.7442L220.417 32.2442C220.688 32.7113 220.688 33.2888 220.417 33.7558L217.81 38.2558C217.543 38.7166 217.053 39 216.523 39H211.282C210.752 39 210.262 38.7166 209.995 38.2558L207.388 33.7558Z" fill="white"/>
<path fill-rule="evenodd" clip-rule="evenodd" d="M168.803 7.92866H169.982V31.0713H168.803V7.92866Z" fill="white"/>
<path d="M15.0106 15.8375H17.5246V23.3086C17.5246 26.1558 15.694 28.0297 12.8872 28.0297C10.9834 28.0297 9.49452 27.1779 8.76229 25.7665C8.03007 27.1779 6.54121 28.0297 4.63742 28.0297C1.83056 28.0297 0 26.1558 0 23.3086V15.8375H2.51397V23.3816C2.51397 24.9634 3.49027 26.0342 5.00354 26.0342C6.5168 26.0342 7.51751 24.9634 7.51751 23.3816V15.8375H10.0071V23.3816C10.0071 24.9634 11.0078 26.0342 12.521 26.0342C14.0343 26.0342 15.0106 24.9634 15.0106 23.3816V15.8375Z" fill="white"/>
<path d="M29.8262 15.6184C33.5361 15.6184 36.2209 18.2224 36.2209 21.8241C36.2209 25.4258 33.5361 28.0297 29.8262 28.0297C26.1162 28.0297 23.407 25.4258 23.407 21.8241C23.407 18.2224 26.1162 15.6184 29.8262 15.6184ZM29.8017 17.7843C27.5807 17.7843 25.9698 19.4878 25.9698 21.8241C25.9698 24.1846 27.5807 25.8638 29.8017 25.8638C32.0472 25.8638 33.6581 24.1846 33.6581 21.8241C33.6581 19.4878 32.0472 17.7843 29.8017 17.7843Z" fill="white"/>
<path d="M44.6116 27.8107H42.0976V20.4613C42.0976 17.541 44.099 15.8375 47.5649 15.8375V17.9303C45.7099 17.9303 44.6116 18.8794 44.6116 20.6803V27.8107Z" fill="white"/>
<path d="M63.5045 15.8375L57.964 21.5564L63.5045 27.8107H60.5512L55.45 21.9944V27.8107H52.9605V10.9703H55.45V21.1913L60.5512 15.8375H63.5045Z" fill="white"/>
<path d="M79.5656 10.9703H82.0552V27.8107H79.5656V10.9703Z" fill="white"/>
<path d="M100.886 21.8484C100.886 22.0918 100.862 22.3595 100.813 22.6028H90.5621C90.8794 24.5984 92.4415 25.9855 94.5161 25.9855C96.2246 25.9855 97.6891 24.9147 98.1528 23.4789H100.691C100.008 26.1315 97.445 28.0297 94.4917 28.0297C90.7818 28.0297 88.0725 25.4258 88.0725 21.8241C88.0725 18.2224 90.7818 15.6184 94.4917 15.6184C98.2017 15.6184 100.862 18.2224 100.886 21.8484ZM94.5161 17.6626C92.5635 17.6626 91.0747 18.9038 90.6353 20.6803H98.4701C98.0552 18.9038 96.4931 17.6626 94.5161 17.6626Z" fill="white"/>
<path d="M111.352 15.6184C114.086 15.6184 116.039 17.1029 116.039 19.2445H113.695C113.647 18.1737 112.695 17.4436 111.304 17.4436C110.034 17.4436 109.107 18.0764 109.107 18.9768C109.107 20.2179 110.205 20.4126 111.596 20.6803C113.305 20.9967 116.331 21.5077 116.331 24.3793C116.331 26.5452 114.281 28.0297 111.401 28.0297C108.497 28.0297 106.446 26.4965 106.422 24.282H108.863C108.912 25.4258 109.986 26.1802 111.474 26.1802C112.866 26.1802 113.866 25.5231 113.866 24.5253C113.866 23.2842 112.67 23.0895 111.304 22.8462C109.497 22.5785 106.642 22.0431 106.642 19.2201C106.642 17.0543 108.545 15.6184 111.352 15.6184Z" fill="white"/>
<path d="M126.621 15.6184C129.355 15.6184 131.308 17.1029 131.308 19.2445H128.964C128.916 18.1737 127.964 17.4436 126.573 17.4436C125.303 17.4436 124.376 18.0764 124.376 18.9768C124.376 20.2179 125.474 20.4126 126.865 20.6803C128.574 20.9967 131.6 21.5077 131.6 24.3793C131.6 26.5452 129.55 28.0297 126.67 28.0297C123.766 28.0297 121.715 26.4965 121.691 24.282H124.132C124.181 25.4258 125.255 26.1802 126.743 26.1802C128.135 26.1802 129.135 25.5231 129.135 24.5253C129.135 23.2842 127.939 23.0895 126.573 22.8462C124.766 22.5785 121.911 22.0431 121.911 19.2201C121.911 17.0543 123.814 15.6184 126.621 15.6184Z" fill="white"/>
</svg>
