<svg width="18" height="12" viewBox="0 0 18 12" fill="none" xmlns="http://www.w3.org/2000/svg">
<path fill-rule="evenodd" clip-rule="evenodd" d="M1.88015 7.33366H2.87748C3.42829 7.33366 3.87482 7.78137 3.87482 8.33366V10.3337C3.87482 10.8859 3.42829 11.3337 2.87748 11.3337H1.88015C1.32933 11.3337 0.882812 10.8859 0.882812 10.3337V8.33366C0.882812 7.78137 1.32933 7.33366 1.88015 7.33366ZM6.53437 5.33366H7.5317C8.0825 5.33366 8.52902 5.78137 8.52902 6.33366V10.3337C8.52902 10.8859 8.0825 11.3337 7.5317 11.3337H6.53437C5.98357 11.3337 5.53705 10.8859 5.53705 10.3337V6.33366C5.53705 5.78137 5.98357 5.33366 6.53437 5.33366ZM11.1886 3.00033H12.1859C12.7367 3.00033 13.1833 3.44804 13.1833 4.00033V10.3337C13.1833 10.8859 12.7367 11.3337 12.1859 11.3337H11.1886C10.6378 11.3337 10.1913 10.8859 10.1913 10.3337V4.00033C10.1913 3.44804 10.6378 3.00033 11.1886 3.00033ZM15.8428 0.666992H16.8402C17.391 0.666992 17.8375 1.11471 17.8375 1.66699V10.3337C17.8375 10.8859 17.391 11.3337 16.8402 11.3337H15.8428C15.292 11.3337 14.8455 10.8859 14.8455 10.3337V1.66699C14.8455 1.11471 15.292 0.666992 15.8428 0.666992Z" fill="white"/>
</svg>
