<svg width="17" height="12" viewBox="0 0 17 12" fill="none" xmlns="http://www.w3.org/2000/svg">
<path fill-rule="evenodd" clip-rule="evenodd" d="M8.46781 2.60838C10.6778 2.60848 12.8033 3.45992 14.4049 4.98671C14.5255 5.10459 14.7183 5.1031 14.8371 4.98338L15.99 3.81671C16.0502 3.75599 16.0837 3.67374 16.0832 3.58816C16.0827 3.50258 16.0482 3.42073 15.9874 3.36071C11.7835 -0.678832 5.15144 -0.678832 0.947578 3.36071C0.886683 3.42068 0.852131 3.50251 0.851569 3.58809C0.851008 3.67367 0.884483 3.75595 0.944586 3.81671L2.09784 4.98338C2.21655 5.10328 2.40948 5.10477 2.53001 4.98671C4.13188 3.45982 6.25761 2.60838 8.46781 2.60838ZM8.46782 6.40405C9.68206 6.40397 10.853 6.85651 11.753 7.67371C11.8748 7.78969 12.0665 7.78718 12.1852 7.66805L13.3368 6.50138C13.3974 6.44019 13.4311 6.35717 13.4302 6.27091C13.4293 6.18464 13.394 6.10233 13.3321 6.04238C10.5913 3.486 6.34669 3.486 3.60581 6.04238C3.5439 6.10233 3.50858 6.18468 3.50777 6.27097C3.50695 6.35727 3.54072 6.44027 3.60149 6.50138L4.75275 7.66805C4.87142 7.78718 5.06319 7.78969 5.18493 7.67371C6.08439 6.85705 7.25438 6.40455 8.46782 6.40405ZM10.6809 9.18838C10.7425 9.12778 10.7764 9.04437 10.7747 8.95787C10.7729 8.87136 10.7356 8.78942 10.6716 8.73138C9.39942 7.6525 7.5362 7.6525 6.26403 8.73138C6.19998 8.78937 6.16263 8.87129 6.16081 8.95779C6.15898 9.0443 6.19284 9.12773 6.25439 9.18838L8.24674 11.204C8.30513 11.2633 8.38475 11.2966 8.46781 11.2966C8.55088 11.2966 8.6305 11.2633 8.68889 11.204L10.6809 9.18838Z" fill="white"/>
</svg>
