<svg width="65" height="65" viewBox="0 0 65 65" fill="none" xmlns="http://www.w3.org/2000/svg">
<path d="M65 32.5C65 50.4493 50.4493 65 32.5 65C14.5507 65 0 50.4493 0 32.5C0 14.5507 14.5507 0 32.5 0C50.4493 0 65 14.5507 65 32.5Z" fill="white"/>
<path fill-rule="evenodd" clip-rule="evenodd" d="M22.154 17.5993C20.8994 16.8678 20.6468 18.0434 20.596 18.5466C20.5819 18.6863 20.6069 18.824 20.6511 18.9573C20.8961 19.6961 21.7417 22.4089 22.154 25.8189C22.5461 29.0615 21.4649 32.7327 23.0917 35.5696C25.236 39.3093 22.2472 43.6995 24.4191 46.9386C25.5758 48.6636 26.6111 48.7895 30.4536 47.3507C31.164 47.0847 31.8101 46.6253 32.5464 46.4428C34.3061 46.0068 36.8939 46.9026 38.8835 47.4122C39.3678 47.5362 39.8586 47.2704 40.0268 46.7997C41.3384 43.129 42.1571 38.5697 42.4993 36.4086C42.6306 35.5789 42.6253 34.7337 42.5463 33.8974C41.9457 27.536 44.018 31.7403 44.0266 24.5416C44.0296 22.0054 44.6236 21.3525 44.1024 19.0701C44.0562 18.8676 43.9319 18.6822 43.7671 18.5557C39.6028 15.3591 41.7844 19.2099 39.8151 17.4358C39.359 17.025 38.6855 16.9632 38.1376 17.24C36.0707 18.2844 33.7421 18.1364 32.2481 17.4538C31.4753 17.1007 30.6235 16.7797 29.7916 16.9524C27.2104 17.4882 23.7021 18.2376 22.154 17.5993ZM42.1701 19.1129C42.3709 19.4251 42.3626 19.7752 42.1021 21.995C41.9392 23.3848 41.8024 24.5307 41.7983 24.5416C41.7942 24.5525 41.5819 24.6032 41.3264 24.6542C41.0711 24.7053 39.8874 25.2293 38.696 25.8189L37.888 26.2187C36.9948 26.6607 36.0116 26.8907 35.0149 26.8907C34.0176 26.8907 33.033 26.6666 32.1339 26.2351L31.1309 25.7536C27.8144 24.1616 26.3575 23.9839 23.9934 24.8835L23.5689 25.045C23.362 25.1237 23.134 24.997 23.0916 24.7797C23.0471 24.551 22.8895 23.2125 22.7415 21.8054C22.5218 19.7148 22.5097 19.202 22.6757 19.0022C22.8547 18.7863 23.9968 18.7576 32.41 18.7576H41.5191C41.7824 18.7576 42.0276 18.8914 42.1701 19.1129ZM30.5019 27.3999C34.4807 29.3182 35.7561 29.2991 39.724 27.262C40.7153 26.753 41.5467 26.3569 41.5715 26.3819C41.5965 26.4068 41.1585 30.5413 40.5984 35.5696C40.0382 40.5979 39.5799 44.8013 39.5799 44.9102C39.5799 45.0192 39.4683 45.2201 39.3318 45.3567C39.1141 45.5745 38.2657 45.6048 32.4024 45.6048C26.7912 45.6048 25.6911 45.5685 25.5331 45.3782C25.3817 45.1956 23.2415 27.1219 23.3612 27.0363C23.3786 27.024 23.8546 26.8248 24.4191 26.5938C25.2999 26.2333 25.6366 26.1797 26.7907 26.2164C28.1005 26.2579 28.7082 26.2164 30.5019 27.3999Z" fill="#080B16"/>
</svg>
