<svg width="31" height="30" viewBox="0 0 31 30" fill="none" xmlns="http://www.w3.org/2000/svg">
<path d="M1.67871 15.75C1.44424 15.3439 1.41493 14.8554 1.59082 14.4287L1.67871 14.25L8.02344 3.25977C8.29132 2.79578 8.78652 2.50991 9.32227 2.50977H22.0137C22.4822 2.50989 22.9196 2.72847 23.2012 3.09375L23.3125 3.25977L29.6572 14.25C29.8917 14.6561 29.921 15.1446 29.7451 15.5713L29.6572 15.75L23.3125 26.7402C23.0446 27.2042 22.5494 27.4901 22.0137 27.4902H9.32227C8.85369 27.4901 8.41631 27.2715 8.13477 26.9062L8.02344 26.7402L1.67871 15.75Z" stroke="white" stroke-opacity="0.1"/>
<path d="M12.9173 14.6126C12.4511 14.1463 11.8572 13.8287 11.2106 13.7C10.5639 13.5713 9.89366 13.6373 9.28452 13.8895C8.67537 14.1418 8.15472 14.569 7.7884 15.1172C7.42208 15.6654 7.22656 16.3099 7.22656 16.9692C7.22656 17.6286 7.42208 18.2731 7.7884 18.8212C8.15472 19.3694 8.67537 19.7967 9.28452 20.0489C9.89366 20.3012 10.5639 20.3671 11.2106 20.2384C11.8572 20.1097 12.4511 19.7922 12.9173 19.3259M17.2273 16.9692C17.2273 17.8533 17.5785 18.7011 18.2036 19.3263C18.8287 19.9514 19.6766 20.3026 20.5606 20.3026C21.4447 20.3026 22.2925 19.9514 22.9176 19.3263C23.5428 18.7011 23.8939 17.8533 23.8939 16.9692C23.8939 16.0852 23.5428 15.2373 22.9176 14.6122C22.2925 13.9871 21.4447 13.6359 20.5606 13.6359C19.6766 13.6359 18.8287 13.9871 18.2036 14.6122C17.5785 15.2373 17.2273 16.0852 17.2273 16.9692ZM17.2273 16.9692V6.96924" stroke="white" stroke-width="2" stroke-linecap="round" stroke-linejoin="round"/>
</svg>
