<svg width="29" height="30" viewBox="0 0 29 30" fill="none" xmlns="http://www.w3.org/2000/svg">
<path d="M17.526 19.2812V22.1979C17.526 22.5847 17.3724 22.9556 17.0989 23.2291C16.8254 23.5026 16.4545 23.6562 16.0677 23.6562H5.85938L1.48438 28.0312V13.4479C1.48438 13.0611 1.63802 12.6902 1.91151 12.4167C2.185 12.1432 2.55593 11.9896 2.94271 11.9896H5.85938M27.7344 17.8229L23.3594 13.4479H13.151C12.7643 13.4479 12.3933 13.2943 12.1198 13.0208C11.8464 12.7473 11.6927 12.3764 11.6927 11.9896V3.23958C11.6927 2.85281 11.8464 2.48188 12.1198 2.20839C12.3933 1.9349 12.7643 1.78125 13.151 1.78125H26.276C26.6628 1.78125 27.0337 1.9349 27.3072 2.20839C27.5807 2.48188 27.7344 2.85281 27.7344 3.23958V17.8229Z" stroke="white" stroke-width="2.5" stroke-linecap="round" stroke-linejoin="round"/>
</svg>
