<svg width="29" height="26" viewBox="0 0 29 26" fill="none" xmlns="http://www.w3.org/2000/svg">
<path d="M2.10742 4.15625C2.10742 3.49321 2.37081 2.85732 2.83965 2.38848C3.3085 1.91964 3.94438 1.65625 4.60742 1.65625H12.1074V24.1562H4.60742C3.94438 24.1562 3.3085 23.8929 2.83965 23.424C2.37081 22.9552 2.10742 22.3193 2.10742 21.6562V4.15625ZM17.1074 1.65625H24.6074C25.2705 1.65625 25.9063 1.91964 26.3752 2.38848C26.844 2.85732 27.1074 3.49321 27.1074 4.15625V10.4062H17.1074V1.65625ZM17.1074 15.4062H27.1074V21.6562C27.1074 22.3193 26.844 22.9552 26.3752 23.424C25.9063 23.8929 25.2705 24.1562 24.6074 24.1562H17.1074V15.4062Z" stroke="white" stroke-width="2.5" stroke-linecap="round" stroke-linejoin="round"/>
</svg>
