<svg width="31" height="30" viewBox="0 0 31 30" fill="none" xmlns="http://www.w3.org/2000/svg">
<path d="M1.90137 16.1504C1.66689 15.7443 1.63759 15.2558 1.81348 14.8291L1.90137 14.6504L8.24609 3.66016C8.51398 3.19617 9.00918 2.9103 9.54492 2.91016H22.2363C22.7049 2.91028 23.1423 3.12887 23.4238 3.49414L23.5352 3.66016L29.8799 14.6504C30.1144 15.0565 30.1437 15.545 29.9678 15.9717L29.8799 16.1504L23.5352 27.1406C23.2673 27.6046 22.7721 27.8905 22.2363 27.8906H9.54492C9.07634 27.8905 8.63897 27.6719 8.35742 27.3066L8.24609 27.1406L1.90137 16.1504Z" stroke="white" stroke-opacity="0.1"/>
<path d="M18.514 19.1504C18.514 19.9004 19.639 21.4004 20.014 21.4004C21.139 21.4004 22.1387 20.1501 22.639 19.1504C23.1392 17.9001 23.014 14.7756 21.514 10.5254C20.4212 9.76414 19.264 9.52039 18.139 9.40039L17.41 10.8426C16.4042 10.669 15.3761 10.669 14.3703 10.8426L13.639 9.40039C12.514 9.52039 11.3568 9.76414 10.264 10.5254C8.764 14.7756 8.63875 17.9001 9.139 19.1504C9.63925 20.1501 10.639 21.4004 11.764 21.4004C12.139 21.4004 13.264 19.9004 13.264 19.1504M12.139 18.7754C14.764 19.5254 17.014 19.5254 19.639 18.7754M12.889 15.4004C12.889 15.5993 12.9681 15.7901 13.1087 15.9307C13.2494 16.0714 13.4401 16.1504 13.639 16.1504C13.838 16.1504 14.0287 16.0714 14.1694 15.9307C14.31 15.7901 14.389 15.5993 14.389 15.4004C14.389 15.2015 14.31 15.0107 14.1694 14.8701C14.0287 14.7294 13.838 14.6504 13.639 14.6504C13.4401 14.6504 13.2494 14.7294 13.1087 14.8701C12.9681 15.0107 12.889 15.2015 12.889 15.4004ZM17.389 15.4004C17.389 15.5993 17.4681 15.7901 17.6087 15.9307C17.7494 16.0714 17.9401 16.1504 18.139 16.1504C18.338 16.1504 18.5287 16.0714 18.6694 15.9307C18.81 15.7901 18.889 15.5993 18.889 15.4004C18.889 15.2015 18.81 15.0107 18.6694 14.8701C18.5287 14.7294 18.338 14.6504 18.139 14.6504C17.9401 14.6504 17.7494 14.7294 17.6087 14.8701C17.4681 15.0107 17.389 15.2015 17.389 15.4004Z" stroke="white" stroke-linecap="round" stroke-linejoin="round"/>
</svg>
