<svg width="193" height="38" viewBox="0 0 193 38" fill="none" xmlns="http://www.w3.org/2000/svg">
<path d="M155.208 23.4089C156.933 23.4089 158.207 24.5557 158.207 26.2315C158.207 27.9073 156.933 29.0541 155.208 29.0541C153.483 29.0541 152.209 27.9073 152.209 26.2315C152.209 24.5557 153.441 23.4089 155.208 23.4089Z" fill="#E93249"/>
<path d="M16.8243 0.740151C15.2186 0.740151 14.1523 1.72191 14.1523 3.19456C14.1523 4.66721 15.2186 5.64897 16.8243 5.64897C18.43 5.64897 19.4919 4.62489 19.4919 3.19456C19.4919 1.76423 18.3832 0.740151 16.8243 0.740151ZM23.7908 16.4145V28.7712H28.0217V16.7827C28.0217 13.7528 29.8695 12.1574 32.9917 12.1574V8.63658C27.1594 8.63658 23.7908 11.5015 23.7908 16.4145ZM55.9686 18.7462C55.9261 12.6483 51.4488 8.26842 45.2044 8.26842C38.96 8.26842 34.3978 12.6483 34.3978 18.7039C34.3978 24.7595 38.96 29.1394 45.2044 29.1394C50.1744 29.1394 54.4903 25.9486 55.6372 21.4884H51.3681C50.5865 23.9005 48.1227 25.7032 45.2469 25.7032C41.7551 25.7032 39.1257 23.3715 38.5904 20.0157H55.8454C55.9261 19.6053 55.9686 19.1567 55.9686 18.7462ZM38.7136 16.7827C39.4528 13.7951 41.959 11.7088 45.2469 11.7088C48.5347 11.7088 51.2024 13.7951 51.8991 16.7827H38.7136ZM67.8329 16.7827C65.4881 16.3299 63.6402 16.004 63.6402 13.9178C63.6402 12.4028 65.2035 11.3364 67.3402 11.3364C69.6807 11.3364 71.2822 12.5679 71.3629 14.3664H75.3049C75.3049 10.7651 72.0213 8.26842 67.4209 8.26842C62.8204 8.26842 59.4901 10.6847 59.4901 14.3283C59.4901 19.0721 64.2987 19.9734 67.3402 20.4262C69.6383 20.8325 71.6518 21.1625 71.6518 23.2488C71.6518 24.9246 69.9654 26.029 67.6248 26.029C65.1185 26.029 63.3131 24.7595 63.2324 22.8383H59.1205C59.163 26.5622 62.6165 29.1394 67.5016 29.1394C72.3866 29.1394 75.8019 26.6426 75.8019 23.0033C75.8019 18.1749 70.7087 17.3159 67.8329 16.7827ZM82.1355 0.740151C80.5341 0.740151 79.4636 1.72191 79.4636 3.19456C79.4636 4.66721 80.5341 5.64897 82.1355 5.64897C83.737 5.64897 84.8075 4.62489 84.8075 3.19456C84.8075 1.76423 83.6945 0.740151 82.1355 0.740151ZM80.0413 8.63658V28.7712H84.2298V8.63658H80.0413ZM98.8765 8.26842C92.6321 8.26842 88.1548 12.4832 88.1548 18.2976C88.1548 24.1121 92.305 28.2803 98.1373 28.2803C101.136 28.2803 103.723 27.0531 105.41 25.1319V27.709C105.41 31.3102 102.78 33.9678 99.1653 33.9678C96.2088 33.9678 93.6601 31.9619 93.1673 29.2621L89.2635 29.2198C89.8794 33.9255 94.1103 37.3236 99.3267 37.3236C105.287 37.3236 109.598 33.1891 109.598 27.4636V18.2976C109.598 12.4832 105.121 8.26842 98.8765 8.26842ZM98.919 25.005C95.1808 25.005 92.4707 22.1824 92.4707 18.2553C92.4707 14.3283 95.1808 11.5438 98.919 11.5438C102.657 11.5438 105.41 14.3664 105.41 18.2553C105.41 22.1443 102.7 25.005 98.919 25.005ZM125.099 8.26842C122.304 8.26842 120.048 9.49562 118.731 11.6665V0.452393H114.538V28.7712H118.731V16.9858C118.731 13.7528 120.745 11.6242 123.867 11.6242C126.989 11.6242 128.879 13.7528 128.879 16.9858V28.7712H133.11V16.4145C133.11 11.5438 129.742 8.26842 125.099 8.26842ZM144.21 8.63658V3.44H139.979V8.63658H136.241V12.1574H139.979V28.7712H144.21V12.1574H148.768V8.63658H144.21ZM173.091 8.26842C166.847 8.26842 162.374 12.6483 162.374 18.7039C162.374 24.7595 166.52 29.1394 172.187 29.1394C175.271 29.1394 177.981 27.9122 179.625 25.991V28.7712H183.813V18.7039C183.813 12.6483 179.336 8.26842 173.091 8.26842ZM173.134 25.5001C169.396 25.5001 166.686 22.6733 166.686 18.7039C166.686 14.7345 169.396 11.9119 173.134 11.9119C176.872 11.9119 179.625 14.7768 179.625 18.7039C179.625 22.6309 176.914 25.5001 173.134 25.5001ZM190.329 0.740151C188.728 0.740151 187.662 1.72191 187.662 3.19456C187.662 4.66721 188.728 5.64897 190.329 5.64897C191.931 5.64897 193.001 4.62489 193.001 3.19456C193.001 1.76423 191.892 0.740151 190.329 0.740151ZM188.235 8.63658V28.7712H192.423V8.63658H188.235Z" fill="white"/>
<path d="M18.9196 8.63721V28.7718H14.7269V12.158H14.7227V8.63721H18.9196Z" fill="white"/>
<path d="M12.038 0.478513C11.4391 0.165364 10.4408 0.0849609 9.78666 0.0849609C5.92533 0.0849609 3.21093 2.49705 3.21093 5.93746V8.63731H0.296875V12.1581H3.21093V28.7719H7.40359V12.1581H12.0635V8.63731H7.40359V5.93746C7.40359 4.54522 8.42733 3.64385 9.82489 3.64385C10.4706 3.64385 11.3626 3.81736 12.038 4.25746V0.478513Z" fill="white"/>
</svg>
