<svg width="29" height="29" viewBox="0 0 29 29" fill="none" xmlns="http://www.w3.org/2000/svg">
<path d="M24.5567 18.304C23.58 18.3034 22.631 18.6281 21.8592 19.2266L18.6672 16.7404C18.9082 16.188 19.0323 15.5918 19.0319 14.9891C19.0319 14.8869 19.0319 14.7846 19.0208 14.6838L20.8482 14.0747C21.4263 14.9663 22.3063 15.6198 23.327 15.9155C24.3476 16.2111 25.4407 16.1292 26.4059 15.6846C27.371 15.24 28.1437 14.4626 28.5824 13.4947C29.0211 12.5268 29.0963 11.4333 28.7944 10.4144C28.4925 9.39557 27.8336 8.51958 26.9385 7.94694C26.0433 7.37429 24.9718 7.14332 23.9203 7.29633C22.8687 7.44934 21.9075 7.97609 21.2126 8.7801C20.5178 9.5841 20.1359 10.6115 20.1368 11.6742C20.1368 11.7764 20.1368 11.8786 20.1479 11.9794L18.3205 12.5885C17.92 11.9692 17.3708 11.46 16.723 11.1073C16.0753 10.7546 15.3496 10.5696 14.612 10.5692C14.3681 10.5697 14.1247 10.59 13.8841 10.63L12.9394 8.49739C13.7551 7.84558 14.3138 6.92601 14.5163 5.90165C14.7188 4.8773 14.5522 3.81432 14.0458 2.90111C13.5395 1.98791 12.7262 1.28347 11.7501 0.912632C10.7739 0.541798 9.69805 0.528528 8.71309 0.875173C7.72812 1.22182 6.89769 1.90599 6.36898 2.80643C5.84027 3.70686 5.64742 4.76541 5.82462 5.79445C6.00183 6.82349 6.53763 7.75656 7.33707 8.42829C8.13651 9.10001 9.14795 9.46701 10.1921 9.46423C10.436 9.46373 10.6794 9.4434 10.92 9.40346L11.8648 11.5305C11.0636 12.1646 10.5076 13.0573 10.2917 14.0559C10.0758 15.0546 10.2134 16.0972 10.6811 17.0056L7.13 20.1603C6.23633 19.5578 5.15362 19.302 4.08481 19.4407C3.016 19.5794 2.03446 20.1032 1.32419 20.9138C0.613911 21.7244 0.223659 22.7663 0.226579 23.844C0.229499 24.9218 0.625391 25.9615 1.34005 26.7683C2.05471 27.575 3.03906 28.0935 4.10861 28.2264C5.17816 28.3593 6.25947 28.0976 7.14986 27.4903C8.04025 26.883 8.67858 25.9718 8.94522 24.9275C9.21185 23.8833 9.08848 22.7776 8.59822 21.8178L12.1493 18.6631C12.9182 19.1808 13.8307 19.4429 14.7571 19.4121C15.6835 19.3814 16.5766 19.0593 17.3095 18.4918L20.5015 20.978C20.2612 21.5287 20.1371 22.123 20.1368 22.7238C20.1368 23.598 20.3961 24.4525 20.8817 25.1794C21.3674 25.9062 22.0577 26.4727 22.8653 26.8073C23.6729 27.1418 24.5616 27.2293 25.419 27.0588C26.2763 26.8882 27.0639 26.4673 27.682 25.8492C28.3001 25.231 28.7211 24.4435 28.8916 23.5861C29.0622 22.7287 28.9746 21.8401 28.6401 21.0324C28.3056 20.2248 27.7391 19.5345 27.0122 19.0489C26.2854 18.5632 25.4309 18.304 24.5567 18.304ZM24.5567 9.46423C24.9938 9.46423 25.421 9.59384 25.7845 9.83667C26.1479 10.0795 26.4311 10.4246 26.5984 10.8285C26.7657 11.2323 26.8094 11.6766 26.7242 12.1053C26.6389 12.534 26.4284 12.9278 26.1194 13.2368C25.8103 13.5459 25.4165 13.7564 24.9878 13.8416C24.5591 13.9269 24.1148 13.8831 23.711 13.7159C23.3072 13.5486 22.962 13.2654 22.7192 12.9019C22.4764 12.5385 22.3468 12.1112 22.3468 11.6742C22.3468 11.0881 22.5796 10.526 22.994 10.1115C23.4085 9.69706 23.9706 9.46423 24.5567 9.46423ZM7.9822 5.04436C7.9822 4.60728 8.11181 4.18001 8.35464 3.81659C8.59748 3.45317 8.94262 3.16992 9.34643 3.00265C9.75024 2.83539 10.1946 2.79162 10.6233 2.87689C11.052 2.96216 11.4457 3.17264 11.7548 3.4817C12.0639 3.79077 12.2743 4.18454 12.3596 4.61323C12.4449 5.04191 12.4011 5.48626 12.2338 5.89007C12.0666 6.29388 11.7833 6.63903 11.4199 6.88186C11.0565 7.12469 10.6292 7.2543 10.1921 7.2543C9.60602 7.2543 9.04392 7.02147 8.62948 6.60702C8.21504 6.19258 7.9822 5.63048 7.9822 5.04436ZM4.66731 26.0387C4.23022 26.0387 3.80295 25.9091 3.43953 25.6663C3.07611 25.4235 2.79286 25.0783 2.62559 24.6745C2.45833 24.2707 2.41457 23.8264 2.49984 23.3977C2.58511 22.969 2.79558 22.5752 3.10465 22.2661C3.41371 21.9571 3.80748 21.7466 4.23617 21.6613C4.66485 21.5761 5.1092 21.6198 5.51301 21.7871C5.91682 21.9544 6.26197 22.2376 6.5048 22.601C6.74763 22.9645 6.87724 23.3917 6.87724 23.8288C6.87724 24.4149 6.64441 24.977 6.22996 25.3915C5.81552 25.8059 5.25342 26.0387 4.66731 26.0387ZM12.4021 14.9891C12.4021 14.552 12.5317 14.1247 12.7745 13.7613C13.0173 13.3979 13.3625 13.1146 13.7663 12.9474C14.1701 12.7801 14.6145 12.7363 15.0431 12.8216C15.4718 12.9069 15.8656 13.1173 16.1747 13.4264C16.4837 13.7355 16.6942 14.1292 16.7795 14.5579C16.8647 14.9866 16.821 15.431 16.6537 15.8348C16.4864 16.2386 16.2032 16.5837 15.8398 16.8266C15.4764 17.0694 15.0491 17.199 14.612 17.199C14.0259 17.199 13.4638 16.9662 13.0493 16.5517C12.6349 16.1373 12.4021 15.5752 12.4021 14.9891ZM24.5567 24.9338C24.1196 24.9338 23.6923 24.8042 23.3289 24.5613C22.9655 24.3185 22.6822 23.9734 22.515 23.5695C22.3477 23.1657 22.304 22.7214 22.3892 22.2927C22.4745 21.864 22.685 21.4702 22.994 21.1612C23.3031 20.8521 23.6969 20.6416 24.1256 20.5564C24.5542 20.4711 24.9986 20.5149 25.4024 20.6821C25.8062 20.8494 26.1514 21.1326 26.3942 21.4961C26.637 21.8595 26.7666 22.2868 26.7666 22.7238C26.7666 23.3099 26.5338 23.8721 26.1194 24.2865C25.7049 24.7009 25.1428 24.9338 24.5567 24.9338Z" fill="white"/>
</svg>
