<svg width="16" height="16" viewBox="0 0 16 16" fill="none" xmlns="http://www.w3.org/2000/svg">
<path d="M13.8977 4.88488C14.1969 4.5848 13.8175 3.71827 13.0486 2.94949C12.2889 2.1896 11.4365 1.81183 11.1266 2.09272L11.1206 2.08693L6.86194 5.91261C6.07459 5.22621 4.88396 5.24963 4.13394 5.99926C4.00772 6.12572 3.93657 6.29709 3.93657 6.47587C3.93657 6.65467 4.00769 6.82609 4.13394 6.95233L6.06593 8.88456L2.09566 13.367C1.96945 13.5092 1.96666 13.7264 2.09602 13.8722C2.23549 14.0292 2.47594 14.0436 2.6333 13.9039L7.10915 9.92825L7.30135 10.1202L8.29669 11.1158L9.04038 11.8595C9.16663 11.9857 9.33797 12.0566 9.51656 12.0566C9.69498 12.0566 9.86644 11.9856 9.99262 11.8591C10.7418 11.1094 10.7654 9.9181 10.0794 9.1307L13.8842 4.89285C13.8881 4.88947 13.8942 4.88871 13.8977 4.88488Z" fill="url(#paint0_linear_133_51556)"/>
<defs>
<linearGradient id="paint0_linear_133_51556" x1="8" y1="2" x2="8" y2="14" gradientUnits="userSpaceOnUse">
<stop stop-color="#14FF00" stop-opacity="0.55"/>
<stop offset="1" stop-color="#00F0FF" stop-opacity="0.62"/>
</linearGradient>
</defs>
</svg>
