<svg width="31" height="30" viewBox="0 0 31 30" fill="none" xmlns="http://www.w3.org/2000/svg">
<path d="M27.9375 7.78809V22.2109L15.4473 29.4229L2.95703 22.2109V7.78809L15.4473 0.576172L27.9375 7.78809Z" stroke="white" stroke-opacity="0.37"/>
<path fill-rule="evenodd" clip-rule="evenodd" d="M15.3101 8.25195C13.4768 8.25195 13.2473 8.2596 12.5273 8.29245C11.8086 8.3253 11.3177 8.4396 10.8884 8.60655C10.4384 8.77575 10.0302 9.04125 9.69271 9.38505C9.34946 9.72216 9.08379 10.13 8.91421 10.5803C8.74816 11.0096 8.63341 11.501 8.60056 12.2196C8.56816 12.9392 8.56006 13.1682 8.56006 15.002C8.56006 16.8357 8.56771 17.0648 8.60056 17.7848C8.63341 18.5034 8.74771 18.9944 8.91466 19.4237C9.08386 19.8737 9.34936 20.2818 9.69316 20.6193C10.0303 20.9625 10.4381 21.2282 10.8884 21.3978C11.3177 21.5643 11.8086 21.6786 12.5273 21.7115C13.2473 21.7443 13.4768 21.752 15.3101 21.752C17.1434 21.752 17.3729 21.7443 18.0929 21.7115C18.8115 21.6786 19.3025 21.5643 19.7318 21.3974C20.1818 21.2282 20.5899 20.9627 20.9274 20.6189C21.2707 20.2817 21.5363 19.8739 21.7059 19.4237C21.8724 18.9944 21.9867 18.5034 22.0196 17.7848C22.0524 17.0648 22.0601 16.8353 22.0601 15.002C22.0601 13.1687 22.0524 12.9392 22.0196 12.2192C21.9867 11.5005 21.8724 11.0096 21.7055 10.5803C21.536 10.1298 21.2703 9.7218 20.927 9.3846C20.5898 9.04135 20.182 8.77569 19.7318 8.6061C19.3025 8.44005 18.8111 8.3253 18.0924 8.29245C17.3729 8.26005 17.1438 8.25195 15.3101 8.25195ZM15.3101 9.4683C17.1123 9.4683 17.3261 9.47505 18.038 9.50745C18.6959 9.5376 19.0532 9.64695 19.2912 9.7401C19.6062 9.86205 19.8312 10.0088 20.0675 10.2446C20.3037 10.4808 20.45 10.7058 20.5719 11.0208C20.6646 11.2589 20.7744 11.6162 20.8046 12.2741C20.837 12.986 20.8437 13.1997 20.8437 15.002C20.8437 16.8042 20.837 17.018 20.8046 17.7299C20.7744 18.3878 20.6651 18.7451 20.5719 18.9831C20.4639 19.2763 20.2915 19.5416 20.0675 19.7594C19.8497 19.9834 19.5844 20.1558 19.2912 20.2638C19.0532 20.3565 18.6959 20.4663 18.038 20.4965C17.3261 20.5289 17.1128 20.5356 15.3101 20.5356C13.5074 20.5356 13.2941 20.5289 12.5822 20.4965C11.9243 20.4663 11.567 20.357 11.3289 20.2638C11.0357 20.1558 10.7705 19.9834 10.5527 19.7594C10.3286 19.5415 10.1563 19.2763 10.0482 18.9831C9.95551 18.7451 9.84571 18.3878 9.81556 17.7299C9.78316 17.018 9.77641 16.8042 9.77641 15.002C9.77641 13.1997 9.78316 12.986 9.81556 12.2741C9.84571 11.6162 9.95506 11.2589 10.0482 11.0208C10.1702 10.7058 10.3169 10.4808 10.5527 10.2446C10.7704 10.0205 11.0357 9.84809 11.3289 9.7401C11.567 9.6474 11.9243 9.5376 12.5822 9.50745C13.2941 9.47505 13.5078 9.4683 15.3101 9.4683Z" fill="white"/>
<path fill-rule="evenodd" clip-rule="evenodd" d="M15.3101 17.2543C15.0143 17.2543 14.7214 17.196 14.4482 17.0828C14.1749 16.9697 13.9266 16.8038 13.7175 16.5946C13.5084 16.3855 13.3425 16.1372 13.2293 15.8639C13.1161 15.5907 13.0578 15.2978 13.0578 15.002C13.0578 14.7063 13.1161 14.4134 13.2293 14.1401C13.3425 13.8669 13.5084 13.6186 13.7175 13.4095C13.9266 13.2003 14.1749 13.0344 14.4482 12.9212C14.7214 12.808 15.0143 12.7498 15.3101 12.7498C15.9074 12.7498 16.4803 12.9871 16.9027 13.4095C17.325 13.8318 17.5623 14.4047 17.5623 15.002C17.5623 15.5994 17.325 16.1722 16.9027 16.5946C16.4803 17.017 15.9074 17.2543 15.3101 17.2543ZM15.3101 11.5325C14.3899 11.5325 13.5074 11.8981 12.8568 12.5487C12.2061 13.1994 11.8406 14.0819 11.8406 15.002C11.8406 15.9222 12.2061 16.8047 12.8568 17.4553C13.5074 18.106 14.3899 18.4715 15.3101 18.4715C16.2302 18.4715 17.1127 18.106 17.7634 17.4553C18.414 16.8047 18.7796 15.9222 18.7796 15.002C18.7796 14.0819 18.414 13.1994 17.7634 12.5487C17.1127 11.8981 16.2302 11.5325 15.3101 11.5325ZM19.7889 11.4695C19.7889 11.687 19.7025 11.8957 19.5487 12.0495C19.3949 12.2033 19.1863 12.2897 18.9688 12.2897C18.7513 12.2897 18.5427 12.2033 18.3889 12.0495C18.2351 11.8957 18.1487 11.687 18.1487 11.4695C18.1487 11.252 18.2351 11.0434 18.3889 10.8896C18.5427 10.7358 18.7513 10.6494 18.9688 10.6494C19.1863 10.6494 19.3949 10.7358 19.5487 10.8896C19.7025 11.0434 19.7889 11.252 19.7889 11.4695Z" fill="white"/>
</svg>
