<svg width="31" height="30" viewBox="0 0 31 30" fill="none" xmlns="http://www.w3.org/2000/svg">
<path d="M2.12695 15.7544C1.88971 15.3465 1.85926 14.8542 2.03711 14.4253L2.12695 14.2456L8.46289 3.35205C8.73147 2.89032 9.2256 2.60596 9.75977 2.60596H22.459C22.9263 2.60596 23.3628 2.82345 23.6445 3.18701L23.7559 3.35205L30.0918 14.2456C30.3291 14.6536 30.3597 15.1457 30.1816 15.5747L30.0918 15.7544L23.7559 26.6479C23.4873 27.1096 22.9931 27.3931 22.459 27.3931H9.75977C9.29232 27.3931 8.85597 27.1758 8.57422 26.812L8.46289 26.6479L2.12695 15.7544Z" stroke="white" stroke-opacity="0.1"/>
<path d="M13.623 14.25V18M13.623 12V12.0075M16.623 18V14.25M19.623 18V15.75C19.623 15.3522 19.465 14.9706 19.1837 14.6893C18.9024 14.408 18.5209 14.25 18.123 14.25C17.7252 14.25 17.3437 14.408 17.0624 14.6893C16.7811 14.9706 16.623 15.3522 16.623 15.75M10.623 10.5C10.623 10.1022 10.7811 9.72064 11.0624 9.43934C11.3437 9.15804 11.7252 9 12.123 9H21.123C21.5209 9 21.9024 9.15804 22.1837 9.43934C22.465 9.72064 22.623 10.1022 22.623 10.5V19.5C22.623 19.8978 22.465 20.2794 22.1837 20.5607C21.9024 20.842 21.5209 21 21.123 21H12.123C11.7252 21 11.3437 20.842 11.0624 20.5607C10.7811 20.2794 10.623 19.8978 10.623 19.5V10.5Z" stroke="white" stroke-linecap="round" stroke-linejoin="round"/>
</svg>
