<svg width="31" height="31" viewBox="0 0 31 31" fill="none" xmlns="http://www.w3.org/2000/svg">
<path d="M27.7129 8.18848V22.6113L15.2227 29.8232L2.73242 22.6113V8.18848L15.2227 0.976562L27.7129 8.18848Z" stroke="white" stroke-opacity="0.37"/>
<path d="M12.2227 13.1504H12.9727M12.9727 13.1504L15.2227 15.4004L17.4727 13.1504M12.9727 13.1504V17.6504M17.4727 13.1504H18.2227M17.4727 13.1504V17.6504M12.2227 17.6504H13.7227M16.7227 17.6504H18.2227M9.22266 10.9004C9.22266 10.5026 9.38069 10.121 9.662 9.83973C9.9433 9.55843 10.3248 9.40039 10.7227 9.40039H19.7227C20.1205 9.40039 20.502 9.55843 20.7833 9.83973C21.0646 10.121 21.2227 10.5026 21.2227 10.9004V19.9004C21.2227 20.2982 21.0646 20.6797 20.7833 20.9611C20.502 21.2424 20.1205 21.4004 19.7227 21.4004H10.7227C10.3248 21.4004 9.9433 21.2424 9.662 20.9611C9.38069 20.6797 9.22266 20.2982 9.22266 19.9004V10.9004Z" stroke="white" stroke-linecap="round" stroke-linejoin="round"/>
</svg>
