<svg width="26" height="26" viewBox="0 0 26 26" fill="none" xmlns="http://www.w3.org/2000/svg">
<path d="M3.85938 14.1562V4.15625C3.85938 3.49321 4.12277 2.85732 4.59161 2.38848C5.06045 1.91964 5.69633 1.65625 6.35938 1.65625H21.3594C22.0224 1.65625 22.6583 1.91964 23.1271 2.38848C23.596 2.85732 23.8594 3.49321 23.8594 4.15625V20.4062C23.8594 21.6562 23.1094 24.1562 20.1094 24.1562M20.1094 24.1562H5.10938C3.85938 24.1562 1.35938 23.4063 1.35938 20.4062V17.9062H16.3594V20.4062C16.3594 23.4063 18.8594 24.1562 20.1094 24.1562ZM8.85938 6.65625H18.8594M8.85938 11.6562H13.8594" stroke="white" stroke-width="2.5" stroke-linecap="round" stroke-linejoin="round"/>
</svg>
