<svg width="47" height="41" viewBox="0 0 47 41" fill="none" xmlns="http://www.w3.org/2000/svg">
<path d="M23.7666 0.706541C22.9793 0.267368 22.0207 0.267367 21.2334 0.706541L2.0722 11.3951C0.293976 12.387 0.294428 14.9455 2.073 15.9368L5.57489 17.8886C6.39855 18.3477 6.90909 19.2167 6.90909 20.1597V30.7724C6.90909 31.7149 7.41908 32.5835 8.24203 33.0428L21.2329 40.2929C22.0205 40.7324 22.9795 40.7324 23.7671 40.2929L36.758 33.0428C37.5809 32.5835 38.0909 31.7149 38.0909 30.7724V19.9407C38.0909 19.1329 38.5283 18.3885 39.2338 17.9952C40.7184 17.1677 42.5455 18.2411 42.5455 19.9407V29.6616C42.5455 30.8917 43.5426 31.8889 44.7727 31.8889C46.0028 31.8889 47 30.8917 47 29.6616V15.1935C47 14.2509 46.4898 13.3821 45.6666 12.9229L23.7666 0.706541ZM33.6195 11.396C35.3974 12.3878 35.3974 14.9456 33.6195 15.9373L23.7666 21.4335C22.9793 21.8726 22.0207 21.8726 21.2334 21.4335L11.3805 15.9373C9.60264 14.9456 9.60264 12.3878 11.3805 11.396L21.2334 5.89988C22.0207 5.4607 22.9793 5.4607 23.7666 5.89987L33.6195 11.396ZM33.6364 28.0823C33.6364 29.026 33.125 29.8956 32.3004 30.3544L23.764 35.1034C22.9781 35.5407 22.0219 35.5407 21.236 35.1034L12.6996 30.3544C11.875 29.8956 11.3636 29.026 11.3636 28.0823V25.5447C11.3636 23.5597 13.4981 22.3069 15.2312 23.2746L21.2324 26.6255C22.0202 27.0654 22.9798 27.0654 23.7676 26.6255L29.7688 23.2746C31.5019 22.3069 33.6364 23.5597 33.6364 25.5447V28.0823Z" fill="white"/>
</svg>
