<svg width="32" height="26" viewBox="0 0 32 26" fill="none" xmlns="http://www.w3.org/2000/svg">
<path d="M27.2002 10.9383V6.40661C27.2002 5.58389 26.5333 4.91694 25.7106 4.91694H15.7745C15.3794 4.91694 15.0005 4.76 14.7212 4.48063L12.5831 2.34256C12.3037 2.0632 11.9248 1.90625 11.5298 1.90625H3.09904C2.27632 1.90625 1.60938 2.57319 1.60938 3.39591V22.9968C1.60938 23.8195 2.27632 24.4864 3.09904 24.4864H4.85114C5.5549 24.4864 6.12541 23.9159 6.12541 23.2122V23.2122C6.12541 23.0594 6.15289 22.9078 6.20655 22.7647L10.279 11.9049C10.497 11.3235 11.0528 10.9383 11.6738 10.9383H28.1441C29.1609 10.9383 29.8789 11.9345 29.5574 12.8991L26.0344 23.4678C25.8317 24.0761 25.2624 24.4864 24.6212 24.4864H4.62007" stroke="white" stroke-width="2.97933" stroke-linecap="round" stroke-linejoin="round"/>
</svg>
