<svg width="23" height="23" viewBox="0 0 23 23" fill="none" xmlns="http://www.w3.org/2000/svg">
<path d="M1.76562 11.0695C1.76562 5.85043 6.17281 1.61953 11.6094 1.61953C17.0459 1.61953 21.4531 5.85043 21.4531 11.0695V13.3195H18.875C18.6885 13.3195 18.5097 13.3906 18.3778 13.5172C18.246 13.6438 18.1719 13.8155 18.1719 13.9945V21.1945C18.1719 21.5671 18.4869 21.8695 18.875 21.8695H20.0469C20.7928 21.8695 21.5082 21.5851 22.0356 21.0787C22.5631 20.5724 22.8594 19.8856 22.8594 19.1695V11.0695C22.8594 5.10523 17.8222 0.269531 11.6094 0.269531C5.39656 0.269531 0.359375 5.10523 0.359375 11.0695V19.1695C0.359375 19.8856 0.655691 20.5724 1.18314 21.0787C1.71058 21.5851 2.42595 21.8695 3.17188 21.8695H4.34375C4.53023 21.8695 4.70907 21.7984 4.84093 21.6718C4.9728 21.5452 5.04688 21.3736 5.04688 21.1945V13.9945C5.04688 13.8155 4.9728 13.6438 4.84093 13.5172C4.70907 13.3906 4.53023 13.3195 4.34375 13.3195H1.76562V11.0695ZM12.3125 10.8445C12.3125 10.6655 12.2384 10.4938 12.1066 10.3672C11.9747 10.2406 11.7959 10.1695 11.6094 10.1695C11.4229 10.1695 11.2441 10.2406 11.1122 10.3672C10.9803 10.4938 10.9062 10.6655 10.9062 10.8445V22.0945C10.9062 22.2736 10.9803 22.4452 11.1122 22.5718C11.2441 22.6984 11.4229 22.7695 11.6094 22.7695C11.7959 22.7695 11.9747 22.6984 12.1066 22.5718C12.2384 22.4452 12.3125 22.2736 12.3125 22.0945V10.8445ZM8.09375 13.0945C8.28023 13.0945 8.45907 13.1656 8.59093 13.2922C8.7228 13.4188 8.79688 13.5905 8.79688 13.7695V18.4945C8.79688 18.6736 8.7228 18.8452 8.59093 18.9718C8.45907 19.0984 8.28023 19.1695 8.09375 19.1695C7.90727 19.1695 7.72843 19.0984 7.59657 18.9718C7.4647 18.8452 7.39062 18.6736 7.39062 18.4945V13.7695C7.39062 13.5905 7.4647 13.4188 7.59657 13.2922C7.72843 13.1656 7.90727 13.0945 8.09375 13.0945ZM15.8281 13.7695C15.8281 13.5905 15.754 13.4188 15.6222 13.2922C15.4903 13.1656 15.3115 13.0945 15.125 13.0945C14.9385 13.0945 14.7597 13.1656 14.6278 13.2922C14.496 13.4188 14.4219 13.5905 14.4219 13.7695V18.4945C14.4219 18.6736 14.496 18.8452 14.6278 18.9718C14.7597 19.0984 14.9385 19.1695 15.125 19.1695C15.3115 19.1695 15.4903 19.0984 15.6222 18.9718C15.754 18.8452 15.8281 18.6736 15.8281 18.4945V13.7695Z" fill="white"/>
</svg>
