<svg width="54" height="65" viewBox="0 0 54 65" fill="none" xmlns="http://www.w3.org/2000/svg">
<path d="M0.34114 11.2177C-0.113714 10.4444 -0.113713 9.48993 0.341141 8.71661L4.73809 1.24104C5.19003 0.472669 6.02247 -0.000258211 6.923 -0.000258211L47.0194 -0.000258211C47.9199 -0.000258211 48.7524 0.472671 49.2043 1.24104L53.6013 8.71661C54.0561 9.48994 54.0561 10.4444 53.6013 11.2177L49.2043 18.6933C48.7524 19.4616 47.9199 19.9346 47.0194 19.9346L6.923 19.9346C6.02246 19.9346 5.19003 19.4616 4.73809 18.6933L0.34114 11.2177Z" fill="white"/>
<path d="M0.340997 33.7458C-0.113665 32.9741 -0.113666 32.0227 0.340996 31.251L4.74511 23.7754C5.19883 23.0053 6.03642 22.531 6.94275 22.531L26.1179 22.531C27.0242 22.531 27.8618 23.0053 28.3155 23.7754L32.7196 31.251C33.1743 32.0227 33.1743 32.9741 32.7196 33.7458L28.3155 41.2214C27.8618 41.9915 27.0242 42.4658 26.1179 42.4658H6.94275C6.03642 42.4658 5.19883 41.9915 4.74511 41.2214L0.340997 33.7458Z" fill="white"/>
<path d="M0.348266 56.2872C-0.116089 55.5113 -0.116088 54.5519 0.348267 53.776L4.82236 46.3005C5.28053 45.5349 6.12141 45.0642 7.03072 45.0642H16.0247C16.934 45.0642 17.7749 45.5349 18.2331 46.3005L22.7072 53.776C23.1715 54.5519 23.1715 55.5113 22.7072 56.2872L18.2331 63.7627C17.7749 64.5283 16.934 64.999 16.0247 64.999H7.03072C6.12141 64.999 5.28053 64.5283 4.82236 63.7627L0.348266 56.2872Z" fill="white"/>
</svg>
