<svg width="23" height="23" viewBox="0 0 23 23" fill="none" xmlns="http://www.w3.org/2000/svg">
<path fill-rule="evenodd" clip-rule="evenodd" d="M20.8545 11.4502C20.8545 16.5921 16.6664 20.7604 11.5 20.7604C6.33363 20.7604 2.14545 16.5921 2.14545 11.4502C2.14545 6.30833 6.33363 2.14002 11.5 2.14002C16.6664 2.14002 20.8545 6.30833 20.8545 11.4502ZM22 11.4502C22 17.2217 17.299 21.9004 11.5 21.9004C5.70101 21.9004 1 17.2217 1 11.4502C1 5.67871 5.70101 1 11.5 1C17.299 1 22 5.67871 22 11.4502ZM12.4545 16.2953H13.8864V15.1553H12.4545C12.2437 15.1553 12.0727 14.9851 12.0727 14.7753V10.9752C12.0727 10.1357 11.3889 9.45516 10.5455 9.45516H9.11364V10.5952H10.5455C10.7563 10.5952 10.9273 10.7653 10.9273 10.9752V14.7753C10.9273 15.6147 11.6111 16.2953 12.4545 16.2953ZM12.0727 7.65012L12.0727 6.2251L10.9273 6.2251L10.9273 7.65012L12.0727 7.65012Z" fill="#86878D" stroke="#86878D" stroke-width="0.787507"/>
</svg>
