<svg width="31" height="30" viewBox="0 0 31 30" fill="none" xmlns="http://www.w3.org/2000/svg">
<path d="M1.67871 16.1504C1.44424 15.7443 1.41493 15.2558 1.59082 14.8291L1.67871 14.6504L8.02344 3.66016C8.29132 3.19617 8.78652 2.9103 9.32227 2.91016H22.0137C22.4822 2.91028 22.9196 3.12887 23.2012 3.49414L23.3125 3.66016L29.6572 14.6504C29.8917 15.0565 29.921 15.545 29.7451 15.9717L29.6572 16.1504L23.3125 27.1406C23.0446 27.6046 22.5494 27.8905 22.0137 27.8906H9.32227C8.85369 27.8905 8.41631 27.6719 8.13477 27.3066L8.02344 27.1406L1.67871 16.1504Z" stroke="white" stroke-opacity="0.1"/>
<path d="M10.2207 21L15.2967 15.924M17.1417 14.079L22.2207 9M10.2207 9L19.0204 21H22.2207L13.4209 9H10.2207Z" stroke="white" stroke-width="1.5" stroke-linecap="round" stroke-linejoin="round"/>
</svg>
